<svg width="977" height="846" viewBox="0 0 977 846" fill="none" xmlns="http://www.w3.org/2000/svg">
<g opacity="0.5">
<g filter="url(#filter0_f_168_472)">
<path d="M610.221 383.822L543.255 304.683C539.964 300.799 533.347 302.572 532.438 307.581L502.709 472.268C501.492 478.926 503.313 485.722 507.695 490.879L615.786 618.637C619.077 622.521 625.694 620.748 626.602 615.739L645.027 513.72L597.027 457.003L610.221 383.822Z" fill="url(#paint0_linear_168_472)"/>
<path d="M710.487 451.587C700.792 440.093 685.319 434.775 670.106 437.558C668.863 437.755 667.573 438.033 666.364 438.356L655.929 441.153C656.78 444.329 656.931 447.692 656.315 450.989L645.009 513.657L711.975 592.796C715.266 596.679 721.883 594.906 722.791 589.897L741.216 487.878L740.613 487.155L710.487 451.587Z" fill="url(#paint1_linear_168_472)"/>
<path d="M818.999 564.119L848.665 399.449C849.882 392.791 848.061 385.995 843.678 380.838L727.18 243.078L706.427 358.044L706.005 360.54L706.427 358.044L747.552 406.663C751.935 411.82 753.756 418.616 752.539 425.274L741.233 487.941L740.63 487.218L741.233 487.941L808.199 567.081C811.473 570.901 818.091 569.128 818.999 564.119Z" fill="url(#paint2_linear_168_472)"/>
<path d="M656.316 450.99C656.933 447.693 656.782 444.329 655.931 441.153L597.01 456.941L645.01 513.657L655.205 457.279L656.316 450.99Z" fill="#0688AC"/>
<path d="M655.93 441.152C655.079 437.976 653.528 434.987 651.345 432.44L650.156 431.057L610.22 383.821L597.009 456.939L655.93 441.152Z" fill="#032CAB"/>
<path d="M655.929 441.153L666.364 438.357C668.464 437.794 670.466 437.122 672.417 436.259C685.697 430.59 695.361 418.809 697.896 404.855L705.924 360.494L706.346 357.998L688.586 337.022L630.972 268.858L610.22 383.823L651.344 432.442C653.527 434.989 655.078 437.977 655.929 441.153Z" fill="#003EBB"/>
<path d="M706.429 358.044L727.181 243.079L630.974 268.858L688.669 337.069L706.429 358.044Z" fill="#0950DC"/>
<path d="M672.418 436.258C670.466 437.121 668.464 437.794 666.365 438.356C667.637 438.015 668.863 437.755 670.106 437.558C685.272 434.856 700.792 440.092 710.487 451.587L740.549 487.171L741.152 487.895L752.458 425.227C753.675 418.57 751.853 411.773 747.471 406.616L706.346 357.997L705.924 360.493L697.943 404.773C695.425 418.792 685.68 430.525 672.418 436.258Z" fill="#0858D6"/>
</g>
<g filter="url(#filter1_f_168_472)">
<path d="M461.503 250.924L415.424 196.468C413.159 193.796 408.606 195.016 407.981 198.463L387.524 311.783C386.687 316.364 387.94 321.041 390.955 324.589L465.332 412.499C467.597 415.172 472.15 413.952 472.775 410.505L485.453 340.306L452.424 301.28L461.503 250.924Z" fill="url(#paint3_linear_168_472)"/>
<path d="M530.498 297.552C523.826 289.643 513.179 285.984 502.712 287.899C501.856 288.034 500.969 288.225 500.137 288.448L492.957 290.372C493.542 292.557 493.646 294.872 493.222 297.141L485.442 340.262L531.521 394.717C533.786 397.39 538.339 396.17 538.964 392.723L551.642 322.524L551.227 322.026L530.498 297.552Z" fill="url(#paint4_linear_168_472)"/>
<path d="M605.164 374.985L625.577 261.676C626.414 257.095 625.161 252.418 622.145 248.87L541.983 154.078L527.704 233.185L527.413 234.903L527.704 233.185L556.001 266.64C559.017 270.188 560.27 274.865 559.433 279.446L551.654 322.568L551.239 322.07L551.654 322.568L597.732 377.023C599.985 379.652 604.539 378.432 605.164 374.985Z" fill="url(#paint5_linear_168_472)"/>
<path d="M493.22 297.142C493.645 294.873 493.541 292.558 492.955 290.373L452.412 301.236L485.441 340.263L492.456 301.469L493.22 297.142Z" fill="#0688AC"/>
<path d="M492.956 290.373C492.371 288.188 491.304 286.132 489.802 284.379L488.984 283.427L461.504 250.925L452.414 301.237L492.956 290.373Z" fill="#032CAB"/>
<path d="M492.958 290.373L500.138 288.449C501.583 288.062 502.961 287.599 504.303 287.006C513.441 283.105 520.091 274.999 521.835 265.396L527.359 234.872L527.649 233.155L515.429 218.721L475.785 171.817L461.505 250.925L489.803 284.379C491.305 286.132 492.372 288.188 492.958 290.373Z" fill="#003EBB"/>
<path d="M527.704 233.186L541.983 154.079L475.784 171.817L515.484 218.753L527.704 233.186Z" fill="#0950DC"/>
<path d="M504.301 287.005C502.959 287.599 501.581 288.062 500.136 288.449C501.012 288.214 501.856 288.035 502.711 287.9C513.146 286.04 523.826 289.644 530.497 297.553L551.182 322.039L551.597 322.536L559.377 279.415C560.214 274.834 558.961 270.157 555.945 266.609L527.648 233.154L527.357 234.872L521.865 265.341C520.133 274.987 513.427 283.061 504.301 287.005Z" fill="#0858D6"/>
</g>
</g>
<defs>
<filter id="filter0_f_168_472" x="277.417" y="18.1559" width="796.54" height="827.514" filterUnits="userSpaceOnUse" color-interpolation-filters="sRGB">
<feFlood flood-opacity="0" result="BackgroundImageFix"/>
<feBlend mode="normal" in="SourceGraphic" in2="BackgroundImageFix" result="shape"/>
<feGaussianBlur stdDeviation="112.461" result="effect1_foregroundBlur_168_472"/>
</filter>
<filter id="filter1_f_168_472" x="0.349121" y="-232.843" width="1012.4" height="1033.72" filterUnits="userSpaceOnUse" color-interpolation-filters="sRGB">
<feFlood flood-opacity="0" result="BackgroundImageFix"/>
<feBlend mode="normal" in="SourceGraphic" in2="BackgroundImageFix" result="shape"/>
<feGaussianBlur stdDeviation="193.46" result="effect1_foregroundBlur_168_472"/>
</filter>
<linearGradient id="paint0_linear_168_472" x1="847.372" y1="389.835" x2="557.283" y2="467.564" gradientUnits="userSpaceOnUse">
<stop offset="0.1192" stop-color="#3866FB"/>
<stop offset="1" stop-color="#31DC7D"/>
</linearGradient>
<linearGradient id="paint1_linear_168_472" x1="872.694" y1="468.17" x2="577.267" y2="547.329" gradientUnits="userSpaceOnUse">
<stop offset="0.1192" stop-color="#3866FB"/>
<stop offset="1" stop-color="#31DC7D"/>
</linearGradient>
<linearGradient id="paint2_linear_168_472" x1="848.024" y1="385.299" x2="556.27" y2="463.474" gradientUnits="userSpaceOnUse">
<stop offset="0.1192" stop-color="#3866FB"/>
<stop offset="1" stop-color="#31DC7D"/>
</linearGradient>
<linearGradient id="paint3_linear_168_472" x1="624.686" y1="255.061" x2="425.076" y2="308.546" gradientUnits="userSpaceOnUse">
<stop offset="0.1192" stop-color="#3866FB"/>
<stop offset="1" stop-color="#31DC7D"/>
</linearGradient>
<linearGradient id="paint4_linear_168_472" x1="642.112" y1="308.962" x2="438.83" y2="363.432" gradientUnits="userSpaceOnUse">
<stop offset="0.1192" stop-color="#3866FB"/>
<stop offset="1" stop-color="#31DC7D"/>
</linearGradient>
<linearGradient id="paint5_linear_168_472" x1="625.136" y1="251.94" x2="424.381" y2="305.732" gradientUnits="userSpaceOnUse">
<stop offset="0.1192" stop-color="#3866FB"/>
<stop offset="1" stop-color="#31DC7D"/>
</linearGradient>
</defs>
</svg>
