<svg width="2702" height="1669" viewBox="0 0 2702 1669" fill="none" xmlns="http://www.w3.org/2000/svg">
<path opacity="0.0144928" d="M2235.66 1425.26C2245.21 1427.45 2255.07 1423.07 2259.83 1414.49L2451.51 1069.2C2454.32 1064.13 2455.02 1058.15 2453.45 1052.57L2301.8 512.701C2300.57 508.311 2298 504.412 2294.45 501.545L1911.48 191.809C1905.05 186.61 1896.25 185.454 1888.7 188.816L1573.13 329.314C1565.58 332.677 1560.55 339.991 1560.11 348.248L1534.03 840.106L1531.04 839.947L1534.03 840.106C1533.79 844.659 1534.97 849.175 1537.41 853.029L1837.13 1326.97C1840.23 1331.87 1845.14 1335.35 1850.79 1336.65L2235.66 1425.26Z" stroke="url(#paint0_linear_227_578)" stroke-width="6"/>
<path opacity="0.0289855" d="M2176.1 1439.55C2185.5 1442.22 2195.55 1438.37 2200.75 1430.09L2409.28 1098C2412.37 1093.08 2413.39 1087.14 2412.12 1081.48L2290.31 539.342C2289.3 534.879 2286.94 530.84 2283.53 527.787L1919.98 201.732C1913.83 196.219 1905.11 194.612 1897.4 197.571L1576.81 320.634C1569.1 323.594 1563.7 330.62 1562.82 338.83L1510.82 824.402C1510.34 828.949 1511.28 833.536 1513.52 837.523L1785.76 1321.91C1788.6 1326.98 1793.33 1330.71 1798.92 1332.3L2176.1 1439.55Z" stroke="url(#paint1_linear_227_578)" stroke-width="6"/>
<path opacity="0.0434783" d="M2116.51 1451.92C2125.74 1455.06 2135.94 1451.75 2141.56 1443.78L2366.1 1125.72C2369.45 1120.97 2370.79 1115.08 2369.81 1109.35L2277.67 566.577C2276.9 562.054 2274.74 557.884 2271.48 554.651L1928 213.452C1922.15 207.64 1913.54 205.589 1905.69 208.137L1581.03 313.627C1573.19 316.175 1567.43 322.895 1566.11 331.036L1488.78 808.966C1488.05 813.495 1488.75 818.14 1490.78 822.25L1735.27 1315.53C1737.85 1320.74 1742.39 1324.71 1747.9 1326.58L2116.51 1451.92Z" stroke="url(#paint2_linear_227_578)" stroke-width="6"/>
<path opacity="0.057971" d="M2056.99 1462.4C2066.03 1465.99 2076.35 1463.23 2082.38 1455.6L2322.03 1152.31C2325.64 1147.74 2327.29 1141.93 2326.62 1136.14L2263.86 594.337C2263.33 589.765 2261.38 585.475 2258.29 582.07L1935.46 226.924C1929.92 220.83 1921.44 218.34 1913.48 220.471L1585.7 308.3C1577.75 310.432 1571.65 316.827 1569.9 324.875L1467.89 793.856C1466.91 798.353 1467.37 803.043 1469.2 807.267L1685.75 1307.86C1688.06 1313.21 1692.4 1317.42 1697.81 1319.57L2056.99 1462.4Z" stroke="url(#paint3_linear_227_578)" stroke-width="6"/>
<path opacity="0.0724638" d="M1997.65 1471C2006.47 1475.04 2016.89 1472.83 2023.31 1465.55L2277.13 1177.75C2280.99 1173.37 2282.95 1167.64 2282.59 1161.82L2248.87 622.562C2248.58 617.954 2246.85 613.554 2243.92 609.985L1942.25 242.108C1937.04 235.749 1928.71 232.829 1920.67 234.539L1590.72 304.671C1582.68 306.381 1576.26 312.435 1574.08 320.366L1448.12 779.137C1446.9 783.589 1447.11 788.312 1448.72 792.638L1637.25 1298.99C1639.28 1304.46 1643.41 1308.89 1648.71 1311.32L1997.65 1471Z" stroke="url(#paint4_linear_227_578)" stroke-width="6"/>
<path opacity="0.0869565" d="M1938.59 1477.76C1947.17 1482.23 1957.66 1480.56 1964.43 1473.67L2231.48 1201.99C2235.57 1197.82 2237.84 1192.2 2237.79 1186.35L2232.66 651.18C2232.62 646.549 2231.11 642.051 2228.36 638.325L1948.3 258.949C1943.42 252.342 1935.27 249.001 1927.16 250.286L1595.99 302.738C1587.88 304.022 1581.16 309.718 1578.56 317.51L1429.45 764.861C1427.98 769.254 1427.94 773.998 1429.33 778.415L1589.83 1288.98C1591.58 1294.55 1595.48 1299.2 1600.66 1301.9L1938.59 1477.76Z" stroke="url(#paint5_linear_227_578)" stroke-width="6"/>
<path opacity="0.101449" d="M1879.9 1482.7C1888.22 1487.58 1898.74 1486.47 1905.87 1479.97L2185.14 1225C2189.46 1221.05 2192.03 1215.55 2192.29 1209.71L2215.23 680.118C2215.43 675.477 2214.16 670.891 2211.59 667.017L1953.51 277.385C1948.98 270.548 1941.03 266.797 1932.87 267.654L1601.43 302.491C1593.27 303.348 1586.27 308.671 1583.26 316.3L1411.83 751.076C1410.13 755.398 1409.83 760.149 1411 764.647L1543.55 1277.89C1545.01 1283.56 1548.67 1288.4 1553.72 1291.36L1879.9 1482.7Z" stroke="url(#paint6_linear_227_578)" stroke-width="6"/>
<path opacity="0.115942" d="M1821.69 1485.86C1829.73 1491.13 1840.26 1490.58 1847.7 1484.49L2138.19 1246.76C2142.73 1243.05 2145.59 1237.68 2146.16 1231.85L2196.58 709.31C2197.03 704.671 2195.99 700.009 2193.62 695.997L1957.82 297.358C1953.65 290.31 1945.91 286.16 1937.73 286.589L1606.94 303.925C1598.76 304.354 1591.5 309.289 1588.09 316.735L1395.25 737.837C1393.31 742.075 1392.76 746.82 1393.69 751.388L1498.46 1265.8C1499.63 1271.54 1503.04 1276.58 1507.94 1279.79L1821.69 1485.86Z" stroke="url(#paint7_linear_227_578)" stroke-width="6"/>
<path opacity="0.130435" d="M1764.04 1487.29C1771.78 1492.95 1782.29 1492.95 1790.03 1487.29L2090.7 1267.27C2095.44 1263.8 2098.6 1258.59 2099.47 1252.78L2176.69 738.699C2177.38 734.074 2176.59 729.349 2174.41 725.208L1961.13 318.816C1957.32 311.575 1949.82 307.039 1941.65 307.039H1612.42C1604.25 307.039 1596.74 311.575 1592.94 318.816L1379.65 725.208C1377.48 729.349 1376.68 734.074 1377.38 738.699L1454.6 1252.78C1455.47 1258.59 1458.63 1263.8 1463.36 1267.27L1764.04 1487.29Z" stroke="url(#paint8_linear_227_578)" stroke-width="6"/>
<path opacity="0.144928" d="M1707.05 1487.03C1714.46 1493.06 1724.92 1493.61 1732.93 1488.39L2042.74 1286.49C2047.67 1283.28 2051.1 1278.23 2052.28 1272.47L2155.56 768.199C2156.5 763.602 2155.95 758.825 2153.98 754.564L1963.36 341.671C1959.94 334.258 1952.7 329.35 1944.54 328.923L1617.79 311.798C1609.64 311.371 1601.92 315.495 1597.74 322.51L1365.01 713.216C1362.61 717.248 1361.56 721.941 1362.01 726.612L1412.01 1238.91C1412.59 1244.77 1415.47 1250.14 1420.04 1253.85L1707.05 1487.03Z" stroke="url(#paint9_linear_227_578)" stroke-width="6"/>
<path opacity="0.15942" d="M1650.79 1485.14C1657.88 1491.52 1668.26 1492.61 1676.51 1487.85L1994.38 1304.41C1999.48 1301.47 2003.19 1296.6 2004.68 1290.9L2133.19 797.753C2134.38 793.197 2134.07 788.38 2132.32 784.01L1964.47 365.864C1961.44 358.298 1954.47 353.032 1946.36 352.18L1622.96 318.19C1614.85 317.337 1606.94 321.039 1602.39 327.808L1351.28 701.919C1348.66 705.829 1347.35 710.477 1347.57 715.181L1370.74 1224.27C1371.01 1230.16 1373.63 1235.69 1378 1239.62L1650.79 1485.14Z" stroke="url(#paint10_linear_227_578)" stroke-width="6"/>
<path opacity="0.173913" d="M1595.37 1481.69C1602.1 1488.39 1612.37 1490.02 1620.84 1485.72L1945.7 1321.03C1950.96 1318.36 1954.93 1313.7 1956.72 1308.07L2109.6 827.293C2111.03 822.79 2110.97 817.946 2109.44 813.477L1964.39 391.319C1961.74 383.62 1955.06 378.012 1947.02 376.738L1627.84 326.185C1619.8 324.912 1611.72 328.182 1606.82 334.686L1338.41 691.359C1335.57 695.135 1334.02 699.724 1333.99 704.449L1330.82 1208.94C1330.78 1214.84 1333.11 1220.51 1337.29 1224.67L1595.37 1481.69Z" stroke="url(#paint11_linear_227_578)" stroke-width="6"/>
<path opacity="0.188406" d="M1540.84 1476.71C1547.2 1483.72 1557.33 1485.87 1566 1482.05L1896.77 1336.33C1902.17 1333.95 1906.4 1329.5 1908.48 1323.97L2084.78 856.74C2086.45 852.304 2086.65 847.445 2085.34 842.889L1963.04 417.945C1960.79 410.135 1954.42 404.2 1946.47 402.51L1632.35 335.742C1624.4 334.052 1616.17 336.883 1610.94 343.103L1326.37 681.565C1323.32 685.194 1321.52 689.712 1321.25 694.446L1292.26 1192.99C1291.92 1198.89 1293.96 1204.67 1297.94 1209.05L1540.84 1476.71Z" stroke="url(#paint12_linear_227_578)" stroke-width="6"/>
<path opacity="0.202899" d="M1487.29 1470.28C1493.27 1477.58 1503.24 1480.25 1512.07 1476.92L1847.65 1350.33C1853.19 1348.24 1857.65 1344.01 1860.03 1338.59L2058.75 886.039C2060.67 881.682 2061.12 876.823 2060.03 872.189L1960.38 445.673C1958.53 437.772 1952.49 431.528 1944.65 429.428L1636.4 346.833C1628.57 344.733 1620.21 347.118 1614.66 353.038L1315.1 672.584C1311.85 676.056 1309.8 680.489 1309.28 685.219L1255.11 1176.51C1254.46 1182.39 1256.21 1188.28 1259.96 1192.86L1487.29 1470.28Z" stroke="url(#paint13_linear_227_578)" stroke-width="6"/>
<path opacity="0.217391" d="M1434.79 1462.48C1440.38 1470.04 1450.16 1473.22 1459.13 1470.38L1798.44 1363.02C1804.09 1361.24 1808.78 1357.24 1811.45 1351.95L2031.55 915.122C2033.7 910.857 2034.4 906.009 2033.55 901.309L1956.37 474.415C1954.93 466.443 1949.23 459.909 1941.52 457.406L1639.94 359.415C1632.23 356.912 1623.78 358.845 1617.93 364.447L1304.57 664.447C1301.12 667.75 1298.83 672.086 1298.07 676.799L1219.37 1159.57C1218.42 1165.42 1219.87 1171.41 1223.39 1176.18L1434.79 1462.48Z" stroke="url(#paint14_linear_227_578)" stroke-width="6"/>
<path opacity="0.231884" d="M1383.4 1453.37C1388.58 1461.18 1398.14 1464.85 1407.22 1462.51L1749.17 1374.42C1754.92 1372.94 1759.83 1369.2 1762.78 1364.04L2003.16 943.929C2005.54 939.768 2006.5 934.944 2005.89 930.19L1950.95 504.089C1949.92 496.069 1944.57 489.262 1937.02 486.364L1642.86 373.446C1635.31 370.548 1626.77 372.026 1620.64 377.295L1294.7 657.189C1291.06 660.312 1288.54 664.538 1287.53 669.222L1185.06 1142.28C1183.8 1148.08 1184.94 1154.14 1188.22 1159.09L1383.4 1453.37Z" stroke="url(#paint15_linear_227_578)" stroke-width="6"/>
<path opacity="0.246377" d="M1333.19 1443.02C1337.95 1451.06 1347.27 1455.21 1356.43 1453.37L1699.94 1384.53C1705.78 1383.36 1710.89 1379.88 1714.11 1374.88L1973.63 972.393C1976.24 968.35 1977.45 963.563 1977.08 958.766L1944.09 534.605C1943.46 526.556 1938.48 519.497 1931.1 516.213L1645.1 388.875C1637.72 385.591 1629.14 386.611 1622.74 391.532L1285.46 650.836C1281.64 653.769 1278.89 657.871 1277.63 662.515L1152.18 1124.69C1150.62 1130.44 1151.46 1136.56 1154.49 1141.68L1333.19 1443.02Z" stroke="url(#paint16_linear_227_578)" stroke-width="6"/>
<path opacity="0.26087" d="M1284.2 1431.52C1288.54 1439.76 1297.59 1444.37 1306.81 1443.04L1650.81 1393.37C1656.71 1392.51 1662.01 1389.31 1665.5 1384.48L1942.98 1000.46C1945.81 996.541 1947.27 991.804 1947.14 986.976L1935.75 565.874C1935.53 557.817 1930.93 550.525 1923.75 546.866L1646.59 405.649C1639.41 401.99 1630.8 402.55 1624.16 407.109L1276.79 645.413L1275.1 642.949L1276.79 645.413C1272.8 648.145 1269.83 652.112 1268.33 656.701L1120.75 1106.91C1118.89 1112.57 1119.41 1118.75 1122.19 1124.02L1284.2 1431.52Z" stroke="url(#paint17_linear_227_578)" stroke-width="6"/>
<path opacity="0.275362" d="M1236.5 1418.95C1240.4 1427.36 1249.17 1432.42 1258.41 1431.6L1601.84 1400.95C1607.79 1400.42 1613.26 1397.49 1617.01 1392.84L1911.24 1028.06C1914.29 1024.28 1916 1019.61 1916.11 1014.76L1925.91 597.803C1926.1 589.76 1921.88 582.256 1914.92 578.233L1647.28 423.711C1640.31 419.688 1631.7 419.79 1624.83 423.975L1268.64 640.94C1264.49 643.463 1261.3 647.282 1259.56 651.805L1090.75 1089.01C1088.6 1094.58 1088.81 1100.78 1091.32 1106.2L1236.5 1418.95Z" stroke="url(#paint18_linear_227_578)" stroke-width="6"/>
<path opacity="0.289855" d="M1190.12 1405.39C1193.58 1413.96 1202.04 1419.45 1211.27 1419.13L1553.11 1407.3C1559.08 1407.09 1564.72 1404.46 1568.71 1400.01L1878.44 1055.14C1881.69 1051.52 1883.65 1046.92 1884.01 1042.07L1914.54 630.309C1915.14 622.301 1911.32 614.605 1904.58 610.231L1647.08 443.009C1640.35 438.636 1631.77 438.279 1624.69 442.079L1260.95 637.445C1256.66 639.748 1253.26 643.409 1251.27 647.853L1062.2 1071.07C1059.76 1076.53 1059.64 1082.75 1061.89 1088.3L1190.12 1405.39Z" stroke="url(#paint19_linear_227_578)" stroke-width="6"/>
<path opacity="0.304348" d="M1145.11 1390.92C1148.13 1399.62 1156.25 1405.51 1165.45 1405.7L1504.66 1412.44C1510.65 1412.56 1516.43 1410.23 1520.66 1405.99L1844.62 1081.66C1848.08 1078.2 1850.28 1073.69 1850.89 1068.84L1901.63 663.293C1902.62 655.34 1899.21 647.475 1892.73 642.764L1645.96 463.476C1639.48 458.765 1630.94 457.953 1623.69 461.357L1253.67 634.937C1249.24 637.012 1245.64 640.502 1243.41 644.855L1035.06 1053.18C1032.34 1058.52 1031.91 1064.73 1033.87 1070.39L1145.11 1390.92Z" stroke="url(#paint20_linear_227_578)" stroke-width="6"/>
<path opacity="0.318841" d="M1101.51 1375.62C1104.07 1384.43 1111.84 1390.72 1120.99 1391.4L1456.57 1416.4C1462.56 1416.85 1468.47 1414.83 1472.93 1410.82L1809.82 1107.55C1813.47 1104.27 1815.91 1099.86 1816.77 1095.03L1887.16 696.667C1888.55 688.789 1885.56 680.776 1879.34 675.741L1643.86 485.049C1637.64 480.015 1629.18 478.752 1621.76 481.752L1246.74 633.43C1242.2 635.27 1238.39 638.578 1235.94 642.828L1009.34 1035.41C1006.34 1040.61 1005.6 1046.81 1007.28 1052.57L1101.51 1375.62Z" stroke="url(#paint21_linear_227_578)" stroke-width="6"/>
<path opacity="0.333333" d="M1059.33 1359.6C1061.45 1368.49 1068.84 1375.15 1077.91 1376.32L1408.89 1419.22C1414.86 1420 1420.87 1418.29 1425.55 1414.51L1774.07 1132.77C1777.91 1129.67 1780.59 1125.38 1781.69 1120.57L1871.13 730.339C1872.91 722.556 1870.34 714.418 1864.4 709.075L1640.71 507.664C1634.78 502.322 1626.42 500.613 1618.86 503.201L1240.11 632.939C1235.45 634.535 1231.46 637.651 1228.78 641.785L985.012 1017.85C981.741 1022.9 980.678 1029.06 982.07 1034.91L1059.33 1359.6Z" stroke="url(#paint22_linear_227_578)" stroke-width="6"/>
<path opacity="0.347826" d="M1018.63 1342.92C1020.29 1351.88 1027.29 1358.88 1036.24 1360.54L1361.69 1420.93C1367.61 1422.03 1373.72 1420.65 1378.6 1417.11L1737.44 1157.27C1741.44 1154.37 1744.36 1150.2 1745.7 1145.44L1853.53 764.218C1855.7 756.55 1853.55 748.308 1847.92 742.674L1636.5 531.251C1630.86 525.616 1622.62 523.469 1614.95 525.638L1233.73 633.467C1228.97 634.814 1224.8 637.726 1221.9 641.733L962.055 1000.57C958.521 1005.45 957.144 1011.56 958.243 1017.48L1018.63 1342.92Z" stroke="url(#paint23_linear_227_578)" stroke-width="6"/>
<path opacity="0.362319" d="M979.392 1325.69C980.598 1334.68 987.196 1342 996.009 1344.14L1314.99 1421.55C1320.86 1422.97 1327.05 1421.92 1332.12 1418.65L1699.94 1181C1704.11 1178.3 1707.25 1174.27 1708.84 1169.57L1834.37 798.205C1836.91 790.672 1835.2 782.35 1829.87 776.44L1631.15 555.733C1625.83 549.823 1617.73 547.245 1609.97 548.99L1227.53 635.013C1222.68 636.103 1218.34 638.803 1215.22 642.672L940.43 983.63C936.643 988.329 934.953 994.378 935.755 1000.36L979.392 1325.69Z" stroke="url(#paint24_linear_227_578)" stroke-width="6"/>
<path opacity="0.376812" d="M941.663 1307.99C942.415 1316.99 948.591 1324.62 957.24 1327.23L1268.89 1421.14C1274.68 1422.89 1280.93 1422.17 1286.18 1419.16L1661.64 1203.93C1665.97 1201.45 1669.33 1197.57 1671.16 1192.93L1813.66 832.229C1816.58 824.848 1815.29 816.468 1810.3 810.3L1624.66 581.054C1619.66 574.886 1611.73 571.886 1603.91 573.204L1221.46 637.594C1216.54 638.422 1212.05 640.899 1208.72 644.618L920.127 967.13C916.095 971.636 914.095 977.604 914.598 983.63L941.663 1307.99Z" stroke="url(#paint25_linear_227_578)" stroke-width="6"/>
<path opacity="0.391304" d="M905.432 1289.92C905.731 1298.91 911.473 1306.81 919.931 1309.87L1223.4 1419.74C1229.09 1421.8 1235.39 1421.42 1240.8 1418.69L1622.59 1226.02C1627.06 1223.76 1630.63 1220.04 1632.71 1215.48L1791.41 866.188C1794.68 858.978 1793.83 850.563 1789.18 844.156L1616.97 607.129C1612.31 600.722 1604.57 597.311 1596.7 598.199L1215.46 641.196C1210.48 641.758 1205.84 644.004 1202.31 647.562L901.091 951.126C896.823 955.427 894.518 961.297 894.719 967.352L905.432 1289.92Z" stroke="url(#paint26_linear_227_578)" stroke-width="6"/>
<path opacity="0.405797" d="M870.714 1271.55C870.564 1280.51 875.859 1288.66 884.102 1292.17L1178.58 1417.39C1184.17 1419.76 1190.49 1419.72 1196.04 1417.28L1582.84 1247.23C1587.44 1245.21 1591.22 1241.66 1593.53 1237.19L1767.64 899.999C1771.27 892.978 1770.85 884.551 1766.54 877.923L1608.06 633.887C1603.76 627.259 1596.23 623.449 1588.34 623.906L1209.49 645.818C1204.46 646.109 1199.69 648.115 1195.96 651.502L883.294 935.689C878.802 939.772 876.197 945.529 876.095 951.599L870.714 1271.55Z" stroke="url(#paint27_linear_227_578)" stroke-width="6"/>
<path opacity="0.42029" d="M837.506 1252.98C836.911 1261.88 841.748 1270.26 849.753 1274.19L1134.48 1414.13C1139.94 1416.81 1146.26 1417.11 1151.95 1414.97L1542.44 1267.53C1547.17 1265.74 1551.14 1262.38 1553.68 1258.01L1742.38 933.576C1746.34 926.76 1746.36 918.344 1742.41 911.515L1597.92 661.252C1593.98 654.423 1586.69 650.227 1578.8 650.252L1203.48 651.451C1198.43 651.468 1193.53 653.226 1189.62 656.43L866.692 920.882C861.986 924.736 859.086 930.365 858.68 936.434L837.506 1252.98Z" stroke="url(#paint28_linear_227_578)" stroke-width="6"/>
<path opacity="0.434783" d="M805.799 1234.29C804.765 1243.11 809.135 1251.69 816.879 1256.04L1091.12 1410.01C1096.44 1413 1102.75 1413.64 1108.56 1411.8L1501.44 1286.89C1506.28 1285.35 1510.44 1282.18 1513.21 1277.92L1715.65 966.835C1719.94 960.242 1720.38 951.858 1716.81 944.848L1586.52 689.147C1582.95 682.137 1575.91 677.568 1568.05 677.164L1197.39 658.084C1192.32 657.823 1187.31 659.326 1183.22 662.339L851.234 906.767C846.326 910.381 843.137 915.868 842.428 921.921L805.799 1234.29Z" stroke="url(#paint29_linear_227_578)" stroke-width="6"/>
<path opacity="0.449275" d="M775.583 1215.58C774.116 1224.3 778.012 1233.05 785.473 1237.79L1048.56 1405.09C1053.71 1408.37 1059.99 1409.36 1065.9 1407.82L1459.9 1305.28C1464.85 1303.99 1469.19 1301.03 1472.18 1296.9L1687.48 999.698C1692.08 993.342 1692.95 985.013 1689.76 977.843L1573.85 717.498C1570.65 710.328 1563.88 705.401 1556.08 704.57L1191.16 665.704C1186.08 665.164 1180.97 666.405 1176.71 669.217L836.872 893.405C831.775 896.768 828.304 902.098 827.292 908.12L775.583 1215.58Z" stroke="url(#paint30_linear_227_578)" stroke-width="6"/>
<path opacity="0.463768" d="M746.852 1196.91C744.961 1205.51 748.376 1214.4 755.533 1219.53L1006.82 1399.41C1011.8 1402.97 1018.03 1404.3 1024.03 1403.08L1417.9 1322.68C1422.92 1321.65 1427.43 1318.9 1430.65 1314.9L1657.92 1032.08C1662.83 1025.98 1664.12 1017.73 1661.31 1010.42L1559.9 746.227C1557.09 738.917 1550.61 733.649 1542.88 732.395L1184.74 674.294C1179.68 673.473 1174.49 674.447 1170.06 677.047L823.564 880.849C818.29 883.951 814.545 889.11 813.231 895.086L746.852 1196.91Z" stroke="url(#paint31_linear_227_578)" stroke-width="6"/>
<path opacity="0.478261" d="M719.574 1178.4C717.269 1186.85 720.197 1195.86 727.03 1201.34L965.94 1393.04C970.723 1396.88 976.89 1398.54 982.955 1397.64L1375.47 1339.08C1380.56 1338.32 1385.23 1335.79 1388.66 1331.94L1627.01 1063.93C1632.2 1058.09 1633.9 1049.94 1631.49 1042.51L1544.66 775.269C1542.24 767.84 1536.07 762.248 1528.44 760.576L1178.08 683.845C1173.05 682.742 1167.78 683.443 1163.21 685.824L811.242 869.161C805.804 871.994 801.794 876.967 800.181 882.883L719.574 1178.4Z" stroke="url(#paint32_linear_227_578)" stroke-width="6"/>
<path opacity="0.492754" d="M693.723 1160.09C691.013 1168.38 693.453 1177.48 699.944 1183.3L925.933 1386.01C930.507 1390.11 936.589 1392.11 942.706 1391.53L1332.67 1354.45C1337.82 1353.96 1342.64 1351.66 1346.27 1347.97L1594.77 1095.14C1600.23 1089.58 1602.35 1081.55 1600.33 1074.02L1528.12 804.532C1526.11 797.005 1520.26 791.107 1512.75 789.025L1171.13 694.32C1166.14 692.936 1160.82 693.358 1156.11 695.512L799.847 858.375C794.259 860.93 789.993 865.705 788.083 871.546L693.723 1160.09Z" stroke="url(#paint33_linear_227_578)" stroke-width="6"/>
<path opacity="0.507246" d="M669.279 1142.09C666.176 1150.19 668.125 1159.36 674.256 1165.5L886.837 1378.39C891.187 1382.75 897.165 1385.08 903.317 1384.83L1289.57 1368.79C1294.77 1368.57 1299.73 1366.52 1303.56 1362.99L1561.28 1125.67C1567 1120.41 1569.52 1112.52 1567.9 1104.91L1510.31 833.958C1508.69 826.356 1503.18 820.17 1495.82 817.686L1163.85 705.712C1158.91 704.048 1153.55 704.188 1148.71 706.107L789.328 848.553C783.604 850.822 779.093 855.386 776.89 861.136L669.279 1142.09Z" stroke="url(#paint34_linear_227_578)" stroke-width="6"/>
<path opacity="0.521739" d="M646.206 1124.46C642.721 1132.36 644.18 1141.56 649.935 1148L848.668 1370.24C852.781 1374.84 858.637 1377.5 864.807 1377.57L1246.22 1382.08C1251.46 1382.14 1256.54 1380.33 1260.56 1376.99L1526.59 1155.44C1532.54 1150.48 1535.45 1142.75 1534.24 1135.1L1491.22 863.464C1490 855.807 1484.85 849.354 1477.65 846.477L1156.19 717.985C1151.33 716.042 1145.93 715.896 1140.98 717.572L779.621 839.725C773.775 841.701 769.028 846.041 766.538 851.687L646.206 1124.46Z" stroke="url(#paint35_linear_227_578)" stroke-width="6"/>
<path opacity="0.536232" d="M624.466 1107.27C620.613 1114.95 621.582 1124.17 626.948 1130.88L811.445 1361.6C815.307 1366.43 821.023 1369.41 827.194 1369.81L1202.7 1394.32C1207.95 1394.66 1213.15 1393.11 1217.35 1389.95L1490.74 1184.4C1496.92 1179.75 1500.21 1172.21 1499.4 1164.52L1470.86 892.981C1470.05 885.292 1465.27 878.591 1458.26 875.331L1148.11 731.113C1143.34 728.895 1137.93 728.46 1132.86 729.886L770.661 831.932C764.709 833.609 759.737 837.714 756.964 843.241L624.466 1107.27Z" stroke="url(#paint36_linear_227_578)" stroke-width="6"/>
<path opacity="0.550725" d="M604.015 1090.6C599.807 1098.04 600.289 1107.25 605.251 1114.21L775.179 1352.53C778.776 1357.57 784.336 1360.87 790.489 1361.6L1159.05 1405.5C1164.3 1406.13 1169.6 1404.84 1173.98 1401.88L1453.8 1212.48C1460.18 1208.15 1463.84 1200.8 1463.44 1193.11L1449.25 922.431C1448.85 914.731 1444.44 907.805 1437.64 904.174L1139.56 745.061C1134.89 742.57 1129.49 741.844 1124.33 743.015L762.378 825.201C756.334 826.574 751.15 830.431 748.099 835.826L604.015 1090.6Z" stroke="url(#paint37_linear_227_578)" stroke-width="6"/>
<path opacity="0.565217" d="M584.809 1074.52C580.262 1081.71 580.262 1090.87 584.808 1098.05L739.882 1343.09C743.204 1348.34 748.589 1351.94 754.708 1353L1115.33 1415.64C1120.57 1416.55 1125.96 1415.53 1130.51 1412.77L1415.82 1239.63C1422.4 1235.64 1426.41 1228.51 1426.41 1220.82V951.758C1426.41 944.069 1422.4 936.939 1415.82 932.95L1130.51 759.808C1125.96 757.049 1120.57 756.03 1115.33 756.94L754.708 819.574C748.589 820.637 743.204 824.237 739.883 829.485L584.809 1074.52Z" stroke="url(#paint38_linear_227_578)" stroke-width="6"/>
<path opacity="0.57971" d="M566.798 1059.1C561.928 1066.01 561.451 1075.1 565.572 1082.49L705.563 1333.35C708.596 1338.78 713.79 1342.68 719.857 1344.07L1071.61 1424.73C1076.82 1425.92 1082.29 1425.18 1086.99 1422.63L1376.88 1265.8C1383.63 1262.15 1387.98 1255.26 1388.39 1247.6L1402.36 980.889C1402.76 973.234 1399.15 965.921 1392.83 961.588L1120.92 775.315C1116.5 772.293 1111.14 770.981 1105.83 771.625L747.581 815.072C741.401 815.821 735.829 819.153 732.244 824.242L566.798 1059.1Z" stroke="url(#paint39_linear_227_578)" stroke-width="6"/>
<path opacity="0.594203" d="M549.938 1044.37C544.761 1051 543.815 1060 547.501 1067.56L672.231 1323.34C674.966 1328.95 679.952 1333.13 685.95 1334.85L1027.94 1432.77C1033.11 1434.25 1038.64 1433.79 1043.49 1431.46L1337.05 1290.95C1343.94 1287.65 1348.63 1281.01 1349.43 1273.4L1377.14 1009.76C1377.94 1002.15 1374.74 994.682 1368.68 990.02L1110.75 791.542C1106.49 788.262 1101.17 786.657 1095.81 787.03L740.934 811.709C734.71 812.141 728.963 815.196 725.123 820.112L549.938 1044.37Z" stroke="url(#paint40_linear_227_578)" stroke-width="6"/>
<path opacity="0.608696" d="M534.166 1030.42C528.699 1036.75 527.292 1045.63 530.536 1053.34L639.881 1313.14C642.307 1318.9 647.07 1323.36 652.98 1325.4L984.381 1439.79C989.494 1441.55 995.077 1441.37 1000.07 1439.28L1296.38 1315.03C1303.41 1312.09 1308.41 1305.71 1309.6 1298.19L1350.77 1038.3C1351.96 1030.78 1349.17 1023.17 1343.4 1018.19L1099.98 808.461L1101.94 806.188L1099.98 808.461C1095.88 804.93 1090.63 803.033 1085.22 803.131L734.689 809.513C728.437 809.627 722.53 812.395 718.442 817.127L534.166 1030.42Z" stroke="url(#paint41_linear_227_578)" stroke-width="6"/>
<path opacity="0.623188" d="M519.427 1017.29C513.688 1023.31 511.831 1032.05 514.627 1039.88L608.514 1302.79C610.622 1308.7 615.147 1313.42 620.953 1315.78L940.989 1445.79C946.03 1447.84 951.651 1447.95 956.766 1446.1L1254.96 1338.02C1262.1 1335.43 1267.4 1329.34 1268.98 1321.91L1323.28 1066.47C1324.86 1059.04 1322.49 1051.32 1317.02 1046.05L1088.57 826.03C1084.65 822.255 1079.47 820.067 1074.03 819.888L728.779 808.494C722.515 808.288 716.461 810.762 712.135 815.296L519.427 1017.29Z" stroke="url(#paint42_linear_227_578)" stroke-width="6"/>
<path opacity="0.637681" d="M505.663 1005.03C499.67 1010.73 497.373 1019.3 499.717 1027.22L578.127 1292.36C579.908 1298.38 584.179 1303.36 589.864 1306.03L897.821 1450.8C902.774 1453.13 908.418 1453.53 913.65 1451.92L1212.85 1359.87C1220.09 1357.64 1225.67 1351.85 1227.63 1344.54L1294.71 1094.19C1296.67 1086.88 1294.73 1079.07 1289.57 1073.52L1076.49 844.206C1072.76 840.196 1067.67 837.719 1062.22 837.259L723.134 808.658C716.874 808.13 710.688 810.302 706.134 814.628L505.663 1005.03Z" stroke="url(#paint43_linear_227_578)" stroke-width="6"/>
<path opacity="0.652174" d="M492.805 993.691C486.577 999.049 483.853 1007.43 485.742 1015.43L548.705 1281.88C550.153 1288.01 554.157 1293.22 559.703 1296.2L854.926 1454.83C859.777 1457.43 865.429 1458.13 870.766 1456.77L1170.12 1380.56C1177.44 1378.69 1183.29 1373.21 1185.62 1366.04L1265.1 1121.42C1267.43 1114.24 1265.92 1106.37 1261.1 1100.56L1063.71 862.949C1060.19 858.713 1055.21 855.951 1049.75 855.208L717.677 810.01C711.439 809.161 705.135 811.025 700.363 815.131L492.805 993.691Z" stroke="url(#paint44_linear_227_578)" stroke-width="6"/>
<path opacity="0.666667" d="M480.788 983.299C474.343 988.314 471.207 996.486 472.64 1004.52L520.238 1271.42C521.346 1277.64 525.069 1283.07 530.46 1286.35L812.354 1457.9C817.088 1460.78 822.734 1461.77 828.165 1460.66L1126.85 1400.06C1134.23 1398.56 1140.32 1393.4 1143.02 1386.38L1234.49 1148.1C1237.18 1141.07 1236.1 1133.16 1231.63 1127.12L1050.21 882.214C1046.91 877.761 1042.06 874.717 1036.61 873.69L712.337 812.547C706.136 811.378 699.731 812.928 694.75 816.804L480.788 983.299Z" stroke="url(#paint45_linear_227_578)" stroke-width="6"/>
<path opacity="0.681159" d="M469.556 973.902C462.916 978.565 459.381 986.505 460.359 994.559L492.723 1261.03C493.485 1267.31 496.914 1272.96 502.134 1276.53L770.168 1460.04C774.769 1463.19 780.396 1464.47 785.909 1463.63L1083.13 1418.35C1090.54 1417.22 1096.87 1412.4 1099.91 1405.55L1202.93 1174.18C1205.98 1167.33 1205.33 1159.4 1201.21 1153.14L1035.98 901.962C1032.92 897.303 1028.2 893.982 1022.78 892.67L707.055 816.271C700.907 814.783 694.416 816.014 689.239 819.649L469.556 973.902Z" stroke="url(#paint46_linear_227_578)" stroke-width="6"/>
<path opacity="0.695652" d="M459.03 965.536C452.213 969.84 448.296 977.527 448.821 985.572L466.13 1250.76C466.543 1257.09 469.666 1262.93 474.699 1266.79L728.404 1461.28C732.859 1464.7 738.451 1466.28 744.035 1465.71L1039.01 1435.43C1046.44 1434.67 1052.98 1430.19 1056.37 1423.54L1170.46 1199.62C1173.85 1192.97 1173.63 1185.05 1169.88 1178.59L1020.99 922.154C1018.17 917.3 1013.6 913.706 1008.22 912.11L701.75 821.177C695.671 819.373 689.109 820.28 683.747 823.665L459.03 965.536Z" stroke="url(#paint47_linear_227_578)" stroke-width="6"/>
<path opacity="0.710145" d="M449.154 958.22C442.181 962.159 437.899 969.575 437.974 977.583L440.456 1240.65C440.516 1247.01 443.322 1253.03 448.152 1257.16L687.124 1461.65C691.417 1465.32 696.96 1467.2 702.602 1466.9L994.591 1451.29C1002.02 1450.89 1008.75 1446.76 1012.47 1440.32L1137.14 1224.38C1140.86 1217.93 1141.07 1210.05 1137.7 1203.41L1005.23 942.735C1002.67 937.698 998.27 933.839 992.942 931.957L696.365 827.244C690.372 825.128 683.755 825.707 678.221 828.833L449.154 958.22Z" stroke="url(#paint48_linear_227_578)" stroke-width="6"/>
<path opacity="0.724638" d="M439.846 951.981C432.738 955.549 428.109 962.677 427.74 970.622L415.667 1230.76C415.372 1237.12 417.85 1243.3 422.462 1247.7L646.361 1461.18C650.479 1465.1 655.957 1467.28 661.646 1467.26L949.931 1465.91C957.344 1465.87 964.241 1462.11 968.279 1455.89L1103.02 1248.41C1107.05 1242.19 1107.69 1234.36 1104.7 1227.58L988.682 963.665C986.392 958.457 982.174 954.338 976.913 952.174L690.824 834.461C684.931 832.036 678.277 832.285 672.582 835.144L439.846 951.981Z" stroke="url(#paint49_linear_227_578)" stroke-width="6"/>
<path opacity="0.73913" d="M431.041 946.84C423.817 950.035 418.861 956.857 418.054 964.714L391.744 1221.12C391.092 1227.48 393.233 1233.8 397.613 1238.45L606.163 1459.91C610.09 1464.08 615.489 1466.55 621.212 1466.81L905.112 1479.3C912.49 1479.62 919.537 1476.22 923.878 1470.25L1068.14 1271.69C1072.48 1265.71 1073.53 1257.96 1070.95 1251.05L971.337 984.9C969.33 979.535 965.308 975.164 960.128 972.718L685.064 842.809C679.288 840.081 672.612 839.999 666.77 842.582L431.041 946.84Z" stroke="url(#paint50_linear_227_578)" stroke-width="6"/>
<path opacity="0.753623" d="M422.662 942.811C415.344 945.63 410.079 952.131 408.844 959.875L368.655 1211.79C367.646 1218.11 369.443 1224.56 373.575 1229.45L566.565 1457.88C570.288 1462.28 575.593 1465.05 581.338 1465.58L860.205 1491.46C867.528 1492.13 874.706 1489.11 879.334 1483.39L1032.56 1294.17C1037.19 1288.46 1038.66 1280.81 1036.47 1273.79L953.183 1006.39C951.468 1000.88 947.657 996.271 942.573 993.545L679.016 852.265C673.372 849.239 666.69 848.823 660.715 851.125L422.662 942.811Z" stroke="url(#paint51_linear_227_578)" stroke-width="6"/>
<path opacity="0.768116" d="M414.641 939.908C407.249 942.349 401.697 948.515 400.042 956.122L346.376 1202.8C345.012 1209.07 346.455 1215.63 350.327 1220.75L527.609 1455.12C531.114 1459.76 536.311 1462.82 542.064 1463.63L815.286 1502.4C822.537 1503.43 829.825 1500.78 834.725 1495.34L996.342 1315.85C1001.24 1310.4 1003.11 1302.88 1001.33 1295.77L934.217 1028.1C932.804 1022.47 929.218 1017.62 924.243 1014.62L672.621 862.804C667.125 859.488 660.454 858.738 654.358 860.751L414.641 939.908Z" stroke="url(#paint52_linear_227_578)" stroke-width="6"/>
<path opacity="0.782609" d="M406.912 938.13C399.466 940.193 393.648 946.011 391.585 953.456L324.881 1194.19C323.163 1200.39 324.246 1207.03 327.846 1212.37L489.334 1451.68C492.608 1456.54 497.681 1459.88 503.431 1460.98L770.431 1512.14C777.593 1513.51 784.97 1511.24 790.127 1506.08L959.54 1336.67C964.696 1331.51 966.963 1324.14 965.591 1316.98L914.439 1049.98C913.338 1044.23 909.991 1039.15 905.138 1035.88L665.824 874.391C660.489 870.791 653.845 869.707 647.643 871.426L406.912 938.13Z" stroke="url(#paint53_linear_227_578)" stroke-width="6"/>
<path opacity="0.797101" d="M399.4 937.489C391.921 939.175 385.86 944.633 383.401 951.895L304.135 1186C302.066 1192.11 302.784 1198.82 306.099 1204.36L451.771 1447.61C454.801 1452.67 459.737 1456.3 465.469 1457.69L725.71 1520.69C732.767 1522.4 740.212 1520.51 745.607 1515.65L922.211 1356.64C927.606 1351.78 930.258 1344.57 929.296 1337.38L893.847 1071.98C893.066 1066.13 889.97 1060.84 885.254 1057.3L658.562 887C653.404 883.125 646.804 881.71 640.51 883.129L399.4 937.489Z" stroke="url(#paint54_linear_227_578)" stroke-width="6"/>
<path opacity="0.811594" d="M392.031 937.97C384.539 939.281 378.256 944.369 375.416 951.425L284.1 1178.26C281.684 1184.26 282.032 1191.02 285.051 1196.74L414.946 1442.94C417.72 1448.2 422.503 1452.11 428.206 1453.78L681.187 1528.07C688.122 1530.1 695.614 1528.6 701.231 1524.06L884.408 1375.72C890.025 1371.17 893.049 1364.16 892.499 1356.95L872.436 1094.05C871.984 1088.13 869.152 1082.63 864.587 1078.83L650.777 900.584C645.808 896.442 639.268 894.696 632.896 895.812L392.031 937.97Z" stroke="url(#paint55_linear_227_578)" stroke-width="6"/>
<path opacity="0.826087" d="M384.743 939.573C377.258 940.513 370.776 945.222 367.57 952.051L264.747 1171.01C261.991 1176.88 261.965 1183.67 264.676 1189.56L378.894 1437.72C381.399 1443.17 386.014 1447.35 391.675 1449.31L636.938 1534.31C643.735 1536.66 651.254 1535.54 657.073 1531.32L846.197 1393.91C852.016 1389.68 855.401 1382.88 855.261 1375.68L850.218 1116.16C850.102 1110.17 847.548 1104.49 843.146 1100.42L642.421 915.109C637.656 910.71 631.192 908.637 624.758 909.445L384.743 939.573Z" stroke="url(#paint56_linear_227_578)" stroke-width="6"/>
<path opacity="0.84058" d="M377.462 942.29C370.004 942.862 363.347 947.185 359.79 953.767L246.035 1164.27C242.944 1169.99 242.542 1176.79 244.936 1182.83L343.634 1432.01C345.858 1437.63 350.293 1442.08 355.898 1444.33L593.022 1539.43C599.666 1542.1 607.191 1541.37 613.194 1537.47L807.63 1411.2C813.633 1407.3 817.365 1400.72 817.632 1393.57L827.195 1138.26C827.421 1132.23 825.156 1126.37 820.931 1122.05L633.44 930.535C628.891 925.889 622.52 923.493 616.037 923.99L377.462 942.29Z" stroke="url(#paint57_linear_227_578)" stroke-width="6"/>
<path opacity="0.855072" d="M370.125 946.1C362.712 946.31 355.903 950.241 352.015 956.556L227.929 1158.07C224.511 1163.63 223.731 1170.41 225.799 1176.59L309.191 1425.84C311.123 1431.62 315.363 1436.33 320.9 1438.87L549.507 1543.48C555.983 1546.44 563.493 1546.09 569.661 1542.53L768.769 1427.57C774.937 1424.01 779 1417.69 779.671 1410.59L803.378 1160.31C803.952 1154.25 801.988 1148.22 797.953 1143.66L623.788 946.811C619.468 941.928 613.205 939.213 606.689 939.398L370.125 946.1Z" stroke="url(#paint58_linear_227_578)" stroke-width="6"/>
<path opacity="0.869565" d="M362.67 950.993C355.32 950.848 348.384 954.382 344.182 960.413L210.393 1152.45C206.656 1157.82 205.498 1164.56 207.232 1170.86L275.588 1419.28C277.217 1425.21 281.248 1430.18 286.704 1432.99L506.454 1546.49C512.749 1549.74 520.225 1549.76 526.537 1546.55L729.675 1443.04C735.988 1439.83 740.365 1433.77 741.435 1426.76L778.781 1182.27C779.708 1176.2 778.056 1170.02 774.223 1165.22L613.426 963.899C609.346 958.791 603.207 955.763 596.672 955.633L362.67 950.993Z" stroke="url(#paint59_linear_227_578)" stroke-width="6"/>
<path opacity="0.884058" d="M355.02 956.937C347.754 956.443 340.713 959.577 336.218 965.308L193.375 1147.41C189.33 1152.57 187.795 1159.26 189.187 1165.67L242.829 1412.37C244.145 1418.42 247.953 1423.64 253.316 1426.74L463.912 1548.49C470.012 1552.02 477.433 1552.41 483.871 1549.54L690.394 1457.59C696.831 1454.73 701.506 1448.95 702.967 1442.06L753.405 1204.09C754.69 1198.03 753.36 1191.71 749.742 1186.68L602.298 981.737C598.471 976.417 592.471 973.081 585.932 972.636L355.02 956.937Z" stroke="url(#paint60_linear_227_578)" stroke-width="6"/>
<path opacity="0.898551" d="M347.127 963.909C339.96 963.075 332.84 965.808 328.072 971.224L176.845 1142.98C172.502 1147.92 170.592 1154.53 171.636 1161.02L210.938 1405.16C211.931 1411.33 215.502 1416.79 220.759 1420.17L421.944 1549.54C427.838 1553.33 435.185 1554.08 441.727 1551.57L650.992 1471.24C657.534 1468.73 662.488 1463.25 664.332 1456.49L727.277 1225.73C728.922 1219.7 727.924 1213.26 724.533 1208.01L590.379 1000.28C586.814 994.759 580.968 991.121 574.441 990.362L347.127 963.909Z" stroke="url(#paint61_linear_227_578)" stroke-width="6"/>
<path opacity="0.913043" d="M338.925 971.881C331.876 970.716 324.699 973.048 319.68 978.134L160.758 1139.18C156.13 1143.87 153.847 1150.39 154.538 1156.94L179.92 1397.7C180.581 1403.97 183.903 1409.66 189.041 1413.32L380.6 1549.66C386.276 1553.7 393.53 1554.82 400.156 1552.66L611.52 1483.99C618.146 1481.84 623.361 1476.67 625.578 1470.07L700.408 1247.16C702.416 1241.18 701.76 1234.63 698.608 1229.17L577.629 1019.47C574.336 1013.76 568.659 1009.83 562.158 1008.76L338.925 971.881Z" stroke="url(#paint62_linear_227_578)" stroke-width="6"/>
<path opacity="0.927536" d="M330.364 980.815C323.447 979.33 316.238 981.261 310.991 986.006L145.075 1136.02C140.175 1140.45 137.525 1146.84 137.858 1153.44L149.787 1390.04C150.107 1396.4 153.166 1402.31 158.174 1406.24L339.93 1548.92C345.378 1553.2 352.52 1554.66 359.209 1552.87L572.038 1495.84C578.727 1494.05 584.182 1489.21 586.761 1482.79L672.823 1268.34C675.194 1262.43 674.89 1255.78 671.988 1250.12L564.02 1039.25C561.009 1033.37 555.515 1029.16 549.056 1027.77L330.364 980.815Z" stroke="url(#paint63_linear_227_578)" stroke-width="6"/>
<path opacity="0.942029" d="M321.38 990.684C314.612 988.889 307.395 990.424 301.942 994.816L129.748 1133.51C124.59 1137.66 121.578 1143.92 121.549 1150.54L120.535 1382.25C120.507 1388.67 123.291 1394.79 128.156 1398.99L299.974 1547.38C305.183 1551.87 312.196 1553.68 318.928 1552.25L532.59 1506.83C539.321 1505.4 544.996 1500.9 547.924 1494.67L644.535 1289.23C647.27 1283.42 647.325 1276.69 644.685 1270.83L549.518 1059.58C546.797 1053.54 541.5 1049.04 535.098 1047.35L321.38 990.684Z" stroke="url(#paint64_linear_227_578)" stroke-width="6"/>
<path opacity="0.956522" d="M311.937 1001.44C305.333 999.35 298.13 1000.49 292.495 1004.52L114.749 1131.66C109.346 1135.52 105.979 1141.62 105.586 1148.25L92.1803 1374.36C91.7961 1380.84 94.2928 1387.15 99.0022 1391.62L260.787 1545.07C265.748 1549.77 272.615 1551.9 279.368 1550.83L493.241 1516.96C499.995 1515.89 505.867 1511.74 509.131 1505.73L615.58 1309.8C618.679 1304.1 619.101 1297.32 616.733 1291.28L534.113 1080.38C531.69 1074.19 526.603 1069.43 520.271 1067.43L311.937 1001.44Z" stroke="url(#paint65_linear_227_578)" stroke-width="6"/>
<path opacity="0.971014" d="M301.975 1013.05C295.549 1010.67 288.382 1011.43 282.59 1015.09L100.023 1130.48C94.3932 1134.03 90.6785 1139.95 89.9198 1146.57L64.7089 1366.43C63.9619 1372.94 66.1592 1379.45 70.7018 1384.18L222.395 1542.05C227.1 1546.95 233.804 1549.4 240.558 1548.69L454.031 1526.25C460.786 1525.54 466.833 1521.75 470.418 1515.98L585.972 1330.02C589.432 1324.45 590.228 1317.63 588.143 1311.41L517.772 1101.6C515.654 1095.28 510.79 1090.27 504.544 1087.96L301.975 1013.05Z" stroke="url(#paint66_linear_227_578)" stroke-width="6"/>
<path opacity="0.985507" d="M291.442 1025.46C285.207 1022.81 278.099 1023.18 272.175 1026.47L85.5217 1129.97C79.682 1133.2 75.629 1138.92 74.5044 1145.5L38.1096 1358.51C36.9939 1365.04 38.8799 1371.72 43.2441 1376.71L184.825 1538.39C189.268 1543.46 195.792 1546.22 202.527 1545.87L415 1534.73C421.735 1534.38 427.936 1530.96 431.824 1525.45L555.729 1349.85C559.548 1344.44 560.725 1337.59 558.933 1331.21L500.472 1123.18C498.666 1116.75 494.037 1111.49 487.891 1108.88L291.442 1025.46Z" stroke="url(#paint67_linear_227_578)" stroke-width="6"/>
<path d="M280.314 1038.63C274.282 1035.72 267.255 1035.72 261.223 1038.63L71.2219 1130.13C65.1898 1133.03 60.8087 1138.53 59.3189 1145.05L12.3925 1350.65C10.9026 1357.18 12.4662 1364.03 16.6406 1369.26L148.125 1534.14C152.3 1539.38 158.631 1542.42 165.326 1542.42H376.211C382.906 1542.42 389.237 1539.38 393.411 1534.14L524.896 1369.26C529.071 1364.03 530.634 1357.18 529.144 1350.65L482.218 1145.05C480.728 1138.53 476.347 1133.03 470.315 1130.13L280.314 1038.63Z" stroke="url(#paint68_linear_227_578)" stroke-width="6"/>
<defs>
<linearGradient id="paint0_linear_227_578" x1="2253.32" y1="1432.4" x2="1681.76" y2="148.657" gradientUnits="userSpaceOnUse">
<stop stop-color="#4d6ad343"/>
<stop offset="1" stop-color="#4d6ad343"/>
</linearGradient>
<linearGradient id="paint1_linear_227_578" x1="2193.32" y1="1447.56" x2="1694.17" y2="147.244" gradientUnits="userSpaceOnUse">
<stop stop-color="#4d6ad343"/>
<stop offset="1" stop-color="#4d6ad343"/>
</linearGradient>
<linearGradient id="paint2_linear_227_578" x1="2133.23" y1="1460.78" x2="1706.66" y2="147.918" gradientUnits="userSpaceOnUse">
<stop stop-color="#4d6ad343"/>
<stop offset="1" stop-color="#4d6ad343"/>
</linearGradient>
<linearGradient id="paint3_linear_227_578" x1="2073.19" y1="1472.07" x2="1719.12" y2="150.661" gradientUnits="userSpaceOnUse">
<stop stop-color="#4d6ad343"/>
<stop offset="1" stop-color="#4d6ad343"/>
</linearGradient>
<linearGradient id="paint4_linear_227_578" x1="2013.28" y1="1481.46" x2="1731.43" y2="155.459" gradientUnits="userSpaceOnUse">
<stop stop-color="#4d6ad343"/>
<stop offset="1" stop-color="#4d6ad343"/>
</linearGradient>
<linearGradient id="paint5_linear_227_578" x1="1953.61" y1="1488.96" x2="1743.48" y2="162.28" gradientUnits="userSpaceOnUse">
<stop stop-color="#4d6ad343"/>
<stop offset="1" stop-color="#4d6ad343"/>
</linearGradient>
<linearGradient id="paint6_linear_227_578" x1="1894.28" y1="1494.61" x2="1755.17" y2="171.084" gradientUnits="userSpaceOnUse">
<stop stop-color="#4d6ad343"/>
<stop offset="1" stop-color="#4d6ad343"/>
</linearGradient>
<linearGradient id="paint7_linear_227_578" x1="1835.39" y1="1498.44" x2="1766.39" y2="181.837" gradientUnits="userSpaceOnUse">
<stop stop-color="#4d6ad343"/>
<stop offset="1" stop-color="#4d6ad343"/>
</linearGradient>
<linearGradient id="paint8_linear_227_578" x1="1777.03" y1="1500.51" x2="1777.03" y2="194.504" gradientUnits="userSpaceOnUse">
<stop stop-color="#4d6ad343"/>
<stop offset="1" stop-color="#4d6ad343"/>
</linearGradient>
<linearGradient id="paint9_linear_227_578" x1="1719.3" y1="1500.85" x2="1787" y2="209.018" gradientUnits="userSpaceOnUse">
<stop stop-color="#4d6ad343"/>
<stop offset="1" stop-color="#4d6ad343"/>
</linearGradient>
<linearGradient id="paint10_linear_227_578" x1="1662.28" y1="1499.52" x2="1796.2" y2="225.335" gradientUnits="userSpaceOnUse">
<stop stop-color="#4d6ad343"/>
<stop offset="1" stop-color="#4d6ad343"/>
</linearGradient>
<linearGradient id="paint11_linear_227_578" x1="1606.06" y1="1496.57" x2="1804.55" y2="243.394" gradientUnits="userSpaceOnUse">
<stop stop-color="#4d6ad343"/>
<stop offset="1" stop-color="#4d6ad343"/>
</linearGradient>
<linearGradient id="paint12_linear_227_578" x1="1550.72" y1="1492.06" x2="1811.94" y2="263.12" gradientUnits="userSpaceOnUse">
<stop stop-color="#4d6ad343"/>
<stop offset="1" stop-color="#4d6ad343"/>
</linearGradient>
<linearGradient id="paint13_linear_227_578" x1="1496.34" y1="1486.06" x2="1818.31" y2="284.454" gradientUnits="userSpaceOnUse">
<stop stop-color="#4d6ad343"/>
<stop offset="1" stop-color="#4d6ad343"/>
</linearGradient>
<linearGradient id="paint14_linear_227_578" x1="1442.99" y1="1478.63" x2="1823.58" y2="307.319" gradientUnits="userSpaceOnUse">
<stop stop-color="#4d6ad343"/>
<stop offset="1" stop-color="#4d6ad343"/>
</linearGradient>
<linearGradient id="paint15_linear_227_578" x1="1390.74" y1="1469.85" x2="1827.66" y2="331.642" gradientUnits="userSpaceOnUse">
<stop stop-color="#4d6ad343"/>
<stop offset="1" stop-color="#4d6ad343"/>
</linearGradient>
<linearGradient id="paint16_linear_227_578" x1="1339.64" y1="1459.8" x2="1830.49" y2="357.34" gradientUnits="userSpaceOnUse">
<stop stop-color="#4d6ad343"/>
<stop offset="1" stop-color="#4d6ad343"/>
</linearGradient>
<linearGradient id="paint17_linear_227_578" x1="1289.77" y1="1448.53" x2="1832.01" y2="384.329" gradientUnits="userSpaceOnUse">
<stop stop-color="#4d6ad343"/>
<stop offset="1" stop-color="#4d6ad343"/>
</linearGradient>
<linearGradient id="paint18_linear_227_578" x1="1241.17" y1="1436.15" x2="1832.16" y2="412.522" gradientUnits="userSpaceOnUse">
<stop stop-color="#4d6ad343"/>
<stop offset="1" stop-color="#4d6ad343"/>
</linearGradient>
<linearGradient id="paint19_linear_227_578" x1="1193.89" y1="1422.73" x2="1830.89" y2="441.837" gradientUnits="userSpaceOnUse">
<stop stop-color="#4d6ad343"/>
<stop offset="1" stop-color="#4d6ad343"/>
</linearGradient>
<linearGradient id="paint20_linear_227_578" x1="1147.98" y1="1408.35" x2="1828.16" y2="472.176" gradientUnits="userSpaceOnUse">
<stop stop-color="#4d6ad343"/>
<stop offset="1" stop-color="#4d6ad343"/>
</linearGradient>
<linearGradient id="paint21_linear_227_578" x1="1103.48" y1="1393.1" x2="1823.91" y2="503.448" gradientUnits="userSpaceOnUse">
<stop stop-color="#4d6ad343"/>
<stop offset="1" stop-color="#4d6ad343"/>
</linearGradient>
<linearGradient id="paint22_linear_227_578" x1="1060.41" y1="1377.08" x2="1818.11" y2="535.562" gradientUnits="userSpaceOnUse">
<stop stop-color="#4d6ad343"/>
<stop offset="1" stop-color="#4d6ad343"/>
</linearGradient>
<linearGradient id="paint23_linear_227_578" x1="1018.81" y1="1360.36" x2="1810.75" y2="568.421" gradientUnits="userSpaceOnUse">
<stop stop-color="#4d6ad343"/>
<stop offset="1" stop-color="#4d6ad343"/>
</linearGradient>
<linearGradient id="paint24_linear_227_578" x1="978.691" y1="1343.03" x2="1801.77" y2="601.922" gradientUnits="userSpaceOnUse">
<stop stop-color="#4d6ad343"/>
<stop offset="1" stop-color="#4d6ad343"/>
</linearGradient>
<linearGradient id="paint25_linear_227_578" x1="940.088" y1="1325.19" x2="1791.19" y2="635.985" gradientUnits="userSpaceOnUse">
<stop stop-color="#4d6ad343"/>
<stop offset="1" stop-color="#4d6ad343"/>
</linearGradient>
<linearGradient id="paint26_linear_227_578" x1="902.996" y1="1306.93" x2="1778.97" y2="670.502" gradientUnits="userSpaceOnUse">
<stop stop-color="#4d6ad343"/>
<stop offset="1" stop-color="#4d6ad343"/>
</linearGradient>
<linearGradient id="paint27_linear_227_578" x1="867.432" y1="1288.34" x2="1765.11" y2="705.378" gradientUnits="userSpaceOnUse">
<stop stop-color="#4d6ad343"/>
<stop offset="1" stop-color="#4d6ad343"/>
</linearGradient>
<linearGradient id="paint28_linear_227_578" x1="833.395" y1="1269.5" x2="1749.61" y2="740.518" gradientUnits="userSpaceOnUse">
<stop stop-color="#4d6ad343"/>
<stop offset="1" stop-color="#4d6ad343"/>
</linearGradient>
<linearGradient id="paint29_linear_227_578" x1="800.879" y1="1250.5" x2="1732.47" y2="775.825" gradientUnits="userSpaceOnUse">
<stop stop-color="#4d6ad343"/>
<stop offset="1" stop-color="#4d6ad343"/>
</linearGradient>
<linearGradient id="paint30_linear_227_578" x1="769.875" y1="1231.43" x2="1713.7" y2="811.207" gradientUnits="userSpaceOnUse">
<stop stop-color="#4d6ad343"/>
<stop offset="1" stop-color="#4d6ad343"/>
</linearGradient>
<linearGradient id="paint31_linear_227_578" x1="740.381" y1="1212.37" x2="1693.33" y2="846.568" gradientUnits="userSpaceOnUse">
<stop stop-color="#4d6ad343"/>
<stop offset="1" stop-color="#4d6ad343"/>
</linearGradient>
<linearGradient id="paint32_linear_227_578" x1="712.365" y1="1193.42" x2="1671.36" y2="881.828" gradientUnits="userSpaceOnUse">
<stop stop-color="#4d6ad343"/>
<stop offset="1" stop-color="#4d6ad343"/>
</linearGradient>
<linearGradient id="paint33_linear_227_578" x1="685.804" y1="1174.65" x2="1647.81" y2="916.882" gradientUnits="userSpaceOnUse">
<stop stop-color="#4d6ad343"/>
<stop offset="1" stop-color="#4d6ad343"/>
</linearGradient>
<linearGradient id="paint34_linear_227_578" x1="660.68" y1="1156.15" x2="1622.73" y2="951.662" gradientUnits="userSpaceOnUse">
<stop stop-color="#4d6ad343"/>
<stop offset="1" stop-color="#4d6ad343"/>
</linearGradient>
<linearGradient id="paint35_linear_227_578" x1="636.957" y1="1137.99" x2="1596.14" y2="986.07" gradientUnits="userSpaceOnUse">
<stop stop-color="#4d6ad343"/>
<stop offset="1" stop-color="#4d6ad343"/>
</linearGradient>
<linearGradient id="paint36_linear_227_578" x1="614.601" y1="1120.24" x2="1568.08" y2="1020.03" gradientUnits="userSpaceOnUse">
<stop stop-color="#4d6ad343"/>
<stop offset="1" stop-color="#4d6ad343"/>
</linearGradient>
<linearGradient id="paint37_linear_227_578" x1="593.566" y1="1102.98" x2="1538.6" y2="1053.46" gradientUnits="userSpaceOnUse">
<stop stop-color="#4d6ad343"/>
<stop offset="1" stop-color="#4d6ad343"/>
</linearGradient>
<linearGradient id="paint38_linear_227_578" x1="573.813" y1="1086.29" x2="1507.74" y2="1086.29" gradientUnits="userSpaceOnUse">
<stop stop-color="#4d6ad343"/>
<stop offset="1" stop-color="#4d6ad343"/>
</linearGradient>
<linearGradient id="paint39_linear_227_578" x1="555.292" y1="1070.22" x2="1475.55" y2="1118.45" gradientUnits="userSpaceOnUse">
<stop stop-color="#4d6ad343"/>
<stop offset="1" stop-color="#4d6ad343"/>
</linearGradient>
<linearGradient id="paint40_linear_227_578" x1="537.959" y1="1054.83" x2="1442.1" y2="1149.86" gradientUnits="userSpaceOnUse">
<stop stop-color="#4d6ad343"/>
<stop offset="1" stop-color="#4d6ad343"/>
</linearGradient>
<linearGradient id="paint41_linear_227_578" x1="521.752" y1="1040.2" x2="1407.43" y2="1180.48" gradientUnits="userSpaceOnUse">
<stop stop-color="#4d6ad343"/>
<stop offset="1" stop-color="#4d6ad343"/>
</linearGradient>
<linearGradient id="paint42_linear_227_578" x1="506.619" y1="1026.37" x2="1371.61" y2="1210.23" gradientUnits="userSpaceOnUse">
<stop stop-color="#4d6ad343"/>
<stop offset="1" stop-color="#4d6ad343"/>
</linearGradient>
<linearGradient id="paint43_linear_227_578" x1="492.5" y1="1013.4" x2="1334.7" y2="1239.07" gradientUnits="userSpaceOnUse">
<stop stop-color="#4d6ad343"/>
<stop offset="1" stop-color="#4d6ad343"/>
</linearGradient>
<linearGradient id="paint44_linear_227_578" x1="479.328" y1="1001.33" x2="1296.77" y2="1266.93" gradientUnits="userSpaceOnUse">
<stop stop-color="#4d6ad343"/>
<stop offset="1" stop-color="#4d6ad343"/>
</linearGradient>
<linearGradient id="paint45_linear_227_578" x1="467.038" y1="990.198" x2="1257.88" y2="1293.77" gradientUnits="userSpaceOnUse">
<stop stop-color="#4d6ad343"/>
<stop offset="1" stop-color="#4d6ad343"/>
</linearGradient>
<linearGradient id="paint46_linear_227_578" x1="455.575" y1="980.054" x2="1218.12" y2="1319.56" gradientUnits="userSpaceOnUse">
<stop stop-color="#4d6ad343"/>
<stop offset="1" stop-color="#4d6ad343"/>
</linearGradient>
<linearGradient id="paint47_linear_227_578" x1="444.859" y1="970.935" x2="1177.54" y2="1344.25" gradientUnits="userSpaceOnUse">
<stop stop-color="#4d6ad343"/>
<stop offset="1" stop-color="#4d6ad343"/>
</linearGradient>
<linearGradient id="paint48_linear_227_578" x1="434.835" y1="962.862" x2="1136.23" y2="1367.81" gradientUnits="userSpaceOnUse">
<stop stop-color="#4d6ad343"/>
<stop offset="1" stop-color="#4d6ad343"/>
</linearGradient>
<linearGradient id="paint49_linear_227_578" x1="425.422" y1="955.865" x2="1094.26" y2="1390.21" gradientUnits="userSpaceOnUse">
<stop stop-color="#4d6ad343"/>
<stop offset="1" stop-color="#4d6ad343"/>
</linearGradient>
<linearGradient id="paint50_linear_227_578" x1="416.552" y1="949.968" x2="1051.71" y2="1411.43" gradientUnits="userSpaceOnUse">
<stop stop-color="#4d6ad343"/>
<stop offset="1" stop-color="#4d6ad343"/>
</linearGradient>
<linearGradient id="paint51_linear_227_578" x1="408.149" y1="945.186" x2="1008.64" y2="1431.46" gradientUnits="userSpaceOnUse">
<stop stop-color="#4d6ad343"/>
<stop offset="1" stop-color="#4d6ad343"/>
</linearGradient>
<linearGradient id="paint52_linear_227_578" x1="400.146" y1="941.535" x2="965.15" y2="1450.27" gradientUnits="userSpaceOnUse">
<stop stop-color="#4d6ad343"/>
<stop offset="1" stop-color="#4d6ad343"/>
</linearGradient>
<linearGradient id="paint53_linear_227_578" x1="392.473" y1="939.018" x2="921.308" y2="1467.85" gradientUnits="userSpaceOnUse">
<stop stop-color="#4d6ad343"/>
<stop offset="1" stop-color="#4d6ad343"/>
</linearGradient>
<linearGradient id="paint54_linear_227_578" x1="385.058" y1="937.648" x2="877.192" y2="1484.22" gradientUnits="userSpaceOnUse">
<stop stop-color="#4d6ad343"/>
<stop offset="1" stop-color="#4d6ad343"/>
</linearGradient>
<linearGradient id="paint55_linear_227_578" x1="377.823" y1="937.411" x2="832.872" y2="1499.35" gradientUnits="userSpaceOnUse">
<stop stop-color="#4d6ad343"/>
<stop offset="1" stop-color="#4d6ad343"/>
</linearGradient>
<linearGradient id="paint56_linear_227_578" x1="370.707" y1="938.312" x2="788.433" y2="1513.26" gradientUnits="userSpaceOnUse">
<stop stop-color="#4d6ad343"/>
<stop offset="1" stop-color="#4d6ad343"/>
</linearGradient>
<linearGradient id="paint57_linear_227_578" x1="363.635" y1="940.342" x2="743.942" y2="1525.96" gradientUnits="userSpaceOnUse">
<stop stop-color="#4d6ad343"/>
<stop offset="1" stop-color="#4d6ad343"/>
</linearGradient>
<linearGradient id="paint58_linear_227_578" x1="356.541" y1="943.483" x2="699.477" y2="1537.47" gradientUnits="userSpaceOnUse">
<stop stop-color="#4d6ad343"/>
<stop offset="1" stop-color="#4d6ad343"/>
</linearGradient>
<linearGradient id="paint59_linear_227_578" x1="349.363" y1="947.729" x2="655.112" y2="1547.79" gradientUnits="userSpaceOnUse">
<stop stop-color="#4d6ad343"/>
<stop offset="1" stop-color="#4d6ad343"/>
</linearGradient>
<linearGradient id="paint60_linear_227_578" x1="342.024" y1="953.046" x2="610.904" y2="1556.96" gradientUnits="userSpaceOnUse">
<stop stop-color="#4d6ad343"/>
<stop offset="1" stop-color="#4d6ad343"/>
</linearGradient>
<linearGradient id="paint61_linear_227_578" x1="334.471" y1="959.416" x2="566.931" y2="1565" gradientUnits="userSpaceOnUse">
<stop stop-color="#4d6ad343"/>
<stop offset="1" stop-color="#4d6ad343"/>
</linearGradient>
<linearGradient id="paint62_linear_227_578" x1="326.64" y1="966.811" x2="523.255" y2="1571.93" gradientUnits="userSpaceOnUse">
<stop stop-color="#4d6ad343"/>
<stop offset="1" stop-color="#4d6ad343"/>
</linearGradient>
<linearGradient id="paint63_linear_227_578" x1="318.476" y1="975.194" x2="479.942" y2="1577.79" gradientUnits="userSpaceOnUse">
<stop stop-color="#4d6ad343"/>
<stop offset="1" stop-color="#4d6ad343"/>
</linearGradient>
<linearGradient id="paint64_linear_227_578" x1="309.916" y1="984.541" x2="437.045" y2="1582.63" gradientUnits="userSpaceOnUse">
<stop stop-color="#4d6ad343"/>
<stop offset="1" stop-color="#4d6ad343"/>
</linearGradient>
<linearGradient id="paint65_linear_227_578" x1="300.921" y1="994.806" x2="394.634" y2="1586.48" gradientUnits="userSpaceOnUse">
<stop stop-color="#4d6ad343"/>
<stop offset="1" stop-color="#4d6ad343"/>
</linearGradient>
<linearGradient id="paint66_linear_227_578" x1="291.43" y1="1005.95" x2="352.751" y2="1589.39" gradientUnits="userSpaceOnUse">
<stop stop-color="#4d6ad343"/>
<stop offset="1" stop-color="#4d6ad343"/>
</linearGradient>
<linearGradient id="paint67_linear_227_578" x1="281.388" y1="1017.93" x2="311.441" y2="1591.39" gradientUnits="userSpaceOnUse">
<stop stop-color="#4d6ad343"/>
<stop offset="1" stop-color="#4d6ad343"/>
</linearGradient>
<linearGradient id="paint68_linear_227_578" x1="270.768" y1="1030.7" x2="270.768" y2="1592.55" gradientUnits="userSpaceOnUse">
<stop stop-color="#4d6ad343"/>
<stop offset="1" stop-color="#4d6ad343"/>
</linearGradient>
</defs>
</svg>
