<svg width="824" height="211" viewBox="0 0 824 211" fill="none" xmlns="http://www.w3.org/2000/svg">
<path d="M8.20711 0.292893C7.81658 -0.0976311 7.18342 -0.0976311 6.79289 0.292893L0.428932 6.65685C0.0384078 7.04738 0.0384078 7.68054 0.428932 8.07107C0.819457 8.46159 1.45262 8.46159 1.84315 8.07107L7.5 2.41421L13.1569 8.07107C13.5474 8.46159 14.1805 8.46159 14.5711 8.07107C14.9616 7.68054 14.9616 7.04738 14.5711 6.65685L8.20711 0.292893ZM7.5 110H6.5C6.5 110.552 6.94772 111 7.5 111V110ZM816 110H817C817 109.448 816.552 109 816 109V110ZM815.293 210.707C815.683 211.098 816.317 211.098 816.707 210.707L823.071 204.343C823.462 203.953 823.462 203.319 823.071 202.929C822.681 202.538 822.047 202.538 821.657 202.929L816 208.586L810.343 202.929C809.953 202.538 809.319 202.538 808.929 202.929C808.538 203.319 808.538 203.953 808.929 204.343L815.293 210.707ZM6.5 1V2.94643H8.5V1H6.5ZM6.5 6.83929V10.7321H8.5V6.83929H6.5ZM6.5 14.625V18.5179H8.5V14.625H6.5ZM6.5 22.4107V26.3036H8.5V22.4107H6.5ZM6.5 30.1964V34.0893H8.5V30.1964H6.5ZM6.5 37.9821V41.875H8.5V37.9821H6.5ZM6.5 45.7679V49.6607H8.5V45.7679H6.5ZM6.5 53.5536V57.4464H8.5V53.5536H6.5ZM6.5 61.3393V65.2321H8.5V61.3393H6.5ZM6.5 69.125V73.0179H8.5V69.125H6.5ZM6.5 76.9107V80.8036H8.5V76.9107H6.5ZM6.5 84.6964V88.5893H8.5V84.6964H6.5ZM6.5 92.4822V96.375H8.5V92.4822H6.5ZM6.5 100.268V104.161H8.5V100.268H6.5ZM6.5 108.054V110H8.5V108.054H6.5ZM7.5 111H9.50124V109H7.5V111ZM13.5037 111H17.5062V109H13.5037V111ZM21.5087 111H25.5111V109H21.5087V111ZM29.5136 111H33.5161V109H29.5136V111ZM37.5186 111H41.521V109H37.5186V111ZM45.5235 111H49.526V109H45.5235V111ZM53.5285 111H57.5309V109H53.5285V111ZM61.5334 111H65.5359V109H61.5334V111ZM69.5384 111H73.5408V109H69.5384V111ZM77.5433 111H81.5458V109H77.5433V111ZM85.5483 111H89.5507V109H85.5483V111ZM93.5532 111H97.5557V109H93.5532V111ZM101.558 111H105.561V109H101.558V111ZM109.563 111H113.566V109H109.563V111ZM117.568 111H121.571V109H117.568V111ZM125.573 111H129.575V109H125.573V111ZM133.578 111H137.58V109H133.578V111ZM141.583 111H145.585V109H141.583V111ZM149.588 111H153.59V109H149.588V111ZM157.593 111H161.595V109H157.593V111ZM165.598 111H169.6V109H165.598V111ZM173.603 111H177.605V109H173.603V111ZM181.608 111H185.61V109H181.608V111ZM189.613 111H193.615V109H189.613V111ZM197.617 111H201.62V109H197.617V111ZM205.622 111H209.625V109H205.622V111ZM213.627 111H217.63V109H213.627V111ZM221.632 111H225.635V109H221.632V111ZM229.637 111H233.64V109H229.637V111ZM237.642 111H241.645V109H237.642V111ZM245.647 111H249.65V109H245.647V111ZM253.652 111H257.655V109H253.652V111ZM261.657 111H265.66V109H261.657V111ZM269.662 111H273.664V109H269.662V111ZM277.667 111H281.669V109H277.667V111ZM285.672 111H289.674V109H285.672V111ZM293.677 111H297.679V109H293.677V111ZM301.682 111H305.684V109H301.682V111ZM309.687 111H313.689V109H309.687V111ZM317.692 111H321.694V109H317.692V111ZM325.697 111H329.699V109H325.697V111ZM333.702 111H337.704V109H333.702V111ZM341.706 111H345.709V109H341.706V111ZM349.711 111H353.714V109H349.711V111ZM357.716 111H361.719V109H357.716V111ZM365.721 111H369.724V109H365.721V111ZM373.726 111H377.729V109H373.726V111ZM381.731 111H385.734V109H381.731V111ZM389.736 111H393.739V109H389.736V111ZM397.741 111H401.744V109H397.741V111ZM405.746 111H409.749V109H405.746V111ZM413.751 111H417.753V109H413.751V111ZM421.756 111H425.758V109H421.756V111ZM429.761 111H433.763V109H429.761V111ZM437.766 111H441.768V109H437.766V111ZM445.771 111H449.773V109H445.771V111ZM453.776 111H457.778V109H453.776V111ZM461.781 111H465.783V109H461.781V111ZM469.786 111H473.788V109H469.786V111ZM477.791 111H481.793V109H477.791V111ZM485.796 111H489.798V109H485.796V111ZM493.8 111H497.803V109H493.8V111ZM501.805 111H505.808V109H501.805V111ZM509.81 111H513.813V109H509.81V111ZM517.815 111H521.818V109H517.815V111ZM525.82 111H529.823V109H525.82V111ZM533.825 111H537.828V109H533.825V111ZM541.83 111H545.833V109H541.83V111ZM549.835 111H553.838V109H549.835V111ZM557.84 111H561.843V109H557.84V111ZM565.845 111H569.848V109H565.845V111ZM573.85 111H577.853V109H573.85V111ZM581.855 111H585.858V109H581.855V111ZM589.86 111H593.863V109H589.86V111ZM597.865 111H601.868V109H597.865V111ZM605.87 111H609.873V109H605.87V111ZM613.875 111H617.878V109H613.875V111ZM621.88 111H625.883V109H621.88V111ZM629.885 111H633.888V109H629.885V111ZM637.89 111H641.893V109H637.89V111ZM645.895 111H649.898V109H645.895V111ZM653.9 111H657.903V109H653.9V111ZM661.905 111H665.908V109H661.905V111ZM669.91 111H673.913V109H669.91V111ZM677.915 111H681.918V109H677.915V111ZM685.92 111H689.923V109H685.92V111ZM693.925 111H697.928V109H693.925V111ZM701.93 111H705.933V109H701.93V111ZM709.935 111H713.938V109H709.935V111ZM717.94 111H721.943V109H717.94V111ZM725.945 111H729.948V109H725.945V111ZM733.95 111H737.953V109H733.95V111ZM741.955 111H745.958V109H741.955V111ZM749.96 111H753.963V109H749.96V111ZM757.965 111H761.968V109H757.965V111ZM765.97 111H769.973V109H765.97V111ZM773.975 111H777.978V109H773.975V111ZM781.98 111H785.983V109H781.98V111ZM789.985 111H793.988V109H789.985V111ZM797.99 111H801.993V109H797.99V111ZM805.995 111H809.998V109H805.995V111ZM814 111H816V109H814V111ZM815 110V111.923H817V110H815ZM815 115.769V119.615H817V115.769H815ZM815 123.462V127.308H817V123.462H815ZM815 131.154V135H817V131.154H815ZM815 138.846V142.692H817V138.846H815ZM815 146.538V150.385H817V146.538H815ZM815 154.231V158.077H817V154.231H815ZM815 161.923V165.769H817V161.923H815ZM815 169.615V173.462H817V169.615H815ZM815 177.308V181.154H817V177.308H815ZM815 185V188.846H817V185H815ZM815 192.692V196.538H817V192.692H815ZM815 200.385V204.231H817V200.385H815ZM815 208.077V210H817V208.077H815Z" fill="#D6D7EF" fill-opacity="0.5"/>
</svg>
