<svg width="751" height="211" viewBox="0 0 751 211" fill="none" xmlns="http://www.w3.org/2000/svg">
<path d="M8.70711 210.707C8.31658 211.098 7.68342 211.098 7.29289 210.707L0.928932 204.343C0.538408 203.953 0.538408 203.319 0.928932 202.929C1.31946 202.538 1.95262 202.538 2.34315 202.929L8 208.586L13.6569 202.929C14.0474 202.538 14.6805 202.538 15.0711 202.929C15.4616 203.319 15.4616 203.953 15.0711 204.343L8.70711 210.707ZM8 101H7C7 100.448 7.44772 100 8 100V101ZM743 101H744C744 101.552 743.552 102 743 102V101ZM742.293 0.292892C742.683 -0.0976257 743.317 -0.0976257 743.707 0.292892L750.071 6.65686C750.462 7.04738 750.462 7.68054 750.071 8.07108C749.681 8.46159 749.047 8.46159 748.657 8.07108L743 2.41422L737.343 8.07108C736.953 8.46159 736.319 8.46159 735.929 8.07108C735.538 7.68054 735.538 7.04738 735.929 6.65686L742.293 0.292892ZM7 210V208.054H9V210H7ZM7 204.161V200.268H9V204.161H7ZM7 196.375V192.482H9V196.375H7ZM7 188.589V184.696H9V188.589H7ZM7 180.804V176.911H9V180.804H7ZM7 173.018V169.125H9V173.018H7ZM7 165.232V161.339H9V165.232H7ZM7 157.446V153.554H9V157.446H7ZM7 149.661V145.768H9V149.661H7ZM7 141.875V137.982H9V141.875H7ZM7 134.089V130.196H9V134.089H7ZM7 126.304V122.411H9V126.304H7ZM7 118.518V114.625H9V118.518H7ZM7 110.732V106.839H9V110.732H7ZM7 102.946V101H9V102.946H7ZM8 100H9.99728V102H8V100ZM13.9918 100H17.9864V102H13.9918V100ZM21.981 100H25.9755V102H21.981V100ZM29.9701 100H33.9647V102H29.9701V100ZM37.9592 100H41.9538V102H37.9592V100ZM45.9484 100H49.9429V102H45.9484V100ZM53.9375 100H57.9321V102H53.9375V100ZM61.9266 100H65.9212V102H61.9266V100ZM69.9158 100H73.9103V102H69.9158V100ZM77.9049 100H81.8995V102H77.9049V100ZM85.894 100H89.8886V102H85.894V100ZM93.8832 100H97.8777V102H93.8832V100ZM101.872 100H105.867V102H101.872V100ZM109.861 100H113.856V102H109.861V100ZM117.851 100H121.845V102H117.851V100ZM125.84 100H129.834V102H125.84V100ZM133.829 100H137.823V102H133.829V100ZM141.818 100H145.813V102H141.818V100ZM149.807 100H153.802V102H149.807V100ZM157.796 100H161.791V102H157.796V100ZM165.785 100H169.78V102H165.785V100ZM173.775 100H177.769V102H173.775V100ZM181.764 100H185.758V102H181.764V100ZM189.753 100H193.747V102H189.753V100ZM197.742 100H201.736V102H197.742V100ZM205.731 100H209.726V102H205.731V100ZM213.72 100H217.715V102H213.72V100ZM221.709 100H225.704V102H221.709V100ZM229.698 100H233.693V102H229.698V100ZM237.688 100H241.682V102H237.688V100ZM245.677 100H249.671V102H245.677V100ZM253.666 100H257.66V102H253.666V100ZM261.655 100H265.65V102H261.655V100ZM269.644 100H273.639V102H269.644V100ZM277.633 100H281.628V102H277.633V100ZM285.622 100H289.617V102H285.622V100ZM293.612 100H297.606V102H293.612V100ZM301.601 100H305.595V102H301.601V100ZM309.59 100H313.584V102H309.59V100ZM317.579 100H321.574V102H317.579V100ZM325.568 100H329.563V102H325.568V100ZM333.557 100H337.552V102H333.557V100ZM341.546 100H345.541V102H341.546V100ZM349.535 100H353.53V102H349.535V100ZM357.525 100H361.519V102H357.525V100ZM365.514 100H369.508V102H365.514V100ZM373.503 100H377.497V102H373.503V100ZM381.492 100H385.487V102H381.492V100ZM389.481 100H393.476V102H389.481V100ZM397.47 100H401.465V102H397.47V100ZM405.459 100H409.454V102H405.459V100ZM413.449 100H417.443V102H413.449V100ZM421.438 100H425.432V102H421.438V100ZM429.427 100H433.421V102H429.427V100ZM437.416 100H441.411V102H437.416V100ZM445.405 100H449.4V102H445.405V100ZM453.394 100H457.389V102H453.394V100ZM461.383 100H465.378V102H461.383V100ZM469.373 100H473.367V102H469.373V100ZM477.362 100H481.356V102H477.362V100ZM485.351 100H489.345V102H485.351V100ZM493.34 100H497.335V102H493.34V100ZM501.329 100H505.324V102H501.329V100ZM509.318 100H513.313V102H509.318V100ZM517.307 100H521.302V102H517.307V100ZM525.296 100H529.291V102H525.296V100ZM533.286 100H537.28V102H533.286V100ZM541.275 100H545.269V102H541.275V100ZM549.264 100H553.258V102H549.264V100ZM557.253 100H561.248V102H557.253V100ZM565.242 100H569.237V102H565.242V100ZM573.231 100H577.226V102H573.231V100ZM581.22 100H585.215V102H581.22V100ZM589.21 100H593.204V102H589.21V100ZM597.199 100H601.193V102H597.199V100ZM605.188 100H609.182V102H605.188V100ZM613.177 100H617.172V102H613.177V100ZM621.166 100H625.161V102H621.166V100ZM629.155 100H633.15V102H629.155V100ZM637.144 100H641.139V102H637.144V100ZM645.133 100H649.128V102H645.133V100ZM653.123 100H657.117V102H653.123V100ZM661.112 100H665.106V102H661.112V100ZM669.101 100H673.095V102H669.101V100ZM677.09 100H681.085V102H677.09V100ZM685.079 100H689.074V102H685.079V100ZM693.068 100H697.063V102H693.068V100ZM701.057 100H705.052V102H701.057V100ZM709.047 100H713.041V102H709.047V100ZM717.036 100H721.03V102H717.036V100ZM725.025 100H729.019V102H725.025V100ZM733.014 100H737.009V102H733.014V100ZM741.003 100H743V102H741.003V100ZM742 101V99.0769H744V101H742ZM742 95.2308V91.3846H744V95.2308H742ZM742 87.5385V83.6923H744V87.5385H742ZM742 79.8462V76H744V79.8462H742ZM742 72.1539V68.3077H744V72.1539H742ZM742 64.4615V60.6154H744V64.4615H742ZM742 56.7692V52.9231H744V56.7692H742ZM742 49.0769V45.2308H744V49.0769H742ZM742 41.3846V37.5385H744V41.3846H742ZM742 33.6923V29.8462H744V33.6923H742ZM742 26V22.1539H744V26H742ZM742 18.3077V14.4615H744V18.3077H742ZM742 10.6154V6.76924H744V10.6154H742ZM742 2.9231V1H744V2.9231H742Z" fill="#D6D7EF" fill-opacity="0.5"/>
</svg>
