<svg width="48" height="48" viewBox="0 0 48 48" fill="none" xmlns="http://www.w3.org/2000/svg">
<path opacity="0.3" fill-rule="evenodd" clip-rule="evenodd" d="M24 44C14.0589 44 6 35.9411 6 26C6 16.0589 14.0589 8 24 8C33.9411 8 42 16.0589 42 26C42 35.9411 33.9411 44 24 44Z" fill="url(#paint0_linear_4_4428)"/>
<path fill-rule="evenodd" clip-rule="evenodd" d="M22.9644 15.4617C22.9844 15.2012 23.2016 15 23.4629 15H24.5474C24.8043 15 25.0194 15.1946 25.0449 15.4502L25.9999 25L32.748 28.856C32.9037 28.9451 32.9999 29.1107 32.9999 29.2902V30.3454C32.9999 30.6751 32.6864 30.9145 32.3683 30.8278L22.3986 28.1087C22.1672 28.0456 22.0132 27.8271 22.0316 27.588L22.9644 15.4617Z" fill="url(#paint1_linear_4_4428)"/>
<defs>
<linearGradient id="paint0_linear_4_4428" x1="24" y1="8" x2="52.789" y2="14.2914" gradientUnits="userSpaceOnUse">
<stop stop-color="#4D69D3"/>
<stop offset="1" stop-color="#55BDD5"/>
</linearGradient>
<linearGradient id="paint1_linear_4_4428" x1="27.5301" y1="15" x2="36.4902" y2="16.3588" gradientUnits="userSpaceOnUse">
<stop stop-color="#4D69D3"/>
<stop offset="1" stop-color="#55BDD5"/>
</linearGradient>
</defs>
</svg>
