<svg width="26" height="26" viewBox="0 0 26 26" fill="none" xmlns="http://www.w3.org/2000/svg">
<path d="M13 0C5.8208 0 0 5.8208 0 13C0 20.1792 5.8208 26 13 26C20.1792 26 26 20.1792 26 13C26 5.8208 20.1792 0 13 0ZM17.5291 8.66667H15.6565C14.4906 8.66667 14.0833 9.28239 14.0833 10.5276V11.9167H17.5005L17.0361 15.1667H14.0833V23.7794C13.7268 23.8143 13.366 23.8333 13 23.8333C12.2584 23.8333 11.5337 23.7572 10.8333 23.6154V15.1667H7.58333V11.9167H10.8333V10.1711C10.8333 6.86711 12.4435 5.41667 15.1899 5.41667C16.505 5.41667 17.2 5.514 17.5291 5.55843V8.66667Z" fill="white"/>
</svg>
