<svg width="30" height="30" viewBox="0 0 30 30" fill="none" xmlns="http://www.w3.org/2000/svg">
<path d="M29.0462 0.864621C28.2986 0.100619 27.1922 -0.181957 26.1606 0.117065L2.10425 7.06784C1.01581 7.36985 0.244331 8.23253 0.0365109 9.32695C-0.175795 10.4423 0.56578 11.8597 1.53461 12.4517L9.05652 17.0447C9.828 17.5172 10.8237 17.3991 11.4622 16.7592L20.0755 8.14582C20.5091 7.69579 21.2267 7.69579 21.6603 8.14582C22.0939 8.5779 22.0939 9.2821 21.6603 9.73064L13.032 18.344C12.3921 18.9839 12.2725 19.9766 12.7435 20.7496L17.3394 28.2999C17.8777 29.1955 18.8047 29.7053 19.8213 29.7053C19.9409 29.7053 20.0755 29.7053 20.1951 29.6889C21.3613 29.5409 22.2883 28.747 22.6321 27.6256L29.7638 3.75019C30.0778 2.73351 29.7937 1.62713 29.0462 0.864621Z" fill="url(#paint0_linear_168_4653)"/>
<defs>
<linearGradient id="paint0_linear_168_4653" x1="14.945" y1="0" x2="14.945" y2="29.7053" gradientUnits="userSpaceOnUse">
<stop stop-color="#54ADD5"/>
<stop offset="1" stop-color="#4D69D3"/>
</linearGradient>
</defs>
</svg>
