<svg width="26" height="26" viewBox="0 0 26 26" fill="none" xmlns="http://www.w3.org/2000/svg">
<path d="M13 0C5.83175 0 0 5.83101 0 13C0 20.169 5.83175 26 13 26C20.1683 26 26 20.169 26 13C26 5.83101 20.1683 0 13 0ZM9.04348 18.6522H6.78261V10.1739H9.04348V18.6522ZM7.91304 8.47826C7.28821 8.47826 6.78261 7.97266 6.78261 7.34783C6.78261 6.723 7.28821 6.21739 7.91304 6.21739C8.53787 6.21739 9.04348 6.723 9.04348 7.34783C9.04348 7.97266 8.53787 8.47826 7.91304 8.47826ZM19.7826 18.6522H17.5217V14.413C17.5217 13.3253 16.6312 12.4348 15.5435 12.4348C14.4557 12.4348 13.5652 13.3253 13.5652 14.413V18.6522H11.3043V10.1739H13.5652V11.2006C14.2254 10.5662 15.121 10.1739 16.1087 10.1739C18.1377 10.1739 19.7826 11.8188 19.7826 13.8478V18.6522Z" fill="white"/>
</svg>
