<svg width="28" height="28" viewBox="0 0 28 28" fill="none" xmlns="http://www.w3.org/2000/svg">
<rect x="4.66602" y="5.8335" width="18.6667" height="3.5" rx="1.5" fill="white"/>
<path opacity="0.3" fill-rule="evenodd" clip-rule="evenodd" d="M6.16602 11.6665C5.33759 11.6665 4.66602 12.3381 4.66602 13.1665V13.6665C4.66602 14.4949 5.33759 15.1665 6.16602 15.1665H14.8327C15.6611 15.1665 16.3327 14.4949 16.3327 13.6665V13.1665C16.3327 12.3381 15.6611 11.6665 14.8327 11.6665H6.16602ZM6.16602 17.5C5.33759 17.5 4.66602 18.1716 4.66602 19V19.5C4.66602 20.3284 5.33759 21 6.16601 21H21.8327C22.6611 21 23.3327 20.3284 23.3327 19.5V19C23.3327 18.1716 22.6611 17.5 21.8327 17.5H6.16602Z" fill="white"/>
</svg>
