<svg width="16" height="16" viewBox="0 0 16 16" fill="none" xmlns="http://www.w3.org/2000/svg">
<path fill-rule="evenodd" clip-rule="evenodd" d="M7.94343 9.42847L9.41278 7.95912C9.81859 7.5533 9.9192 6.93334 9.66254 6.42002L9.57928 6.25352C9.32263 5.7402 9.42323 5.12024 9.82905 4.71442L11.6509 2.89255C11.7811 2.76238 11.9921 2.76238 12.1223 2.89255C12.1477 2.91789 12.1687 2.94714 12.1848 2.97918L12.9207 4.45115C13.4838 5.57722 13.2631 6.93724 12.3728 7.82748L8.37362 11.8267C7.4046 12.7957 5.97125 13.1341 4.67116 12.7007L3.06151 12.1642C2.88686 12.106 2.79248 11.9172 2.85069 11.7425C2.86706 11.6934 2.89463 11.6488 2.93122 11.6122L4.69873 9.84473C5.10455 9.43892 5.72451 9.33832 6.23783 9.59497L6.40433 9.67823C6.91765 9.93489 7.53761 9.83428 7.94343 9.42847Z" fill="white"/>
</svg>
