<svg width="24" height="24" viewBox="0 0 24 24" fill="none" xmlns="http://www.w3.org/2000/svg">
<path opacity="0.3" fill-rule="evenodd" clip-rule="evenodd" d="M2 12C2 17.5228 6.47715 22 12 22C17.5228 22 22 17.5228 22 12C22 6.47715 17.5228 2 12 2C6.47715 2 2 6.47715 2 12Z" fill="#4D69D3"/>
<path d="M16.5368 9.32262C16.8715 8.98788 17.4142 8.98788 17.7489 9.32262C18.0837 9.65735 18.0837 10.2001 17.7489 10.5348L12.6061 15.6777C12.2816 16.0022 11.7591 16.0135 11.4208 15.7034L6.27795 10.9891C5.92899 10.6692 5.90542 10.127 6.2253 9.77809C6.54518 9.42913 7.08738 9.40556 7.43634 9.72544L11.9742 13.8852L16.5368 9.32262Z" fill="#4D69D3"/>
</svg>
