<svg width="32" height="32" viewBox="0 0 32 32" fill="none" xmlns="http://www.w3.org/2000/svg">
<path opacity="0.3" fill-rule="evenodd" clip-rule="evenodd" d="M16 29.3332C23.3638 29.3332 29.3334 23.3636 29.3334 15.9998C29.3334 8.63604 23.3638 2.6665 16 2.6665C8.63622 2.6665 2.66669 8.63604 2.66669 15.9998C2.66669 23.3636 8.63622 29.3332 16 29.3332Z" fill="white"/>
<path fill-rule="evenodd" clip-rule="evenodd" d="M10.1549 10.6261C9.76434 11.0166 9.76434 11.6498 10.1549 12.0403L14.1618 16.0473L10.1548 20.0542C9.76431 20.4447 9.76431 21.0779 10.1548 21.4684L10.6262 21.9398C11.0168 22.3304 11.6499 22.3304 12.0404 21.9398L16.0474 17.9329L20.0544 21.9398C20.4449 22.3304 21.0781 22.3303 21.4686 21.9398L21.94 21.4684C22.3305 21.0779 22.3305 20.4447 21.94 20.0542L17.933 16.0473L21.9399 12.0403C22.3305 11.6498 22.3305 11.0167 21.9399 10.6261L21.4685 10.1547C21.078 9.76421 20.4448 9.76421 20.0543 10.1547L16.0474 14.1616L12.0405 10.1547C11.65 9.76419 11.0168 9.76419 10.6263 10.1547L10.1549 10.6261Z" fill="white"/>
</svg>
