<svg width="12" height="9" viewBox="0 0 12 9" fill="none" xmlns="http://www.w3.org/2000/svg">
<path fill-rule="evenodd" clip-rule="evenodd" d="M2 0C0.895431 0 0 0.895431 0 2V6.66667C0 7.77124 0.895431 8.66667 2 8.66667H10C11.1046 8.66667 12 7.77124 12 6.66667V2C12 0.895431 11.1046 0 10 0H2ZM10.7736 1.42962C10.6427 1.18648 10.3394 1.09551 10.0963 1.22643L6.00001 3.43212L1.90372 1.22643C1.66059 1.09551 1.35736 1.18648 1.22644 1.42962C1.09552 1.67275 1.18649 1.97598 1.42962 2.1069L5.76296 4.44024C5.91095 4.51992 6.08907 4.51992 6.23706 4.44024L10.5704 2.1069C10.8135 1.97598 10.9045 1.67275 10.7736 1.42962Z" fill="white"/>
</svg>
