<svg width="122" height="134" viewBox="0 0 122 134" fill="none" xmlns="http://www.w3.org/2000/svg">
<path fill-rule="evenodd" clip-rule="evenodd" d="M63.8751 96.9391C63.8751 97.6812 64.8375 97.9726 65.2492 97.3551L85.4311 67.0822C85.7634 66.5838 85.4061 65.9162 84.8071 65.9162H69.4585V46.0599C69.4585 45.3179 68.496 45.0265 68.0844 45.6439L47.9025 75.9168C47.5702 76.4153 47.9275 77.0829 48.5265 77.0829H63.8751V96.9391Z" fill="url(#paint0_linear_292_72)"/>
<path opacity="0.3" fill-rule="evenodd" clip-rule="evenodd" d="M30.375 53.458C30.375 52.6296 31.0466 51.958 31.875 51.958H51.2083C52.0368 51.958 52.7083 52.6296 52.7083 53.458V58.833C52.7083 59.6614 52.0368 60.333 51.2083 60.333H31.875C31.0466 60.333 30.375 59.6614 30.375 58.833V53.458ZM30.375 86.958C30.375 86.1296 31.0466 85.458 31.875 85.458H51.2083C52.0368 85.458 52.7083 86.1296 52.7083 86.958V92.333C52.7083 93.1614 52.0368 93.833 51.2083 93.833H31.875C31.0466 93.833 30.375 93.1614 30.375 92.333V86.958ZM26.292 68.708C25.4636 68.708 24.792 69.3796 24.792 70.208V75.583C24.792 76.4114 25.4636 77.083 26.292 77.083H42.8337C43.6621 77.083 44.3337 76.4114 44.3337 75.583V70.208C44.3337 69.3796 43.6621 68.708 42.8337 68.708H26.292Z" fill="url(#paint1_linear_292_72)"/>
<g opacity="0.1">
<path opacity="0.01" d="M47.875 66.5424C48.1917 48.4 50.1622 32.067 53.0623 20.3417C54.5164 14.4631 56.1779 9.85204 57.9177 6.76708C58.7883 5.22338 59.6267 4.15571 60.3887 3.49807C61.1384 2.85105 61.7065 2.68725 62.1187 2.69445C62.5308 2.70164 63.0929 2.88517 63.8195 3.55796C64.5581 4.24179 65.3587 5.33807 66.1749 6.91121C67.806 10.055 69.3056 14.7212 70.5536 20.647C73.0427 32.4664 74.442 48.8582 74.1254 67.0006C73.8087 85.143 71.8382 101.476 68.938 113.201C67.484 119.08 65.8225 123.691 64.0827 126.776C63.2121 128.32 62.3737 129.387 61.6117 130.045C60.862 130.692 60.2939 130.856 59.8817 130.849C59.4696 130.841 58.9075 130.658 58.1808 129.985C57.4423 129.301 56.6416 128.205 55.8255 126.632C54.1944 123.488 52.6948 118.822 51.4468 112.896C48.9576 101.077 47.5583 84.6848 47.875 66.5424Z" stroke="url(#paint2_linear_292_72)" stroke-width="4"/>
<path opacity="0.0204082" d="M48.1595 64.0412C51.8721 46.5752 56.868 31.1748 61.9112 20.4047C64.4398 15.0048 66.9331 10.8717 69.2155 8.22777C70.3573 6.90514 71.3779 6.03592 72.2472 5.54723C73.1016 5.06686 73.6946 5.01349 74.108 5.10136C74.5215 5.18924 75.0415 5.47919 75.6266 6.26555C76.222 7.06555 76.8008 8.27476 77.306 9.94746C78.3157 13.2911 78.9123 18.0811 79.0259 24.0426C79.2525 35.9328 77.5527 52.0337 73.8402 69.4998C70.1276 86.9658 65.1317 102.366 60.0885 113.136C57.5599 118.536 55.0666 122.669 52.7842 125.313C51.6424 126.636 50.6218 127.505 49.7525 127.994C48.8981 128.474 48.3051 128.527 47.8917 128.44C47.4783 128.352 46.9582 128.062 46.3731 127.275C45.7777 126.475 45.1989 125.266 44.6937 123.594C43.684 120.25 43.0874 115.46 42.9738 109.498C42.7472 97.6082 44.447 81.5072 48.1595 64.0412Z" stroke="url(#paint3_linear_292_72)" stroke-width="4"/>
<path opacity="0.0408163" d="M48.9162 61.6431C55.7803 45.4723 63.5202 31.5497 70.4499 22.115C73.9245 17.3845 77.1287 13.8744 79.8498 11.7633C82.7229 9.53433 84.4092 9.34716 85.2279 9.69468C86.0466 10.0422 87.0834 11.3853 87.4757 15.0003C87.8474 18.4242 87.5483 23.1675 86.5591 28.9529C84.5861 40.4917 79.9476 55.7307 73.0835 71.9015C66.2194 88.0722 58.4795 101.995 51.5498 111.43C48.0753 116.16 44.871 119.67 42.1499 121.781C39.2769 124.01 37.5906 124.197 36.7719 123.85C35.9532 123.502 34.9164 122.159 34.524 118.544C34.1524 115.12 34.4515 110.377 35.4407 104.592C37.4136 93.0529 42.0522 77.8138 48.9162 61.6431Z" stroke="url(#paint4_linear_292_72)" stroke-width="4"/>
<path opacity="0.0612245" d="M50.1168 59.4311C59.7786 45.1068 69.8858 33.1343 78.3805 25.3527C82.6398 21.451 86.41 18.6807 89.4512 17.1708C92.6546 15.5804 94.3411 15.7215 95.0919 16.2279C95.8428 16.7343 96.6053 18.2452 96.3307 21.8112C96.07 25.1965 94.9138 29.7299 92.8917 35.1407C88.859 45.9319 81.5445 59.788 71.8826 74.1123C62.2208 88.4366 52.1136 100.409 43.6189 108.191C39.3596 112.092 35.5894 114.863 32.5482 116.373C29.3448 117.963 27.6583 117.822 26.9075 117.316C26.1566 116.809 25.3941 115.298 25.6687 111.732C25.9294 108.347 27.0856 103.813 29.1077 98.4027C33.1404 87.6115 40.4549 73.7554 50.1168 59.4311Z" stroke="url(#paint5_linear_292_72)" stroke-width="4"/>
<path opacity="0.0816327" d="M51.7183 57.4891C63.7314 45.476 75.7514 35.8375 85.4387 29.9538C90.296 27.0036 94.4692 25.0578 97.7021 24.192C101.099 23.2822 102.723 23.7447 103.375 24.3967C104.027 25.0488 104.49 26.6725 103.58 30.0698C102.714 33.3028 100.768 37.476 97.8182 42.3333C91.9345 52.0206 82.296 64.0406 70.2829 76.0537C58.2698 88.0668 46.2498 97.7053 36.5625 103.589C31.7051 106.539 27.5319 108.485 24.299 109.351C20.9017 110.261 19.2779 109.798 18.6259 109.146C17.9738 108.494 17.5114 106.87 18.4212 103.473C19.287 100.24 21.2328 96.0669 24.183 91.2095C30.0667 81.5222 39.7052 69.5022 51.7183 57.4891Z" stroke="url(#paint6_linear_292_72)" stroke-width="4"/>
<path opacity="0.102041" d="M53.6583 55.8889C67.5032 46.5504 80.9235 39.5292 91.3961 35.7076C96.6474 33.7914 101.05 32.72 104.342 32.5146C107.793 32.2992 109.293 33.0644 109.818 33.8427C110.343 34.6211 110.491 36.299 108.998 39.4182C107.575 42.3937 104.932 46.0739 101.188 50.2249C93.7218 58.5035 82.1845 68.3163 68.3396 77.6548C54.4947 86.9932 41.0745 94.0145 30.6018 97.8361C25.3505 99.7523 20.9484 100.824 17.6563 101.029C14.2051 101.244 12.7045 100.479 12.1795 99.701C11.6545 98.9226 11.5072 97.2447 12.9997 94.1254C14.4234 91.15 17.0659 87.4698 20.8097 83.3187C28.2762 75.0402 39.8135 65.2274 53.6583 55.8889Z" stroke="url(#paint7_linear_292_72)" stroke-width="4"/>
<path opacity="0.122449" d="M55.8708 54.6878C70.9769 48.2756 85.2482 44.0464 96.081 42.3666C101.513 41.5242 105.966 41.3415 109.186 41.7861C112.553 42.2511 113.875 43.289 114.248 44.1688C114.622 45.0486 114.45 46.7205 112.446 49.4656C110.529 52.0906 107.304 55.1669 102.925 58.4892C94.1912 65.1148 81.2353 72.4429 66.1292 78.855C51.0231 85.2672 36.7517 89.4964 25.9189 91.1762C20.4869 92.0186 16.0339 92.2013 12.8141 91.7567C9.44694 91.2917 8.12509 90.2538 7.75164 89.374C7.37819 88.4942 7.54979 86.8223 9.55434 84.0772C11.4711 81.4522 14.6959 78.3759 19.0752 75.0536C27.8087 68.428 40.7647 61.0999 55.8708 54.6878Z" stroke="url(#paint8_linear_292_72)" stroke-width="4"/>
<path opacity="0.142857" d="M58.2705 53.9323C74.0395 50.5805 88.5984 49.2064 99.3652 49.6625C104.764 49.8912 109.093 50.5761 112.116 51.6349C115.269 52.7394 116.363 54.0102 116.565 54.9618C116.768 55.9135 116.285 57.5195 113.854 59.811C111.523 62.0075 107.847 64.394 103.008 66.7989C93.3572 71.5948 79.4981 76.2612 63.729 79.613C47.96 82.9648 33.4011 84.3389 22.6343 83.8828C17.2353 83.6541 12.906 82.9692 9.88375 81.9104C6.73088 80.8059 5.63651 79.5351 5.43423 78.5835C5.23195 77.6318 5.71483 76.0258 8.14587 73.7343C10.4762 71.5378 14.1526 69.1513 18.9918 66.7464C28.6423 61.9505 42.5014 57.2842 58.2705 53.9323Z" stroke="url(#paint9_linear_292_72)" stroke-width="4"/>
<path opacity="0.163265" d="M60.7709 53.6471C76.6004 53.3708 90.891 54.8041 101.182 57.3078C106.342 58.5632 110.383 60.0611 113.093 61.6746C115.914 63.3537 116.741 64.8088 116.758 65.799C116.776 66.7891 116 68.2722 113.24 70.0487C110.587 71.7558 106.601 73.3938 101.487 74.8286C91.2904 77.6899 77.0586 79.6211 61.2291 79.8974C45.3996 80.1737 31.1089 78.7404 20.8183 76.2367C15.658 74.9812 11.6172 73.4834 8.90649 71.8699C6.08563 70.1908 5.25883 68.7356 5.24155 67.7455C5.22427 66.7554 5.99978 65.2722 8.76032 63.4957C11.4131 61.7886 15.3992 60.1507 20.5125 58.7158C30.7095 55.8545 44.9413 53.9234 60.7709 53.6471Z" stroke="url(#paint10_linear_292_72)" stroke-width="4"/>
<path opacity="0.183673" d="M63.2792 53.8438C78.5855 56.5427 92.081 60.6303 101.517 65.0165C106.248 67.216 109.852 69.4419 112.153 71.5301C114.541 73.6978 115.07 75.2822 114.895 76.2748C114.72 77.2673 113.681 78.5751 110.696 79.7953C107.82 80.9708 103.671 81.8298 98.4729 82.2783C88.1062 83.1728 74.0265 82.3982 58.7202 79.6993C43.4139 77.0004 29.9184 72.9127 20.4828 68.5265C15.7512 66.3271 12.1471 64.1011 9.84653 62.0129C7.45841 59.8452 6.92922 58.2609 7.10423 57.2683C7.27925 56.2757 8.31841 54.9679 11.3039 53.7477C14.1799 52.5723 18.328 51.7133 23.5265 51.2647C33.8932 50.3703 47.9729 51.1449 63.2792 53.8438Z" stroke="url(#paint11_linear_292_72)" stroke-width="4"/>
<path opacity="0.204082" d="M65.7045 54.5172C79.9442 59.9833 92.1663 66.4762 100.413 72.5117C104.549 75.5382 107.59 78.3811 109.401 80.8472C111.276 83.4008 111.489 85.0546 111.121 86.0121C110.754 86.9697 109.489 88.0563 106.387 88.6993C103.391 89.3203 99.2288 89.3982 94.1302 88.8801C83.9628 87.8469 70.5355 84.4938 56.2958 79.0277C42.056 73.5616 29.834 67.0687 21.5868 61.0332C17.4511 58.0067 14.4102 55.1638 12.5993 52.6977C10.7242 50.144 10.5115 48.4903 10.8791 47.5328C11.2466 46.5752 12.5113 45.4886 15.6135 44.8456C18.6094 44.2246 22.7715 44.1467 27.87 44.6648C38.0374 45.698 51.4648 49.0511 65.7045 54.5172Z" stroke="url(#paint12_linear_292_72)" stroke-width="4"/>
<path opacity="0.22449" d="M67.9564 55.64C80.6458 63.5692 91.1814 72.135 97.964 79.5299C101.365 83.2381 103.743 86.5659 105.006 89.3006C106.311 92.1252 106.2 93.786 105.647 94.6711C105.094 95.5562 103.65 96.3838 100.539 96.4491C97.5273 96.5124 93.4942 95.8344 88.6703 94.403C79.0504 91.5485 66.7331 85.8342 54.0437 77.9049C41.3542 69.9757 30.8187 61.41 24.036 54.015C20.6348 50.3068 18.2574 46.9791 16.994 44.2444C15.6891 41.4197 15.7998 39.7589 16.3529 38.8738C16.906 37.9888 18.3501 37.1612 21.4609 37.0958C24.4727 37.0325 28.5058 37.7105 33.3298 39.1419C42.9496 41.9964 55.2669 47.7107 67.9564 55.64Z" stroke="url(#paint13_linear_292_72)" stroke-width="4"/>
<path opacity="0.244898" d="M69.9536 57.1723C80.6849 67.1795 89.2002 77.418 94.3084 85.8389C96.87 90.0617 98.5131 93.727 99.1948 96.6131C99.8972 99.5867 99.468 101.192 98.7438 101.969C98.0195 102.745 96.448 103.285 93.4326 102.792C90.506 102.314 86.735 100.93 82.3439 98.6694C73.5872 94.161 62.7795 86.3807 52.0481 76.3735C41.3168 66.3663 32.8015 56.1277 27.6932 47.7068C25.1317 43.4841 23.4886 39.8188 22.8069 36.9327C22.1045 33.9591 22.5337 32.3537 23.2579 31.577C23.9822 30.8004 25.5537 30.2603 28.5691 30.7535C31.4957 31.2323 35.2667 32.6156 39.6578 34.8764C48.4145 39.3848 59.2222 47.1651 69.9536 57.1723Z" stroke="url(#paint14_linear_292_72)" stroke-width="4"/>
<path opacity="0.265306" d="M71.6196 59.0568C80.0739 70.6932 86.3247 82.1549 89.6214 91.2392C91.2745 95.7946 92.1439 99.6416 92.234 102.559C92.3267 105.557 91.596 107.047 90.722 107.682C89.8479 108.317 88.2053 108.552 85.3823 107.537C82.6355 106.55 79.2454 104.534 75.4239 101.554C67.8029 95.6118 58.8337 86.1251 50.3794 74.4887C41.925 62.8523 35.6743 51.3905 32.3776 42.3062C30.7245 37.7509 29.8551 33.9039 29.765 30.9864C29.6723 27.988 30.403 26.4982 31.277 25.8632C32.151 25.2282 33.7936 24.9936 36.6167 26.0083C39.3635 26.9956 42.7535 29.0112 46.5751 31.9911C54.1961 37.9337 63.1652 47.4204 71.6196 59.0568Z" stroke="url(#paint15_linear_292_72)" stroke-width="4"/>
<path opacity="0.285714" d="M72.897 61.2233C78.8531 73.9962 82.6911 86.2008 84.1149 95.5723C84.8289 100.272 84.9173 104.142 84.4302 106.973C83.9307 109.875 82.9268 111.193 81.9308 111.658C80.9347 112.122 79.2796 112.044 76.7353 110.561C74.2536 109.115 71.3456 106.559 68.2047 102.991C61.9409 95.8768 55.0586 85.0918 49.1025 72.3189C43.1464 59.5459 39.3084 47.3413 37.8846 37.9699C37.1707 33.2706 37.0822 29.4002 37.5694 26.5693C38.0688 23.6671 39.0727 22.3489 40.0688 21.8844C41.0648 21.42 42.7199 21.4982 45.2642 22.9812C47.7459 24.4276 50.654 26.9832 53.7949 30.5508C60.0586 37.6654 66.9409 48.4504 72.897 61.2233Z" stroke="url(#paint16_linear_292_72)" stroke-width="4"/>
<path opacity="0.306122" d="M73.7383 63.5963C77.0776 76.9894 78.4531 89.446 78.0186 98.73C77.8007 103.385 77.1325 107.125 76.1052 109.758C75.0546 112.451 73.8158 113.548 72.7312 113.819C71.6465 114.089 70.0376 113.702 67.8457 111.818C65.7025 109.975 63.3568 106.987 60.9789 102.978C56.2367 94.9852 51.6032 83.3409 48.2639 69.9478C44.9246 56.5546 43.5491 44.098 43.9836 34.814C44.2015 30.1587 44.8697 26.4189 45.897 23.7858C46.9476 21.093 48.1864 19.9958 49.2711 19.7253C50.3557 19.4549 51.9646 19.8421 54.1565 21.7265C56.2997 23.5691 58.6454 26.5574 61.0233 30.5655C65.7655 38.5588 70.399 50.2031 73.7383 63.5963Z" stroke="url(#paint17_linear_292_72)" stroke-width="4"/>
<path opacity="0.326531" d="M74.1091 66.085C74.8164 79.5794 73.7766 91.8059 71.5712 100.644C70.4654 105.076 69.0943 108.542 67.5849 110.877C66.0449 113.259 64.6185 114.094 63.4831 114.154C62.3478 114.213 60.8419 113.532 59.0613 111.324C57.316 109.159 55.5902 105.856 54.0272 101.564C50.9101 93.0043 48.598 80.9535 47.8908 67.4591C47.1836 53.9647 48.2233 41.7382 50.4287 32.8997C51.5345 28.4679 52.9056 25.0024 54.415 22.6672C55.955 20.2848 57.3814 19.4496 58.5168 19.3901C59.6521 19.3306 61.158 20.0121 62.9386 22.2205C64.6839 24.3851 66.4097 27.6884 67.9727 31.9803C71.0898 40.5398 73.4019 52.5906 74.1091 66.085Z" stroke="url(#paint18_linear_292_72)" stroke-width="4"/>
<path opacity="0.346939" d="M73.9993 68.5996C72.1591 81.6933 68.8429 93.2354 65.0212 101.301C63.105 105.345 61.1113 108.408 59.1957 110.36C57.2459 112.347 55.6861 112.889 54.5412 112.728C53.3964 112.567 52.0463 111.616 50.7198 109.169C49.4164 106.764 48.3444 103.27 47.6171 98.8546C46.1665 90.0484 46.1602 78.0394 48.0004 64.9457C49.8406 51.8519 53.1568 40.3098 56.9785 32.2446C58.8947 28.2007 60.8884 25.1373 62.804 23.1851C64.7537 21.1981 66.3136 20.6564 67.4584 20.8173C68.6033 20.9782 69.9534 21.9289 71.2799 24.3763C72.5832 26.7809 73.6553 30.2751 74.3826 34.6906C75.8332 43.4968 75.8395 55.5058 73.9993 68.5996Z" stroke="url(#paint19_linear_292_72)" stroke-width="4"/>
<path opacity="0.367347" d="M73.412 71.0456C69.2018 83.2729 63.831 93.7205 58.606 100.727C55.9864 104.24 53.4728 106.794 51.2413 108.296C48.9754 109.822 47.3415 110.05 46.23 109.667C45.1185 109.284 43.9714 108.099 43.1249 105.502C42.2911 102.944 41.8828 99.3842 41.9813 95.0031C42.1779 86.2647 44.3778 74.7253 48.588 62.498C52.7982 50.2707 58.169 39.8231 63.394 32.8162C66.0136 29.3031 68.5272 26.7492 70.7587 25.2471C73.0247 23.7219 74.6585 23.4938 75.7701 23.8765C76.8816 24.2592 78.0286 25.4449 78.8752 28.0419C79.7089 30.5994 80.1172 34.1594 80.0187 38.5406C79.8221 47.2789 77.6222 58.8183 73.412 71.0456Z" stroke="url(#paint20_linear_292_72)" stroke-width="4"/>
<path opacity="0.387755" d="M72.368 73.3354C66.0474 84.2829 58.9148 93.2851 52.5478 99.0012C49.3558 101.867 46.4426 103.828 43.9957 104.833C41.5169 105.852 39.8711 105.758 38.836 105.16C37.801 104.562 36.8967 103.184 36.5391 100.528C36.1862 97.9067 36.4281 94.4031 37.3139 90.2059C39.0807 81.8339 43.3105 71.1557 49.6311 60.2082C55.9516 49.2607 63.0843 40.2585 69.4512 34.5424C72.6433 31.6767 75.5565 29.7154 78.0033 28.7102C80.4822 27.692 82.128 27.7859 83.163 28.3835C84.1981 28.9811 85.1023 30.3594 85.4599 33.0153C85.8129 35.6369 85.5709 39.1405 84.6852 43.3377C82.9184 51.7097 78.6885 62.3879 72.368 73.3354Z" stroke="url(#paint21_linear_292_72)" stroke-width="4"/>
<path opacity="0.408163" d="M70.9068 75.384C62.8044 84.7048 54.2594 91.9815 47.0477 96.2344C43.4324 98.3665 40.2517 99.6792 37.6961 100.162C35.1127 100.65 33.5178 100.238 32.6008 99.4409C31.6839 98.6438 31.0536 97.1217 31.1775 94.4956C31.3 91.8976 32.1573 88.5652 33.7654 84.6884C36.9733 76.955 42.99 67.4804 51.0924 58.1596C59.1949 48.8388 67.7399 41.5621 74.9516 37.3091C78.5669 35.177 81.7475 33.8643 84.3032 33.3814C86.8866 32.8933 88.4815 33.3056 89.3985 34.1027C90.3154 34.8998 90.9457 36.4218 90.8218 39.0479C90.6993 41.646 89.842 44.9783 88.2338 48.8552C85.0259 56.5886 79.0093 66.0632 70.9068 75.384Z" stroke="url(#paint22_linear_292_72)" stroke-width="4"/>
<path opacity="0.428571" d="M69.0817 77.1153C59.5791 84.5395 50.0119 89.8898 42.2752 92.5727C38.3971 93.9175 35.0876 94.5539 32.531 94.5115C29.9523 94.4689 28.4691 93.7539 27.7088 92.7807C26.9485 91.8076 26.6136 90.1955 27.196 87.683C27.7734 85.1921 29.1915 82.1349 31.4346 78.6973C35.9095 71.8395 43.4153 63.8508 52.9179 56.4266C62.4206 49.0023 71.9878 43.652 79.7244 40.9691C83.6026 39.6243 86.912 38.9879 89.4687 39.0303C92.0474 39.073 93.5306 39.7879 94.2909 40.7611C95.0512 41.7342 95.3861 43.3463 94.8037 45.8588C94.2263 48.3497 92.8082 51.4069 90.5651 54.8445C86.0902 61.7023 78.5844 69.691 69.0817 77.1153Z" stroke="url(#paint23_linear_292_72)" stroke-width="4"/>
<path opacity="0.44898" d="M66.9594 78.4681C56.4743 83.8105 46.2986 87.1176 38.3658 88.1907C34.3897 88.7286 31.0902 88.6895 28.6374 88.1405C26.1685 87.5879 24.8538 86.5975 24.2841 85.4793C23.7143 84.361 23.6859 82.7153 24.69 80.3931C25.6875 78.0861 27.5952 75.3938 30.3675 72.4932C35.8985 66.7062 44.5551 60.4177 55.0402 55.0753C65.5252 49.7329 75.7009 46.4259 83.6338 45.3527C87.6099 44.8148 90.9093 44.8539 93.3621 45.4029C95.831 45.9555 97.1457 46.9459 97.7155 48.0641C98.2852 49.1824 98.3137 50.8281 97.3096 53.1503C96.312 55.4573 94.4043 58.1496 91.6321 61.0502C86.101 66.8372 77.4444 73.1257 66.9594 78.4681Z" stroke="url(#paint24_linear_292_72)" stroke-width="4"/>
<path opacity="0.469388" d="M64.6187 79.391C53.5872 82.5543 43.2227 83.7869 35.4175 83.2773C31.5058 83.022 28.3499 82.3359 26.0983 81.3191C23.8365 80.2977 22.7409 79.0698 22.3894 77.8439C22.0378 76.618 22.3163 74.9961 23.6931 72.9313C25.0638 70.8758 27.3766 68.6217 30.5585 66.3322C36.9077 61.764 46.3505 57.317 57.382 54.1537C68.4135 50.9905 78.7781 49.7579 86.5832 50.2674C90.4949 50.5228 93.6508 51.2088 95.9024 52.2256C98.1642 53.247 99.2598 54.4749 99.6113 55.7008C99.9629 56.9267 99.6844 58.5486 98.3076 60.6134C96.9369 62.6689 94.6241 64.9231 91.4422 67.2125C85.093 71.7808 75.6502 76.2278 64.6187 79.391Z" stroke="url(#paint25_linear_292_72)" stroke-width="4"/>
<path opacity="0.489796" d="M62.1444 79.8494C51.0027 80.8242 40.8579 80.0346 33.4862 78.0326C29.7922 77.0293 26.9026 75.7505 24.9385 74.323C22.9692 72.8916 22.1351 71.4732 22.0222 70.1824C21.9092 68.8916 22.4844 67.3498 24.1752 65.5983C25.8615 63.8514 28.4852 62.0902 31.9489 60.4607C38.861 57.209 48.7145 54.6698 59.8562 53.695C70.9979 52.7202 81.1426 53.5098 88.5143 55.5119C92.2083 56.5151 95.098 57.794 97.062 59.2215C99.0313 60.6528 99.8654 62.0713 99.9784 63.3621C100.091 64.6529 99.5162 66.1946 97.8253 67.9462C96.139 69.6931 93.5153 71.4543 90.0517 73.0837C83.1396 76.3355 73.2861 78.8747 62.1444 79.8494Z" stroke="url(#paint26_linear_292_72)" stroke-width="4"/>
<path opacity="0.510204" d="M59.6284 79.8263C48.7959 78.6878 39.2523 76.0061 32.5898 72.6589C29.2517 70.9819 26.7356 69.187 25.1308 67.421C23.5247 65.6535 22.9846 64.0989 23.1222 62.7899C23.2598 61.4808 24.1113 60.0725 26.0498 58.6776C27.9866 57.2839 30.8209 56.0513 34.4348 55.105C41.6477 53.2161 51.5402 52.5773 62.3727 53.7158C73.2053 54.8543 82.7488 57.536 89.4114 60.8832C92.7495 62.5603 95.2656 64.3552 96.8703 66.1211C98.4765 67.8886 99.0165 69.4432 98.879 70.7522C98.7414 72.0613 97.8899 73.4696 95.9514 74.8646C94.0145 76.2583 91.1802 77.4908 87.5664 78.4372C80.3535 80.326 70.4609 80.9649 59.6284 79.8263Z" stroke="url(#paint27_linear_292_72)" stroke-width="4"/>
<path opacity="0.530612" d="M57.163 79.3252C47.0264 76.2261 38.4238 71.8518 32.7059 67.356C29.8415 65.1039 27.7867 62.8881 26.5961 60.868C25.4065 58.8494 25.1819 57.2186 25.5728 55.9401C25.9637 54.6616 27.0618 53.4352 29.1768 52.427C31.2934 51.418 34.236 50.7301 37.8701 50.4647C45.1244 49.9349 54.7024 51.119 64.8391 54.218C74.9757 57.3171 83.5783 61.6914 89.2962 66.1872C92.1606 68.4394 94.2154 70.6551 95.406 72.6753C96.5956 74.6939 96.8202 76.3246 96.4293 77.6031C96.0384 78.8816 94.9403 80.108 92.8253 81.1163C90.7087 82.1253 87.7661 82.8132 84.132 83.0786C76.8776 83.6084 67.2997 82.4243 57.163 79.3252Z" stroke="url(#paint28_linear_292_72)" stroke-width="4"/>
<path opacity="0.55102" d="M54.8364 78.3617C45.7357 73.5228 38.3601 67.7138 33.7736 62.305C31.4764 59.5959 29.9481 57.0684 29.2078 54.8865C28.4692 52.7094 28.5695 51.0656 29.2069 49.8668C29.8443 48.668 31.151 47.6657 33.3688 47.0606C35.5918 46.4542 38.5418 46.3079 42.0723 46.6975C49.1211 47.4753 58.0614 50.3416 67.162 55.1805C76.2626 60.0194 83.6382 65.8284 88.2247 71.2372C90.5219 73.9463 92.0503 76.4737 92.7906 78.6557C93.5292 80.8328 93.4289 82.4766 92.7915 83.6754C92.1541 84.8742 90.8474 85.8765 88.6295 86.4816C86.4066 87.088 83.4566 87.2343 79.9261 86.8447C72.8773 86.0669 63.937 83.2006 54.8364 78.3617Z" stroke="url(#paint29_linear_292_72)" stroke-width="4"/>
<path opacity="0.571429" d="M52.7392 76.9729C44.9568 70.6709 39.0312 63.7303 35.7081 57.6719C34.044 54.6381 33.0829 51.9169 32.809 49.6694C32.5362 47.43 32.9583 45.8371 33.8259 44.7657C34.6935 43.6944 36.1638 42.9503 38.411 42.7516C40.6663 42.5522 43.5279 42.9265 46.8414 43.9234C53.4583 45.9143 61.4792 50.2674 69.2616 56.5695C77.044 62.8715 82.9696 69.8121 86.2927 75.8705C87.9568 78.9043 88.9179 81.6255 89.1918 83.873C89.4646 86.1124 89.0425 87.7053 88.1749 88.7767C87.3073 89.848 85.837 90.5922 83.5898 90.7909C81.3345 90.9903 78.4729 90.616 75.1594 89.619C68.5425 87.6281 60.5216 83.275 52.7392 76.9729Z" stroke="url(#paint30_linear_292_72)" stroke-width="4"/>
<path opacity="0.591837" d="M50.9441 75.2102C44.6958 67.7637 40.3734 60.0256 38.3875 53.5967C37.3932 50.378 37.0147 47.5848 37.2036 45.3679C37.3916 43.1618 38.1201 41.6822 39.1922 40.7826C40.2643 39.8829 41.848 39.4224 44.0532 39.6204C46.2692 39.8193 48.9543 40.6771 51.9514 42.2152C57.9379 45.2873 64.8078 50.8878 71.0561 58.3342C77.3044 65.7806 81.6268 73.5187 83.6127 79.9477C84.607 83.1663 84.9855 85.9596 84.7966 88.1764C84.6086 90.3826 83.8801 91.8622 82.808 92.7618C81.7359 93.6614 80.1522 94.1219 77.947 93.9239C75.731 93.725 73.0459 92.8673 70.0488 91.3292C64.0623 88.257 57.1924 82.6566 50.9441 75.2102Z" stroke="url(#paint31_linear_292_72)" stroke-width="4"/>
<path opacity="0.612245" d="M49.5191 73.1353C44.949 64.8905 42.3102 56.7044 41.6759 50.1873C41.3585 46.9252 41.5529 44.1799 42.1816 42.0858C42.8066 40.0041 43.814 38.6962 45.0565 38.0074C46.299 37.3187 47.9419 37.1575 50.0386 37.7306C52.1476 38.3071 54.5788 39.5971 57.177 41.5949C62.3678 45.5863 67.9115 52.1621 72.4817 60.4069C77.0519 68.6517 79.6907 76.8378 80.3249 83.3549C80.6424 86.617 80.448 89.3623 79.8192 91.4564C79.1942 93.5381 78.1869 94.846 76.9444 95.5348C75.7019 96.2235 74.0589 96.3847 71.9623 95.8116C69.8533 95.2351 67.4221 93.9451 64.8239 91.9473C59.6331 87.9559 54.0893 81.3801 49.5191 73.1353Z" stroke="url(#paint32_linear_292_72)" stroke-width="4"/>
<path opacity="0.632653" d="M48.5159 70.8287C45.6938 62.1433 44.7459 53.8592 45.4205 47.5274C45.758 44.3589 46.4917 41.7746 47.5195 39.8877C48.5405 38.0134 49.7881 36.9293 51.1593 36.4838C52.5304 36.0383 54.177 36.182 56.1046 37.0982C58.0453 38.0206 60.1578 39.6801 62.2933 42.045C66.5608 46.7711 70.6632 54.0302 73.4853 62.7157C76.3073 71.4011 77.2553 79.6851 76.5807 86.017C76.2431 89.1855 75.5095 91.7697 74.4816 93.6567C73.4607 95.5309 72.213 96.615 70.8418 97.0605C69.4707 97.506 67.8241 97.3624 65.8965 96.4462C63.9558 95.5237 61.8433 93.8643 59.7078 91.4993C55.4403 86.7733 51.338 79.5142 48.5159 70.8287Z" stroke="url(#paint33_linear_292_72)" stroke-width="4"/>
<path opacity="0.653061" d="M47.9718 68.372C46.8947 59.6003 47.575 51.5538 49.4619 45.6605C51.4061 39.5884 54.3426 36.5514 57.2466 36.1948C60.1507 35.8382 63.7347 38.0746 67.0901 43.496C70.3467 48.7577 72.9534 56.4007 74.0304 65.1724C75.1074 73.9441 74.4272 81.9907 72.5403 87.884C70.5961 93.9561 67.6596 96.9931 64.7555 97.3497C61.8514 97.7062 58.2675 95.4699 54.912 90.0484C51.6555 84.7867 49.0488 77.1437 47.9718 68.372Z" stroke="url(#paint34_linear_292_72)" stroke-width="4"/>
<path opacity="0.673469" d="M47.9045 65.856C48.5003 57.3346 50.6819 49.8331 53.6374 44.6013C56.6743 39.2257 60.1232 36.8707 63.0761 37.0771C66.029 37.2836 69.1166 40.0957 71.3757 45.8417C73.5744 51.4339 74.6907 59.166 74.0949 67.6874C73.499 76.2088 71.3175 83.7103 68.3619 88.9421C65.325 94.3177 61.8761 96.6727 58.9232 96.4663C55.9704 96.2598 52.8827 93.4477 50.6236 87.7017C48.4249 82.1095 47.3086 74.3774 47.9045 65.856Z" stroke="url(#paint35_linear_292_72)" stroke-width="4"/>
<path opacity="0.693878" d="M48.3203 63.3744C50.4546 55.4092 53.9548 48.7204 57.7962 44.3341C61.732 39.8401 65.5421 38.2485 68.4353 39.0237C71.3285 39.7989 73.8324 43.0823 74.9939 48.9423C76.1275 54.6615 75.8143 62.2043 73.6801 70.1695C71.5458 78.1346 68.0456 84.8234 64.2042 89.2097C60.2684 93.7038 56.4583 95.2954 53.5651 94.5201C50.6719 93.7449 48.168 90.4615 47.0065 84.6016C45.8729 78.8823 46.1861 71.3395 48.3203 63.3744Z" stroke="url(#paint36_linear_292_72)" stroke-width="4"/>
<path opacity="0.714286" d="M49.2021 61.0175C52.6869 53.8726 57.2779 48.2148 61.7926 44.8129C66.4052 41.3372 70.4133 40.5582 73.138 41.8871C75.8626 43.216 77.7164 46.8541 77.8173 52.6286C77.9161 58.2807 76.2842 65.3818 72.7994 72.5266C69.3146 79.6715 64.7236 85.3293 60.2089 88.7312C55.5963 92.2069 51.5882 92.9859 48.8635 91.657C46.1389 90.3281 44.2851 86.69 44.1842 80.9155C44.0854 75.2634 45.7173 68.1623 49.2021 61.0175Z" stroke="url(#paint37_linear_292_72)" stroke-width="4"/>
<path opacity="0.734694" d="M50.5161 58.8714C55.1211 52.7604 60.5419 48.2954 65.4984 45.9668C70.5479 43.5947 74.5858 43.6435 77.0366 45.4903C79.4874 47.3371 80.6473 51.2051 79.7588 56.7128C78.8867 62.1192 76.0888 68.5607 71.4838 74.6717C66.8788 80.7827 61.4581 85.2478 56.5015 87.5763C51.452 89.9485 47.4141 89.8997 44.9634 88.0529C42.5126 86.2061 41.3527 82.338 42.2411 76.8303C43.1132 71.4239 45.9112 64.9825 50.5161 58.8714Z" stroke="url(#paint38_linear_292_72)" stroke-width="4"/>
<path opacity="0.755102" d="M52.2167 57.0155C57.6813 52.0952 63.6507 48.9237 68.8095 47.7062C74.0501 46.4693 77.9513 47.3275 80.0302 49.6364C82.1092 51.9454 82.5549 55.9148 80.777 60.9974C79.0269 66.0008 75.2489 71.6059 69.7842 76.5263C64.3196 81.4467 58.3502 84.6181 53.1914 85.8357C47.9508 87.0725 44.0496 86.2143 41.9707 83.9054C39.8917 81.5965 39.446 77.627 41.2239 72.5444C42.974 67.5411 46.752 61.9359 52.2167 57.0155Z" stroke="url(#paint39_linear_292_72)" stroke-width="4"/>
<path opacity="0.77551" d="M54.2389 55.5182C60.2853 51.8851 66.5156 50.0458 71.6402 49.9257C76.8315 49.804 80.4376 51.4205 82.058 54.1173C83.6785 56.8141 83.4128 60.7571 80.8682 65.2836C78.3562 69.752 73.8073 74.3895 67.7609 78.0225C61.7146 81.6555 55.4843 83.4948 50.3596 83.615C45.1683 83.7367 41.5622 82.1201 39.9418 79.4233C38.3214 76.7265 38.587 72.7836 41.1317 68.2571C43.6436 63.7887 48.1926 59.1512 54.2389 55.5182Z" stroke="url(#paint40_linear_292_72)" stroke-width="4"/>
<path opacity="0.795918" d="M56.5096 54.4366C62.8556 52.1268 69.0657 51.5972 73.9331 52.5126C78.8506 53.4374 82.0178 55.7311 83.1076 58.7254C84.1974 61.7196 83.2456 65.5125 80.073 69.3819C76.9327 73.2118 71.8351 76.7978 65.4891 79.1076C59.1431 81.4174 52.9331 81.947 48.0656 81.0316C43.1481 80.1068 39.9809 77.8131 38.8911 74.8188C37.8013 71.8246 38.7532 68.0317 41.9257 64.1623C45.066 60.3324 50.1636 56.7463 56.5096 54.4366Z" stroke="url(#paint41_linear_292_72)" stroke-width="4"/>
<path opacity="0.816327" d="M58.9473 53.8059C65.3192 52.7966 71.2469 53.4974 75.6574 55.3429C80.1018 57.2026 82.7062 60.0659 83.2111 63.2536C83.716 66.4414 82.1238 69.9694 78.4716 73.1115C74.8473 76.2295 69.4263 78.7278 63.0544 79.737C56.6825 80.7462 50.7548 80.0454 46.3444 78.1999C41.8999 76.3402 39.2955 73.4769 38.7906 70.2892C38.2857 67.1014 39.8779 63.5734 43.5301 60.4314C47.1544 57.3133 52.5754 54.8151 58.9473 53.8059Z" stroke="url(#paint42_linear_292_72)" stroke-width="4"/>
<path opacity="0.836735" d="M61.458 53.6524C67.6021 53.867 73.0154 55.6685 76.8004 58.302C80.6055 60.9494 82.548 64.2527 82.4339 67.5201C82.3198 70.7876 80.1516 73.9473 76.1711 76.3228C72.2116 78.6858 66.6858 80.1054 60.5417 79.8908C54.3976 79.6762 48.9842 77.8747 45.1993 75.2413C41.3942 72.5939 39.4517 69.2906 39.5658 66.0231C39.6799 62.7557 41.8481 59.5959 45.8286 57.2204C49.788 54.8574 55.3138 53.4379 61.458 53.6524Z" stroke="url(#paint43_linear_292_72)" stroke-width="4"/>
<path opacity="0.857143" d="M63.9533 53.98C69.6463 55.2944 74.3527 58.0254 77.3814 61.276C80.4198 64.5369 81.6295 68.134 80.8845 71.3614C80.1394 74.5887 77.4752 77.2915 73.3148 78.8905C69.1677 80.4843 63.7403 80.8758 58.0474 79.5615C52.3545 78.2472 47.648 75.5161 44.6193 72.2656C41.5809 69.0046 40.3712 65.4075 41.1163 62.1802C41.8614 58.9528 44.5255 56.2501 48.6859 54.6511C52.8331 53.0572 58.2604 52.6657 63.9533 53.98Z" stroke="url(#paint44_linear_292_72)" stroke-width="4"/>
<path opacity="0.877551" d="M66.34 54.7805C71.3969 57.032 75.2505 60.4899 77.4344 64.1675C79.6213 67.8503 80.0584 71.5845 78.6935 74.6501C77.3286 77.7157 74.261 79.8896 70.0609 80.7286C65.8666 81.5665 60.7183 81.0165 55.6614 78.7651C50.6045 76.5136 46.751 73.0557 44.5671 69.3781C42.3802 65.6953 41.9431 61.9611 43.308 58.8955C44.6729 55.8299 47.7405 53.656 51.9406 52.817C56.1349 51.9791 61.2831 52.5291 66.34 54.7805Z" stroke="url(#paint45_linear_292_72)" stroke-width="4"/>
<path opacity="0.897959" d="M68.5299 56.0194C72.8107 59.0169 75.7166 62.9792 77.0114 66.8842C78.3062 70.7892 77.9633 74.4996 76.0132 77.2846C74.0631 80.0696 70.6938 81.6609 66.5814 81.7798C62.469 81.8987 57.7518 80.5232 53.471 77.5257C49.1902 74.5283 46.2843 70.566 44.9895 66.661C43.6947 62.756 44.0377 59.0456 45.9877 56.2606C47.9378 53.4756 51.3071 51.8843 55.4195 51.7654C59.5319 51.6465 64.2491 53.022 68.5299 56.0194Z" stroke="url(#paint46_linear_292_72)" stroke-width="4"/>
<path opacity="0.918367" d="M70.4432 57.6522C77.4087 64.8652 77.9181 74.4656 73.0089 79.2064C68.0997 83.9472 58.5229 83.103 51.5574 75.89C44.5918 68.677 44.0824 59.0765 48.9916 54.3357C53.9008 49.595 63.4776 50.4392 70.4432 57.6522Z" stroke="url(#paint47_linear_292_72)" stroke-width="4"/>
<path opacity="0.938776" d="M72.0092 59.622C77.0964 67.4555 75.6483 76.6312 69.8487 80.3975C64.049 84.1639 55.0776 81.7547 49.9905 73.9211C44.9033 66.0875 46.3513 56.9119 52.151 53.1455C57.9506 49.3792 66.922 51.7884 72.0092 59.622Z" stroke="url(#paint48_linear_292_72)" stroke-width="4"/>
<path opacity="0.959184" d="M73.1712 61.8543C76.411 69.8731 73.2014 78.2436 66.6966 80.8717C60.1918 83.4998 52.0684 79.7082 48.8286 71.6894C45.5888 63.6706 48.7984 55.3001 55.3032 52.672C61.808 50.0439 69.9314 53.8355 73.1712 61.8543Z" stroke="url(#paint49_linear_292_72)" stroke-width="4"/>
<path opacity="0.979592" d="M73.8865 64.267C75.4037 72.0726 70.6995 79.3188 63.7037 80.6787C56.7079 82.0385 49.6317 77.0822 48.1145 69.2766C46.5973 61.471 51.3014 54.2248 58.2973 52.8649C65.2931 51.5051 72.3692 56.4615 73.8865 64.267Z" stroke="url(#paint50_linear_292_72)" stroke-width="4"/>
<circle cx="61.0002" cy="66.7707" r="13.1272" stroke="url(#paint51_linear_292_72)" stroke-width="4"/>
</g>
<defs>
<linearGradient id="paint0_linear_292_72" x1="66.6668" y1="48.4043" x2="66.6668" y2="94.5948" gradientUnits="userSpaceOnUse">
<stop stop-color="#55BDD5"/>
<stop offset="1" stop-color="#4D69D3" stop-opacity="0"/>
</linearGradient>
<linearGradient id="paint1_linear_292_72" x1="38.7502" y1="51.958" x2="38.7502" y2="93.833" gradientUnits="userSpaceOnUse">
<stop stop-color="#55BDD5"/>
<stop offset="1" stop-color="#4D69D3" stop-opacity="0"/>
</linearGradient>
<linearGradient id="paint2_linear_292_72" x1="59.8468" y1="132.848" x2="62.24" y2="-4.261" gradientUnits="userSpaceOnUse">
<stop stop-color="#55BDD5"/>
<stop offset="1" stop-color="#4D69D3"/>
</linearGradient>
<linearGradient id="paint3_linear_292_72" x1="47.4759" y1="130.396" x2="75.5381" y2="-1.62684" gradientUnits="userSpaceOnUse">
<stop stop-color="#55BDD5"/>
<stop offset="1" stop-color="#4D69D3"/>
</linearGradient>
<linearGradient id="paint4_linear_292_72" x1="35.9904" y1="125.691" x2="87.885" y2="3.43477" gradientUnits="userSpaceOnUse">
<stop stop-color="#55BDD5"/>
<stop offset="1" stop-color="#4D69D3"/>
</linearGradient>
<linearGradient id="paint5_linear_292_72" x1="25.7891" y1="118.974" x2="98.8511" y2="10.6547" gradientUnits="userSpaceOnUse">
<stop stop-color="#55BDD5"/>
<stop offset="1" stop-color="#4D69D3"/>
</linearGradient>
<linearGradient id="paint6_linear_292_72" x1="17.2117" y1="110.56" x2="108.074" y2="19.6983" gradientUnits="userSpaceOnUse">
<stop stop-color="#55BDD5"/>
<stop offset="1" stop-color="#4D69D3"/>
</linearGradient>
<linearGradient id="paint7_linear_292_72" x1="10.5215" y1="100.819" x2="115.262" y2="30.1708" gradientUnits="userSpaceOnUse">
<stop stop-color="#55BDD5"/>
<stop offset="1" stop-color="#4D69D3"/>
</linearGradient>
<linearGradient id="paint8_linear_292_72" x1="5.91063" y1="90.1554" x2="120.221" y2="41.6336" gradientUnits="userSpaceOnUse">
<stop stop-color="#55BDD5"/>
<stop offset="1" stop-color="#4D69D3"/>
</linearGradient>
<linearGradient id="paint9_linear_292_72" x1="3.47793" y1="78.9993" x2="122.836" y2="53.629" gradientUnits="userSpaceOnUse">
<stop stop-color="#55BDD5"/>
<stop offset="1" stop-color="#4D69D3"/>
</linearGradient>
<linearGradient id="paint10_linear_292_72" x1="3.24185" y1="67.7804" x2="123.09" y2="65.6884" gradientUnits="userSpaceOnUse">
<stop stop-color="#55BDD5"/>
<stop offset="1" stop-color="#4D69D3"/>
</linearGradient>
<linearGradient id="paint11_linear_292_72" x1="5.13462" y1="56.921" x2="121.055" y2="77.3608" gradientUnits="userSpaceOnUse">
<stop stop-color="#55BDD5"/>
<stop offset="1" stop-color="#4D69D3"/>
</linearGradient>
<linearGradient id="paint12_linear_292_72" x1="9.01191" y1="46.816" x2="116.887" y2="88.2256" gradientUnits="userSpaceOnUse">
<stop stop-color="#55BDD5"/>
<stop offset="1" stop-color="#4D69D3"/>
</linearGradient>
<linearGradient id="paint13_linear_292_72" x1="14.6568" y1="37.814" x2="110.819" y2="97.9028" gradientUnits="userSpaceOnUse">
<stop stop-color="#55BDD5"/>
<stop offset="1" stop-color="#4D69D3"/>
</linearGradient>
<linearGradient id="paint14_linear_292_72" x1="21.7952" y1="30.2131" x2="103.147" y2="106.075" gradientUnits="userSpaceOnUse">
<stop stop-color="#55BDD5"/>
<stop offset="1" stop-color="#4D69D3"/>
</linearGradient>
<linearGradient id="paint15_linear_292_72" x1="30.1014" y1="24.2452" x2="94.2149" y2="112.49" gradientUnits="userSpaceOnUse">
<stop stop-color="#55BDD5"/>
<stop offset="1" stop-color="#4D69D3"/>
</linearGradient>
<linearGradient id="paint16_linear_292_72" x1="39.2235" y1="20.0718" x2="84.4092" y2="116.973" gradientUnits="userSpaceOnUse">
<stop stop-color="#55BDD5"/>
<stop offset="1" stop-color="#4D69D3"/>
</linearGradient>
<linearGradient id="paint17_linear_292_72" x1="48.7872" y1="17.7847" x2="74.131" y2="119.433" gradientUnits="userSpaceOnUse">
<stop stop-color="#55BDD5"/>
<stop offset="1" stop-color="#4D69D3"/>
</linearGradient>
<linearGradient id="paint18_linear_292_72" x1="58.4121" y1="17.3929" x2="63.7819" y2="119.855" gradientUnits="userSpaceOnUse">
<stop stop-color="#55BDD5"/>
<stop offset="1" stop-color="#4D69D3"/>
</linearGradient>
<linearGradient id="paint19_linear_292_72" x1="67.7368" y1="18.8367" x2="53.7576" y2="118.304" gradientUnits="userSpaceOnUse">
<stop stop-color="#55BDD5"/>
<stop offset="1" stop-color="#4D69D3"/>
</linearGradient>
<linearGradient id="paint20_linear_292_72" x1="76.4212" y1="21.9855" x2="44.4223" y2="114.917" gradientUnits="userSpaceOnUse">
<stop stop-color="#55BDD5"/>
<stop offset="1" stop-color="#4D69D3"/>
</linearGradient>
<linearGradient id="paint21_linear_292_72" x1="84.163" y1="26.6515" x2="36.0988" y2="109.901" gradientUnits="userSpaceOnUse">
<stop stop-color="#55BDD5"/>
<stop offset="1" stop-color="#4D69D3"/>
</linearGradient>
<linearGradient id="paint22_linear_292_72" x1="90.7106" y1="32.5933" x2="29.0604" y2="103.514" gradientUnits="userSpaceOnUse">
<stop stop-color="#55BDD5"/>
<stop offset="1" stop-color="#4D69D3"/>
</linearGradient>
<linearGradient id="paint23_linear_292_72" x1="95.8669" y1="39.5298" x2="23.5177" y2="96.0552" gradientUnits="userSpaceOnUse">
<stop stop-color="#55BDD5"/>
<stop offset="1" stop-color="#4D69D3"/>
</linearGradient>
<linearGradient id="paint24_linear_292_72" x1="99.4975" y1="47.1561" x2="19.6147" y2="87.8584" gradientUnits="userSpaceOnUse">
<stop stop-color="#55BDD5"/>
<stop offset="1" stop-color="#4D69D3"/>
</linearGradient>
<linearGradient id="paint25_linear_292_72" x1="101.534" y1="55.1496" x2="17.4268" y2="79.2669" gradientUnits="userSpaceOnUse">
<stop stop-color="#55BDD5"/>
<stop offset="1" stop-color="#4D69D3"/>
</linearGradient>
<linearGradient id="paint26_linear_292_72" x1="101.971" y1="63.1878" x2="16.957" y2="70.6255" gradientUnits="userSpaceOnUse">
<stop stop-color="#55BDD5"/>
<stop offset="1" stop-color="#4D69D3"/>
</linearGradient>
<linearGradient id="paint27_linear_292_72" x1="100.868" y1="70.9613" x2="18.1431" y2="62.2666" gradientUnits="userSpaceOnUse">
<stop stop-color="#55BDD5"/>
<stop offset="1" stop-color="#4D69D3"/>
</linearGradient>
<linearGradient id="paint28_linear_292_72" x1="98.3419" y1="78.1879" x2="20.8596" y2="54.4992" gradientUnits="userSpaceOnUse">
<stop stop-color="#55BDD5"/>
<stop offset="1" stop-color="#4D69D3"/>
</linearGradient>
<linearGradient id="paint29_linear_292_72" x1="94.5574" y1="84.6143" x2="24.9241" y2="47.5896" gradientUnits="userSpaceOnUse">
<stop stop-color="#55BDD5"/>
<stop offset="1" stop-color="#4D69D3"/>
</linearGradient>
<linearGradient id="paint30_linear_292_72" x1="89.7292" y1="90.0353" x2="30.117" y2="41.7623" gradientUnits="userSpaceOnUse">
<stop stop-color="#55BDD5"/>
<stop offset="1" stop-color="#4D69D3"/>
</linearGradient>
<linearGradient id="paint31_linear_292_72" x1="84.0936" y1="94.2939" x2="36.1746" y2="37.1863" gradientUnits="userSpaceOnUse">
<stop stop-color="#55BDD5"/>
<stop offset="1" stop-color="#4D69D3"/>
</linearGradient>
<linearGradient id="paint32_linear_292_72" x1="77.914" y1="97.284" x2="42.8183" y2="33.9697" gradientUnits="userSpaceOnUse">
<stop stop-color="#55BDD5"/>
<stop offset="1" stop-color="#4D69D3"/>
</linearGradient>
<linearGradient id="paint33_linear_292_72" x1="71.4599" y1="98.9626" x2="49.7568" y2="32.1674" gradientUnits="userSpaceOnUse">
<stop stop-color="#55BDD5"/>
<stop offset="1" stop-color="#4D69D3"/>
</linearGradient>
<linearGradient id="paint34_linear_292_72" x1="64.9993" y1="99.3347" x2="56.703" y2="31.7675" gradientUnits="userSpaceOnUse">
<stop stop-color="#55BDD5"/>
<stop offset="1" stop-color="#4D69D3"/>
</linearGradient>
<linearGradient id="paint35_linear_292_72" x1="58.7837" y1="98.4614" x2="63.3818" y2="32.7053" gradientUnits="userSpaceOnUse">
<stop stop-color="#55BDD5"/>
<stop offset="1" stop-color="#4D69D3"/>
</linearGradient>
<linearGradient id="paint36_linear_292_72" x1="53.0475" y1="96.452" x2="69.5494" y2="34.8658" gradientUnits="userSpaceOnUse">
<stop stop-color="#55BDD5"/>
<stop offset="1" stop-color="#4D69D3"/>
</linearGradient>
<linearGradient id="paint37_linear_292_72" x1="47.9868" y1="93.4546" x2="74.9908" y2="38.0883" gradientUnits="userSpaceOnUse">
<stop stop-color="#55BDD5"/>
<stop offset="1" stop-color="#4D69D3"/>
</linearGradient>
<linearGradient id="paint38_linear_292_72" x1="43.7597" y1="89.6501" x2="79.5332" y2="42.1771" gradientUnits="userSpaceOnUse">
<stop stop-color="#55BDD5"/>
<stop offset="1" stop-color="#4D69D3"/>
</linearGradient>
<linearGradient id="paint39_linear_292_72" x1="40.4844" y1="85.2437" x2="83.0552" y2="46.9127" gradientUnits="userSpaceOnUse">
<stop stop-color="#55BDD5"/>
<stop offset="1" stop-color="#4D69D3"/>
</linearGradient>
<linearGradient id="paint40_linear_292_72" x1="38.2275" y1="80.4534" x2="85.4803" y2="52.061" gradientUnits="userSpaceOnUse">
<stop stop-color="#55BDD5"/>
<stop offset="1" stop-color="#4D69D3"/>
</linearGradient>
<linearGradient id="paint41_linear_292_72" x1="37.0117" y1="75.5029" x2="86.7861" y2="57.3865" gradientUnits="userSpaceOnUse">
<stop stop-color="#55BDD5"/>
<stop offset="1" stop-color="#4D69D3"/>
</linearGradient>
<linearGradient id="paint42_linear_292_72" x1="36.8152" y1="70.602" x2="87.0004" y2="62.6535" gradientUnits="userSpaceOnUse">
<stop stop-color="#55BDD5"/>
<stop offset="1" stop-color="#4D69D3"/>
</linearGradient>
<linearGradient id="paint43_linear_292_72" x1="37.567" y1="65.9533" x2="86.1901" y2="67.6513" gradientUnits="userSpaceOnUse">
<stop stop-color="#55BDD5"/>
<stop offset="1" stop-color="#4D69D3"/>
</linearGradient>
<linearGradient id="paint44_linear_292_72" x1="39.1675" y1="61.7303" x2="84.4707" y2="72.1893" gradientUnits="userSpaceOnUse">
<stop stop-color="#55BDD5"/>
<stop offset="1" stop-color="#4D69D3"/>
</linearGradient>
<linearGradient id="paint45_linear_292_72" x1="41.4809" y1="58.082" x2="81.9846" y2="76.1154" gradientUnits="userSpaceOnUse">
<stop stop-color="#55BDD5"/>
<stop offset="1" stop-color="#4D69D3"/>
</linearGradient>
<linearGradient id="paint46_linear_292_72" x1="44.3494" y1="55.1134" x2="78.9003" y2="79.3062" gradientUnits="userSpaceOnUse">
<stop stop-color="#55BDD5"/>
<stop offset="1" stop-color="#4D69D3"/>
</linearGradient>
<linearGradient id="paint47_linear_292_72" x1="47.6023" y1="52.8971" x2="75.4031" y2="81.6856" gradientUnits="userSpaceOnUse">
<stop stop-color="#55BDD5"/>
<stop offset="1" stop-color="#4D69D3"/>
</linearGradient>
<linearGradient id="paint48_linear_292_72" x1="51.0617" y1="51.4682" x2="71.6833" y2="83.2226" gradientUnits="userSpaceOnUse">
<stop stop-color="#55BDD5"/>
<stop offset="1" stop-color="#4D69D3"/>
</linearGradient>
<linearGradient id="paint49_linear_292_72" x1="54.554" y1="50.8176" x2="67.9293" y2="83.9226" gradientUnits="userSpaceOnUse">
<stop stop-color="#55BDD5"/>
<stop offset="1" stop-color="#4D69D3"/>
</linearGradient>
<linearGradient id="paint50_linear_292_72" x1="57.9157" y1="50.9017" x2="64.3167" y2="83.8322" gradientUnits="userSpaceOnUse">
<stop stop-color="#55BDD5"/>
<stop offset="1" stop-color="#4D69D3"/>
</linearGradient>
<linearGradient id="paint51_linear_292_72" x1="61.0002" y1="51.6436" x2="61.0002" y2="83.0324" gradientUnits="userSpaceOnUse">
<stop stop-color="#55BDD5"/>
<stop offset="1" stop-color="#4D69D3"/>
</linearGradient>
</defs>
</svg>
