<svg width="26" height="26" viewBox="0 0 26 26" fill="none" xmlns="http://www.w3.org/2000/svg">
<path d="M7.58122 0C3.40023 0 0 3.4034 0 7.58545V18.4188C0 22.5998 3.4034 26 7.58545 26H18.4188C22.5998 26 26 22.5966 26 18.4146V7.58122C26 3.40023 22.5966 0 18.4146 0H7.58122ZM20.5833 4.33333C21.1811 4.33333 21.6667 4.81893 21.6667 5.41667C21.6667 6.0144 21.1811 6.5 20.5833 6.5C19.9856 6.5 19.5 6.0144 19.5 5.41667C19.5 4.81893 19.9856 4.33333 20.5833 4.33333ZM13 6.5C16.5843 6.5 19.5 9.41569 19.5 13C19.5 16.5843 16.5843 19.5 13 19.5C9.41569 19.5 6.5 16.5843 6.5 13C6.5 9.41569 9.41569 6.5 13 6.5ZM13 8.66667C10.6069 8.66667 8.66667 10.6069 8.66667 13C8.66667 15.3931 10.6069 17.3333 13 17.3333C15.3931 17.3333 17.3333 15.3931 17.3333 13C17.3333 10.6069 15.3931 8.66667 13 8.66667Z" fill="white"/>
</svg>
