<svg width="16" height="16" viewBox="0 0 16 16" fill="none" xmlns="http://www.w3.org/2000/svg">
<path fill-rule="evenodd" clip-rule="evenodd" d="M1.31126 12.3904C1.49019 11.7582 1.74651 11.0586 2.08858 10.3346C2.00007 10.1929 1.94892 10.0255 1.94892 9.84615C1.94892 9.79519 1.95305 9.74521 1.96099 9.69649C1.1117 8.69905 0.501111 7.65786 0.101243 6.72377C0.0346172 7.13936 0 7.56564 0 8C0 9.62132 0.482304 11.13 1.31126 12.3904ZM3.79507 9.84615C3.79507 9.93831 3.78156 10.0273 3.75642 10.1113C4.01915 10.3478 4.29932 10.5772 4.59748 10.7967C5.03658 11.1199 5.51577 11.4222 6.03715 11.6938C5.4979 10.1255 5.36207 8.599 5.49811 7.17203C4.78261 7.88634 4.18868 8.66585 3.70534 9.44866C3.76286 9.56904 3.79507 9.70383 3.79507 9.84615ZM4.95037 6.3086C4.1052 7.12299 3.41165 8.02077 2.85444 8.92324C2.78106 8.92461 2.70976 8.93454 2.64152 8.95208C1.60256 7.70398 0.972877 6.39845 0.685405 5.40011L0.404668 5.48095C1.01318 3.64525 2.26859 2.10442 3.90075 1.12863L3.90296 1.32133C4.69615 1.31226 5.73793 1.44734 6.8721 1.80965C6.87163 1.82176 6.87139 1.83393 6.87139 1.84615C6.87139 2.04222 6.93252 2.22401 7.03676 2.3735C6.57121 3.20407 6.16195 4.14241 5.87553 5.16266C5.63545 5.31071 5.4683 5.56564 5.44042 5.86111C5.27178 6.00694 5.10846 6.15627 4.95037 6.3086ZM6.80063 13.4352C6.79021 13.4355 6.77974 13.4357 6.76923 13.4357C6.33437 13.4357 5.96975 13.135 5.87195 12.7302C5.19069 12.3988 4.5691 12.0175 4.00468 11.602C3.64278 11.3356 3.30499 11.0557 2.9905 10.7664C2.5658 11.6661 2.28481 12.5222 2.1298 13.2347L1.90892 13.1866C3.37629 14.9082 5.56064 16 8 16C8.18916 16 8.37679 15.9934 8.56267 15.9805C7.83468 15.132 7.25391 14.2806 6.80063 13.4352ZM8.00986 13.5355C8.46866 14.2882 9.04258 15.0479 9.74947 15.8081C11.0988 15.5071 12.3196 14.8653 13.3169 13.9776C11.307 14.1441 9.5439 13.9596 8.00986 13.5355ZM7.68439 12.3912C9.49576 12.9957 11.7027 13.238 14.3611 12.8521C14.6326 12.4967 14.875 12.1178 15.0848 11.7191C14.427 8.49035 13.0704 6.20477 11.4793 4.61535C11.1905 4.61306 10.9334 4.47819 10.7657 4.26861C9.42094 4.56726 8.25803 5.0861 7.25849 5.73907C7.27416 5.80649 7.28245 5.87673 7.28245 5.94892C7.28245 6.39634 6.96412 6.76942 6.54158 6.85402C6.3388 8.33284 6.44723 9.9555 7.0818 11.6438C7.40115 11.7587 7.63886 12.0447 7.68439 12.3912ZM15.72 10.1058C14.9683 7.48065 13.7465 5.51213 12.3353 4.0563C12.3389 4.0479 12.3424 4.03943 12.3458 4.03091C13.1485 3.96454 14.0066 3.9721 14.9229 4.06726L14.9299 4.00023C15.6105 5.17687 16 6.54295 16 8C16 8.7288 15.9025 9.43484 15.72 10.1058ZM14.2541 3.0109C13.5159 2.96988 12.8131 2.98335 12.1445 3.04462C11.977 2.87462 11.7442 2.76923 11.4868 2.76923C11.3215 2.76923 11.1664 2.81266 11.0322 2.88873C10.3001 2.32057 9.54279 1.86448 8.79293 1.50369C9.12652 1.05919 9.46548 0.673487 9.78731 0.355881L9.59253 0.158517C11.467 0.537147 13.104 1.57106 14.2541 3.0109ZM10.0603 3.41154C8.9558 3.70569 7.96551 4.13936 7.08259 4.66958C7.331 3.97841 7.63691 3.33535 7.97156 2.75226C8.17252 2.71321 8.35019 2.60898 8.48168 2.46245C9.0084 2.72404 9.53917 3.03798 10.0603 3.41154ZM7.50435 0.96959C6.76034 0.708695 6.04375 0.536648 5.38916 0.435718C6.20741 0.153345 7.0858 0 8 0C8.24037 0 8.47827 0.0106012 8.71325 0.0313617C8.46607 0.302618 8.21464 0.606188 7.96661 0.939098C7.91084 0.92858 7.8533 0.923077 7.79447 0.923077C7.69312 0.923077 7.59558 0.939411 7.50435 0.96959Z" fill="#4D69D3"/>
</svg>
