<svg width="500" height="477" viewBox="0 0 500 477" fill="none" xmlns="http://www.w3.org/2000/svg">
<g clip-path="url(#clip0_168_3663)">
<g opacity="0.3">
<path d="M182.352 36.3893C163.458 45.5182 122.254 75.2879 108.591 121.335L58.6991 319.037" stroke="white" stroke-linecap="round"/>
<path d="M182.352 36.3893C163.458 45.5182 122.254 75.2879 108.591 121.335L58.6991 319.037" stroke="url(#paint0_linear_168_3663)" stroke-linecap="round"/>
<path d="M189.848 34.5201C170.973 42.4196 129.264 69.3465 113.421 113.859L53.9292 305.474" stroke="white" stroke-linecap="round"/>
<path d="M189.848 34.5201C170.973 42.4196 129.264 69.3465 113.421 113.859L53.9292 305.474" stroke="url(#paint1_linear_168_3663)" stroke-linecap="round"/>
<path d="M196.884 32.8808C178.106 39.5836 136.077 63.7097 118.185 106.592L49.6221 291.68" stroke="white" stroke-linecap="round"/>
<path d="M196.884 32.8808C178.106 39.5836 136.077 63.7097 118.185 106.592L49.6221 291.68" stroke="url(#paint2_linear_168_3663)" stroke-linecap="round"/>
<path d="M203.452 31.4399C184.844 36.9838 142.676 58.3627 122.869 99.528L45.7826 277.689" stroke="white" stroke-linecap="round"/>
<path d="M203.452 31.4399C184.844 36.9838 142.676 58.3627 122.869 99.528L45.7826 277.689" stroke="url(#paint3_linear_168_3663)" stroke-linecap="round"/>
<path d="M288.783 19.0079C263.094 17.8546 149.467 34.9294 127.459 92.6583L42.4132 263.535" stroke="white" stroke-linecap="round"/>
<path d="M288.783 19.0079C263.094 17.8546 149.467 34.9294 127.459 92.6583L42.4132 263.535" stroke="url(#paint4_linear_168_3663)" stroke-linecap="round"/>
<path d="M290.795 18.3061C270.857 21.371 153.401 35.502 131.946 85.9741L39.5175 249.248" stroke="white" stroke-linecap="round"/>
<path d="M290.795 18.3061C270.857 21.371 153.401 35.502 131.946 85.9741L39.5175 249.248" stroke="url(#paint5_linear_168_3663)" stroke-linecap="round"/>
<path d="M288.73 20.1938C270.155 19.3598 159.689 36.5766 136.319 79.468L37.0924 234.864" stroke="white" stroke-linecap="round"/>
<path d="M288.73 20.1938C270.155 19.3598 159.689 36.5766 136.319 79.468L37.0924 234.864" stroke="url(#paint6_linear_168_3663)" stroke-linecap="round"/>
<path d="M289.61 18.2527C272.332 19.6195 166.654 39.4933 140.569 73.1283L35.1367 220.413" stroke="white" stroke-linecap="round"/>
<path d="M289.61 18.2527C272.332 19.6195 166.654 39.4933 140.569 73.1283L35.1367 220.413" stroke="url(#paint7_linear_168_3663)" stroke-linecap="round"/>
<path d="M291.514 19.9223C274.708 20.3771 171.987 35.3101 144.686 66.9461L33.6434 205.928" stroke="white" stroke-linecap="round"/>
<path d="M291.514 19.9223C274.708 20.3771 171.987 35.3101 144.686 66.9461L33.6434 205.928" stroke="url(#paint8_linear_168_3663)" stroke-linecap="round"/>
<path d="M291.657 16.7609C275.369 16.3623 177.037 31.3008 148.661 60.9107L32.6068 191.438" stroke="white" stroke-linecap="round"/>
<path d="M291.657 16.7609C275.369 16.3623 177.037 31.3008 148.661 60.9107L32.6068 191.438" stroke="url(#paint9_linear_168_3663)" stroke-linecap="round"/>
<path d="M290.812 17.911C275.083 16.7198 181.797 27.4437 152.486 55.0101L32.0154 176.974" stroke="white" stroke-linecap="round"/>
<path d="M290.812 17.911C275.083 16.7198 181.797 27.4437 152.486 55.0101L32.0154 176.974" stroke="url(#paint10_linear_168_3663)" stroke-linecap="round"/>
<path d="M28.3232 229.482C30.3798 250.365 44.1215 299.305 82.6364 328.004L251.024 442.987" stroke="white" stroke-linecap="round"/>
<path d="M28.3232 229.482C30.3798 250.365 44.1215 299.305 82.6364 328.004L251.024 442.987" stroke="url(#paint11_linear_168_3663)" stroke-linecap="round"/>
<path d="M29.1527 221.8C30.0617 242.241 40.9606 290.676 77.2838 320.891L236.648 442.789" stroke="white" stroke-linecap="round"/>
<path d="M29.1527 221.8C30.0617 242.241 40.9606 290.676 77.2838 320.891L236.648 442.789" stroke="url(#paint12_linear_168_3663)" stroke-linecap="round"/>
<path d="M30.0389 214.631C29.858 234.569 38.0176 282.338 72.1039 313.915L222.214 442.077" stroke="white" stroke-linecap="round"/>
<path d="M30.0389 214.631C29.858 234.569 38.0176 282.338 72.1039 313.915L222.214 442.077" stroke="url(#paint13_linear_168_3663)" stroke-linecap="round"/>
<path d="M30.9497 207.97C29.7394 227.348 35.2724 274.301 67.0869 307.084L207.757 440.859" stroke="white" stroke-linecap="round"/>
<path d="M30.9497 207.97C29.7394 227.348 35.2724 274.301 67.0869 307.084L207.757 440.859" stroke="url(#paint14_linear_168_3663)" stroke-linecap="round"/>
<path d="M31.8532 201.806C29.677 220.575 32.7039 266.571 62.2221 300.407L193.309 439.142" stroke="white" stroke-linecap="round"/>
<path d="M31.8532 201.806C29.677 220.575 32.7039 266.571 62.2221 300.407L193.309 439.142" stroke="url(#paint15_linear_168_3663)" stroke-linecap="round"/>
<path d="M32.7151 196.131C29.6385 214.245 30.2872 259.156 57.4946 293.89L178.9 436.936" stroke="white" stroke-linecap="round"/>
<path d="M32.7151 196.131C29.6385 214.245 30.2872 259.156 57.4946 293.89L178.9 436.936" stroke="url(#paint16_linear_168_3663)" stroke-linecap="round"/>
<path d="M33.5061 190.932C29.5969 208.352 28.0014 252.06 52.8936 287.542L164.561 434.253" stroke="white" stroke-linecap="round"/>
<path d="M33.5061 190.932C29.5969 208.352 28.0014 252.06 52.8936 287.542L164.561 434.253" stroke="url(#paint17_linear_168_3663)" stroke-linecap="round"/>
<path d="M34.1998 186.197C29.527 202.887 25.8268 245.288 48.4087 281.368L150.323 431.109" stroke="white" stroke-linecap="round"/>
<path d="M34.1998 186.197C29.527 202.887 25.8268 245.288 48.4087 281.368L150.323 431.109" stroke="url(#paint18_linear_168_3663)" stroke-linecap="round"/>
<path d="M34.7648 181.908C29.3986 197.841 23.7377 238.84 44.0238 275.373L136.21 427.517" stroke="white" stroke-linecap="round"/>
<path d="M34.7648 181.908C29.3986 197.841 23.7377 238.84 44.0238 275.373L136.21 427.517" stroke="url(#paint19_linear_168_3663)" stroke-linecap="round"/>
<path d="M35.1771 178.049C29.1883 193.201 21.7142 232.717 39.7279 269.561L122.251 423.496" stroke="white" stroke-linecap="round"/>
<path d="M35.1771 178.049C29.1883 193.201 21.7142 232.717 39.7279 269.561L122.251 423.496" stroke="url(#paint20_linear_168_3663)" stroke-linecap="round"/>
<path d="M35.4128 174.6C28.8726 188.955 19.7355 226.918 35.5086 263.935L108.47 419.064" stroke="white" stroke-linecap="round"/>
<path d="M35.4128 174.6C28.8726 188.955 19.7355 226.918 35.5086 263.935L108.47 419.064" stroke="url(#paint21_linear_168_3663)" stroke-linecap="round"/>
<path d="M148.206 440.89C168.374 446.686 218.931 451.976 259.818 426.771L415.739 322.502" stroke="white" stroke-linecap="round"/>
<path d="M148.206 440.89C168.374 446.686 218.931 451.976 259.818 426.771L415.739 322.502" stroke="url(#paint22_linear_168_3663)" stroke-linecap="round"/>
<path d="M141.373 437.284C160.706 443.983 209.745 451.729 251.232 429.121L415.314 331.987" stroke="white" stroke-linecap="round"/>
<path d="M141.373 437.284C160.706 443.983 209.745 451.729 251.232 429.121L415.314 331.987" stroke="url(#paint23_linear_168_3663)" stroke-linecap="round"/>
<path d="M135.037 433.813C153.5 441.34 200.909 451.386 242.836 431.36L417.351 339.147" stroke="white" stroke-linecap="round"/>
<path d="M135.037 433.813C153.5 441.34 200.909 451.386 242.836 431.36L417.351 339.147" stroke="url(#paint24_linear_168_3663)" stroke-linecap="round"/>
<path d="M129.181 430.509C146.745 438.785 192.426 450.972 234.636 433.502L410.883 352.134" stroke="white" stroke-linecap="round"/>
<path d="M129.181 430.509C146.745 438.785 192.426 450.972 234.636 433.502L410.883 352.134" stroke="url(#paint25_linear_168_3663)" stroke-linecap="round"/>
<path d="M123.787 427.395C140.428 436.345 184.294 450.507 226.635 435.56L403.955 364.929" stroke="white" stroke-linecap="round"/>
<path d="M123.787 427.395C140.428 436.345 184.294 450.507 226.635 435.56L403.955 364.929" stroke="url(#paint26_linear_168_3663)" stroke-linecap="round"/>
<path d="M118.831 424.5C134.531 434.044 176.511 450.016 218.834 437.549L396.588 377.506" stroke="white" stroke-linecap="round"/>
<path d="M118.831 424.5C134.531 434.044 176.511 450.016 218.834 437.549L396.588 377.506" stroke="url(#paint27_linear_168_3663)" stroke-linecap="round"/>
<path d="M114.292 421.846C129.038 431.908 169.072 449.522 211.236 439.482L388.803 389.843" stroke="white" stroke-linecap="round"/>
<path d="M114.292 421.846C129.038 431.908 169.072 449.522 211.236 439.482L388.803 389.843" stroke="url(#paint28_linear_168_3663)" stroke-linecap="round"/>
<path d="M110.147 419.454C123.934 429.957 161.976 449.044 203.843 441.372L380.626 401.916" stroke="white" stroke-linecap="round"/>
<path d="M110.147 419.454C123.934 429.957 161.976 449.044 203.843 441.372L380.626 401.916" stroke="url(#paint29_linear_168_3663)" stroke-linecap="round"/>
<path d="M106.369 417.345C119.196 428.213 155.211 448.605 196.652 443.234L372.078 413.706" stroke="white" stroke-linecap="round"/>
<path d="M106.369 417.345C119.196 428.213 155.211 448.605 196.652 443.234L372.078 413.706" stroke="url(#paint30_linear_168_3663)" stroke-linecap="round"/>
<path d="M107.665 419.156C119.537 430.315 148.774 448.226 189.665 445.082L363.189 425.197" stroke="white" stroke-linecap="round"/>
<path d="M107.665 419.156C119.537 430.315 148.774 448.226 189.665 445.082L363.189 425.197" stroke="url(#paint31_linear_168_3663)" stroke-linecap="round"/>
<path d="M108.815 419.999C119.743 431.375 142.654 447.925 182.879 446.927L353.984 436.369" stroke="white" stroke-linecap="round"/>
<path d="M108.815 419.999C119.743 431.375 142.654 447.925 182.879 446.927L353.984 436.369" stroke="url(#paint32_linear_168_3663)" stroke-linecap="round"/>
<path d="M388.428 401.323C401.305 384.754 425.008 339.786 416.807 292.46L373.736 93.1605" stroke="white" stroke-linecap="round"/>
<path d="M388.428 401.323C401.305 384.754 425.008 339.786 416.807 292.46L373.736 93.1605" stroke="url(#paint33_linear_168_3663)" stroke-linecap="round"/>
<path d="M382.541 406.327C395.946 390.869 421.364 348.223 415.797 301.305L384.031 103.197" stroke="white" stroke-linecap="round"/>
<path d="M382.541 406.327C395.946 390.869 421.364 348.223 415.797 301.305L384.031 103.197" stroke="url(#paint34_linear_168_3663)" stroke-linecap="round"/>
<path d="M376.963 410.919C390.813 396.576 417.761 356.298 414.754 309.931L394.014 113.644" stroke="white" stroke-linecap="round"/>
<path d="M376.963 410.919C390.813 396.576 417.761 356.298 414.754 309.931L394.014 113.644" stroke="url(#paint35_linear_168_3663)" stroke-linecap="round"/>
<path d="M371.72 415.126C385.932 401.897 414.224 364.019 413.696 318.339L403.668 124.475" stroke="white" stroke-linecap="round"/>
<path d="M371.72 415.126C385.932 401.897 414.224 364.019 413.696 318.339L403.668 124.475" stroke="url(#paint36_linear_168_3663)" stroke-linecap="round"/>
<path d="M366.824 418.977C381.318 406.855 410.77 371.396 412.632 326.533L412.971 135.663" stroke="white" stroke-linecap="round"/>
<path d="M366.824 418.977C381.318 406.855 410.77 371.396 412.632 326.533L412.971 135.663" stroke="url(#paint37_linear_168_3663)" stroke-linecap="round"/>
<path d="M362.293 422.502C376.989 411.475 407.421 378.439 411.578 334.514L421.908 147.178" stroke="white" stroke-linecap="round"/>
<path d="M362.293 422.502C376.989 411.475 407.421 378.439 411.578 334.514L421.908 147.178" stroke="url(#paint38_linear_168_3663)" stroke-linecap="round"/>
<path d="M358.142 425.729C372.965 415.779 404.197 385.16 410.548 342.286L430.467 158.99" stroke="white" stroke-linecap="round"/>
<path d="M358.142 425.729C372.965 415.779 404.197 385.16 410.548 342.286L430.467 158.99" stroke="url(#paint39_linear_168_3663)" stroke-linecap="round"/>
<path d="M354.381 428.689C369.256 419.793 401.116 391.571 409.555 349.852L438.635 171.07" stroke="white" stroke-linecap="round"/>
<path d="M354.381 428.689C369.256 419.793 401.116 391.571 409.555 349.852L438.635 171.07" stroke="url(#paint40_linear_168_3663)" stroke-linecap="round"/>
<path d="M351.02 431.412C365.877 423.543 398.195 397.688 408.612 357.22L446.405 183.386" stroke="white" stroke-linecap="round"/>
<path d="M351.02 431.412C365.877 423.543 398.195 397.688 408.612 357.22L446.405 183.386" stroke="url(#paint41_linear_168_3663)" stroke-linecap="round"/>
<path d="M348.065 433.928C362.837 427.054 395.45 403.523 407.73 364.393L453.767 195.91" stroke="white" stroke-linecap="round"/>
<path d="M348.065 433.928C362.837 427.054 395.45 403.523 407.73 364.393L453.767 195.91" stroke="url(#paint42_linear_168_3663)" stroke-linecap="round"/>
<path d="M345.521 436.269C360.144 430.353 392.896 409.093 406.921 371.379L458.071 208.77" stroke="white" stroke-linecap="round"/>
<path d="M345.521 436.269C360.144 430.353 392.896 409.093 406.921 371.379L458.071 208.77" stroke="url(#paint43_linear_168_3663)" stroke-linecap="round"/>
<path d="M441.689 160.786C431.322 142.542 398.875 103.412 352.021 92.8445L151.436 56.2256" stroke="white" stroke-linecap="round"/>
<path d="M441.689 160.786C431.322 142.542 398.875 103.412 352.021 92.8445L151.436 56.2256" stroke="url(#paint44_linear_168_3663)" stroke-linecap="round"/>
<path d="M444.053 168.143C434.914 149.836 405.27 110.012 359.802 97.1677L164.651 50.5642" stroke="white" stroke-linecap="round"/>
<path d="M444.053 168.143C434.914 149.836 405.27 110.012 359.802 97.1677L164.651 50.5642" stroke="url(#paint45_linear_168_3663)" stroke-linecap="round"/>
<path d="M446.157 175.053C438.219 156.763 411.348 116.433 367.37 101.436L178.128 45.3475" stroke="white" stroke-linecap="round"/>
<path d="M446.157 175.053C438.219 156.763 411.348 116.433 367.37 101.436L178.128 45.3475" stroke="url(#paint46_linear_168_3663)" stroke-linecap="round"/>
<path d="M448.032 181.51C441.261 163.313 417.122 122.662 374.73 105.639L191.832 40.5851" stroke="white" stroke-linecap="round"/>
<path d="M448.032 181.51C441.261 163.313 417.122 122.662 374.73 105.639L191.832 40.5851" stroke="url(#paint47_linear_168_3663)" stroke-linecap="round"/>
<path d="M449.712 187.508C444.072 169.475 422.612 128.679 381.89 109.762L205.731 36.2809" stroke="white" stroke-linecap="round"/>
<path d="M449.712 187.508C444.072 169.475 422.612 128.679 381.89 109.762L205.731 36.2809" stroke="url(#paint48_linear_168_3663)" stroke-linecap="round"/>
<path d="M451.232 193.044C446.68 175.243 427.834 134.472 388.858 113.795L219.793 32.4408" stroke="white" stroke-linecap="round"/>
<path d="M451.232 193.044C446.68 175.243 427.834 134.472 388.858 113.795L219.793 32.4408" stroke="url(#paint49_linear_168_3663)" stroke-linecap="round"/>
<path d="M452.62 198.115C449.112 180.61 432.805 140.026 395.641 117.725L233.983 29.0633" stroke="white" stroke-linecap="round"/>
<path d="M452.62 198.115C449.112 180.61 432.805 140.026 395.641 117.725L233.983 29.0633" stroke="url(#paint50_linear_168_3663)" stroke-linecap="round"/>
<path d="M453.912 202.723C451.398 185.575 437.546 145.33 402.249 121.543L248.272 26.1496" stroke="white" stroke-linecap="round"/>
<path d="M453.912 202.723C451.398 185.575 437.546 145.33 402.249 121.543L248.272 26.1496" stroke="url(#paint51_linear_168_3663)" stroke-linecap="round"/>
<path d="M455.138 206.872C453.566 190.133 442.075 150.373 408.691 125.239L262.625 23.6956" stroke="white" stroke-linecap="round"/>
<path d="M455.138 206.872C453.566 190.133 442.075 150.373 408.691 125.239L262.625 23.6956" stroke="url(#paint52_linear_168_3663)" stroke-linecap="round"/>
<path d="M456.331 210.566C455.645 194.287 446.413 155.145 414.98 128.803L277.015 21.6962" stroke="white" stroke-linecap="round"/>
<path d="M456.331 210.566C455.645 194.287 446.413 155.145 414.98 128.803L277.015 21.6962" stroke="url(#paint53_linear_168_3663)" stroke-linecap="round"/>
<path d="M457.517 213.812C457.658 198.039 450.577 159.639 421.121 132.228L291.407 20.1444" stroke="white" stroke-linecap="round"/>
<path d="M457.517 213.812C457.658 198.039 450.577 159.639 421.121 132.228L291.407 20.1444" stroke="url(#paint54_linear_168_3663)" stroke-linecap="round"/>
</g>
<path opacity="0.4" d="M338.079 369.489L297.719 346.152C294.807 344.464 295.187 341.535 298.563 339.594L324.727 324.495L375.62 353.925L349.456 369.024C346.08 370.957 341.016 371.168 338.079 369.489Z" fill="#D6D8E5"/>
<path d="M341.725 367.353L301.348 344.05C298.444 342.362 298.816 339.434 302.192 337.492L328.356 322.393L379.266 351.79L353.102 366.889C349.717 368.822 344.637 369.033 341.725 367.353Z" fill="#B1B4C4"/>
<path d="M379.232 351.79V350.245L376.877 351.604L379.232 351.79Z" fill="#B1B4C4"/>
<path d="M299.398 341.274V339.704L301.812 340.708L299.398 341.274Z" fill="#B1B4C4"/>
<path d="M341.725 365.817L301.348 342.506C298.444 340.818 298.816 337.898 302.192 335.957L328.356 320.832L379.266 350.22L353.102 365.319C349.717 367.252 344.637 367.497 341.725 365.817Z" fill="#D6D8E5"/>
<path d="M328.466 320.925L322.161 300.027L373.62 329.542L379.232 350.245L328.466 320.925Z" fill="#9EA1AF"/>
<path d="M377.738 351.106L379.232 350.262L377.012 348.49L377.738 351.106Z" fill="#9EA1AF"/>
<path d="M326.836 321.71L320.54 300.812L371.999 330.327L377.738 351.106L326.836 321.71Z" fill="#B1B4C4"/>
<path d="M457.488 386.335L258.304 271.331C255.51 269.719 253.24 265.423 253.24 261.659V107.578C253.24 103.856 255.502 102.143 258.304 103.755L457.488 218.759C460.281 220.371 462.552 224.667 462.552 228.422V382.511C462.552 386.234 460.264 387.947 457.488 386.335Z" fill="#B1B4C4"/>
<path d="M458.492 387.922L460.703 386.647L459.75 380.106L458.492 387.922Z" fill="#B1B4C4"/>
<path d="M252.86 104.709L255.037 103.451L258.16 105.232C258.16 105.232 254.835 105.739 254.784 105.722C254.734 105.705 252.86 104.709 252.86 104.709Z" fill="#B1B4C4"/>
<path d="M455.648 387.39L256.464 272.386C253.67 270.774 251.4 266.478 251.4 262.714V108.634C251.4 104.911 253.67 103.198 256.464 104.81L455.648 219.814C458.442 221.426 460.712 225.722 460.712 229.477V383.567C460.703 387.289 458.442 389.002 455.648 387.39Z" fill="#E4E7F2"/>
<path d="M455.293 387.584L256.109 272.58C253.316 270.968 251.045 266.672 251.045 262.917V108.836C251.045 105.114 253.307 103.401 256.109 105.013L455.293 220.016C458.087 221.628 460.357 225.924 460.357 229.68V383.761C460.357 387.508 458.087 389.196 455.293 387.584Z" fill="#D6D8E5"/>
<path d="M457.615 378.224L253.569 260.418L253.679 109.452C253.679 107.908 254.768 107.283 256.101 108.051L455.285 223.054C455.993 223.517 456.582 224.14 457.003 224.874C457.424 225.607 457.665 226.43 457.708 227.274L457.615 378.224Z" fill="white"/>
<path d="M444.98 246.982L264.111 142.562C263.484 142.113 262.972 141.523 262.614 140.84C262.256 140.157 262.064 139.4 262.051 138.629V125.573C262.051 124.062 262.971 123.361 264.111 124.02L444.98 228.439C445.607 228.889 446.121 229.48 446.478 230.165C446.836 230.85 447.028 231.608 447.039 232.381V245.429C447.039 246.948 446.119 247.64 444.98 246.982Z" fill="#E9EAF2"/>
<path d="M435.544 281.932L393.032 257.389C392.405 256.939 391.892 256.349 391.535 255.667C391.177 254.984 390.985 254.226 390.972 253.455V226.017C390.972 224.498 391.892 223.806 393.032 224.464L435.544 249.008C436.171 249.456 436.685 250.045 437.042 250.729C437.4 251.412 437.592 252.17 437.603 252.941V280.379C437.569 281.89 436.649 282.59 435.544 281.932Z" fill="#E9EAF2"/>
<path d="M379.511 290.845L272.863 229.233C272.548 229.009 272.291 228.715 272.112 228.373C271.933 228.031 271.838 227.652 271.833 227.266V222.548C271.833 221.789 272.289 221.434 272.863 221.763L379.511 283.375C379.824 283.6 380.08 283.895 380.258 284.236C380.437 284.578 380.534 284.956 380.54 285.342V290.068C380.54 290.819 380.076 291.174 379.511 290.845Z" fill="#E9EAF2"/>
<path d="M369.012 295.959L273.167 240.652C272.854 240.427 272.599 240.132 272.42 239.79C272.241 239.449 272.144 239.071 272.137 238.685V236.331C272.137 235.571 272.601 235.225 273.167 235.554L369.012 290.887C369.325 291.112 369.581 291.407 369.759 291.748C369.938 292.089 370.035 292.468 370.041 292.853V295.2C370.041 295.934 369.577 296.288 369.012 295.959Z" fill="#E9EAF2"/>
<path d="M369.012 304.872L273.167 249.539C272.854 249.314 272.598 249.02 272.419 248.678C272.24 248.337 272.144 247.958 272.137 247.573V245.218C272.137 244.467 272.601 244.112 273.167 244.442L369.012 299.774C369.325 299.999 369.581 300.294 369.759 300.635C369.938 300.977 370.035 301.355 370.041 301.741V304.095C370.041 304.855 369.577 305.201 369.012 304.872Z" fill="#E9EAF2"/>
<path d="M344.51 299.639L273.167 258.452C272.854 258.227 272.598 257.932 272.419 257.591C272.24 257.249 272.144 256.871 272.137 256.485V254.156C272.137 253.396 272.601 253.05 273.167 253.371L344.51 294.558C344.821 294.787 345.075 295.084 345.254 295.426C345.432 295.769 345.53 296.147 345.54 296.533V298.888C345.54 299.622 345.076 299.968 344.51 299.639Z" fill="#E9EAF2"/>
<path d="M436.54 293.343L391.968 267.609C391.654 267.386 391.397 267.091 391.218 266.75C391.039 266.408 390.943 266.029 390.938 265.643V263.288C390.938 262.529 391.394 262.182 391.968 262.512L436.54 288.245C436.853 288.47 437.109 288.765 437.288 289.106C437.466 289.448 437.563 289.826 437.569 290.212V292.566C437.569 293.326 437.105 293.672 436.54 293.343Z" fill="#E9EAF2"/>
<path d="M436.54 302.264L391.968 276.522C391.654 276.299 391.397 276.004 391.218 275.662C391.039 275.32 390.943 274.941 390.938 274.555V272.209C390.938 271.45 391.394 271.095 391.968 271.424L436.54 297.2C436.854 297.424 437.111 297.719 437.289 298.06C437.468 298.402 437.564 298.781 437.569 299.166V301.513C437.569 302.264 437.105 302.585 436.54 302.264Z" fill="#E9EAF2"/>
<path d="M424.867 304.433L391.951 285.435C391.637 285.211 391.379 284.917 391.2 284.575C391.022 284.233 390.926 283.854 390.921 283.468V281.164C390.921 280.404 391.377 280.058 391.951 280.387L424.867 299.377C425.181 299.602 425.437 299.897 425.616 300.238C425.795 300.58 425.891 300.959 425.897 301.344V303.699C425.897 304.416 425.416 304.796 424.867 304.433Z" fill="#E9EAF2"/>
<path d="M435.544 350.634L393.032 326.09C392.405 325.641 391.892 325.051 391.535 324.368C391.177 323.685 390.985 322.928 390.972 322.157V294.719C390.972 293.208 391.892 292.507 393.032 293.166L435.544 317.709C436.169 318.165 436.677 318.762 437.029 319.451C437.381 320.14 437.566 320.902 437.569 321.676V349.114C437.569 350.591 436.649 351.292 435.544 350.634Z" fill="#E9EAF2"/>
<path d="M436.54 362.044L391.968 336.311C391.654 336.087 391.397 335.793 391.218 335.451C391.039 335.109 390.943 334.73 390.938 334.344V331.998C390.938 331.238 391.394 330.884 391.968 331.213L436.54 356.947C436.851 357.176 437.105 357.473 437.283 357.815C437.462 358.157 437.56 358.536 437.569 358.922V361.268C437.569 362.028 437.105 362.374 436.54 362.044Z" fill="#E9EAF2"/>
<path d="M273.142 141.681C274.688 140.788 274.687 137.892 273.14 135.211C271.592 132.531 269.084 131.082 267.538 131.974C265.992 132.867 265.993 135.763 267.541 138.444C269.088 141.124 271.596 142.574 273.142 141.681Z" fill="#DADCE5"/>
<path d="M364.377 192.839L348.73 183.808C348.573 183.695 348.445 183.547 348.355 183.376C348.266 183.204 348.218 183.014 348.215 182.821V180.728C348.215 180.348 348.443 180.171 348.73 180.34L364.377 189.37C364.535 189.481 364.664 189.627 364.754 189.798C364.843 189.968 364.891 190.157 364.892 190.349V192.426C364.892 192.831 364.648 193.008 364.377 192.839Z" fill="#DADCE5"/>
<path d="M389.698 207.466L374.05 198.452C373.894 198.34 373.766 198.193 373.677 198.023C373.587 197.854 373.539 197.665 373.535 197.473V195.397C373.535 195.017 373.771 194.84 374.05 195.008L389.698 204.039C389.855 204.152 389.983 204.301 390.072 204.472C390.162 204.643 390.21 204.833 390.213 205.027V207.103C390.213 207.449 389.968 207.626 389.698 207.466Z" fill="#DADCE5"/>
<path d="M414.612 221.848L398.965 212.8C398.807 212.69 398.678 212.543 398.588 212.373C398.499 212.203 398.451 212.013 398.45 211.821V209.745C398.45 209.365 398.678 209.196 398.965 209.356L414.612 218.387C414.769 218.5 414.897 218.649 414.987 218.82C415.076 218.991 415.124 219.181 415.127 219.375V221.451C415.127 221.839 414.899 222.008 414.612 221.848Z" fill="#DADCE5"/>
<path d="M439.933 236.432L424.294 227.401C424.137 227.288 424.009 227.14 423.919 226.968C423.83 226.797 423.782 226.607 423.779 226.414V224.337C423.779 223.958 424.007 223.789 424.294 223.949L439.933 233.056C440.091 233.166 440.22 233.313 440.309 233.483C440.399 233.653 440.446 233.843 440.448 234.035V236.111C440.448 236.432 440.22 236.635 439.933 236.432Z" fill="#DADCE5"/>
<path d="M405.396 252.392L402.408 244.703L396.981 252.434L402.94 255.878L407.844 258.705L418.774 265.018L410.857 244.619L405.396 252.392Z" fill="#DADCE5"/>
<path d="M431.334 257.967C432.733 257.163 432.739 254.549 431.348 252.128C429.957 249.707 427.695 248.396 426.295 249.2C424.896 250.004 424.89 252.619 426.282 255.04C427.673 257.461 429.935 258.771 431.334 257.967Z" fill="#DADCE5"/>
<path d="M405.7 322.106L402.72 314.418L397.285 322.149L403.252 325.592L408.156 328.419L419.086 334.733L411.169 314.333L405.7 322.106Z" fill="#DADCE5"/>
<path d="M430.25 326.839C431.643 326.035 431.644 323.43 430.252 321.02C428.861 318.61 426.604 317.308 425.211 318.112C423.818 318.916 423.817 321.522 425.209 323.932C426.6 326.342 428.857 327.644 430.25 326.839Z" fill="#DADCE5"/>
<path d="M305.298 217.298L301.348 233.115V219.577L305.298 217.298Z" fill="#232733"/>
<path d="M259.292 190.485L255.342 206.31V192.772L259.292 190.485Z" fill="#232733"/>
<path d="M324.254 288.617L230.216 234.322C229.654 233.919 229.195 233.39 228.876 232.777C228.556 232.164 228.385 231.485 228.376 230.794V182.686C228.376 181.327 229.22 180.703 230.216 181.294L324.254 235.588C324.817 235.988 325.278 236.516 325.599 237.127C325.92 237.738 326.093 238.417 326.103 239.108V287.258C326.103 288.583 325.276 289.207 324.254 288.617Z" fill="#E9EAF2"/>
<path d="M256.388 232.212L251.29 219.071L242.006 232.279L252.202 238.171L260.574 243.007L279.269 253.801L265.731 218.919L256.388 232.212Z" fill="#4D69D3"/>
<path d="M308.904 246.381C311.282 245.009 311.28 240.555 308.901 236.433C306.521 232.311 302.665 230.083 300.287 231.456C297.909 232.829 297.911 237.283 300.291 241.404C302.67 245.526 306.527 247.754 308.904 246.381Z" fill="#4D69D3"/>
<path d="M299.618 214.015L299.609 195.971L294.495 192.13V214.015L288.806 217.299L297.052 222.059L305.298 217.299L299.618 214.015Z" fill="#353C4C"/>
<path d="M297.052 222.059L301.348 233.115V220.345V219.577L297.052 222.059Z" fill="#232733"/>
<path d="M288.806 217.298L292.461 227.916L301.348 233.115L297.052 222.059L288.806 217.298Z" fill="#2B303F"/>
<path d="M253.603 187.21V165.317H248.488V187.201L242.8 190.485L251.046 195.253L259.292 190.485L253.603 187.21Z" fill="#353C4C"/>
<path d="M251.045 195.253L255.341 206.31V193.54V192.772L251.045 195.253Z" fill="#232733"/>
<path d="M242.8 190.485L246.454 201.102L255.342 206.31L251.046 195.253L242.8 190.485Z" fill="#2B303F"/>
<path opacity="0.4" d="M197.342 289.385L146.398 259.828L85.0142 295.267L139.933 327.12L201.326 291.68V287.089L197.342 289.385Z" fill="#D6D8E5"/>
<path d="M203.807 285.401L146.398 252.257L88.9894 285.401L85.0142 283.105V287.697L146.398 323.145L207.782 287.697V283.105L203.807 285.401Z" fill="#B1B4C4"/>
<path d="M146.398 318.545L85.0142 283.105L146.398 247.666L207.782 283.105L146.398 318.545Z" fill="#E7E9F2"/>
<path d="M146.204 269.981L150.213 267.668V96.4967L146.204 98.8093V269.981Z" fill="#B1B4C4"/>
<path d="M146.525 168.65L174.554 213.011L178.563 211.374L150.213 166.574L146.525 168.65Z" fill="#B1B4C4"/>
<path d="M146.356 176.542L174.402 221.122V212.783L146.356 168.363V176.542Z" fill="#D6D8E5"/>
<path d="M142.347 267.668L146.356 269.981V98.8093L142.347 96.4967V267.668Z" fill="#D6D8E5"/>
<path d="M174.402 286.177L178.411 288.49V117.318L174.402 115.006V286.177Z" fill="#D6D8E5"/>
<path d="M178.259 288.49L182.268 286.177V115.006L178.259 117.318V288.49Z" fill="#B1B4C4"/>
<path d="M146.356 257.642L174.402 224.059V216.007L146.356 249.641V257.642Z" fill="#D6D8E5"/>
<path d="M146.356 257.642L150.213 255.532L174.402 226.371V223.434L146.356 257.642Z" fill="#B1B4C4"/>
<path d="M146.356 168.65L174.402 135.068V127.016L146.356 160.649V168.65Z" fill="#D6D8E5"/>
<path d="M146.356 168.65L150.213 166.532L174.402 137.38V134.443L146.356 168.65Z" fill="#B1B4C4"/>
<path d="M114.385 288.465L118.394 286.152V114.98L114.385 117.293V288.465Z" fill="#B1B4C4"/>
<path d="M114.706 187.134L142.735 231.486L146.744 229.857L118.394 185.058L114.706 187.134Z" fill="#B1B4C4"/>
<path d="M114.537 195.025L142.583 239.597V231.267L114.537 186.839V195.025Z" fill="#D6D8E5"/>
<path d="M110.537 286.152L114.537 288.465V117.293L110.537 114.98V286.152Z" fill="#D6D8E5"/>
<path d="M142.583 304.653L146.592 306.965V135.802L142.583 133.481V304.653Z" fill="#D6D8E5"/>
<path d="M146.44 306.965L150.449 304.653V133.481L146.44 135.802V306.965Z" fill="#B1B4C4"/>
<path d="M114.537 276.125L142.583 242.543V234.482L114.537 268.124V276.125Z" fill="#D6D8E5"/>
<path d="M114.537 276.125L118.394 274.007L142.583 244.855V241.91L114.537 276.125Z" fill="#B1B4C4"/>
<path d="M114.537 187.134L142.583 153.551V145.491L114.537 179.124V187.134Z" fill="#D6D8E5"/>
<path d="M114.537 187.134L118.394 185.016L142.583 155.855V152.918L114.537 187.134Z" fill="#B1B4C4"/>
<path d="M146.592 144.47L105.211 120.576L146.592 96.6909L187.974 120.576L146.592 144.47Z" fill="#F7DC6B"/>
<path d="M143.512 75.9961L94.4499 104.321L80.4058 96.2099L129.467 67.8853L143.512 75.9961Z" fill="#353C4C"/>
<path d="M80.4058 107.57V96.2098L94.4499 104.321V115.681L80.4058 107.57Z" fill="#2B303F"/>
<path d="M94.4497 115.681L143.511 87.3563V75.9961L94.4497 104.321V114.575" fill="#232733"/>
<path d="M143.512 63.2516L94.4499 91.5762L80.4058 83.4654L129.467 55.1407L143.512 63.2516Z" fill="#353C4C"/>
<path d="M80.4058 94.8341V83.4655L94.4499 91.5763V102.945L80.4058 94.8341Z" fill="#2B303F"/>
<path d="M94.4497 102.945L143.511 74.6204V63.2517L94.4497 91.5763V101.839" fill="#232733"/>
<path d="M106.426 98.4802L76 81.0262V74.6625L106.426 92.0067V98.4802Z" fill="#D6D8E5"/>
<path d="M150.449 117.276L76 74.6626L81.5113 71.4807L155.961 114.094L150.449 117.276Z" fill="#E7E9F2"/>
<path d="M139.899 88.4197L101.674 66.3069V59.9347L139.899 80.4186V88.4197Z" fill="#D6D8E5"/>
<path d="M168.89 98.0919L101.674 59.9431L107.186 56.7612L174.402 94.91L168.89 98.0919Z" fill="#E7E9F2"/>
<path d="M122.04 71.6832V78.047L124.656 96.3702L128.539 98.7841L122.04 71.6832Z" fill="#D6D8E5"/>
<path d="M133.544 101.502L128.514 75.4221L122.04 71.6832L125.965 97.383L133.544 101.502Z" fill="#E7E9F2"/>
<path d="M122.04 78.047L101.962 83.3388L91.6479 77.3802L121.163 71.1599L122.04 71.6832V78.047Z" fill="#B1B4C4"/>
<path d="M122.04 71.6831L94.0781 78.7896L88.0688 75.3208L116.25 68.1215L122.04 71.6831Z" fill="#E7E9F2"/>
<path d="M146.592 91.7873L105.211 67.8936L146.592 44L187.974 67.8936L146.592 91.7873Z" fill="#E7E9F2"/>
<path d="M105.211 141.676V67.8937L146.592 91.7873V165.57L105.211 141.676Z" fill="#D6D8E5"/>
<path d="M187.974 67.8937V141.676L146.592 165.57V91.7789L187.974 67.8937Z" fill="#B1B4C4"/>
<path d="M146.592 117.487L122.834 103.772L115.195 79.4648L146.592 97.594V117.487Z" fill="url(#paint55_linear_168_3663)"/>
<path d="M187.974 73.7003V93.5934L146.592 117.495V97.6024L187.974 73.7003Z" fill="url(#paint56_linear_168_3663)"/>
<path d="M331.116 229.064L152.062 125.682V119.319L331.116 222.7V229.064Z" fill="#D6D8E5"/>
<path d="M331.116 222.7L152.062 119.327L157.573 116.145L336.627 219.518L331.116 222.7Z" fill="#E7E9F2"/>
<path d="M356.79 214.345L177.736 110.963V104.599L356.79 207.981V214.345Z" fill="#D6D8E5"/>
<path d="M356.79 207.981L177.736 104.599L183.247 101.417L362.302 204.799L356.79 207.981Z" fill="#E7E9F2"/>
<path d="M362.302 211.18L331.116 229.064V222.692L362.302 204.816V211.18Z" fill="#B1B4C4"/>
<path d="M362.302 204.816L331.133 222.7L326.465 220.008L357.634 202.123L362.302 204.816Z" fill="#E7E9F2"/>
<path d="M334.349 201.372L314.261 206.664L303.948 200.706L333.462 194.485L334.349 195.009V201.372Z" fill="#B1B4C4"/>
<path d="M334.348 195.008L306.387 202.115L300.377 198.638L328.55 191.447L334.348 195.008Z" fill="#E7E9F2"/>
<path d="M289.034 168.878V175.242L291.651 193.565L295.533 195.971L289.034 168.878Z" fill="#D6D8E5"/>
<path d="M300.538 198.697L295.508 172.617L289.034 168.878L292.967 194.578L300.538 198.697Z" fill="#E7E9F2"/>
<path d="M289.034 175.242L268.955 180.534L258.642 174.575L288.156 168.355L289.034 168.878V175.242Z" fill="#B1B4C4"/>
<path d="M289.034 168.878L261.081 175.985L255.071 172.516L283.244 165.317L289.034 168.878Z" fill="#E7E9F2"/>
<path d="M243.568 142.604V148.968L246.176 167.291L250.067 169.705L243.568 142.604Z" fill="#D6D8E5"/>
<path d="M255.072 172.423L250.041 146.343L243.568 142.604L247.492 168.304L255.072 172.423Z" fill="#E7E9F2"/>
<path d="M243.568 148.968L223.489 154.26L213.175 148.301L242.69 142.081L243.568 142.604V148.968Z" fill="#B1B4C4"/>
<path d="M243.568 142.605L215.606 149.711L209.597 146.242L237.778 139.043L243.568 142.605Z" fill="#E7E9F2"/>
<path d="M198.102 116.348V122.711L200.71 141.035L204.6 143.44L198.102 116.348Z" fill="#D6D8E5"/>
<path d="M209.597 146.166L204.575 120.087L198.102 116.348L202.026 142.047L209.597 146.166Z" fill="#E7E9F2"/>
<path d="M198.101 122.711L178.023 128.003L167.709 122.045L197.224 115.824L198.101 116.348V122.711Z" fill="#B1B4C4"/>
<path d="M198.101 116.348L170.14 123.454L164.13 119.985L192.303 112.786L198.101 116.348Z" fill="#E7E9F2"/>
<path opacity="0.4" d="M155.48 466L132 452.563L167.144 432.451L190.624 445.879L155.48 466Z" fill="#D6D8E5"/>
<path d="M155.969 438.916L136.523 427.682L155.969 416.457L175.415 427.691L155.969 438.916Z" fill="#D6D8E5"/>
<path d="M155.969 461.375L136.523 450.141V427.682L155.969 438.916V461.375Z" fill="#B1B6C4"/>
<path d="M175.415 450.141L155.969 461.375V438.916L175.415 427.682V450.141Z" fill="#C4C7D6"/>
<path d="M182.108 443.077C183.791 443.544 185.59 443.325 187.113 442.469C188.319 442.469 194.869 439.701 195.764 442.056C196.54 444.124 193.704 446.031 192.185 446.394C188.877 447.238 186.429 448.85 185.104 449.129C184.116 449.34 182.833 449.475 182.04 448.698C181.095 447.761 181.179 444.309 182.108 443.077Z" fill="#2B303F"/>
<path d="M185.105 448.555C186.43 448.276 188.877 446.63 192.186 445.829C193.46 445.516 195.646 444.141 195.866 442.453C196.161 444.352 193.604 446.04 192.186 446.377C188.877 447.221 186.43 448.833 185.105 449.112C184.117 449.323 182.834 449.458 182.041 448.681C181.841 448.452 181.694 448.181 181.61 447.888C182.1 448.264 182.672 448.52 183.278 448.636C183.885 448.752 184.51 448.724 185.105 448.555Z" fill="#9C73FF"/>
<path d="M170.292 436.789C171.978 437.256 173.78 437.038 175.306 436.182C176.512 436.182 183.062 433.413 183.948 435.768C184.733 437.836 181.897 439.743 180.378 440.106C177.069 440.908 174.622 442.562 173.288 442.841C172.301 443.052 171.018 443.187 170.233 442.41C169.288 441.473 169.364 438.021 170.292 436.789Z" fill="#2B303F"/>
<path d="M173.288 442.267C174.622 441.988 177.069 440.342 180.378 439.541C181.644 439.228 183.838 437.853 184.058 436.165C184.353 438.064 181.787 439.752 180.378 440.089C177.069 440.891 174.622 442.545 173.288 442.824C172.301 443.035 171.018 443.17 170.233 442.393C170.027 442.167 169.877 441.895 169.794 441.6C170.284 441.975 170.855 442.231 171.462 442.347C172.069 442.463 172.694 442.435 173.288 442.267Z" fill="#9C73FF"/>
<path d="M151.901 428.636C156.965 430.881 161.827 431.236 165.768 429.117L169.836 426.771C170.081 432.021 170.309 437.068 170.309 437.068C170.309 437.068 173.432 439.431 175.862 437.321C175.862 437.321 176.369 429.953 176.884 422.703L181.154 420.238C181.052 420.624 180.995 421.021 180.986 421.42C180.986 422.804 181.973 443.28 181.973 443.28C181.973 443.28 185.121 445.153 187.552 443.043C187.552 443.043 189.189 419.31 189.561 415.52C189.983 411.258 185.248 409.157 182.26 410.254C181.559 410.499 179.846 411.14 177.677 411.942C177.77 410.752 177.846 409.832 177.896 409.309C178.327 405.038 173.592 402.936 170.596 404.034C167.861 405.029 149.428 411.984 149.428 411.984C149.543 413.753 149.76 415.515 150.078 417.259L142.803 416.651C142.364 423.462 146.804 426.391 151.901 428.636ZM164.62 416.82L169.49 414.01C169.404 414.353 169.351 414.703 169.33 415.056L164.62 416.82Z" fill="#4D69D3"/>
<path d="M138.811 395.838C138.811 395.838 139.41 404.894 140.6 406.203C141.79 407.511 145.808 408.397 145.808 408.397L148.897 413.461C148.897 413.461 146.053 397.298 145.462 396.91C144.871 396.522 138.811 395.838 138.811 395.838Z" fill="#B0774C"/>
<path d="M144.761 385.82C144.009 385.47 143.155 385.409 142.361 385.649C141.567 385.889 140.889 386.412 140.457 387.12C139.317 389.01 138.136 395.475 138.026 396.581C138.026 396.581 139.621 398.792 142.018 398.421L144.761 385.82Z" fill="#EDEDED"/>
<path d="M145.85 385.896C147.419 385.972 148.584 386.377 148.778 385.896C148.946 385.091 149.065 384.276 149.133 383.457C148.956 383.001 148.795 382.512 148.795 382.512C146.837 381.305 146.213 379.136 145.951 376.705C145.512 372.485 147.799 368.771 152.028 368.332C156.003 367.919 158.923 370.712 159.708 374.544C160.122 376.443 160.966 380.022 159.835 383.136C159.202 384.875 158.383 386.259 157.573 386.512C156.784 386.489 155.998 386.419 155.218 386.301C155.218 386.301 155.007 387.474 154.864 388.225C154.72 388.977 154.779 389.382 156.273 390.302C157.767 391.222 154.003 393.129 151.547 392.943C149.091 392.758 146.314 391.255 145.546 389.677C144.702 387.938 144.778 385.82 145.85 385.896Z" fill="#B0774C"/>
<path d="M185.501 413.596C185.503 413.82 185.445 414.04 185.334 414.234C185.223 414.428 185.062 414.59 184.868 414.702L172.943 421.589C172.749 421.7 172.529 421.759 172.305 421.759C172.082 421.759 171.862 421.7 171.668 421.589L154.94 411.933C154.748 411.822 154.588 411.662 154.477 411.469C154.365 411.277 154.307 411.058 154.307 410.836V410.735L185.501 413.596Z" fill="#E5E5E5"/>
<path d="M184.877 414.702L172.951 421.589C172.756 421.701 172.535 421.76 172.31 421.757V413.596H185.51C185.511 413.82 185.454 414.04 185.342 414.234C185.231 414.428 185.071 414.59 184.877 414.702Z" fill="#E5E5E5"/>
<path d="M172.748 420.964C172.612 421.043 172.458 421.084 172.301 421.084C172.144 421.084 171.99 421.043 171.854 420.964L154.493 410.929C154.265 410.802 154.265 410.591 154.493 410.465L167.288 403.071L185.518 413.596L172.748 420.964Z" fill="#F4F4F4"/>
<path d="M161.616 413.596L161.701 413.647L167.271 416.862L170.326 415.098L170.419 415.048L164.756 411.781L161.616 413.596Z" fill="#BFBFBF"/>
<path d="M161.701 413.647L167.271 416.862L170.326 415.098L164.756 411.883L161.701 413.647Z" fill="#E5E5E5"/>
<path d="M180.775 414.119L181.619 414.583C181.658 414.602 181.701 414.612 181.745 414.612C181.789 414.612 181.832 414.602 181.872 414.583L182.64 414.136C182.716 414.094 182.724 414.026 182.64 413.993L181.796 413.528C181.757 413.508 181.713 413.497 181.669 413.497C181.625 413.497 181.582 413.508 181.543 413.528L180.775 413.967C180.724 414.018 180.716 414.077 180.775 414.119Z" fill="#3A2C6D"/>
<path d="M179.644 413.461L180.488 413.925C180.527 413.946 180.571 413.957 180.615 413.957C180.659 413.957 180.702 413.946 180.741 413.925L181.509 413.478C181.585 413.436 181.594 413.368 181.509 413.334L180.665 412.87C180.626 412.849 180.583 412.839 180.539 412.839C180.495 412.839 180.451 412.849 180.412 412.87L179.644 413.317C179.585 413.36 179.577 413.427 179.644 413.461Z" fill="#3A2C6D"/>
<path d="M178.505 412.828L179.349 413.292C179.388 413.313 179.431 413.324 179.475 413.324C179.519 413.324 179.563 413.313 179.602 413.292L180.37 412.853C180.446 412.802 180.454 412.743 180.37 412.701L179.568 412.237C179.528 412.218 179.485 412.208 179.441 412.208C179.398 412.208 179.354 412.218 179.315 412.237L178.547 412.684C178.445 412.701 178.437 412.769 178.505 412.828Z" fill="#3A2C6D"/>
<path d="M177.366 412.153L178.21 412.617C178.251 412.635 178.295 412.645 178.34 412.645C178.385 412.645 178.43 412.635 178.471 412.617L179.239 412.178C179.315 412.178 179.324 412.068 179.239 412.026L178.395 411.562C178.355 411.541 178.31 411.53 178.264 411.53C178.219 411.53 178.174 411.541 178.134 411.562L177.366 412.001C177.281 412.043 177.281 412.11 177.366 412.153Z" fill="#3A2C6D"/>
<path d="M176.226 411.494L177.07 411.959C177.109 411.979 177.152 411.99 177.196 411.99C177.241 411.99 177.284 411.979 177.323 411.959L178.091 411.52C178.167 411.478 178.175 411.41 178.091 411.376L177.247 410.912C177.207 410.891 177.162 410.88 177.116 410.88C177.071 410.88 177.026 410.891 176.985 410.912L176.226 411.351C176.175 411.385 176.167 411.452 176.226 411.494Z" fill="#3A2C6D"/>
<path d="M175.095 410.836L175.939 411.3C175.978 411.319 176.022 411.329 176.065 411.329C176.109 411.329 176.153 411.319 176.192 411.3L176.96 410.853C177.036 410.853 177.045 410.743 176.96 410.709L176.116 410.245C176.077 410.225 176.034 410.214 175.99 410.214C175.945 410.214 175.902 410.225 175.863 410.245L175.095 410.684C175.036 410.735 175.027 410.794 175.095 410.836Z" fill="#3A2C6D"/>
<path d="M173.955 410.178L174.799 410.642C174.838 410.663 174.882 410.673 174.926 410.673C174.97 410.673 175.013 410.663 175.052 410.642L175.821 410.195C175.896 410.152 175.905 410.085 175.821 410.051L175.019 409.587C174.98 409.566 174.936 409.555 174.892 409.555C174.848 409.555 174.805 409.566 174.766 409.587L173.997 410.034C173.905 410.076 173.905 410.144 173.955 410.178Z" fill="#3A2C6D"/>
<path d="M172.816 409.519L173.66 409.984C173.701 410.004 173.745 410.015 173.791 410.015C173.836 410.015 173.881 410.004 173.922 409.984L174.69 409.545C174.766 409.494 174.766 409.435 174.69 409.393L173.846 408.929C173.805 408.91 173.76 408.9 173.715 408.9C173.67 408.9 173.625 408.91 173.584 408.929L172.816 409.376C172.757 409.452 172.749 409.452 172.816 409.519Z" fill="#3A2C6D"/>
<path d="M171.677 408.87L172.521 409.334C172.561 409.352 172.604 409.361 172.648 409.361C172.691 409.361 172.734 409.352 172.774 409.334L173.542 408.895C173.618 408.853 173.627 408.785 173.542 408.743L172.698 408.279C172.658 408.258 172.613 408.247 172.567 408.247C172.522 408.247 172.477 408.258 172.437 408.279L171.677 408.718C171.626 408.76 171.618 408.827 171.677 408.87Z" fill="#3A2C6D"/>
<path d="M170.529 408.211L171.373 408.675C171.412 408.696 171.455 408.707 171.499 408.707C171.544 408.707 171.587 408.696 171.626 408.675L172.394 408.237C172.47 408.194 172.478 408.127 172.394 408.093L171.55 407.629C171.511 407.608 171.468 407.597 171.423 407.597C171.379 407.597 171.336 407.608 171.297 407.629L170.529 408.068C170.529 408.102 170.478 408.169 170.529 408.211Z" fill="#3A2C6D"/>
<path d="M169.406 407.553L170.25 408.017C170.29 408.036 170.333 408.046 170.377 408.046C170.421 408.046 170.464 408.036 170.504 408.017L171.272 407.57C171.348 407.528 171.356 407.46 171.272 407.426L170.47 406.962C170.431 406.941 170.387 406.931 170.343 406.931C170.299 406.931 170.256 406.941 170.217 406.962L169.449 407.401C169.347 407.452 169.339 407.511 169.406 407.553Z" fill="#3A2C6D"/>
<path d="M168.267 406.92L169.111 407.384C169.152 407.405 169.197 407.416 169.242 407.416C169.288 407.416 169.332 407.405 169.373 407.384L170.141 406.937C170.217 406.895 170.217 406.827 170.141 406.793L169.297 406.329C169.256 406.308 169.212 406.298 169.166 406.298C169.121 406.298 169.076 406.308 169.035 406.329L168.267 406.776C168.208 406.793 168.2 406.861 168.267 406.92Z" fill="#3A2C6D"/>
<path d="M167.153 406.236L167.997 406.701C168.036 406.721 168.079 406.732 168.124 406.732C168.168 406.732 168.211 406.721 168.25 406.701L169.018 406.262C169.094 406.211 169.103 406.152 169.018 406.11L168.174 405.646C168.133 405.627 168.089 405.617 168.043 405.617C167.998 405.617 167.954 405.627 167.913 405.646L167.153 406.093C167.077 406.135 167.069 406.203 167.153 406.236Z" fill="#3A2C6D"/>
<path d="M165.465 405.232L166.815 406.017C166.855 406.036 166.898 406.045 166.942 406.045C166.986 406.045 167.029 406.036 167.069 406.017L167.837 405.578C167.913 405.536 167.921 405.468 167.837 405.426L166.486 404.65C166.447 404.629 166.404 404.618 166.36 404.618C166.315 404.618 166.272 404.629 166.233 404.65L165.465 405.097C165.389 405.164 165.381 405.232 165.465 405.232Z" fill="#3A2C6D"/>
<path d="M177.99 413.782L178.834 414.246C178.873 414.265 178.917 414.274 178.961 414.274C179.004 414.274 179.048 414.265 179.087 414.246L179.855 413.798C179.931 413.756 179.94 413.689 179.855 413.655L179.011 413.191C178.972 413.17 178.929 413.159 178.885 413.159C178.84 413.159 178.797 413.17 178.758 413.191L177.99 413.63C177.931 413.672 177.922 413.739 177.99 413.782Z" fill="#3A2C6D"/>
<path d="M176.85 413.123L177.694 413.587C177.735 413.606 177.78 413.616 177.825 413.616C177.87 413.616 177.915 413.606 177.956 413.587L178.716 413.14C178.791 413.098 178.8 413.03 178.716 412.997L177.872 412.532C177.833 412.512 177.789 412.501 177.745 412.501C177.701 412.501 177.657 412.512 177.618 412.532L176.85 412.98C176.791 413.022 176.783 413.09 176.85 413.123Z" fill="#3A2C6D"/>
<path d="M175.711 412.465L176.555 412.929C176.596 412.95 176.64 412.961 176.686 412.961C176.731 412.961 176.776 412.95 176.817 412.929L177.576 412.482C177.652 412.44 177.661 412.372 177.576 412.338L176.732 411.874C176.693 411.853 176.65 411.843 176.606 411.843C176.562 411.843 176.518 411.853 176.479 411.874L175.711 412.321C175.652 412.364 175.644 412.431 175.711 412.465Z" fill="#3A2C6D"/>
<path d="M174.572 411.807L175.373 412.271C175.414 412.292 175.459 412.302 175.504 412.302C175.55 412.302 175.595 412.292 175.635 412.271L176.395 411.824C176.471 411.781 176.479 411.714 176.395 411.68L175.551 411.216C175.512 411.195 175.468 411.184 175.424 411.184C175.38 411.184 175.337 411.195 175.298 411.216L174.529 411.663C174.513 411.705 174.504 411.773 174.572 411.807Z" fill="#3A2C6D"/>
<path d="M173.441 411.14L174.285 411.604C174.326 411.623 174.37 411.633 174.415 411.633C174.461 411.633 174.505 411.623 174.546 411.604L175.306 411.157C175.382 411.157 175.39 411.047 175.306 411.013L174.462 410.549C174.423 410.528 174.379 410.518 174.335 410.518C174.291 410.518 174.248 410.528 174.209 410.549L173.441 410.988C173.382 411.055 173.373 411.14 173.441 411.14Z" fill="#3A2C6D"/>
<path d="M172.301 410.498L173.145 410.963C173.186 410.982 173.231 410.991 173.276 410.991C173.321 410.991 173.366 410.982 173.407 410.963L174.166 410.515C174.242 410.473 174.251 410.406 174.166 410.372L173.322 409.908C173.283 409.887 173.24 409.876 173.196 409.876C173.152 409.876 173.108 409.887 173.069 409.908L172.301 410.346C172.217 410.397 172.217 410.456 172.301 410.498Z" fill="#3A2C6D"/>
<path d="M171.162 409.84L172.006 410.304C172.047 410.323 172.091 410.333 172.137 410.333C172.182 410.333 172.226 410.323 172.267 410.304L173.027 409.857C173.103 409.815 173.111 409.747 173.027 409.714L172.183 409.249C172.144 409.229 172.101 409.218 172.056 409.218C172.012 409.218 171.969 409.229 171.93 409.249L171.162 409.688C171.103 409.739 171.094 409.798 171.162 409.84Z" fill="#3A2C6D"/>
<path d="M170.023 409.182L170.824 409.646C170.865 409.665 170.91 409.675 170.955 409.675C171 409.675 171.045 409.665 171.086 409.646L171.854 409.199C171.922 409.157 171.93 409.089 171.854 409.055L171.01 408.591C170.971 408.57 170.928 408.56 170.883 408.56C170.839 408.56 170.796 408.57 170.757 408.591L169.989 409.038C169.963 409.081 169.955 409.148 170.023 409.182Z" fill="#3A2C6D"/>
<path d="M168.883 408.524L169.727 408.988C169.768 409.009 169.813 409.019 169.858 409.019C169.903 409.019 169.948 409.009 169.989 408.988L170.757 408.54C170.824 408.498 170.833 408.431 170.757 408.397L169.955 407.933C169.915 407.912 169.87 407.901 169.824 407.901C169.779 407.901 169.734 407.912 169.693 407.933L168.925 408.38C168.841 408.422 168.841 408.49 168.883 408.524Z" fill="#3A2C6D"/>
<path d="M167.744 407.865L168.588 408.329C168.628 408.35 168.673 408.361 168.719 408.361C168.764 408.361 168.809 408.35 168.849 408.329L169.617 407.882C169.693 407.84 169.693 407.772 169.617 407.739L168.773 407.274C168.732 407.255 168.688 407.246 168.643 407.246C168.598 407.246 168.553 407.255 168.512 407.274L167.744 407.722C167.685 407.764 167.676 407.831 167.744 407.865Z" fill="#3A2C6D"/>
<path d="M166.604 407.207L167.448 407.671C167.489 407.692 167.533 407.703 167.579 407.703C167.624 407.703 167.669 407.692 167.71 407.671L168.478 407.232C168.554 407.182 168.554 407.114 168.478 407.08L167.634 406.616C167.593 406.597 167.548 406.587 167.503 406.587C167.458 406.587 167.413 406.597 167.372 406.616L166.604 407.063C166.545 407.106 166.537 407.173 166.604 407.207Z" fill="#3A2C6D"/>
<path d="M165.465 406.549L166.309 407.013C166.349 407.034 166.394 407.044 166.439 407.044C166.485 407.044 166.53 407.034 166.57 407.013L167.338 406.574C167.414 406.523 167.423 406.464 167.338 406.422L166.494 405.958C166.453 405.939 166.409 405.929 166.363 405.929C166.318 405.929 166.274 405.939 166.233 405.958L165.465 406.405C165.405 406.447 165.397 406.515 165.465 406.549Z" fill="#3A2C6D"/>
<path d="M179.129 414.44L180.479 415.216C180.518 415.237 180.562 415.248 180.606 415.248C180.65 415.248 180.694 415.237 180.733 415.216L181.501 414.778C181.577 414.727 181.585 414.668 181.501 414.626L180.15 413.849C180.111 413.828 180.068 413.818 180.024 413.818C179.98 413.818 179.936 413.828 179.897 413.849L179.129 414.288C179.07 414.339 179.062 414.398 179.129 414.44Z" fill="#3A2C6D"/>
<path d="M165.372 405.299L166.216 405.764C166.234 405.764 166.251 405.771 166.264 405.783C166.277 405.796 166.284 405.813 166.284 405.831C166.284 405.849 166.277 405.866 166.264 405.879C166.251 405.891 166.234 405.899 166.216 405.899L165.372 406.371C165.335 406.388 165.295 406.397 165.254 406.397C165.213 406.397 165.173 406.388 165.136 406.371L165.068 406.329C165.034 406.313 164.997 406.304 164.959 406.304C164.921 406.304 164.883 406.313 164.849 406.329L164.005 406.827C163.968 406.844 163.928 406.852 163.887 406.852C163.846 406.852 163.806 406.844 163.769 406.827L163.254 406.532C163.186 406.489 163.186 406.43 163.254 406.397L164.098 405.932L164.267 405.84L164.385 405.764L164.503 405.696L165.195 405.299C165.252 405.276 165.315 405.276 165.372 405.299Z" fill="#3A2C6D"/>
<path d="M176.369 416.66L177.213 417.124C177.252 417.145 177.296 417.155 177.34 417.155C177.384 417.155 177.428 417.145 177.467 417.124L178.235 416.685C178.311 416.634 178.319 416.575 178.235 416.533L177.433 416.069C177.393 416.05 177.35 416.04 177.306 416.04C177.262 416.04 177.219 416.05 177.18 416.069L176.412 416.516C176.31 416.558 176.302 416.626 176.369 416.66Z" fill="#3A2C6D"/>
<path d="M175.23 416.01L176.074 416.474C176.115 416.495 176.159 416.506 176.205 416.506C176.25 416.506 176.295 416.495 176.336 416.474L177.095 416.035C177.171 416.035 177.18 415.925 177.095 415.883L176.251 415.427C176.212 415.407 176.169 415.396 176.125 415.396C176.081 415.396 176.037 415.407 175.998 415.427L175.23 415.866C175.171 415.9 175.163 415.968 175.23 416.01Z" fill="#3A2C6D"/>
<path d="M174.099 415.36L174.943 415.824C174.982 415.845 175.025 415.856 175.069 415.856C175.114 415.856 175.157 415.845 175.196 415.824L175.964 415.377C176.04 415.335 176.048 415.267 175.964 415.233L175.12 414.769C175.081 414.748 175.038 414.738 174.993 414.738C174.949 414.738 174.906 414.748 174.867 414.769L174.099 415.216C174.04 415.25 174.031 415.36 174.099 415.36Z" fill="#3A2C6D"/>
<path d="M164.435 409.773L165.279 410.237C165.318 410.258 165.362 410.268 165.406 410.268C165.45 410.268 165.493 410.258 165.532 410.237L166.3 409.798C166.376 409.798 166.385 409.688 166.3 409.646L165.456 409.182C165.416 409.161 165.371 409.15 165.326 409.15C165.28 409.15 165.235 409.161 165.195 409.182L164.435 409.621C164.385 409.671 164.376 409.739 164.435 409.773Z" fill="#3A2C6D"/>
<path d="M163.304 409.123L164.148 409.587C164.189 409.606 164.234 409.616 164.279 409.616C164.324 409.616 164.368 409.606 164.41 409.587L165.169 409.14C165.245 409.097 165.254 409.03 165.169 408.996L164.325 408.532C164.286 408.511 164.243 408.5 164.199 408.5C164.154 408.5 164.111 408.511 164.072 408.532L163.304 408.971C163.245 409.021 163.236 409.08 163.304 409.123Z" fill="#3A2C6D"/>
<path d="M162.173 408.464L163.017 408.929C163.056 408.949 163.1 408.96 163.144 408.96C163.188 408.96 163.231 408.949 163.27 408.929L164.038 408.49C164.114 408.439 164.123 408.38 164.038 408.338L163.194 407.874C163.155 407.855 163.112 407.845 163.068 407.845C163.024 407.845 162.981 407.855 162.941 407.874L162.173 408.321C162.089 408.363 162.089 408.431 162.173 408.464Z" fill="#3A2C6D"/>
<path d="M161.034 407.814L161.878 408.279C161.917 408.299 161.96 408.31 162.004 408.31C162.049 408.31 162.092 408.299 162.131 408.279L162.899 407.84C162.975 407.798 162.984 407.73 162.899 407.688L162.055 407.232C162.015 407.211 161.97 407.201 161.924 407.201C161.879 407.201 161.834 407.211 161.793 407.232L161.034 407.671C160.983 407.705 160.975 407.764 161.034 407.814Z" fill="#3A2C6D"/>
<path d="M172.673 414.516L173.77 415.14C173.809 415.161 173.852 415.172 173.896 415.172C173.94 415.172 173.984 415.161 174.023 415.14L174.791 414.702C174.867 414.659 174.875 414.592 174.791 414.55L173.694 413.917C173.655 413.896 173.611 413.885 173.567 413.885C173.523 413.885 173.48 413.896 173.441 413.917L172.673 414.356C172.613 414.423 172.605 414.516 172.673 414.516Z" fill="#3A2C6D"/>
<path d="M165.574 410.431L166.672 411.064C166.711 411.083 166.754 411.092 166.798 411.092C166.842 411.092 166.885 411.083 166.925 411.064L167.693 410.617C167.769 410.574 167.777 410.507 167.693 410.473L166.596 409.84C166.557 409.819 166.513 409.809 166.469 409.809C166.425 409.809 166.381 409.819 166.342 409.84L165.574 410.287C165.515 410.296 165.507 410.397 165.574 410.431Z" fill="#3A2C6D"/>
<path d="M167.001 411.258L172.344 414.339C172.383 414.357 172.426 414.367 172.47 414.367C172.514 414.367 172.557 414.357 172.597 414.339L173.365 413.891C173.441 413.849 173.449 413.782 173.365 413.748L168.022 410.659C167.983 410.638 167.94 410.627 167.896 410.627C167.852 410.627 167.808 410.638 167.769 410.659L167.001 411.098C166.942 411.14 166.934 411.216 167.001 411.258Z" fill="#3A2C6D"/>
<path d="M176.58 414.237L177.424 414.702C177.463 414.722 177.507 414.733 177.551 414.733C177.595 414.733 177.638 414.722 177.677 414.702L178.445 414.254C178.521 414.212 178.53 414.145 178.445 414.111L177.644 413.647C177.604 413.628 177.561 413.618 177.517 413.618C177.473 413.618 177.43 413.628 177.39 413.647L176.622 414.094C176.521 414.136 176.513 414.204 176.58 414.237Z" fill="#3A2C6D"/>
<path d="M175.441 413.579L176.285 414.043C176.326 414.064 176.37 414.075 176.416 414.075C176.461 414.075 176.506 414.064 176.547 414.043L177.306 413.604C177.382 413.562 177.391 413.495 177.306 413.452L176.462 412.988C176.423 412.968 176.38 412.957 176.336 412.957C176.292 412.957 176.248 412.968 176.209 412.988L175.441 413.427C175.382 413.478 175.374 413.545 175.441 413.579Z" fill="#3A2C6D"/>
<path d="M174.31 412.929L175.154 413.393C175.193 413.414 175.236 413.425 175.28 413.425C175.324 413.425 175.368 413.414 175.407 413.393L176.175 412.954C176.251 412.912 176.259 412.845 176.175 412.811L175.331 412.347C175.292 412.326 175.249 412.315 175.204 412.315C175.16 412.315 175.117 412.326 175.078 412.347L174.31 412.786C174.251 412.828 174.242 412.887 174.31 412.929Z" fill="#3A2C6D"/>
<path d="M173.171 412.271L174.015 412.735C174.054 412.756 174.097 412.767 174.141 412.767C174.185 412.767 174.229 412.756 174.268 412.735L175.036 412.288C175.112 412.246 175.12 412.178 175.036 412.144L174.192 411.68C174.153 411.659 174.109 411.649 174.065 411.649C174.021 411.649 173.978 411.659 173.939 411.68L173.171 412.127C173.111 412.17 173.103 412.237 173.171 412.271Z" fill="#3A2C6D"/>
<path d="M172.031 411.613L172.875 412.077C172.914 412.097 172.958 412.108 173.002 412.108C173.046 412.108 173.09 412.097 173.129 412.077L173.897 411.638C173.973 411.587 173.981 411.528 173.897 411.486L173.053 411.022C173.012 411.003 172.967 410.993 172.922 410.993C172.877 410.993 172.832 411.003 172.791 411.022L172.023 411.469C171.981 411.511 171.972 411.579 172.031 411.613Z" fill="#3A2C6D"/>
<path d="M170.9 410.963L171.744 411.427C171.783 411.448 171.827 411.458 171.871 411.458C171.915 411.458 171.958 411.448 171.997 411.427L172.765 410.988C172.841 410.946 172.85 410.878 172.765 410.836L171.921 410.372C171.882 410.353 171.838 410.343 171.795 410.343C171.751 410.343 171.708 410.353 171.668 410.372L170.9 410.811C170.841 410.853 170.833 410.921 170.9 410.963Z" fill="#3A2C6D"/>
<path d="M169.761 410.296L170.605 410.76C170.646 410.779 170.691 410.789 170.736 410.789C170.781 410.789 170.826 410.779 170.867 410.76L171.626 410.313C171.702 410.313 171.711 410.203 171.626 410.169L170.782 409.705C170.743 409.684 170.7 409.674 170.656 409.674C170.612 409.674 170.568 409.684 170.529 409.705L169.761 410.144C169.685 410.203 169.685 410.296 169.761 410.296Z" fill="#3A2C6D"/>
<path d="M168.63 409.646L169.474 410.11C169.513 410.131 169.556 410.142 169.6 410.142C169.644 410.142 169.688 410.131 169.727 410.11L170.495 409.663C170.571 409.621 170.579 409.553 170.495 409.519L169.651 409.055C169.611 409.036 169.568 409.027 169.524 409.027C169.48 409.027 169.437 409.036 169.398 409.055L168.63 409.502C168.57 409.545 168.562 409.612 168.63 409.646Z" fill="#3A2C6D"/>
<path d="M167.49 408.988L168.292 409.452C168.331 409.473 168.374 409.483 168.419 409.483C168.463 409.483 168.506 409.473 168.545 409.452L169.313 409.013C169.389 408.971 169.398 408.903 169.313 408.861L168.469 408.397C168.43 408.376 168.387 408.365 168.343 408.365C168.298 408.365 168.255 408.376 168.216 408.397L167.448 408.836C167.431 408.886 167.423 408.954 167.49 408.988Z" fill="#3A2C6D"/>
<path d="M166.351 408.338L167.195 408.802C167.235 408.823 167.28 408.834 167.326 408.834C167.371 408.834 167.416 408.823 167.457 408.802L168.225 408.363C168.301 408.321 168.309 408.253 168.225 408.22L167.423 407.755C167.382 407.735 167.338 407.724 167.292 407.724C167.247 407.724 167.202 407.735 167.161 407.755L166.393 408.194C166.309 408.228 166.309 408.296 166.351 408.338Z" fill="#3A2C6D"/>
<path d="M165.22 407.679L166.064 408.144C166.103 408.164 166.146 408.175 166.19 408.175C166.235 408.175 166.278 408.164 166.317 408.144L167.085 407.696C167.161 407.654 167.17 407.587 167.085 407.553L166.241 407.089C166.202 407.068 166.159 407.057 166.115 407.057C166.07 407.057 166.027 407.068 165.988 407.089L165.22 407.536C165.161 407.578 165.152 407.646 165.22 407.679Z" fill="#3A2C6D"/>
<path d="M164.081 407.021L164.925 407.485C164.965 407.506 165.01 407.517 165.056 407.517C165.101 407.517 165.146 407.506 165.186 407.485L165.946 407.047C166.022 406.996 166.03 406.937 165.946 406.895L165.102 406.43C165.062 406.412 165.019 406.402 164.975 406.402C164.932 406.402 164.888 406.412 164.849 406.43L164.081 406.878C164.022 406.92 164.013 406.988 164.081 407.021Z" fill="#3A2C6D"/>
<path d="M177.711 414.896L179.399 415.858C179.439 415.877 179.482 415.886 179.526 415.886C179.57 415.886 179.613 415.877 179.652 415.858L180.42 415.419C180.496 415.377 180.505 415.309 180.42 415.267L178.732 414.313C178.692 414.293 178.647 414.282 178.602 414.282C178.556 414.282 178.511 414.293 178.471 414.313L177.711 414.752C177.66 414.794 177.652 414.853 177.711 414.896Z" fill="#3A2C6D"/>
<path d="M176.04 415.199L176.884 415.664C176.923 415.684 176.967 415.695 177.011 415.695C177.055 415.695 177.098 415.684 177.137 415.664L177.905 415.216C177.981 415.174 177.99 415.107 177.905 415.073L177.104 414.609C177.064 414.59 177.021 414.58 176.977 414.58C176.933 414.58 176.89 414.59 176.85 414.609L176.082 415.056C175.981 415.098 175.973 415.166 176.04 415.199Z" fill="#3A2C6D"/>
<path d="M174.901 414.516L175.745 414.98C175.784 415.001 175.827 415.012 175.871 415.012C175.915 415.012 175.959 415.001 175.998 414.98L176.766 414.541C176.842 414.499 176.85 414.432 176.766 414.389L175.922 413.925C175.881 413.904 175.836 413.894 175.791 413.894C175.746 413.894 175.701 413.904 175.66 413.925L174.901 414.364C174.85 414.44 174.842 414.516 174.901 414.516Z" fill="#3A2C6D"/>
<path d="M173.77 413.891L174.614 414.356C174.653 414.376 174.697 414.387 174.741 414.387C174.785 414.387 174.828 414.376 174.867 414.356L175.635 413.917C175.711 413.917 175.72 413.807 175.635 413.773L174.791 413.309C174.752 413.288 174.709 413.277 174.665 413.277C174.621 413.277 174.577 413.288 174.538 413.309L173.77 413.748C173.711 413.782 173.703 413.849 173.77 413.891Z" fill="#3A2C6D"/>
<path d="M172.631 413.233L173.475 413.697C173.515 413.718 173.56 413.729 173.605 413.729C173.651 413.729 173.696 413.718 173.736 413.697L174.504 413.25C174.572 413.208 174.58 413.14 174.504 413.106L173.66 412.642C173.62 412.622 173.575 412.611 173.529 412.611C173.484 412.611 173.439 412.622 173.399 412.642L172.631 413.09C172.571 413.132 172.563 413.199 172.631 413.233Z" fill="#3A2C6D"/>
<path d="M171.499 412.575L172.301 413.039C172.34 413.06 172.384 413.07 172.428 413.07C172.472 413.07 172.515 413.06 172.554 413.039L173.322 412.6C173.398 412.549 173.407 412.49 173.322 412.448L172.478 411.984C172.439 411.965 172.396 411.955 172.352 411.955C172.308 411.955 172.265 411.965 172.225 411.984L171.457 412.431C171.44 412.473 171.432 412.541 171.499 412.575Z" fill="#3A2C6D"/>
<path d="M170.36 411.925L171.204 412.389C171.245 412.41 171.289 412.421 171.335 412.421C171.38 412.421 171.425 412.41 171.466 412.389L172.225 411.95C172.301 411.908 172.31 411.84 172.225 411.798L171.381 411.334C171.342 411.316 171.298 411.306 171.255 411.306C171.211 411.306 171.168 411.316 171.128 411.334L170.36 411.773C170.301 411.815 170.293 411.883 170.36 411.925Z" fill="#3A2C6D"/>
<path d="M169.22 411.267L170.064 411.731C170.104 411.749 170.147 411.759 170.191 411.759C170.235 411.759 170.278 411.749 170.318 411.731L171.086 411.283C171.162 411.241 171.17 411.174 171.086 411.14L170.242 410.676C170.201 410.655 170.156 410.644 170.111 410.644C170.065 410.644 170.02 410.655 169.98 410.676L169.22 411.115C169.17 411.14 169.161 411.224 169.22 411.267Z" fill="#3A2C6D"/>
<path d="M168.09 410.608L168.934 411.072C168.973 411.093 169.016 411.104 169.06 411.104C169.104 411.104 169.148 411.093 169.187 411.072L169.955 410.634C170.031 410.583 170.039 410.524 169.955 410.482L169.111 410.017C169.071 409.999 169.028 409.989 168.984 409.989C168.94 409.989 168.897 409.999 168.858 410.017L168.09 410.465C167.997 410.507 167.997 410.574 168.09 410.608Z" fill="#3A2C6D"/>
<path d="M166.95 409.958L167.752 410.422C167.793 410.441 167.838 410.45 167.883 410.45C167.928 410.45 167.972 410.441 168.013 410.422L168.782 409.984C168.857 409.941 168.866 409.874 168.782 409.832L167.938 409.367C167.897 409.347 167.852 409.336 167.807 409.336C167.761 409.336 167.716 409.347 167.676 409.367L166.908 409.806C166.899 409.849 166.891 409.916 166.95 409.958Z" fill="#3A2C6D"/>
<path d="M165.82 409.3L166.664 409.764C166.703 409.783 166.746 409.793 166.79 409.793C166.834 409.793 166.877 409.783 166.917 409.764L167.685 409.317C167.761 409.275 167.769 409.207 167.685 409.173L166.883 408.709C166.844 408.689 166.8 408.678 166.756 408.678C166.712 408.678 166.669 408.689 166.63 408.709L165.862 409.148C165.76 409.199 165.752 409.258 165.82 409.3Z" fill="#3A2C6D"/>
<path d="M164.68 408.608L165.524 409.072C165.564 409.093 165.609 409.104 165.654 409.104C165.7 409.104 165.745 409.093 165.785 409.072L166.545 408.625C166.621 408.582 166.629 408.515 166.545 408.481L165.701 408.017C165.661 407.998 165.618 407.989 165.574 407.989C165.53 407.989 165.487 407.998 165.448 408.017L164.68 408.464C164.62 408.54 164.62 408.608 164.68 408.608Z" fill="#3A2C6D"/>
<path d="M162.14 407.173L164.351 408.448C164.39 408.468 164.433 408.479 164.477 408.479C164.522 408.479 164.565 408.468 164.604 408.448L165.372 408.009C165.448 408.009 165.456 407.899 165.372 407.857L163.161 406.582C163.121 406.564 163.078 406.554 163.034 406.554C162.99 406.554 162.947 406.564 162.908 406.582L162.14 407.03C162.089 407.072 162.089 407.139 162.14 407.173Z" fill="#3A2C6D"/>
<path d="M177.179 415.858L178.268 416.491C178.309 416.51 178.354 416.52 178.399 416.52C178.444 416.52 178.489 416.51 178.53 416.491L179.289 416.043C179.365 416.001 179.374 415.934 179.289 415.9L178.192 415.267C178.153 415.246 178.11 415.235 178.066 415.235C178.021 415.235 177.978 415.246 177.939 415.267L177.171 415.706C177.12 415.757 177.112 415.816 177.179 415.858Z" fill="#3A2C6D"/>
<path d="M185.501 413.596L167.271 403.071V388.723L167.414 388.403L167.566 388.327C167.758 388.219 167.974 388.162 168.195 388.162C168.415 388.162 168.631 388.219 168.823 388.327L185.501 397.965C185.693 398.074 185.853 398.233 185.965 398.424C186.076 398.615 186.134 398.833 186.134 399.054V412.499C186.016 413.208 185.889 413.377 185.501 413.596Z" fill="#E5E5E5"/>
<path d="M183.83 399.704L167.271 389.196V388.715L167.414 388.394L167.566 388.318C167.758 388.21 167.974 388.154 168.195 388.154C168.415 388.154 168.631 388.21 168.823 388.318L185.501 397.957C185.705 398.07 185.872 398.24 185.982 398.446L183.83 399.704Z" fill="#E5E5E5"/>
<path d="M167.693 388.411L185.197 398.539C185.29 398.591 185.367 398.668 185.42 398.76C185.473 398.852 185.501 398.956 185.501 399.062V413.613L167.271 403.088V388.656C167.269 388.606 167.282 388.557 167.306 388.513C167.331 388.47 167.366 388.434 167.409 388.409C167.452 388.384 167.501 388.371 167.551 388.371C167.601 388.372 167.65 388.385 167.693 388.411Z" fill="#DCEEFF"/>
<path d="M167.693 388.411L185.197 398.539C185.29 398.591 185.367 398.668 185.42 398.76C185.473 398.852 185.501 398.956 185.501 399.062V413.613L167.271 403.088V388.656C167.269 388.606 167.282 388.557 167.306 388.513C167.331 388.47 167.366 388.434 167.409 388.409C167.452 388.384 167.501 388.371 167.551 388.371C167.601 388.372 167.65 388.385 167.693 388.411Z" fill="#F4F4F4"/>
<path d="M185.501 413.596V413.081L167.271 402.548V403.071L185.501 413.596Z" fill="#DBDBDB"/>
<path d="M167.743 402.312V389.162L167.971 389.289V402.194L167.743 402.312Z" fill="#1E3779"/>
<path d="M167.971 389.289V402.194L184.919 411.959V399.079L167.971 389.289Z" fill="#3A2C6D"/>
<path d="M167.743 402.312L184.919 412.22V411.959L167.971 402.194L167.743 402.312Z" fill="#031F60"/>
<path d="M148.112 386.132C147.681 387.213 148.787 388.529 151.724 389.458C154.661 390.386 154.931 389.196 154.931 389.196C156.888 390.07 158.796 391.05 160.645 392.133C162.409 393.374 163.177 396.936 163.422 402.962C163.7 409.933 163.726 420.281 163.489 422.061C163.489 422.061 160.198 425.353 155.978 425.007C151.758 424.661 144.66 420.922 142.938 418.044C142.938 411.925 143.697 410.929 142.71 407.41C140.44 399.349 139.25 396.049 140.347 390.69C141.258 386.276 142.533 385.727 144.271 385.769C145.557 385.822 146.839 385.943 148.112 386.132Z" fill="#F4F4F4"/>
<path d="M170.368 410.44C166.899 411.284 166.089 409.131 165.633 407.317C164.536 402.945 163.945 398.987 163.101 396.505C162.13 393.577 161.118 393.129 159.725 392.538C158.037 391.872 156.611 393.281 157.193 397.012C157.874 401.339 158.936 405.598 160.367 409.739C160.797 411.106 161.768 413.529 163.211 414.693C165 416.137 167.684 416.078 171.761 415.065C173.449 414.634 175.398 413.596 178.681 412.06C179.525 411.655 180.251 411.376 181.939 410.592C183.641 409.837 185.133 408.678 186.286 407.216C187.172 405.933 187.29 405.333 187.13 405.038C186.969 404.743 186.505 404.751 186.033 405.291C185.339 406.21 184.48 406.991 183.501 407.595C183.501 407.595 184.598 406.473 185.189 405.739C185.724 405.09 186.165 404.368 186.497 403.595C186.817 402.844 186.168 401.831 185.653 402.363C185.138 402.894 184.927 403.443 184.032 404.515C183.563 405.088 183.024 405.602 182.429 406.042C182.985 405.29 183.479 404.494 183.906 403.662C184.292 403.016 184.479 402.271 184.446 401.519C184.446 401.122 183.872 400.675 183.349 401.4C182.848 402.42 182.224 403.376 181.492 404.245C180.698 405.089 180.032 405.536 180.006 405.308C179.981 405.08 180.487 404.633 180.766 403.679C181.045 402.725 180.766 401.704 180.243 401.595C179.719 401.485 179.812 401.519 179.399 402.439C178.814 403.357 178.29 404.313 177.829 405.3C177.559 406.219 177.069 407.059 176.403 407.747C175.542 408.608 173.66 409.613 170.368 410.44Z" fill="#B0774C"/>
<path d="M158.434 391.939C160.747 391.602 162.376 392.64 163.397 396.159C164.418 399.679 165.135 402.54 165.135 402.54C164.211 403.844 162.827 404.749 161.261 405.072C158.493 405.739 157.497 404.422 157.497 404.422C157.497 404.422 156.729 400.742 156.257 398.244C155.784 395.746 155.573 392.361 158.434 391.939Z" fill="#EDEDED"/>
<path d="M159.556 374.004C159.556 374.004 163.211 368.451 155.336 367.32C149.623 366.476 145.96 370.172 145.529 374.148C145.124 377.954 147.47 381.904 149.158 383.474C150.822 383.889 152.58 383.675 154.096 382.875C154.19 381.839 154.227 380.799 154.205 379.76C154.205 379.76 151.395 373.903 159.556 374.004Z" fill="#2B303F"/>
<path d="M175.415 444.275V427.598L162.172 435.329L167.27 445.879L175.415 444.275Z" fill="#C4C7D6"/>
<path d="M166.738 428.56L171.819 425.606L175.415 427.691L170.148 430.679L166.738 428.56Z" fill="#D6D8E5"/>
<path opacity="0.4" d="M102.797 335.712L80.2199 322.469C77.6879 320.967 77.9748 318.342 80.9373 316.612L92.4157 309.86C95.3781 308.172 99.8513 307.944 102.417 309.446L125.028 322.689C127.56 324.183 127.264 326.808 124.31 328.546L112.832 335.298C109.836 337.028 105.354 337.214 102.797 335.712Z" fill="#D6D8E5"/>
<path d="M130.86 322.655V290.642L82.5659 285.131V317.346C82.5752 317.897 82.738 318.435 83.0363 318.899C83.3345 319.363 83.7562 319.734 84.2539 319.971L106.89 333.213C109.422 334.716 113.937 334.53 116.891 332.791L128.37 326.039C130.058 325.06 130.902 323.803 130.817 322.663L130.86 322.655Z" fill="#D6D8E5"/>
<path d="M130.809 294.136V290.642H127.095L106.485 278.556C103.953 277.054 99.4375 277.248 96.4835 278.978L85.0051 285.73C84.7979 285.848 84.5978 285.977 84.4058 286.118L82.5659 285.131C82.5659 285.131 82.5659 288.819 82.5659 288.946C82.5786 289.495 82.743 290.03 83.0409 290.492C83.3388 290.954 83.7586 291.324 84.2539 291.562L106.89 304.796C109.422 306.298 113.937 306.104 116.891 304.374L128.37 297.622C130.058 296.618 130.902 295.318 130.809 294.102V294.136Z" fill="#EDF0F9"/>
<path d="M106.89 300.998L84.2878 287.756C81.7558 286.253 82.0427 283.629 85.0052 281.898L96.4836 275.146C99.4376 273.458 103.919 273.222 106.485 274.724L129.096 287.967C131.628 289.469 131.332 292.094 128.37 293.824L116.891 300.576C113.98 302.306 109.456 302.5 106.89 300.998Z" fill="#E2E5F2"/>
<path d="M101.801 282.919V281.645H101.033L100.789 281.493C100.033 281.102 99.1955 280.898 98.3452 280.898C97.4949 280.898 96.657 281.102 95.9018 281.493C95.7575 281.575 95.6218 281.671 95.4967 281.78L94.8975 281.645V282.919C94.9176 283.228 95.0219 283.524 95.199 283.777C95.3761 284.03 95.6192 284.23 95.9018 284.354C96.6582 284.741 97.4957 284.943 98.3452 284.943C99.1947 284.943 100.032 284.741 100.789 284.354C101.069 284.225 101.31 284.024 101.487 283.773C101.665 283.521 101.773 283.226 101.801 282.919Z" fill="url(#paint57_linear_168_3663)"/>
<path d="M98.3494 283.671C100.256 283.671 101.801 282.764 101.801 281.645C101.801 280.526 100.256 279.62 98.3494 279.62C96.443 279.62 94.8975 280.526 94.8975 281.645C94.8975 282.764 96.443 283.671 98.3494 283.671Z" fill="url(#paint58_linear_168_3663)"/>
<path d="M110.14 287.722V286.448H109.372L109.135 286.296C108.38 285.905 107.542 285.701 106.692 285.701C105.842 285.701 105.004 285.905 104.249 286.296C104.1 286.375 103.962 286.472 103.835 286.583L103.236 286.448V287.722C103.264 288.029 103.372 288.323 103.55 288.575C103.728 288.827 103.969 289.028 104.249 289.157C105.005 289.543 105.842 289.745 106.692 289.745C107.542 289.745 108.379 289.543 109.135 289.157C109.418 289.032 109.661 288.833 109.838 288.58C110.015 288.327 110.12 288.03 110.14 287.722Z" fill="url(#paint59_linear_168_3663)"/>
<path d="M106.688 288.473C108.594 288.473 110.14 287.566 110.14 286.447C110.14 285.329 108.594 284.422 106.688 284.422C104.781 284.422 103.236 285.329 103.236 286.447C103.236 287.566 104.781 288.473 106.688 288.473Z" fill="url(#paint60_linear_168_3663)"/>
<path d="M118.495 292.853V291.579H117.719L117.483 291.427C116.727 291.036 115.889 290.832 115.039 290.832C114.189 290.832 113.351 291.036 112.596 291.427C112.449 291.51 112.311 291.606 112.182 291.714L111.583 291.579V292.853C111.609 293.161 111.717 293.456 111.895 293.708C112.073 293.96 112.315 294.16 112.596 294.288C113.351 294.679 114.189 294.883 115.039 294.883C115.889 294.883 116.727 294.679 117.483 294.288C117.764 294.16 118.005 293.96 118.183 293.708C118.361 293.456 118.469 293.161 118.495 292.853Z" fill="url(#paint61_linear_168_3663)"/>
<path d="M115.035 293.605C116.941 293.605 118.487 292.698 118.487 291.579C118.487 290.46 116.941 289.553 115.035 289.553C113.129 289.553 111.583 290.46 111.583 291.579C111.583 292.698 113.129 293.605 115.035 293.605Z" fill="url(#paint62_linear_168_3663)"/>
</g>
<defs>
<linearGradient id="paint0_linear_168_3663" x1="76.8985" y1="182.22" x2="165.89" y2="173.599" gradientUnits="userSpaceOnUse">
<stop stop-color="#4D69D3"/>
<stop offset="0.8125" stop-color="#55BDD5"/>
</linearGradient>
<linearGradient id="paint1_linear_168_3663" x1="79.2278" y1="171.936" x2="166.217" y2="168.543" gradientUnits="userSpaceOnUse">
<stop stop-color="#4D69D3"/>
<stop offset="0.8125" stop-color="#55BDD5"/>
</linearGradient>
<linearGradient id="paint2_linear_168_3663" x1="81.7053" y1="161.777" x2="166.393" y2="163.354" gradientUnits="userSpaceOnUse">
<stop stop-color="#4D69D3"/>
<stop offset="0.8125" stop-color="#55BDD5"/>
</linearGradient>
<linearGradient id="paint3_linear_168_3663" x1="84.3186" y1="151.755" x2="166.429" y2="158.025" gradientUnits="userSpaceOnUse">
<stop stop-color="#4D69D3"/>
<stop offset="0.8125" stop-color="#55BDD5"/>
</linearGradient>
<linearGradient id="paint4_linear_168_3663" x1="104.395" y1="133.32" x2="229.086" y2="150.105" gradientUnits="userSpaceOnUse">
<stop stop-color="#4D69D3"/>
<stop offset="0.8125" stop-color="#55BDD5"/>
</linearGradient>
<linearGradient id="paint5_linear_168_3663" x1="107.03" y1="122.803" x2="225.415" y2="145.743" gradientUnits="userSpaceOnUse">
<stop stop-color="#4D69D3"/>
<stop offset="0.8125" stop-color="#55BDD5"/>
</linearGradient>
<linearGradient id="paint6_linear_168_3663" x1="108.845" y1="114.07" x2="218.923" y2="142.06" gradientUnits="userSpaceOnUse">
<stop stop-color="#4D69D3"/>
<stop offset="0.8125" stop-color="#55BDD5"/>
</linearGradient>
<linearGradient id="paint7_linear_168_3663" x1="111.781" y1="103.609" x2="214.745" y2="136.206" gradientUnits="userSpaceOnUse">
<stop stop-color="#4D69D3"/>
<stop offset="0.8125" stop-color="#55BDD5"/>
</linearGradient>
<linearGradient id="paint8_linear_168_3663" x1="114.855" y1="95.0272" x2="211.944" y2="132.037" gradientUnits="userSpaceOnUse">
<stop stop-color="#4D69D3"/>
<stop offset="0.8125" stop-color="#55BDD5"/>
</linearGradient>
<linearGradient id="paint9_linear_168_3663" x1="118.144" y1="84.6628" x2="207.587" y2="124.798" gradientUnits="userSpaceOnUse">
<stop stop-color="#4D69D3"/>
<stop offset="0.8125" stop-color="#55BDD5"/>
</linearGradient>
<linearGradient id="paint10_linear_168_3663" x1="120.84" y1="76.655" x2="203.299" y2="119.52" gradientUnits="userSpaceOnUse">
<stop stop-color="#4D69D3"/>
<stop offset="0.8125" stop-color="#55BDD5"/>
</linearGradient>
<linearGradient id="paint11_linear_168_3663" x1="128.865" y1="378.741" x2="151.449" y2="292.232" gradientUnits="userSpaceOnUse">
<stop stop-color="#4D69D3"/>
<stop offset="0.8125" stop-color="#55BDD5"/>
</linearGradient>
<linearGradient id="paint12_linear_168_3663" x1="120.014" y1="373.009" x2="146.816" y2="290.181" gradientUnits="userSpaceOnUse">
<stop stop-color="#4D69D3"/>
<stop offset="0.8125" stop-color="#55BDD5"/>
</linearGradient>
<linearGradient id="paint13_linear_168_3663" x1="111.332" y1="367.182" x2="142.005" y2="288.228" gradientUnits="userSpaceOnUse">
<stop stop-color="#4D69D3"/>
<stop offset="0.8125" stop-color="#55BDD5"/>
</linearGradient>
<linearGradient id="paint14_linear_168_3663" x1="102.824" y1="361.275" x2="137.014" y2="286.358" gradientUnits="userSpaceOnUse">
<stop stop-color="#4D69D3"/>
<stop offset="0.8125" stop-color="#55BDD5"/>
</linearGradient>
<linearGradient id="paint15_linear_168_3663" x1="94.4931" y1="355.299" x2="131.841" y2="284.555" gradientUnits="userSpaceOnUse">
<stop stop-color="#4D69D3"/>
<stop offset="0.8125" stop-color="#55BDD5"/>
</linearGradient>
<linearGradient id="paint16_linear_168_3663" x1="86.3381" y1="349.269" x2="126.48" y2="282.807" gradientUnits="userSpaceOnUse">
<stop stop-color="#4D69D3"/>
<stop offset="0.8125" stop-color="#55BDD5"/>
</linearGradient>
<linearGradient id="paint17_linear_168_3663" x1="78.361" y1="343.2" x2="120.931" y2="281.098" gradientUnits="userSpaceOnUse">
<stop stop-color="#4D69D3"/>
<stop offset="0.8125" stop-color="#55BDD5"/>
</linearGradient>
<linearGradient id="paint18_linear_168_3663" x1="70.5643" y1="337.103" x2="115.199" y2="279.417" gradientUnits="userSpaceOnUse">
<stop stop-color="#4D69D3"/>
<stop offset="0.8125" stop-color="#55BDD5"/>
</linearGradient>
<linearGradient id="paint19_linear_168_3663" x1="62.9432" y1="330.994" x2="109.28" y2="277.747" gradientUnits="userSpaceOnUse">
<stop stop-color="#4D69D3"/>
<stop offset="0.8125" stop-color="#55BDD5"/>
</linearGradient>
<linearGradient id="paint20_linear_168_3663" x1="55.4977" y1="324.884" x2="103.179" y2="276.076" gradientUnits="userSpaceOnUse">
<stop stop-color="#4D69D3"/>
<stop offset="0.8125" stop-color="#55BDD5"/>
</linearGradient>
<linearGradient id="paint21_linear_168_3663" x1="48.2256" y1="318.786" x2="96.8988" y2="274.389" gradientUnits="userSpaceOnUse">
<stop stop-color="#4D69D3"/>
<stop offset="0.8125" stop-color="#55BDD5"/>
</linearGradient>
<linearGradient id="paint22_linear_168_3663" x1="316.362" y1="406.621" x2="246.574" y2="355.378" gradientUnits="userSpaceOnUse">
<stop stop-color="#4D69D3"/>
<stop offset="0.8125" stop-color="#55BDD5"/>
</linearGradient>
<linearGradient id="paint23_linear_168_3663" x1="310.89" y1="411.205" x2="244.886" y2="356.624" gradientUnits="userSpaceOnUse">
<stop stop-color="#4D69D3"/>
<stop offset="0.8125" stop-color="#55BDD5"/>
</linearGradient>
<linearGradient id="paint24_linear_168_3663" x1="306.821" y1="414.559" x2="244.761" y2="356.913" gradientUnits="userSpaceOnUse">
<stop stop-color="#4D69D3"/>
<stop offset="0.8125" stop-color="#55BDD5"/>
</linearGradient>
<linearGradient id="paint25_linear_168_3663" x1="298.19" y1="420.287" x2="241.18" y2="360.862" gradientUnits="userSpaceOnUse">
<stop stop-color="#4D69D3"/>
<stop offset="0.8125" stop-color="#55BDD5"/>
</linearGradient>
<linearGradient id="paint26_linear_168_3663" x1="289.562" y1="425.826" x2="237.596" y2="365.006" gradientUnits="userSpaceOnUse">
<stop stop-color="#4D69D3"/>
<stop offset="0.8125" stop-color="#55BDD5"/>
</linearGradient>
<linearGradient id="paint27_linear_168_3663" x1="280.949" y1="431.18" x2="233.993" y2="369.343" gradientUnits="userSpaceOnUse">
<stop stop-color="#4D69D3"/>
<stop offset="0.8125" stop-color="#55BDD5"/>
</linearGradient>
<linearGradient id="paint28_linear_168_3663" x1="272.364" y1="436.353" x2="230.358" y2="373.869" gradientUnits="userSpaceOnUse">
<stop stop-color="#4D69D3"/>
<stop offset="0.8125" stop-color="#55BDD5"/>
</linearGradient>
<linearGradient id="paint29_linear_168_3663" x1="263.821" y1="441.351" x2="226.679" y2="378.577" gradientUnits="userSpaceOnUse">
<stop stop-color="#4D69D3"/>
<stop offset="0.8125" stop-color="#55BDD5"/>
</linearGradient>
<linearGradient id="paint30_linear_168_3663" x1="255.329" y1="446.178" x2="222.942" y2="383.461" gradientUnits="userSpaceOnUse">
<stop stop-color="#4D69D3"/>
<stop offset="0.8125" stop-color="#55BDD5"/>
</linearGradient>
<linearGradient id="paint31_linear_168_3663" x1="248.644" y1="451.26" x2="222.145" y2="391.773" gradientUnits="userSpaceOnUse">
<stop stop-color="#4D69D3"/>
<stop offset="0.8125" stop-color="#55BDD5"/>
</linearGradient>
<linearGradient id="paint32_linear_168_3663" x1="242.142" y1="455.942" x2="220.684" y2="399.188" gradientUnits="userSpaceOnUse">
<stop stop-color="#4D69D3"/>
<stop offset="0.8125" stop-color="#55BDD5"/>
</linearGradient>
<linearGradient id="paint33_linear_168_3663" x1="418.172" y1="223.834" x2="342.26" y2="271.069" gradientUnits="userSpaceOnUse">
<stop stop-color="#4D69D3"/>
<stop offset="0.8125" stop-color="#55BDD5"/>
</linearGradient>
<linearGradient id="paint34_linear_168_3663" x1="420.651" y1="234.085" x2="344.211" y2="275.746" gradientUnits="userSpaceOnUse">
<stop stop-color="#4D69D3"/>
<stop offset="0.8125" stop-color="#55BDD5"/>
</linearGradient>
<linearGradient id="paint35_linear_168_3663" x1="422.94" y1="244.286" x2="346.357" y2="280.473" gradientUnits="userSpaceOnUse">
<stop stop-color="#4D69D3"/>
<stop offset="0.8125" stop-color="#55BDD5"/>
</linearGradient>
<linearGradient id="paint36_linear_168_3663" x1="425.05" y1="254.427" x2="348.692" y2="285.264" gradientUnits="userSpaceOnUse">
<stop stop-color="#4D69D3"/>
<stop offset="0.8125" stop-color="#55BDD5"/>
</linearGradient>
<linearGradient id="paint37_linear_168_3663" x1="426.985" y1="264.496" x2="351.207" y2="290.132" gradientUnits="userSpaceOnUse">
<stop stop-color="#4D69D3"/>
<stop offset="0.8125" stop-color="#55BDD5"/>
</linearGradient>
<linearGradient id="paint38_linear_168_3663" x1="428.753" y1="274.482" x2="353.894" y2="295.09" gradientUnits="userSpaceOnUse">
<stop stop-color="#4D69D3"/>
<stop offset="0.8125" stop-color="#55BDD5"/>
</linearGradient>
<linearGradient id="paint39_linear_168_3663" x1="430.365" y1="284.375" x2="356.744" y2="300.146" gradientUnits="userSpaceOnUse">
<stop stop-color="#4D69D3"/>
<stop offset="0.8125" stop-color="#55BDD5"/>
</linearGradient>
<linearGradient id="paint40_linear_168_3663" x1="431.829" y1="294.164" x2="359.747" y2="305.311" gradientUnits="userSpaceOnUse">
<stop stop-color="#4D69D3"/>
<stop offset="0.8125" stop-color="#55BDD5"/>
</linearGradient>
<linearGradient id="paint41_linear_168_3663" x1="433.155" y1="303.841" x2="362.893" y2="310.595" gradientUnits="userSpaceOnUse">
<stop stop-color="#4D69D3"/>
<stop offset="0.8125" stop-color="#55BDD5"/>
</linearGradient>
<linearGradient id="paint42_linear_168_3663" x1="434.353" y1="313.397" x2="366.17" y2="316.006" gradientUnits="userSpaceOnUse">
<stop stop-color="#4D69D3"/>
<stop offset="0.8125" stop-color="#55BDD5"/>
</linearGradient>
<linearGradient id="paint43_linear_168_3663" x1="433.34" y1="322.892" x2="369.044" y2="321.648" gradientUnits="userSpaceOnUse">
<stop stop-color="#4D69D3"/>
<stop offset="0.8125" stop-color="#55BDD5"/>
</linearGradient>
<linearGradient id="paint44_linear_168_3663" x1="289.161" y1="65.276" x2="303.688" y2="153.496" gradientUnits="userSpaceOnUse">
<stop stop-color="#4D69D3"/>
<stop offset="0.8125" stop-color="#55BDD5"/>
</linearGradient>
<linearGradient id="paint45_linear_168_3663" x1="299.577" y1="66.9165" x2="308.754" y2="153.487" gradientUnits="userSpaceOnUse">
<stop stop-color="#4D69D3"/>
<stop offset="0.8125" stop-color="#55BDD5"/>
</linearGradient>
<linearGradient id="paint46_linear_168_3663" x1="309.878" y1="68.7113" x2="313.943" y2="153.316" gradientUnits="userSpaceOnUse">
<stop stop-color="#4D69D3"/>
<stop offset="0.8125" stop-color="#55BDD5"/>
</linearGradient>
<linearGradient id="paint47_linear_168_3663" x1="320.052" y1="70.6515" x2="319.263" y2="152.998" gradientUnits="userSpaceOnUse">
<stop stop-color="#4D69D3"/>
<stop offset="0.8125" stop-color="#55BDD5"/>
</linearGradient>
<linearGradient id="paint48_linear_168_3663" x1="330.094" y1="72.7238" x2="324.723" y2="152.54" gradientUnits="userSpaceOnUse">
<stop stop-color="#4D69D3"/>
<stop offset="0.8125" stop-color="#55BDD5"/>
</linearGradient>
<linearGradient id="paint49_linear_168_3663" x1="339.996" y1="74.919" x2="330.333" y2="151.959" gradientUnits="userSpaceOnUse">
<stop stop-color="#4D69D3"/>
<stop offset="0.8125" stop-color="#55BDD5"/>
</linearGradient>
<linearGradient id="paint50_linear_168_3663" x1="349.75" y1="77.2222" x2="336.094" y2="151.265" gradientUnits="userSpaceOnUse">
<stop stop-color="#4D69D3"/>
<stop offset="0.8125" stop-color="#55BDD5"/>
</linearGradient>
<linearGradient id="paint51_linear_168_3663" x1="359.353" y1="79.6233" x2="342.017" y2="150.472" gradientUnits="userSpaceOnUse">
<stop stop-color="#4D69D3"/>
<stop offset="0.8125" stop-color="#55BDD5"/>
</linearGradient>
<linearGradient id="paint52_linear_168_3663" x1="368.798" y1="82.1084" x2="348.103" y2="149.592" gradientUnits="userSpaceOnUse">
<stop stop-color="#4D69D3"/>
<stop offset="0.8125" stop-color="#55BDD5"/>
</linearGradient>
<linearGradient id="paint53_linear_168_3663" x1="378.086" y1="84.665" x2="354.358" y2="148.639" gradientUnits="userSpaceOnUse">
<stop stop-color="#4D69D3"/>
<stop offset="0.8125" stop-color="#55BDD5"/>
</linearGradient>
<linearGradient id="paint54_linear_168_3663" x1="387.208" y1="87.2804" x2="360.781" y2="147.627" gradientUnits="userSpaceOnUse">
<stop stop-color="#4D69D3"/>
<stop offset="0.8125" stop-color="#55BDD5"/>
</linearGradient>
<linearGradient id="paint55_linear_168_3663" x1="130.894" y1="79.4648" x2="156.371" y2="84.0623" gradientUnits="userSpaceOnUse">
<stop stop-color="#4D69D3"/>
<stop offset="1" stop-color="#55BDD5"/>
</linearGradient>
<linearGradient id="paint56_linear_168_3663" x1="167.283" y1="73.7003" x2="200.538" y2="80.5671" gradientUnits="userSpaceOnUse">
<stop stop-color="#4D69D3"/>
<stop offset="1" stop-color="#55BDD5"/>
</linearGradient>
<linearGradient id="paint57_linear_168_3663" x1="98.3494" y1="280.898" x2="103.427" y2="282.793" gradientUnits="userSpaceOnUse">
<stop stop-color="#4D69D3"/>
<stop offset="1" stop-color="#55BDD5"/>
</linearGradient>
<linearGradient id="paint58_linear_168_3663" x1="98.3494" y1="279.62" x2="103.43" y2="281.511" gradientUnits="userSpaceOnUse">
<stop stop-color="#4D69D3"/>
<stop offset="1" stop-color="#55BDD5"/>
</linearGradient>
<linearGradient id="paint59_linear_168_3663" x1="106.688" y1="285.701" x2="111.766" y2="287.595" gradientUnits="userSpaceOnUse">
<stop stop-color="#4D69D3"/>
<stop offset="1" stop-color="#55BDD5"/>
</linearGradient>
<linearGradient id="paint60_linear_168_3663" x1="106.688" y1="284.422" x2="111.768" y2="286.314" gradientUnits="userSpaceOnUse">
<stop stop-color="#4D69D3"/>
<stop offset="1" stop-color="#55BDD5"/>
</linearGradient>
<linearGradient id="paint61_linear_168_3663" x1="115.039" y1="290.832" x2="120.124" y2="292.729" gradientUnits="userSpaceOnUse">
<stop stop-color="#4D69D3"/>
<stop offset="1" stop-color="#55BDD5"/>
</linearGradient>
<linearGradient id="paint62_linear_168_3663" x1="115.035" y1="289.553" x2="120.115" y2="291.445" gradientUnits="userSpaceOnUse">
<stop stop-color="#4D69D3"/>
<stop offset="1" stop-color="#55BDD5"/>
</linearGradient>
<clipPath id="clip0_168_3663">
<rect width="500" height="476.059" fill="white"/>
</clipPath>
</defs>
</svg>
