<svg width="466" height="259" viewBox="0 0 466 259" fill="none" xmlns="http://www.w3.org/2000/svg">
<g opacity="0.04">
<path opacity="0.0144928" d="M-3.8629 55.884C-14.5035 53.4343 -25.4808 58.3218 -30.7803 67.8683L-61.1716 122.616C-64.3057 128.262 -65.0842 134.916 -63.3379 141.133L-34.4035 244.135C-33.0301 249.024 -30.1716 253.365 -26.2231 256.558L42.4304 312.083C49.5896 317.873 59.3906 319.161 67.8021 315.416L114.136 294.786C122.548 291.041 128.149 282.896 128.637 273.702L133.312 185.529C133.581 180.458 132.267 175.428 129.553 171.137L72.3685 80.7125C68.9172 75.255 63.4509 71.3807 57.1583 69.9321L-3.8629 55.884Z" stroke="url(#paint0_linear_168_912)"/>
<path opacity="0.0289855" d="M8.79338 53.5058C-1.68123 50.5274 -12.8646 54.8203 -18.6558 64.0425L-51.6528 116.589C-55.0918 122.066 -56.2262 128.68 -54.8085 134.989L-31.6039 238.265C-30.4873 243.234 -27.8497 247.732 -24.0578 251.133L40.9977 309.478C47.8435 315.618 57.5508 317.407 66.1356 314.112L113.11 296.08C121.695 292.784 127.712 284.959 128.691 275.816L137.996 188.926C138.538 183.862 137.489 178.754 134.993 174.314L83.1327 82.0383C79.9643 76.4009 74.6957 72.2448 68.4755 70.4761L8.79338 53.5058Z" stroke="url(#paint1_linear_168_912)"/>
<path opacity="0.0434783" d="M21.4206 51.5263C11.1383 48.03 -0.218536 51.7201 -6.48192 60.5924L-41.9381 110.817C-45.6732 116.108 -47.1614 122.663 -46.0774 129.048L-28.551 232.282C-27.6958 237.319 -25.2875 241.963 -21.6628 245.563L39.6888 306.507C46.2042 312.979 55.7919 315.264 64.5259 312.426L111.998 297.001C120.732 294.163 127.146 286.679 128.612 277.614L142.425 192.248C143.241 187.204 142.46 182.032 140.191 177.454L93.691 83.6342C90.815 77.8315 85.7583 73.4035 79.6267 71.3185L21.4206 51.5263Z" stroke="url(#paint2_linear_168_912)"/>
<path opacity="0.057971" d="M33.9979 49.9417C23.9339 45.9397 12.4362 49.0204 5.72154 57.5183L-32.0419 105.311C-36.0631 110.4 -37.9022 116.876 -37.156 123.319L-25.239 226.203C-24.6493 231.294 -22.4781 236.072 -19.0309 239.864L38.5243 303.18C44.6933 309.966 54.1359 312.739 62.9947 310.366L110.822 297.55C119.68 295.177 126.471 288.054 128.421 279.092L146.607 195.481C147.696 190.473 147.188 185.25 145.153 180.547L104.031 85.488C101.456 79.5349 96.6252 74.846 90.5981 72.4493L33.9979 49.9417Z" stroke="url(#paint3_linear_168_912)"/>
<path opacity="0.0724638" d="M46.5021 48.7427C36.6813 44.2484 25.0759 46.7152 17.9321 54.8155L-21.9818 100.073C-26.2786 104.945 -28.4646 111.324 -28.0591 117.808L-21.6662 220.04C-21.3454 225.171 -19.4186 230.071 -16.1588 234.046L37.5208 299.507C43.3282 306.589 52.6009 309.841 61.5595 307.936L109.6 297.725C118.559 295.821 125.707 289.079 128.132 280.247L150.545 198.612C151.906 193.654 151.674 188.394 149.88 183.576L114.138 87.5826C111.872 81.4949 107.28 76.5565 101.373 73.8533L46.5021 48.7427Z" stroke="url(#paint4_linear_168_912)"/>
<path opacity="0.0869565" d="M58.9162 47.923C49.3627 42.9512 37.6827 44.8012 30.1332 52.4818L-11.7703 95.1133C-16.331 99.7532 -18.8589 106.017 -18.7966 112.522L-17.8263 213.809C-17.7769 218.966 -16.1014 223.976 -13.0384 228.125L36.6997 295.501C42.1317 302.859 51.2099 306.579 60.2433 305.149L108.358 297.528C117.392 296.097 124.876 289.754 127.768 281.077L154.252 201.629C155.882 196.736 155.928 191.453 154.381 186.534L124.005 89.9047C122.054 83.6982 117.714 78.5225 111.943 75.519L58.9162 47.923Z" stroke="url(#paint5_linear_168_912)"/>
<path opacity="0.101449" d="M71.2165 47.4752C61.9538 42.0419 50.2323 43.2738 42.3016 50.5143L-1.42707 90.4373C-6.23934 94.8307 -9.10317 100.96 -9.38524 107.47L-13.7207 207.526C-13.9446 212.695 -12.5264 217.802 -9.66927 222.116L36.0747 291.177C41.1181 298.791 49.9782 302.968 59.0613 302.013L107.113 296.963C116.196 296.008 123.994 290.08 127.344 281.584L157.73 204.521C159.628 199.708 159.953 194.417 158.659 189.408L133.616 92.4402C131.986 86.1311 127.911 80.731 122.29 77.4341L71.2165 47.4752Z" stroke="url(#paint6_linear_168_912)"/>
<path opacity="0.115942" d="M83.3838 47.3879C74.4341 41.5101 62.7042 42.1249 54.418 48.906L9.03168 86.0483C3.98096 90.1816 0.788132 96.1593 0.161286 102.656L-9.34799 201.205C-9.84655 206.372 -8.69114 211.564 -6.04836 216.031L35.662 286.546C40.3051 294.395 48.9239 299.016 58.0313 298.539L105.884 296.031C114.992 295.554 123.08 290.057 126.877 281.766L160.988 207.277C163.15 202.558 163.756 197.274 162.72 192.187L142.962 95.1716C141.659 88.7765 137.859 83.1654 132.404 79.5827L83.3838 47.3879Z" stroke="url(#paint7_linear_168_912)"/>
<path opacity="0.130435" d="M95.4021 47.6493C86.7869 41.3452 75.0814 41.3451 66.4662 47.6493L19.5923 81.9489C14.317 85.8091 10.803 91.6173 9.83204 98.0815L-4.7052 194.86C-5.47885 200.01 -4.59108 205.273 -2.17075 209.885L35.4797 281.623C39.7116 289.686 48.0668 294.737 57.1734 294.737L104.695 294.737C113.801 294.737 122.157 289.686 126.389 281.623L164.039 209.885C166.459 205.273 167.347 200.01 166.573 194.86L152.036 98.0815C151.065 91.6173 147.551 85.8091 142.276 81.9489L95.4021 47.6493Z" stroke="url(#paint8_linear_168_912)"/>
<path opacity="0.144928" d="M107.251 48.2495C98.9903 41.5383 87.3419 40.9278 78.4252 46.7388L30.2354 78.1438C24.7502 81.7185 20.9239 87.34 19.6103 93.7542L0.204522 188.508C-0.843946 193.627 -0.228036 198.948 1.96229 203.693L35.5393 276.425C39.3505 284.68 47.4206 290.146 56.5011 290.622L103.562 293.088C112.643 293.564 121.24 288.972 125.893 281.16L166.889 212.336C169.563 207.846 170.732 202.619 170.224 197.418L160.829 101.155C160.193 94.6388 156.975 88.6482 151.894 84.5197L107.251 48.2495Z" stroke="url(#paint9_linear_168_912)"/>
<path opacity="0.15942" d="M118.916 49.1748C111.029 42.0767 99.4699 40.8618 90.28 46.1651L40.9476 74.6337C35.2677 77.9115 31.1389 83.3295 29.4851 89.6754L5.38275 182.163C4.06043 187.237 4.40094 192.601 6.35426 197.468L35.8571 270.967C39.2392 279.393 47.0034 285.257 56.0328 286.206L102.507 291.091C111.537 292.04 120.35 287.918 125.41 280.379L169.55 214.62C172.472 210.266 173.921 205.09 173.682 199.852L169.336 104.374C169.038 97.8232 166.125 91.6652 161.251 87.2781L118.916 49.1748Z" stroke="url(#paint10_linear_168_912)"/>
<path opacity="0.173913" d="M130.377 50.4113C122.882 42.9475 111.444 41.1358 102.01 45.9185L51.7088 71.4189C45.85 74.389 41.4293 79.5873 39.4388 85.8471L10.8238 175.838C9.22936 180.853 9.29164 186.247 11.0015 191.224L36.4419 265.265C39.3875 273.839 46.8262 280.084 55.7797 281.503L101.545 288.751C110.499 290.169 119.503 286.528 124.954 279.284L172.03 216.728C175.194 212.524 176.92 207.412 176.953 202.151L177.547 107.721C177.589 101.153 174.991 94.8428 170.336 90.2076L130.377 50.4113Z" stroke="url(#paint11_linear_168_912)"/>
<path opacity="0.188406" d="M141.62 51.9467C134.535 44.139 123.249 41.7401 113.6 45.9908L62.5035 68.5014C56.4824 71.154 51.7812 76.1169 49.4585 82.2728L16.5258 169.551C14.6616 174.492 14.4435 179.902 15.9039 184.977L37.3057 259.34C39.8089 268.038 46.9033 274.647 55.7562 276.528L100.695 286.081C109.548 287.962 118.717 284.81 124.542 277.883L174.339 218.653C177.738 214.612 179.739 209.58 180.045 204.309L185.459 111.181C185.841 104.612 183.565 98.1662 179.143 93.2939L141.62 51.9467Z" stroke="url(#paint12_linear_168_912)"/>
<path opacity="0.202899" d="M152.634 53.764C145.973 45.6352 134.87 42.6601 125.037 46.3693L73.3188 65.8784C67.1524 68.2045 62.1832 72.9168 59.5333 78.9512L22.488 163.314C20.3574 168.167 19.8574 173.579 21.0631 178.739L38.4621 253.206C40.5179 262.006 47.2503 268.959 55.9785 271.297L99.9769 283.087C108.705 285.426 118.012 282.77 124.192 276.178L176.494 220.387C180.118 216.52 182.391 211.583 182.972 206.316L193.071 114.733C193.794 108.182 191.846 101.616 187.669 96.5185L152.634 53.764Z" stroke="url(#paint13_linear_168_912)"/>
<path opacity="0.217391" d="M163.398 55.8479C157.176 47.4215 146.285 43.8828 136.298 47.0426L84.1306 63.5485C77.8365 65.54 72.6123 69.9872 69.6417 75.8828L28.6983 157.142C26.305 161.891 25.5224 167.291 26.4686 172.525L39.9121 246.884C41.517 255.761 47.8706 263.038 56.4503 265.826L99.3992 279.781C107.979 282.569 117.396 280.416 123.913 274.177L178.496 221.921C182.338 218.243 184.878 213.415 185.734 208.166L200.373 118.36C201.435 111.844 199.823 105.176 195.901 99.8649L163.398 55.8479Z" stroke="url(#paint14_linear_168_912)"/>
<path opacity="0.231884" d="M173.908 58.1813C168.138 49.4814 157.489 45.3935 147.379 47.9978L94.9323 61.5083C88.5284 63.158 83.0633 67.3264 79.7791 73.0662L35.1602 151.046C32.5091 155.679 31.4438 161.052 32.1264 166.346L41.6726 240.39C42.8242 249.322 48.7835 256.902 57.1915 260.13L98.9868 276.173C107.395 279.401 116.896 277.755 123.728 271.888L180.367 223.251C184.417 219.773 187.22 215.067 188.35 209.85L207.371 122.044C208.771 115.581 207.499 108.826 203.843 103.315L173.908 58.1813Z" stroke="url(#paint15_linear_168_912)"/>
<path opacity="0.246377" d="M184.15 60.7484C178.843 51.7995 168.463 47.1781 158.262 49.2225L105.705 59.7552C99.2099 61.0569 93.5185 64.9333 89.9287 70.5007L41.8648 145.042C38.9611 149.545 37.6138 154.876 38.0292 160.218L43.7474 233.744C44.4445 242.708 49.9952 250.57 58.2086 254.226L98.7512 272.277C106.965 275.934 116.521 274.798 123.649 269.319L182.116 224.37C186.364 221.104 189.424 216.535 190.827 211.364L214.061 125.768C215.796 119.375 214.869 112.552 211.49 106.854L184.15 60.7484Z" stroke="url(#paint16_linear_168_912)"/>
<path opacity="0.26087" d="M194.111 63.5312C189.278 54.3585 179.195 49.2209 168.934 50.7027L116.432 58.2843C109.864 59.2328 103.962 62.8049 100.076 68.1837L48.8034 139.141C45.6533 143.501 44.0253 148.776 44.1707 154.153L46.1401 226.966C46.3828 235.938 51.5116 244.059 59.5084 248.134L98.7049 268.105C106.702 272.18 116.286 271.556 123.687 266.479L183.752 225.273C188.187 222.23 191.498 217.813 193.174 212.702L220.443 129.514C222.51 123.208 221.93 116.333 218.837 110.462L194.111 63.5312Z" stroke="url(#paint17_linear_168_912)"/>
<path opacity="0.275362" d="M203.783 66.5121C199.433 57.1412 189.673 51.5059 179.383 52.4243L127.099 57.0908C120.478 57.6817 114.381 60.938 110.207 66.1124L55.9694 133.357C52.5795 137.56 50.673 142.765 50.5462 148.163L48.856 220.075C48.6455 229.032 53.3405 237.389 61.0993 241.869L98.8614 263.671C106.62 268.15 116.205 268.037 123.857 263.377L185.289 225.957C189.901 223.148 193.455 218.895 195.4 213.858L226.517 133.264C228.911 127.062 228.683 120.154 225.884 114.124L203.783 66.5121Z" stroke="url(#paint18_linear_168_912)"/>
<path opacity="0.289855" d="M213.16 69.6723C209.301 60.1291 199.888 54.0162 189.6 54.3721L137.694 56.1681C131.038 56.3984 124.763 59.3281 120.313 64.2828L63.3567 127.701C59.7347 131.734 57.5524 136.854 57.1516 142.26L51.9004 213.09C51.2392 222.009 55.4896 230.579 62.9896 235.449L99.2352 258.987C106.735 263.858 116.293 264.255 124.171 260.024L186.742 226.417C191.518 223.852 195.308 219.776 197.519 214.827L232.288 137C235.004 130.92 235.128 123.995 232.632 117.821L213.16 69.6723Z" stroke="url(#paint19_linear_168_912)"/>
<path opacity="0.304348" d="M222.233 72.9934C218.87 63.304 209.828 56.7346 199.574 56.5308L148.2 55.5096C141.529 55.377 135.093 57.9704 130.379 62.6907L70.9543 122.184C67.1082 126.035 64.6537 131.056 63.978 136.456L55.2729 206.031C54.1648 214.888 57.9613 223.647 65.1827 228.894L99.8352 254.07C107.057 259.317 116.56 260.221 124.641 256.43L188.12 226.651C193.048 224.34 197.065 220.454 199.539 215.606L237.757 140.706C240.789 134.763 241.267 127.841 239.08 121.538L222.233 72.9934Z" stroke="url(#paint20_linear_168_912)"/>
<path opacity="0.318841" d="M230.997 76.4573C228.136 66.6481 219.487 59.6446 209.297 58.8854L158.605 55.1085C151.94 54.6119 145.361 56.8599 140.393 61.3317L78.755 116.818C74.6936 120.474 71.9711 125.382 71.0202 130.763L58.9768 198.917C57.4265 207.69 60.7609 216.614 67.6847 222.221L100.674 248.935C107.598 254.541 117.019 255.948 125.279 252.607L189.439 226.657C194.505 224.608 198.74 220.924 201.472 216.192L242.93 144.364C246.271 138.575 247.102 131.673 245.231 125.256L230.997 76.4573Z" stroke="url(#paint21_linear_168_912)"/>
<path opacity="0.333333" d="M239.445 80.0445C237.089 70.1419 228.855 62.7279 218.76 61.4194L168.895 54.9561C162.255 54.0954 155.551 55.9902 150.344 60.1999L86.7464 111.611C82.4793 115.061 79.4937 119.843 78.2679 125.191L63.0094 191.768C61.023 200.435 63.8886 209.498 70.4966 215.448L101.758 243.596C108.366 249.546 117.679 251.448 126.091 248.567L190.708 226.433C195.899 224.655 200.343 221.186 203.327 216.581L247.809 147.959C251.452 142.34 252.635 135.475 251.085 128.96L239.445 80.0445Z" stroke="url(#paint22_linear_168_912)"/>
<path opacity="0.347826" d="M247.576 83.7354C245.726 73.7659 237.926 65.966 227.957 64.1162L179.059 55.0434C172.463 53.8195 165.654 55.354 160.22 59.2887L94.9204 106.575C90.4577 109.807 87.2146 114.448 85.7149 119.75L67.3716 184.601C64.9562 193.141 67.3474 202.319 73.6226 208.594L103.098 238.07C109.374 244.345 118.552 246.736 127.091 244.321L191.942 225.977C197.244 224.478 201.886 221.235 205.117 216.772L252.404 151.472C256.338 146.038 257.873 139.229 256.649 132.633L247.576 83.7354Z" stroke="url(#paint23_linear_168_912)"/>
<path opacity="0.362319" d="M255.39 87.5135C254.047 77.5035 246.7 69.3432 236.885 66.9615L189.088 55.3633C182.556 53.7783 175.66 54.9464 170.015 58.594L103.269 101.719C98.621 104.722 95.1267 109.21 93.3548 114.452L72.0635 177.44C69.2274 185.83 71.1402 195.097 77.0663 201.679L104.705 232.375C110.631 238.956 119.648 241.827 128.288 239.884L193.156 225.293C198.555 224.079 203.384 221.073 206.856 216.764L256.722 154.892C260.939 149.658 262.822 142.922 261.928 136.261L255.39 87.5135Z" stroke="url(#paint24_linear_168_912)"/>
<path opacity="0.376812" d="M262.879 91.3557C262.043 81.3316 255.164 72.8373 245.533 69.935L198.965 55.902C192.517 53.959 185.554 54.7557 179.712 58.1047L111.775 97.0488C106.953 99.8127 103.215 104.134 101.173 109.302L77.0761 170.297C73.8288 178.517 75.2603 187.849 80.8223 194.717L106.578 226.523C112.14 233.392 120.97 236.732 129.686 235.265L194.358 224.377C199.838 223.454 204.842 220.695 208.548 216.554L260.766 158.198C265.256 153.18 267.483 146.534 266.923 139.824L262.879 91.3557Z" stroke="url(#paint25_linear_168_912)"/>
<path opacity="0.391304" d="M270.048 95.246C269.715 85.2339 263.321 76.4327 253.901 73.0225L208.683 56.6519C202.339 54.3551 195.329 54.7763 189.305 57.8161L120.43 92.5742C115.447 95.0891 111.471 99.2302 109.162 104.312L82.4088 163.195C78.7606 171.225 79.7096 180.595 84.8935 187.73L108.728 220.535C113.912 227.67 122.53 231.469 131.294 230.48L195.563 223.232C201.109 222.606 206.276 220.105 210.208 216.143L264.548 161.38C269.301 156.59 271.868 150.053 271.644 143.31L270.048 95.246Z" stroke="url(#paint26_linear_168_912)"/>
<path opacity="0.405797" d="M276.894 99.1648C277.062 89.1904 271.165 80.1103 261.985 76.2066L218.232 57.6013C212.01 54.9559 204.973 54.9986 198.784 57.7193L129.222 88.3015C124.089 90.5581 119.885 94.507 117.313 99.4889L88.0546 156.15C84.0169 163.97 84.4833 173.354 89.2763 180.735L111.156 214.427C115.949 221.807 124.333 226.05 133.118 225.542L196.781 221.86C202.379 221.536 207.696 219.302 211.845 215.531L268.077 164.421C273.08 159.874 275.981 153.462 276.095 146.703L276.894 99.1648Z" stroke="url(#paint27_linear_168_912)"/>
<path opacity="0.42029" d="M283.425 103.094C284.088 93.1826 278.701 83.852 269.786 79.4706L227.604 58.739C221.525 55.7513 214.48 55.4136 208.143 57.8062L138.14 84.2373C132.871 86.2269 128.448 89.9713 125.616 94.8402L94.0104 149.181C89.5956 156.771 89.5806 166.144 93.9711 173.749L113.87 208.215C118.261 215.819 126.385 220.493 135.166 220.465L198.029 220.264C203.662 220.246 209.116 218.288 213.474 214.719L271.365 167.31C276.606 163.018 279.836 156.749 280.288 149.99L283.425 103.094Z" stroke="url(#paint28_linear_168_912)"/>
<path opacity="0.434783" d="M289.637 107.014C290.789 97.1918 285.922 87.6398 277.298 82.798L236.787 60.0533C230.869 56.7306 223.838 56.0117 217.37 58.0681L147.168 80.3871C141.776 82.1016 137.143 85.6299 134.057 90.3727L100.264 142.303C95.4852 149.647 94.9916 158.983 98.9691 166.789L116.868 201.917C120.845 209.723 128.688 214.811 137.438 215.262L199.314 218.447C204.965 218.738 210.542 217.064 215.099 213.709L274.419 170.033C279.884 166.009 283.436 159.898 284.226 153.157L289.637 107.014Z" stroke="url(#paint29_linear_168_912)"/>
<path opacity="0.449275" d="M295.536 110.909C297.169 101.2 292.831 91.4557 284.523 86.1722L245.776 61.5323C240.037 57.8829 233.04 56.7831 226.458 58.4959L156.296 76.7558C150.793 78.1877 145.961 81.4886 142.625 86.0927L106.808 135.534C101.68 142.613 100.712 151.887 104.267 159.873L120.152 195.55C123.707 203.535 131.247 209.021 139.939 209.947L200.648 216.413C206.301 217.015 211.988 215.632 216.733 212.501L277.251 172.579C282.928 168.834 286.793 162.898 287.921 156.191L295.536 110.909Z" stroke="url(#paint30_linear_168_912)"/>
<path opacity="0.463768" d="M301.13 114.761C303.235 105.189 299.432 95.2825 291.463 89.5773L254.564 63.164C249.023 59.1974 242.08 57.7179 235.403 59.0808L165.51 73.348C159.913 74.4905 154.891 77.5531 151.312 82.0061L113.637 128.89C108.174 135.688 106.737 144.876 109.862 153.017L123.725 189.131C126.85 197.272 134.066 203.139 142.674 204.535L202.044 214.167C207.683 215.082 213.464 213.997 218.389 211.101L279.876 174.936C285.75 171.481 289.919 165.736 291.383 159.08L301.13 114.761Z" stroke="url(#paint31_linear_168_912)"/>
<path opacity="0.478261" d="M306.422 118.551C308.99 109.139 305.728 99.1004 298.119 92.9948L263.146 64.9334C257.819 60.6599 250.952 58.8031 244.198 59.8108L174.798 70.1647C169.12 71.0117 163.92 73.8256 160.105 78.1153L120.737 122.384C114.956 128.884 113.056 137.962 115.744 146.236L127.584 182.675C130.272 190.949 137.146 197.176 145.644 199.037L203.513 211.711C209.121 212.939 214.982 212.159 220.073 209.507L282.305 177.092C288.361 173.937 292.826 168.398 294.623 161.81L306.422 118.551Z" stroke="url(#paint32_linear_168_912)"/>
<path opacity="0.492754" d="M311.421 122.266C314.439 113.037 311.722 102.896 304.494 96.4123L271.515 66.8311C266.421 62.2621 259.648 60.0315 252.836 60.6794L184.146 67.2118C178.403 67.758 173.037 70.3134 168.993 74.4279L128.1 116.032C122.018 122.221 119.662 131.165 121.908 139.547L131.73 176.202C133.976 184.584 140.488 191.153 148.85 193.471L205.066 209.055C210.625 210.597 216.55 210.126 221.797 207.728L284.551 179.04C290.774 176.195 295.524 170.877 297.651 164.373L311.421 122.266Z" stroke="url(#paint33_linear_168_912)"/>
<path opacity="0.507246" d="M316.133 125.886C319.59 116.862 317.419 106.649 310.591 99.811L279.666 68.8409C274.821 63.9886 268.164 61.3889 261.313 61.6735L193.541 64.4882C187.747 64.7288 182.227 67.0164 177.962 70.9441L135.713 109.847C129.346 115.71 126.545 124.497 128.345 132.964L136.159 169.726C137.958 178.192 144.091 185.08 152.293 187.847L206.712 206.202C212.206 208.055 218.179 207.9 223.57 205.763L286.627 180.769C293.002 178.243 298.026 173.16 300.479 166.756L316.133 125.886Z" stroke="url(#paint34_linear_168_912)"/>
<path opacity="0.521739" d="M320.568 129.398C324.449 120.6 322.825 110.345 316.415 103.177L287.597 70.9513C283.017 65.829 276.496 62.8658 269.624 62.7846L202.969 61.9965C197.141 61.9276 191.48 63.9386 187.001 67.6683L143.565 103.842C136.931 109.366 133.694 117.974 135.045 126.501L140.867 163.262C142.218 171.789 147.956 178.975 155.972 182.18L208.461 203.16C213.873 205.323 219.879 205.486 225.4 203.62L288.549 182.273C295.059 180.072 300.346 175.239 303.119 168.952L320.568 129.398Z" stroke="url(#paint35_linear_168_912)"/>
<path opacity="0.536232" d="M324.734 132.786C329.025 124.235 327.946 113.968 321.971 106.496L295.304 73.1485C291.003 67.7702 284.637 64.4503 277.765 64.0018L212.417 59.7365C206.57 59.3549 200.781 61.081 196.098 64.602L151.64 98.0282C144.758 103.202 141.098 111.609 141.998 120.172L145.85 156.828C146.75 165.391 152.079 172.852 159.886 176.483L210.322 199.935C215.634 202.406 221.656 202.89 227.296 201.301L290.329 183.543C296.958 181.675 302.494 177.104 305.583 170.949L324.734 132.786Z" stroke="url(#paint36_linear_168_912)"/>
<path opacity="0.550725" d="M328.642 136.039C333.327 127.754 332.79 117.505 327.264 109.755L302.784 75.4208C298.777 69.8015 292.586 66.1327 285.733 65.3164L221.872 57.7093C216.023 57.0126 210.118 58.4464 205.24 61.7481L159.927 92.4194C152.817 97.2323 148.745 105.416 149.194 113.991L151.104 150.439C151.553 159.014 156.459 166.727 164.033 170.771L212.305 196.537C217.501 199.311 223.523 200.12 229.267 198.816L291.983 184.575C298.713 183.047 304.487 178.751 307.884 172.743L328.642 136.039Z" stroke="url(#paint37_linear_168_912)"/>
<path opacity="0.565217" d="M332.305 139.14C337.369 131.139 337.369 120.937 332.305 112.937L310.039 77.7524C306.34 71.9079 300.343 67.8991 293.529 66.7155L231.322 55.9113C225.487 54.8979 219.483 56.0324 214.42 59.1049L168.414 87.0228C161.095 91.4647 156.625 99.4057 156.625 107.968L156.625 144.109C156.625 152.671 161.095 160.612 168.414 165.054L214.42 192.972C219.483 196.044 225.487 197.179 231.322 196.165L293.529 185.361C300.343 184.177 306.34 180.169 310.039 174.324L332.305 139.14Z" stroke="url(#paint38_linear_168_912)"/>
<path opacity="0.57971" d="M335.731 142.078C341.155 134.379 341.685 124.253 337.096 116.03L317.063 80.1313C313.686 74.0781 307.902 69.7392 301.145 68.1899L240.752 54.3418C234.947 53.0107 228.856 53.8396 223.618 56.6733L177.082 81.849C169.573 85.9113 164.721 93.5897 164.274 102.115L162.401 137.851C161.954 146.377 165.978 154.521 173.021 159.346L216.671 189.248C221.584 192.614 227.554 194.075 233.466 193.358L294.976 185.898C301.858 185.064 308.064 181.353 312.056 175.686L335.731 142.078Z" stroke="url(#paint39_linear_168_912)"/>
<path opacity="0.594203" d="M338.933 144.843C344.698 137.462 345.752 127.44 341.647 119.022L323.859 82.5448C320.814 76.3003 315.261 71.6422 308.582 69.7298L250.148 52.9986C244.391 51.35 238.228 51.8675 232.826 54.4533L185.917 76.907C178.239 80.5822 173.019 87.9793 172.13 96.4449L168.426 131.682C167.536 140.148 171.104 148.468 177.85 153.66L219.066 185.376C223.812 189.028 229.732 190.815 235.707 190.4L296.342 186.183C303.273 185.701 309.673 182.3 313.95 176.825L338.933 144.843Z" stroke="url(#paint40_linear_168_912)"/>
<path opacity="0.608696" d="M341.925 147.421C348.013 140.374 349.58 130.484 345.967 121.9L330.427 84.9787C327.726 78.5609 322.422 73.5955 315.84 71.3236L259.501 51.8772C253.807 49.9118 247.588 50.1129 242.033 52.4423L194.906 72.203C187.08 75.4846 181.509 82.5826 180.181 90.9645L174.694 125.612C173.366 133.994 176.471 142.466 182.9 148.006L221.614 181.362C226.177 185.294 232.029 187.407 238.052 187.297L297.643 186.213C304.605 186.086 311.184 183.003 315.736 177.734L341.925 147.421Z" stroke="url(#paint41_linear_168_912)"/>
<path opacity="0.623188" d="M344.721 149.804C351.113 143.104 353.182 133.373 350.067 124.652L336.772 87.42C334.425 80.8475 329.386 75.5879 322.92 72.9611L268.798 50.9734C263.184 48.6928 256.925 48.5733 251.228 50.638L204.033 67.7433C196.08 70.626 190.176 77.4081 188.417 85.6832L181.196 119.655C179.437 127.93 182.072 136.527 188.165 142.395L224.323 177.217C228.687 181.421 234.454 183.857 240.51 184.057L298.896 185.984C305.872 186.214 312.614 183.459 317.431 178.409L344.721 149.804Z" stroke="url(#paint42_linear_168_912)"/>
<path opacity="0.637681" d="M347.333 151.982C354.008 145.642 356.565 136.097 353.955 127.269L342.891 89.8574C340.907 83.1495 336.15 77.6094 329.82 74.6334L278.024 50.2837C272.508 47.6904 266.223 47.2466 260.397 49.0391L213.28 63.5346C205.22 66.0143 199.002 72.4649 196.819 80.6104L187.92 113.822C185.738 121.967 187.897 130.663 193.638 136.84L227.194 172.952C231.343 177.418 237.008 180.176 243.082 180.688L300.114 185.499C307.084 186.086 313.973 183.667 319.045 178.85L347.333 151.982Z" stroke="url(#paint43_linear_168_912)"/>
<path opacity="0.652174" d="M349.778 153.947C356.714 147.98 359.748 138.645 357.643 129.74L348.791 92.2778C347.179 85.4543 342.72 79.6486 336.544 76.33L287.172 49.8023C281.769 46.8995 275.475 46.1285 269.531 47.6416L222.634 59.5809C214.489 61.6546 207.975 67.7589 205.378 75.7527L194.859 108.125C192.262 116.119 193.944 124.886 199.315 131.351L230.237 168.576C234.156 173.293 239.702 176.369 245.779 177.197L301.314 184.755C308.262 185.701 315.281 183.625 320.596 179.052L349.778 153.947Z" stroke="url(#paint44_linear_168_912)"/>
<path opacity="0.666667" d="M352.069 155.694C359.245 150.109 362.738 141.009 361.142 132.057L354.475 94.6702C353.241 87.7514 349.095 81.6957 343.091 78.0422L296.228 49.524C290.956 46.3158 284.667 45.2154 278.619 46.4426L232.077 55.8866C223.868 57.5524 217.079 63.297 214.077 71.1173L202.001 102.575C198.999 110.395 200.201 119.207 205.187 125.938L233.455 164.099C237.128 169.058 242.538 172.448 248.602 173.592L302.512 183.756C309.418 185.059 316.551 183.332 322.097 179.016L352.069 155.694Z" stroke="url(#paint45_linear_168_912)"/>
<path opacity="0.681159" d="M354.219 157.214C361.614 152.021 365.55 143.18 364.461 134.209L359.945 97.022C359.095 90.0287 355.277 83.7395 349.464 79.7598L305.18 49.4414C300.055 45.9328 293.789 44.5015 287.649 45.4369L241.593 52.4535C233.341 53.7107 226.296 59.0831 222.901 66.709L209.334 97.1812C205.939 104.807 206.66 113.637 211.247 120.611L236.851 159.532C240.264 164.721 245.52 168.42 251.557 169.88L303.72 182.503C310.567 184.16 317.796 182.789 323.561 178.741L354.219 157.214Z" stroke="url(#paint46_linear_168_912)"/>
<path opacity="0.695652" d="M356.243 158.501C363.834 153.709 368.196 145.148 367.611 136.189L365.205 99.3205C364.745 92.2739 361.267 85.7685 355.663 81.4722L314.016 49.546C309.055 45.7428 302.828 43.9798 296.61 44.618L251.163 49.2816C242.889 50.1307 235.611 55.1198 231.834 62.5309L216.844 91.9508C213.068 99.3619 213.31 108.183 217.486 115.376L240.426 154.884C243.565 160.29 248.652 164.292 254.645 166.07L304.953 180.997C311.723 183.005 319.03 181.995 325.001 178.225L356.243 158.501Z" stroke="url(#paint47_linear_168_912)"/>
<path opacity="0.710145" d="M358.158 159.554C365.923 155.168 370.692 146.909 370.608 137.991L370.264 101.557C370.197 94.4788 367.072 87.7753 361.694 83.1731L322.73 49.8327C317.949 45.7414 311.777 43.6467 305.493 43.9828L260.774 46.3742C252.499 46.8167 245.008 51.4125 240.865 58.5892L224.523 86.8945C220.379 94.0712 220.145 102.856 223.899 110.244L244.188 150.167C247.038 155.777 251.938 160.075 257.872 162.17L306.228 179.243C312.902 181.6 320.27 180.955 326.434 177.473L358.158 159.554Z" stroke="url(#paint48_linear_168_912)"/>
<path opacity="0.724638" d="M359.982 160.367C367.898 156.393 373.053 148.456 373.463 139.608L375.129 103.721C375.458 96.6323 372.697 89.7495 367.562 84.8529L331.314 50.2921C326.728 45.9202 320.628 43.4946 314.292 43.5242L270.412 43.7297C262.157 43.7684 254.476 47.9621 249.979 54.8858L232.359 82.0187C227.863 88.9424 227.156 97.665 230.478 105.222L248.138 145.393C250.688 151.192 255.385 155.779 261.244 158.19L307.56 177.247C314.123 179.947 321.533 179.669 327.875 176.486L359.982 160.367Z" stroke="url(#paint49_linear_168_912)"/>
<path opacity="0.73913" d="M361.726 160.939C369.77 157.381 375.29 149.783 376.188 141.033L379.803 105.8C380.529 98.7239 378.144 91.6814 373.267 86.5027L339.754 50.915C335.38 46.2708 329.368 43.5156 322.995 43.2352L280.057 41.3464C271.842 40.985 263.993 44.7691 259.16 51.4219L240.337 77.3293C235.503 83.9821 234.33 92.6161 237.212 100.318L252.277 140.57C254.513 146.545 258.991 151.411 264.76 154.136L308.962 175.012C315.394 178.05 322.829 178.142 329.334 175.265L361.726 160.939Z" stroke="url(#paint50_linear_168_912)"/>
<path opacity="0.753623" d="M363.406 161.266C371.555 158.128 377.418 150.888 378.794 142.263L384.294 107.787C385.418 100.745 383.417 93.5625 378.815 88.1153L348.042 51.6927C343.896 46.7851 337.988 43.7026 331.591 43.1091L289.694 39.2222C281.538 38.4656 273.545 41.8341 268.39 48.1991L248.443 72.8325C243.288 79.1974 241.655 87.717 244.091 95.5366L256.604 135.71C258.514 141.844 262.758 146.982 268.42 150.017L310.445 172.545C316.73 175.914 324.171 176.378 330.826 173.815L363.406 161.266Z" stroke="url(#paint51_linear_168_912)"/>
<path opacity="0.768116" d="M365.039 161.349C373.271 158.631 379.454 151.764 381.297 143.293L388.612 109.67C390.131 102.684 388.524 95.3835 384.211 89.6818L356.174 52.6144C352.27 47.4534 346.483 44.0464 340.076 43.1373L299.309 37.3528C291.233 36.207 283.117 39.1549 277.66 45.2161L256.666 68.5318C251.209 74.5931 249.125 82.9728 251.109 90.8841L261.123 130.823C262.697 137.1 266.69 142.499 272.231 145.842L312.026 169.852C318.147 173.545 325.576 174.38 332.365 172.139L365.039 161.349Z" stroke="url(#paint52_linear_168_912)"/>
<path opacity="0.782609" d="M366.638 161.19C374.93 158.892 381.409 152.413 383.707 144.121L392.761 111.444C394.675 104.537 393.469 97.1384 389.46 91.1973L364.138 53.6721C360.491 48.2683 354.842 44.5405 348.439 43.3139L308.884 35.7362C300.908 34.2081 292.693 36.7319 286.951 42.4745L264.992 64.4335C259.249 70.1761 256.725 78.3912 258.253 86.3674L265.831 125.922C267.058 132.325 270.785 137.974 276.189 141.621L313.714 166.943C319.655 170.952 327.054 172.158 333.961 170.244L366.638 161.19Z" stroke="url(#paint53_linear_168_912)"/>
<path opacity="0.797101" d="M368.222 160.786C376.551 158.908 383.302 152.83 386.04 144.743L396.755 113.097C399.059 106.292 398.26 98.8172 394.568 92.6527L371.932 54.8531C368.557 49.2179 363.061 45.1737 356.677 43.6283L318.41 34.3649C310.551 32.4626 302.26 34.5599 296.252 39.9701L273.409 60.538C267.4 65.9482 264.447 73.9746 265.518 81.9888L270.731 121.015C271.6 127.525 275.048 133.414 280.299 137.359L315.526 163.823C321.271 168.138 328.62 169.715 335.63 168.134L368.222 160.786Z" stroke="url(#paint54_linear_168_912)"/>
<path opacity="0.811594" d="M369.802 160.144C378.146 158.684 385.143 153.017 388.306 145.16L400.598 114.626C403.288 107.944 402.901 100.416 399.539 94.0444L379.545 56.1494C376.456 50.2949 371.13 45.9395 364.779 44.0745L327.866 33.2357C320.144 30.9681 311.8 32.6381 305.545 37.7032L281.9 56.8505C275.646 61.9156 272.277 69.7297 272.89 77.7549L275.817 116.114C276.321 122.714 279.474 128.83 284.558 133.068L317.468 160.504C323.001 165.117 330.284 167.061 337.38 165.819L369.802 160.144Z" stroke="url(#paint55_linear_168_912)"/>
<path opacity="0.826087" d="M371.394 159.264C379.73 158.218 386.948 152.974 390.519 145.369L404.3 116.022C407.37 109.485 407.399 101.926 404.38 95.3649L386.975 57.5482C384.185 51.4876 379.045 46.8266 372.741 44.642L337.243 32.3404C329.674 29.7175 321.3 30.9604 314.82 35.6689L290.455 53.3707C283.975 58.0792 280.205 65.6585 280.361 73.6676L281.09 111.23C281.22 117.901 284.064 124.23 288.967 128.755L319.554 156.995C324.861 161.894 332.059 164.202 339.225 163.303L371.394 159.264Z" stroke="url(#paint56_linear_168_912)"/>
<path opacity="0.84058" d="M373.012 158.151C381.319 157.514 388.732 152.699 392.693 145.37L407.873 117.278C411.316 110.908 411.764 103.341 409.097 96.6083L394.216 59.0378C391.739 52.7846 386.8 47.8247 380.558 45.3209L346.525 31.6709C339.126 28.7034 330.747 29.521 324.061 33.8626L299.06 50.0986C292.374 54.4402 288.219 61.763 287.921 69.729L286.548 106.372C286.297 113.093 288.819 119.622 293.524 124.428L321.794 153.304C326.859 158.478 333.954 161.147 341.174 160.593L373.012 158.151Z" stroke="url(#paint57_linear_168_912)"/>
<path opacity="0.855072" d="M374.67 156.81C382.925 156.576 390.508 152.198 394.838 145.165L411.325 118.391C415.131 112.208 416 104.656 413.697 97.7712L401.263 60.6083C399.112 54.1771 394.39 48.9254 388.224 46.1035L355.7 31.2206C348.488 27.9203 340.125 28.3155 333.256 32.2812L307.7 47.0356C300.832 51.0013 296.307 58.0468 295.56 65.9429L292.187 101.55C291.547 108.302 293.735 115.016 298.229 120.095L324.196 149.444C329.007 154.882 335.981 157.906 343.239 157.7L374.67 156.81Z" stroke="url(#paint58_linear_168_912)"/>
<path opacity="0.869565" d="M376.378 155.244C384.562 155.406 392.287 151.47 396.966 144.754L414.663 119.352C418.824 113.379 420.114 105.865 418.183 98.8468L408.112 62.2457C406.297 55.6515 401.809 50.1159 395.732 46.9775L364.755 30.9781C357.744 27.3574 349.419 27.3345 342.389 30.9166L316.362 44.1782C309.332 47.7602 304.457 54.5088 303.265 62.3084L298.001 96.7742C296.968 103.535 298.808 110.42 303.077 115.764L326.768 145.425C331.311 151.113 338.148 154.486 345.425 154.63L376.378 155.244Z" stroke="url(#paint59_linear_168_912)"/>
<path opacity="0.884058" d="M378.156 153.462C386.249 154.012 394.089 150.522 399.095 144.139L417.905 120.16C422.409 114.417 424.119 106.965 422.568 99.8331L414.764 63.9401C413.298 57.1988 409.058 51.388 403.086 47.9351L373.682 30.936C366.888 27.0083 358.624 26.5727 351.454 29.7646L325.037 41.5265C317.868 44.7184 312.662 51.1514 311.034 58.8285L303.992 92.0545C302.562 98.8033 304.043 105.842 308.072 111.443L329.523 141.259C333.786 147.184 340.468 150.9 347.749 151.395L378.156 153.462Z" stroke="url(#paint60_linear_168_912)"/>
<path opacity="0.898551" d="M380.01 151.471C387.992 152.4 395.921 149.356 401.231 143.325L421.054 120.81C425.89 115.318 428.017 107.951 426.854 100.727L421.213 65.6795C420.106 58.8077 416.129 52.7307 410.275 48.9662L382.466 31.0838C375.902 26.8631 367.72 26.0217 360.435 28.8183L333.708 39.0779C326.422 41.8745 320.905 47.9745 318.851 55.5032L310.151 87.4004C308.319 94.1154 309.43 101.292 313.206 107.139L332.464 136.96C336.434 143.107 342.945 147.158 350.213 148.004L380.01 151.471Z" stroke="url(#paint61_linear_168_912)"/>
<path opacity="0.913043" d="M381.957 149.277C389.808 150.574 397.8 147.978 403.389 142.314L424.125 121.3C429.279 116.077 431.821 108.82 431.051 101.523L427.459 67.4506C426.723 60.4654 423.024 54.1322 417.302 50.0592L391.101 31.4095C384.78 26.9104 376.701 25.6711 369.322 28.0687L342.366 36.8274C334.987 39.225 329.18 44.9759 326.71 52.3311L316.475 82.8197C314.24 89.4784 314.97 96.7763 318.48 102.86L335.601 132.536C339.268 138.892 345.59 143.27 352.829 144.465L381.957 149.277Z" stroke="url(#paint62_linear_168_912)"/>
<path opacity="0.927536" d="M384.004 146.892C391.707 148.545 399.735 146.394 405.579 141.111L427.127 121.628C432.584 116.694 435.536 109.569 435.165 102.221L433.502 69.2436C433.145 62.1629 429.739 55.5841 424.162 51.2062L399.575 31.9041C393.508 27.1419 385.554 25.514 378.105 27.51L350.997 34.7735C343.548 36.7696 337.473 42.1566 334.601 49.3138L322.959 78.3236C320.318 84.9032 320.657 92.3041 323.888 98.6146L338.937 128.005C342.29 134.554 348.408 139.249 355.602 140.793L384.004 146.892Z" stroke="url(#paint63_linear_168_912)"/>
<path opacity="0.942029" d="M386.162 144.319C393.699 146.318 401.737 144.609 407.81 139.718L430.069 121.79C435.814 117.163 439.168 110.193 439.2 102.816L439.339 71.0432C439.37 63.8854 436.27 57.072 430.853 52.3936L407.878 32.5523C402.078 27.543 394.267 25.5366 386.771 27.1301L359.589 32.9078C352.092 34.5012 345.773 39.5109 342.512 46.4463L329.593 73.917C326.547 80.3943 326.486 87.8798 329.426 94.4059L342.476 123.376C345.506 130.102 351.405 135.104 358.536 136.995L386.162 144.319Z" stroke="url(#paint64_linear_168_912)"/>
<path opacity="0.956522" d="M388.443 141.573C395.798 143.903 403.82 142.632 410.094 138.144L432.963 121.787C438.979 117.484 442.729 110.693 443.166 103.31L444.973 72.84C445.401 65.6243 442.62 58.588 437.376 53.6137L416.005 33.3447C410.48 28.1047 402.833 25.7313 395.313 26.9225L368.132 31.2275C360.611 32.4187 354.072 37.0389 350.437 43.7297L336.375 69.6106C332.925 75.9621 332.455 83.5132 335.091 90.2435L346.225 118.664C348.923 125.551 354.588 130.85 361.639 133.083L388.443 141.573Z" stroke="url(#paint65_linear_168_912)"/>
<path opacity="0.971014" d="M390.855 138.662C398.012 141.309 405.992 140.47 412.442 136.393L435.819 121.618C442.088 117.656 446.225 111.067 447.07 103.699L450.404 74.6212C451.236 67.3672 448.789 60.1203 443.73 54.8554L423.949 34.2676C418.709 28.8138 411.243 26.086 403.721 26.8766L376.616 29.7255C369.094 30.5161 362.359 34.7364 358.367 41.1606L343.298 65.4113C339.444 71.613 338.558 79.2102 340.879 86.1327L350.186 113.882C352.545 120.913 357.961 126.498 364.917 129.07L390.855 138.662Z" stroke="url(#paint66_linear_168_912)"/>
<path opacity="0.985507" d="M393.407 135.597C400.35 138.545 408.266 138.13 414.863 134.472L438.648 121.284C445.152 117.678 449.665 111.313 450.918 103.983L455.635 76.3749C456.877 69.1031 454.777 61.6584 449.917 56.1083L431.703 35.3083C426.755 29.6579 419.489 26.5892 411.989 26.9822L385.029 28.3951C377.529 28.7882 370.624 32.5997 366.293 38.7363L350.354 61.3262C346.1 67.3539 344.789 74.9773 346.785 82.0795L354.362 109.044C356.374 116.202 361.528 122.06 368.373 124.967L393.407 135.597Z" stroke="url(#paint67_linear_168_912)"/>
<path d="M396.104 132.388C402.822 135.623 410.647 135.623 417.365 132.388L441.46 120.784C448.177 117.549 453.056 111.431 454.715 104.162L460.666 78.0894C462.325 70.8204 460.584 63.1914 455.935 57.3622L439.261 36.4533C434.612 30.624 427.562 27.2288 420.106 27.2288L393.363 27.2288C385.907 27.2288 378.857 30.624 374.208 36.4533L357.534 57.3622C352.885 63.1915 351.144 70.8204 352.803 78.0894L358.754 104.162C360.413 111.431 365.292 117.549 372.009 120.784L396.104 132.388Z" stroke="url(#paint68_linear_168_912)"/>
</g>
<defs>
<linearGradient id="paint0_linear_168_912" x1="-22.0858" y1="51.1757" x2="101.541" y2="328.846" gradientUnits="userSpaceOnUse">
<stop stop-color="#4D69D3"/>
<stop offset="1" stop-color="#55BDD5"/>
</linearGradient>
<linearGradient id="paint1_linear_168_912" x1="-9.10689" y1="47.8961" x2="98.8571" y2="329.152" gradientUnits="userSpaceOnUse">
<stop stop-color="#4D69D3"/>
<stop offset="1" stop-color="#55BDD5"/>
</linearGradient>
<linearGradient id="paint2_linear_168_912" x1="3.88774" y1="45.0364" x2="96.1549" y2="329.005" gradientUnits="userSpaceOnUse">
<stop stop-color="#4D69D3"/>
<stop offset="1" stop-color="#55BDD5"/>
</linearGradient>
<linearGradient id="paint3_linear_168_912" x1="16.8761" y1="42.595" x2="93.4607" y2="328.413" gradientUnits="userSpaceOnUse">
<stop stop-color="#4D69D3"/>
<stop offset="1" stop-color="#55BDD5"/>
</linearGradient>
<linearGradient id="paint4_linear_168_912" x1="29.8335" y1="40.5648" x2="90.7968" y2="327.375" gradientUnits="userSpaceOnUse">
<stop stop-color="#4D69D3"/>
<stop offset="1" stop-color="#55BDD5"/>
</linearGradient>
<linearGradient id="paint5_linear_168_912" x1="42.7412" y1="38.9416" x2="88.1908" y2="325.899" gradientUnits="userSpaceOnUse">
<stop stop-color="#4D69D3"/>
<stop offset="1" stop-color="#55BDD5"/>
</linearGradient>
<linearGradient id="paint6_linear_168_912" x1="55.574" y1="37.7199" x2="85.6628" y2="323.995" gradientUnits="userSpaceOnUse">
<stop stop-color="#4D69D3"/>
<stop offset="1" stop-color="#55BDD5"/>
</linearGradient>
<linearGradient id="paint7_linear_168_912" x1="68.311" y1="36.8904" x2="83.2356" y2="321.669" gradientUnits="userSpaceOnUse">
<stop stop-color="#4D69D3"/>
<stop offset="1" stop-color="#55BDD5"/>
</linearGradient>
<linearGradient id="paint8_linear_168_912" x1="80.9341" y1="36.4429" x2="80.9341" y2="318.93" gradientUnits="userSpaceOnUse">
<stop stop-color="#4D69D3"/>
<stop offset="1" stop-color="#55BDD5"/>
</linearGradient>
<linearGradient id="paint9_linear_168_912" x1="93.421" y1="36.3693" x2="78.7772" y2="315.79" gradientUnits="userSpaceOnUse">
<stop stop-color="#4D69D3"/>
<stop offset="1" stop-color="#55BDD5"/>
</linearGradient>
<linearGradient id="paint10_linear_168_912" x1="105.755" y1="36.6574" x2="76.7883" y2="312.261" gradientUnits="userSpaceOnUse">
<stop stop-color="#4D69D3"/>
<stop offset="1" stop-color="#55BDD5"/>
</linearGradient>
<linearGradient id="paint11_linear_168_912" x1="117.915" y1="37.2948" x2="74.9836" y2="308.355" gradientUnits="userSpaceOnUse">
<stop stop-color="#4D69D3"/>
<stop offset="1" stop-color="#55BDD5"/>
</linearGradient>
<linearGradient id="paint12_linear_168_912" x1="129.884" y1="38.2705" x2="73.3829" y2="304.088" gradientUnits="userSpaceOnUse">
<stop stop-color="#4D69D3"/>
<stop offset="1" stop-color="#55BDD5"/>
</linearGradient>
<linearGradient id="paint13_linear_168_912" x1="141.649" y1="39.5687" x2="72.0074" y2="299.473" gradientUnits="userSpaceOnUse">
<stop stop-color="#4D69D3"/>
<stop offset="1" stop-color="#55BDD5"/>
</linearGradient>
<linearGradient id="paint14_linear_168_912" x1="153.185" y1="41.1752" x2="70.8661" y2="294.528" gradientUnits="userSpaceOnUse">
<stop stop-color="#4D69D3"/>
<stop offset="1" stop-color="#55BDD5"/>
</linearGradient>
<linearGradient id="paint15_linear_168_912" x1="164.488" y1="43.074" x2="69.9838" y2="289.267" gradientUnits="userSpaceOnUse">
<stop stop-color="#4D69D3"/>
<stop offset="1" stop-color="#55BDD5"/>
</linearGradient>
<linearGradient id="paint16_linear_168_912" x1="175.541" y1="45.2499" x2="69.3721" y2="283.708" gradientUnits="userSpaceOnUse">
<stop stop-color="#4D69D3"/>
<stop offset="1" stop-color="#55BDD5"/>
</linearGradient>
<linearGradient id="paint17_linear_168_912" x1="186.328" y1="47.6857" x2="69.0429" y2="277.871" gradientUnits="userSpaceOnUse">
<stop stop-color="#4D69D3"/>
<stop offset="1" stop-color="#55BDD5"/>
</linearGradient>
<linearGradient id="paint18_linear_168_912" x1="196.839" y1="50.3643" x2="69.0092" y2="271.772" gradientUnits="userSpaceOnUse">
<stop stop-color="#4D69D3"/>
<stop offset="1" stop-color="#55BDD5"/>
</linearGradient>
<linearGradient id="paint19_linear_168_912" x1="207.066" y1="53.2675" x2="69.2843" y2="265.432" gradientUnits="userSpaceOnUse">
<stop stop-color="#4D69D3"/>
<stop offset="1" stop-color="#55BDD5"/>
</linearGradient>
<linearGradient id="paint20_linear_168_912" x1="216.995" y1="56.377" x2="69.8761" y2="258.87" gradientUnits="userSpaceOnUse">
<stop stop-color="#4D69D3"/>
<stop offset="1" stop-color="#55BDD5"/>
</linearGradient>
<linearGradient id="paint21_linear_168_912" x1="226.622" y1="59.6749" x2="70.7954" y2="252.105" gradientUnits="userSpaceOnUse">
<stop stop-color="#4D69D3"/>
<stop offset="1" stop-color="#55BDD5"/>
</linearGradient>
<linearGradient id="paint22_linear_168_912" x1="235.937" y1="63.1417" x2="72.0473" y2="245.159" gradientUnits="userSpaceOnUse">
<stop stop-color="#4D69D3"/>
<stop offset="1" stop-color="#55BDD5"/>
</linearGradient>
<linearGradient id="paint23_linear_168_912" x1="244.935" y1="66.7578" x2="73.6405" y2="238.052" gradientUnits="userSpaceOnUse">
<stop stop-color="#4D69D3"/>
<stop offset="1" stop-color="#55BDD5"/>
</linearGradient>
<linearGradient id="paint24_linear_168_912" x1="253.613" y1="70.5063" x2="75.5825" y2="230.806" gradientUnits="userSpaceOnUse">
<stop stop-color="#4D69D3"/>
<stop offset="1" stop-color="#55BDD5"/>
</linearGradient>
<linearGradient id="paint25_linear_168_912" x1="261.963" y1="74.3639" x2="77.8719" y2="223.438" gradientUnits="userSpaceOnUse">
<stop stop-color="#4D69D3"/>
<stop offset="1" stop-color="#55BDD5"/>
</linearGradient>
<linearGradient id="paint26_linear_168_912" x1="269.985" y1="78.3139" x2="80.5151" y2="215.972" gradientUnits="userSpaceOnUse">
<stop stop-color="#4D69D3"/>
<stop offset="1" stop-color="#55BDD5"/>
</linearGradient>
<linearGradient id="paint27_linear_168_912" x1="277.677" y1="82.336" x2="83.5122" y2="208.429" gradientUnits="userSpaceOnUse">
<stop stop-color="#4D69D3"/>
<stop offset="1" stop-color="#55BDD5"/>
</linearGradient>
<linearGradient id="paint28_linear_168_912" x1="285.042" y1="86.4114" x2="86.8667" y2="200.828" gradientUnits="userSpaceOnUse">
<stop stop-color="#4D69D3"/>
<stop offset="1" stop-color="#55BDD5"/>
</linearGradient>
<linearGradient id="paint29_linear_168_912" x1="292.074" y1="90.5208" x2="90.5729" y2="193.191" gradientUnits="userSpaceOnUse">
<stop stop-color="#4D69D3"/>
<stop offset="1" stop-color="#55BDD5"/>
</linearGradient>
<linearGradient id="paint30_linear_168_912" x1="298.779" y1="94.6454" x2="94.6308" y2="185.538" gradientUnits="userSpaceOnUse">
<stop stop-color="#4D69D3"/>
<stop offset="1" stop-color="#55BDD5"/>
</linearGradient>
<linearGradient id="paint31_linear_168_912" x1="305.159" y1="98.7671" x2="99.0389" y2="177.889" gradientUnits="userSpaceOnUse">
<stop stop-color="#4D69D3"/>
<stop offset="1" stop-color="#55BDD5"/>
</linearGradient>
<linearGradient id="paint32_linear_168_912" x1="311.219" y1="102.865" x2="103.792" y2="170.263" gradientUnits="userSpaceOnUse">
<stop stop-color="#4D69D3"/>
<stop offset="1" stop-color="#55BDD5"/>
</linearGradient>
<linearGradient id="paint33_linear_168_912" x1="316.964" y1="106.926" x2="108.885" y2="162.68" gradientUnits="userSpaceOnUse">
<stop stop-color="#4D69D3"/>
<stop offset="1" stop-color="#55BDD5"/>
</linearGradient>
<linearGradient id="paint34_linear_168_912" x1="322.398" y1="110.928" x2="114.31" y2="155.158" gradientUnits="userSpaceOnUse">
<stop stop-color="#4D69D3"/>
<stop offset="1" stop-color="#55BDD5"/>
</linearGradient>
<linearGradient id="paint35_linear_168_912" x1="327.53" y1="114.856" x2="120.062" y2="147.716" gradientUnits="userSpaceOnUse">
<stop stop-color="#4D69D3"/>
<stop offset="1" stop-color="#55BDD5"/>
</linearGradient>
<linearGradient id="paint36_linear_168_912" x1="332.365" y1="118.694" x2="126.13" y2="140.37" gradientUnits="userSpaceOnUse">
<stop stop-color="#4D69D3"/>
<stop offset="1" stop-color="#55BDD5"/>
</linearGradient>
<linearGradient id="paint37_linear_168_912" x1="336.914" y1="122.427" x2="132.506" y2="133.14" gradientUnits="userSpaceOnUse">
<stop stop-color="#4D69D3"/>
<stop offset="1" stop-color="#55BDD5"/>
</linearGradient>
<linearGradient id="paint38_linear_168_912" x1="341.188" y1="126.038" x2="139.182" y2="126.038" gradientUnits="userSpaceOnUse">
<stop stop-color="#4D69D3"/>
<stop offset="1" stop-color="#55BDD5"/>
</linearGradient>
<linearGradient id="paint39_linear_168_912" x1="345.194" y1="129.514" x2="146.144" y2="119.082" gradientUnits="userSpaceOnUse">
<stop stop-color="#4D69D3"/>
<stop offset="1" stop-color="#55BDD5"/>
</linearGradient>
<linearGradient id="paint40_linear_168_912" x1="348.942" y1="132.842" x2="153.379" y2="112.287" gradientUnits="userSpaceOnUse">
<stop stop-color="#4D69D3"/>
<stop offset="1" stop-color="#55BDD5"/>
</linearGradient>
<linearGradient id="paint41_linear_168_912" x1="352.447" y1="136.007" x2="160.877" y2="105.665" gradientUnits="userSpaceOnUse">
<stop stop-color="#4D69D3"/>
<stop offset="1" stop-color="#55BDD5"/>
</linearGradient>
<linearGradient id="paint42_linear_168_912" x1="355.721" y1="138.998" x2="168.626" y2="99.2295" gradientUnits="userSpaceOnUse">
<stop stop-color="#4D69D3"/>
<stop offset="1" stop-color="#55BDD5"/>
</linearGradient>
<linearGradient id="paint43_linear_168_912" x1="358.775" y1="141.804" x2="176.608" y2="92.9929" gradientUnits="userSpaceOnUse">
<stop stop-color="#4D69D3"/>
<stop offset="1" stop-color="#55BDD5"/>
</linearGradient>
<linearGradient id="paint44_linear_168_912" x1="361.625" y1="144.415" x2="184.814" y2="86.966" gradientUnits="userSpaceOnUse">
<stop stop-color="#4D69D3"/>
<stop offset="1" stop-color="#55BDD5"/>
</linearGradient>
<linearGradient id="paint45_linear_168_912" x1="364.283" y1="146.823" x2="193.226" y2="81.1599" gradientUnits="userSpaceOnUse">
<stop stop-color="#4D69D3"/>
<stop offset="1" stop-color="#55BDD5"/>
</linearGradient>
<linearGradient id="paint46_linear_168_912" x1="366.763" y1="149.017" x2="201.827" y2="75.5828" gradientUnits="userSpaceOnUse">
<stop stop-color="#4D69D3"/>
<stop offset="1" stop-color="#55BDD5"/>
</linearGradient>
<linearGradient id="paint47_linear_168_912" x1="369.079" y1="150.989" x2="210.602" y2="70.2415" gradientUnits="userSpaceOnUse">
<stop stop-color="#4D69D3"/>
<stop offset="1" stop-color="#55BDD5"/>
</linearGradient>
<linearGradient id="paint48_linear_168_912" x1="371.247" y1="152.735" x2="219.537" y2="65.1457" gradientUnits="userSpaceOnUse">
<stop stop-color="#4D69D3"/>
<stop offset="1" stop-color="#55BDD5"/>
</linearGradient>
<linearGradient id="paint49_linear_168_912" x1="373.284" y1="154.249" x2="228.616" y2="60.3005" gradientUnits="userSpaceOnUse">
<stop stop-color="#4D69D3"/>
<stop offset="1" stop-color="#55BDD5"/>
</linearGradient>
<linearGradient id="paint50_linear_168_912" x1="375.204" y1="155.524" x2="237.821" y2="55.7103" gradientUnits="userSpaceOnUse">
<stop stop-color="#4D69D3"/>
<stop offset="1" stop-color="#55BDD5"/>
</linearGradient>
<linearGradient id="paint51_linear_168_912" x1="377.02" y1="156.559" x2="247.134" y2="51.3797" gradientUnits="userSpaceOnUse">
<stop stop-color="#4D69D3"/>
<stop offset="1" stop-color="#55BDD5"/>
</linearGradient>
<linearGradient id="paint52_linear_168_912" x1="378.751" y1="157.348" x2="256.542" y2="47.3105" gradientUnits="userSpaceOnUse">
<stop stop-color="#4D69D3"/>
<stop offset="1" stop-color="#55BDD5"/>
</linearGradient>
<linearGradient id="paint53_linear_168_912" x1="380.41" y1="157.893" x2="266.024" y2="43.5068" gradientUnits="userSpaceOnUse">
<stop stop-color="#4D69D3"/>
<stop offset="1" stop-color="#55BDD5"/>
</linearGradient>
<linearGradient id="paint54_linear_168_912" x1="382.015" y1="158.189" x2="275.568" y2="39.9672" gradientUnits="userSpaceOnUse">
<stop stop-color="#4D69D3"/>
<stop offset="1" stop-color="#55BDD5"/>
</linearGradient>
<linearGradient id="paint55_linear_168_912" x1="383.579" y1="158.24" x2="285.153" y2="36.6942" gradientUnits="userSpaceOnUse">
<stop stop-color="#4D69D3"/>
<stop offset="1" stop-color="#55BDD5"/>
</linearGradient>
<linearGradient id="paint56_linear_168_912" x1="385.119" y1="158.045" x2="294.766" y2="33.6852" gradientUnits="userSpaceOnUse">
<stop stop-color="#4D69D3"/>
<stop offset="1" stop-color="#55BDD5"/>
</linearGradient>
<linearGradient id="paint57_linear_168_912" x1="386.649" y1="157.606" x2="304.389" y2="30.9375" gradientUnits="userSpaceOnUse">
<stop stop-color="#4D69D3"/>
<stop offset="1" stop-color="#55BDD5"/>
</linearGradient>
<linearGradient id="paint58_linear_168_912" x1="388.183" y1="156.927" x2="314.007" y2="28.45" gradientUnits="userSpaceOnUse">
<stop stop-color="#4D69D3"/>
<stop offset="1" stop-color="#55BDD5"/>
</linearGradient>
<linearGradient id="paint59_linear_168_912" x1="389.734" y1="156.009" x2="323.602" y2="26.2161" gradientUnits="userSpaceOnUse">
<stop stop-color="#4D69D3"/>
<stop offset="1" stop-color="#55BDD5"/>
</linearGradient>
<linearGradient id="paint60_linear_168_912" x1="391.323" y1="154.858" x2="333.165" y2="24.2332" gradientUnits="userSpaceOnUse">
<stop stop-color="#4D69D3"/>
<stop offset="1" stop-color="#55BDD5"/>
</linearGradient>
<linearGradient id="paint61_linear_168_912" x1="392.956" y1="153.481" x2="342.675" y2="22.4955" gradientUnits="userSpaceOnUse">
<stop stop-color="#4D69D3"/>
<stop offset="1" stop-color="#55BDD5"/>
</linearGradient>
<linearGradient id="paint62_linear_168_912" x1="394.65" y1="151.881" x2="352.123" y2="20.9951" gradientUnits="userSpaceOnUse">
<stop stop-color="#4D69D3"/>
<stop offset="1" stop-color="#55BDD5"/>
</linearGradient>
<linearGradient id="paint63_linear_168_912" x1="396.417" y1="150.068" x2="361.492" y2="19.727" gradientUnits="userSpaceOnUse">
<stop stop-color="#4D69D3"/>
<stop offset="1" stop-color="#55BDD5"/>
</linearGradient>
<linearGradient id="paint64_linear_168_912" x1="398.267" y1="148.046" x2="370.769" y2="18.6799" gradientUnits="userSpaceOnUse">
<stop stop-color="#4D69D3"/>
<stop offset="1" stop-color="#55BDD5"/>
</linearGradient>
<linearGradient id="paint65_linear_168_912" x1="400.214" y1="145.826" x2="379.944" y2="17.8476" gradientUnits="userSpaceOnUse">
<stop stop-color="#4D69D3"/>
<stop offset="1" stop-color="#55BDD5"/>
</linearGradient>
<linearGradient id="paint66_linear_168_912" x1="402.267" y1="143.416" x2="389.004" y2="17.2197" gradientUnits="userSpaceOnUse">
<stop stop-color="#4D69D3"/>
<stop offset="1" stop-color="#55BDD5"/>
</linearGradient>
<linearGradient id="paint67_linear_168_912" x1="404.438" y1="140.824" x2="397.938" y2="16.7862" gradientUnits="userSpaceOnUse">
<stop stop-color="#4D69D3"/>
<stop offset="1" stop-color="#55BDD5"/>
</linearGradient>
<linearGradient id="paint68_linear_168_912" x1="406.735" y1="138.062" x2="406.735" y2="16.5364" gradientUnits="userSpaceOnUse">
<stop stop-color="#4D69D3"/>
<stop offset="1" stop-color="#55BDD5"/>
</linearGradient>
</defs>
</svg>
