<svg width="1440" height="1218" viewBox="0 0 1440 1218" fill="none" xmlns="http://www.w3.org/2000/svg">
<g opacity="0.06">
<path opacity="0.010101" d="M528.898 213.763L958.433 82.4408C966.098 80.0975 974.399 82.956 978.997 89.5213L1236.63 457.453C1241.22 464.018 1241.07 472.797 1236.25 479.198L965.933 837.914C961.11 844.315 952.714 846.882 945.136 844.273L520.445 698.04C512.867 695.431 507.831 688.239 507.97 680.225L515.809 231.132C515.949 223.118 521.233 216.106 528.898 213.763Z" stroke="url(#paint0_linear_292_69)" stroke-width="3"/>
<path opacity="0.020202" d="M529.654 206.738L960.577 83.1729C968.281 80.9638 976.531 83.9667 981.013 90.6112L1231.69 462.26C1236.18 468.904 1235.87 477.679 1230.93 483.995L954.94 837.251C950.006 843.567 941.566 845.987 934.034 843.246L512.78 689.922C505.249 687.181 500.339 679.902 500.619 671.892L516.264 223.876C516.544 215.866 521.949 208.947 529.654 206.738Z" stroke="url(#paint1_linear_292_69)" stroke-width="3"/>
<path opacity="0.030303" d="M530.484 199.809L962.655 84.0093C970.397 81.935 978.594 85.0814 982.959 91.8031L1226.64 467.038C1231 473.76 1230.55 482.528 1225.5 488.756L943.933 836.464C938.889 842.693 930.408 844.965 922.926 842.093L505.227 681.753C497.744 678.881 492.962 671.518 493.382 663.514L516.798 216.711C517.217 208.707 522.743 201.884 530.484 199.809Z" stroke="url(#paint2_linear_292_69)" stroke-width="3"/>
<path opacity="0.040404" d="M531.391 192.982L964.671 84.9534C972.448 83.0145 980.588 86.3035 984.835 93.1004L1221.47 471.791C1225.71 478.588 1225.1 487.347 1219.95 493.486L932.918 835.559C927.766 841.698 919.247 843.822 911.816 840.82L497.787 673.542C490.356 670.539 485.704 663.093 486.263 655.098L517.412 209.642C517.971 201.647 523.615 194.921 531.391 192.982Z" stroke="url(#paint3_linear_292_69)" stroke-width="3"/>
<path opacity="0.050505" d="M532.372 186.255L966.621 86.0007C974.43 84.1978 982.512 87.6284 986.64 94.4983L1216.18 476.513C1220.31 483.383 1219.54 492.13 1214.28 498.178L921.895 834.531C916.637 840.579 908.082 842.555 900.705 839.423L490.462 665.285C483.085 662.154 478.563 654.628 479.261 646.644L518.104 202.668C518.802 194.684 524.563 188.058 532.372 186.255Z" stroke="url(#paint4_linear_292_69)" stroke-width="3"/>
<path opacity="0.0606061" d="M533.424 179.624L968.503 87.1448C976.343 85.4784 984.364 89.0496 988.371 95.9905L1210.77 481.197C1214.78 488.138 1213.86 496.87 1208.5 502.826L910.869 833.376C905.506 839.332 896.918 841.157 889.596 837.898L483.252 656.982C475.93 653.722 471.54 646.118 472.378 638.147L518.872 195.786C519.71 187.815 525.585 181.29 533.424 179.624Z" stroke="url(#paint5_linear_292_69)" stroke-width="3"/>
<path opacity="0.0707071" d="M534.545 173.099L970.315 88.3939C978.182 86.8646 986.139 90.5752 990.025 97.585L1205.24 485.851C1209.13 492.861 1208.06 501.576 1202.59 507.437L899.837 832.104C894.371 837.966 885.753 839.641 878.489 836.254L476.156 648.643C468.892 645.255 464.635 637.576 465.612 629.621L519.713 189.004C520.69 181.049 526.678 174.628 534.545 173.099Z" stroke="url(#paint6_linear_292_69)" stroke-width="3"/>
<path opacity="0.0808081" d="M535.733 166.674L972.056 89.7386C979.948 88.3468 987.84 92.1957 991.603 99.2723L1199.6 490.465C1203.37 497.542 1202.14 506.236 1196.58 512.001L888.806 830.707C883.239 836.472 874.592 837.997 867.388 834.484L469.175 640.262C461.971 636.749 457.849 628.996 458.965 621.06L520.626 182.318C521.741 174.381 527.84 168.066 535.733 166.674Z" stroke="url(#paint7_linear_292_69)" stroke-width="3"/>
<path opacity="0.0909091" d="M536.988 160.355L973.725 91.1831C981.641 89.9294 989.464 93.9154 993.103 101.057L1193.85 495.042C1197.49 502.183 1196.11 510.855 1190.45 516.523L877.777 829.191C872.11 834.859 863.438 836.232 856.297 832.593L462.311 631.848C455.17 628.209 451.184 620.386 452.438 612.47L521.61 175.734C522.864 167.818 529.072 161.609 536.988 160.355Z" stroke="url(#paint8_linear_292_69)" stroke-width="3"/>
<path opacity="0.10101" d="M538.307 154.14L975.32 92.7221C983.257 91.6067 991.009 95.7286 994.523 102.932L1187.98 499.577C1191.49 506.781 1189.97 515.427 1184.2 520.995L866.753 827.553C860.987 833.12 852.293 834.342 845.216 830.58L455.564 623.398C448.488 619.635 444.639 611.744 446.031 603.851L522.663 169.248C524.055 161.355 530.371 155.256 538.307 154.14Z" stroke="url(#paint9_linear_292_69)" stroke-width="3"/>
<path opacity="0.111111" d="M539.685 148.03L976.837 94.3548C984.792 93.3781 992.471 97.6347 995.859 104.898L1181.99 504.068C1185.38 511.332 1183.71 519.951 1177.84 525.417L855.731 825.793C849.869 831.259 841.155 832.329 834.145 828.443L448.932 614.916C441.922 611.03 438.211 603.073 439.741 595.206L523.779 162.863C525.309 154.995 531.73 149.007 539.685 148.03Z" stroke="url(#paint10_linear_292_69)" stroke-width="3"/>
<path opacity="0.121212" d="M541.125 142.029L978.28 96.0818C986.251 95.2441 993.854 99.6341 997.114 106.956L1175.9 508.516C1179.16 515.838 1177.33 524.426 1171.38 529.789L844.72 823.914C838.764 829.276 830.032 830.194 823.091 826.187L442.419 606.406C435.478 602.398 431.907 594.377 433.573 586.538L524.963 156.581C526.63 148.741 533.155 142.866 541.125 142.029Z" stroke="url(#paint11_linear_292_69)" stroke-width="3"/>
<path opacity="0.131313" d="M542.622 136.135L979.642 97.9003C987.626 97.2018 995.152 101.724 998.284 109.101L1169.69 512.918C1172.83 520.295 1170.85 528.85 1164.8 534.108L833.718 821.915C827.669 827.173 818.923 827.938 812.053 823.81L436.022 597.868C429.152 593.74 425.722 585.658 427.525 577.849L526.208 150.403C528.011 142.593 534.638 136.833 542.622 136.135Z" stroke="url(#paint12_linear_292_69)" stroke-width="3"/>
<path opacity="0.141414" d="M544.173 130.348L980.924 99.8069C988.919 99.2479 996.365 103.901 999.367 111.332L1163.38 517.269C1166.38 524.7 1164.25 533.219 1158.12 538.371L822.728 819.794C816.588 824.946 807.829 825.558 801.033 821.311L429.743 589.303C422.946 585.056 419.657 576.916 421.596 569.139L527.513 144.327C529.452 136.55 536.178 130.907 544.173 130.348Z" stroke="url(#paint13_linear_292_69)" stroke-width="3"/>
<path opacity="0.151515" d="M545.781 124.672L982.126 101.804C990.13 101.385 997.494 106.166 1000.37 113.649L1156.95 521.572C1159.82 529.054 1157.55 537.535 1151.32 542.579L811.754 817.557C805.526 822.6 796.758 823.06 790.036 818.695L423.584 580.718C416.862 576.353 413.715 568.156 415.79 560.414L528.879 138.358C530.954 130.617 537.777 125.091 545.781 124.672Z" stroke="url(#paint14_linear_292_69)" stroke-width="3"/>
<path opacity="0.161616" d="M547.437 119.104L983.243 103.885C991.253 103.605 998.532 108.515 1001.27 116.046L1150.42 525.82C1153.16 533.351 1150.74 541.791 1144.42 546.725L800.794 815.198C794.479 820.132 785.704 820.439 779.06 815.957L417.54 572.109C410.895 567.627 407.892 559.376 410.101 551.672L530.299 132.493C532.508 124.789 539.427 119.383 547.437 119.104Z" stroke="url(#paint15_linear_292_69)" stroke-width="3"/>
<path opacity="0.171717" d="M549.143 113.647L984.276 106.052C992.29 105.912 999.482 110.948 1002.09 118.526L1143.78 530.015C1146.39 537.593 1143.82 545.99 1137.42 550.813L789.854 812.722C783.453 817.546 774.675 817.699 768.11 813.102L411.615 563.482C405.05 558.885 402.192 550.583 404.535 542.919L531.775 126.736C534.118 119.071 541.13 113.787 549.143 113.647Z" stroke="url(#paint16_linear_292_69)" stroke-width="3"/>
<path opacity="0.181818" d="M550.897 108.304L985.224 108.304C993.238 108.304 1000.34 113.465 1002.82 121.087L1137.03 534.156C1139.51 541.779 1136.8 550.129 1130.31 554.84L778.934 810.13C772.45 814.841 763.67 814.841 757.186 810.13L405.809 554.84C399.325 550.129 396.612 541.779 399.088 534.156L533.303 121.087C535.779 113.465 542.883 108.304 550.897 108.304Z" stroke="url(#paint17_linear_292_69)" stroke-width="3"/>
<path opacity="0.191919" d="M552.695 103.069L986.083 110.634C994.096 110.774 1001.11 116.058 1003.45 123.722L1130.18 538.236C1132.52 545.901 1129.67 554.202 1123.1 558.8L768.036 807.418C761.471 812.015 752.692 811.862 746.292 807.039L400.12 546.18C393.719 541.356 391.152 532.96 393.762 525.382L534.88 115.544C537.49 107.965 544.682 102.929 552.695 103.069Z" stroke="url(#paint18_linear_292_69)" stroke-width="3"/>
<path opacity="0.20202" d="M554.539 97.9481L986.856 113.045C994.866 113.325 1001.79 118.73 1003.99 126.434L1123.23 542.258C1125.44 549.962 1122.44 558.213 1115.79 562.695L757.165 804.591C750.521 809.073 741.746 808.766 735.431 803.832L394.552 537.508C388.236 532.574 385.816 524.134 388.557 516.603L536.509 110.109C539.25 102.578 546.529 97.6684 554.539 97.9481Z" stroke="url(#paint19_linear_292_69)" stroke-width="3"/>
<path opacity="0.212121" d="M556.421 92.941L987.537 115.535C995.541 115.954 1002.36 121.48 1004.44 129.221L1116.17 546.22C1118.25 553.961 1115.1 562.158 1108.38 566.523L746.318 801.649C739.597 806.014 730.829 805.554 724.6 800.51L389.1 528.827C382.871 523.784 380.599 515.303 383.471 507.82L538.181 104.786C541.053 97.3034 548.417 92.5215 556.421 92.941Z" stroke="url(#paint20_linear_292_69)" stroke-width="3"/>
<path opacity="0.222222" d="M558.343 88.0468L988.129 118.1C996.125 118.659 1002.85 124.303 1004.79 132.08L1109.02 550.118C1110.96 557.894 1107.67 566.035 1100.87 570.282L735.502 798.59C728.705 802.838 719.946 802.225 713.806 797.073L383.767 520.138C377.627 514.986 375.503 506.467 378.506 499.035L539.9 99.5715C542.902 92.1404 550.348 87.4877 558.343 88.0468Z" stroke="url(#paint21_linear_292_69)" stroke-width="3"/>
<path opacity="0.232323" d="M560.302 83.2672L988.629 120.741C996.613 121.439 1003.24 127.2 1005.04 135.009L1101.76 553.952C1103.57 561.761 1100.13 569.843 1093.27 573.971L724.715 795.419C717.845 799.547 709.098 798.781 703.049 793.523L378.552 511.442C372.503 506.184 370.528 497.629 373.66 490.251L541.66 94.4683C544.791 87.0907 552.317 82.5687 560.302 83.2672Z" stroke="url(#paint22_linear_292_69)" stroke-width="3"/>
<path opacity="0.242424" d="M562.295 78.601L989.035 123.453C997.005 124.291 1003.53 130.166 1005.2 138.005L1094.41 557.719C1096.08 565.559 1092.5 573.58 1085.56 577.587L713.96 792.132C707.02 796.14 698.288 795.222 692.332 789.859L373.455 502.742C367.499 497.379 365.674 488.79 368.934 481.469L543.46 89.4751C546.72 82.1533 554.324 77.7633 562.295 78.601Z" stroke="url(#paint23_linear_292_69)" stroke-width="3"/>
<path opacity="0.252525" d="M564.322 74.0519L989.348 126.239C997.303 127.215 1003.72 133.203 1005.25 141.071L1086.96 561.421C1088.49 569.288 1084.78 577.246 1077.77 581.131L703.242 788.735C696.233 792.621 687.518 791.551 681.656 786.085L368.478 494.041C362.616 488.575 360.941 479.956 364.328 472.693L545.301 84.5956C548.688 77.3318 556.367 73.0752 564.322 74.0519Z" stroke="url(#paint24_linear_292_69)" stroke-width="3"/>
<path opacity="0.262626" d="M566.377 69.6147L989.563 129.09C997.5 130.205 1003.82 136.304 1005.21 144.197L1079.42 565.05C1080.81 572.943 1076.96 580.834 1069.88 584.597L692.558 785.223C685.482 788.986 676.787 787.764 671.022 782.197L363.616 485.338C357.85 479.77 356.326 471.124 359.839 463.92L547.175 79.8248C550.688 72.6212 558.44 68.4993 566.377 69.6147Z" stroke="url(#paint25_linear_292_69)" stroke-width="3"/>
<path opacity="0.272727" d="M568.463 65.295L989.685 132.01C997.601 133.264 1003.81 139.472 1005.06 147.388L1071.78 568.61C1073.03 576.526 1069.05 584.349 1061.9 587.988L681.915 781.602C674.774 785.241 666.102 783.867 660.434 778.2L358.873 476.638C353.206 470.971 351.832 462.299 355.471 455.158L549.085 75.1684C552.724 68.0273 560.547 64.0413 568.463 65.295Z" stroke="url(#paint26_linear_292_69)" stroke-width="3"/>
<path opacity="0.282828" d="M570.574 61.0907L989.708 134.995C997.601 136.387 1003.7 142.703 1004.82 150.64L1064.05 572.097C1065.16 580.034 1061.04 587.786 1053.84 591.3L671.311 777.87C664.107 781.384 655.46 779.859 649.893 774.094L354.246 467.943C348.679 462.178 347.457 453.483 351.22 446.407L551.027 70.6244C554.789 63.5479 562.681 59.6989 570.574 61.0907Z" stroke="url(#paint27_linear_292_69)" stroke-width="3"/>
<path opacity="0.292929" d="M572.708 57.0033L989.631 138.045C997.499 139.574 1003.49 145.996 1004.46 153.951L1056.22 575.512C1057.2 583.467 1052.94 591.146 1045.68 594.533L660.747 774.03C653.484 777.418 644.865 775.742 639.399 769.881L349.736 459.255C344.27 453.393 343.2 444.679 347.085 437.669L552.997 66.1944C556.883 59.1846 564.84 55.474 572.708 57.0033Z" stroke="url(#paint28_linear_292_69)" stroke-width="3"/>
<path opacity="0.30303" d="M574.866 53.0296L989.458 141.154C997.298 142.82 1003.17 149.345 1004.01 157.316L1048.32 578.848C1049.15 586.819 1044.76 594.423 1037.44 597.683L650.231 770.08C642.91 773.34 634.321 771.514 628.958 765.558L345.345 450.573C339.982 444.617 339.064 435.885 343.071 428.944L554.998 61.8754C559.006 54.9344 567.027 51.3633 574.866 53.0296Z" stroke="url(#paint29_linear_292_69)" stroke-width="3"/>
<path opacity="0.313131" d="M577.042 49.1754L989.182 144.326C996.992 146.128 1002.75 152.755 1003.45 160.739L1040.32 582.111C1041.01 590.095 1036.49 597.621 1029.11 600.753L639.758 766.025C632.38 769.157 623.825 767.181 618.567 761.133L341.066 441.904C335.808 435.856 335.043 427.109 339.171 420.239L557.022 57.673C561.15 50.8031 569.232 47.3725 577.042 49.1754Z" stroke="url(#paint30_linear_292_69)" stroke-width="3"/>
<path opacity="0.323232" d="M579.236 45.4353L988.807 147.553C996.584 149.492 1002.23 156.218 1002.79 164.213L1032.23 585.294C1032.79 593.289 1028.14 600.735 1020.71 603.737L629.334 761.862C621.903 764.864 613.383 762.74 608.232 756.6L336.905 433.246C331.754 427.107 331.141 418.348 335.388 411.551L559.072 53.5823C563.319 46.7855 571.46 43.4964 579.236 45.4353Z" stroke="url(#paint31_linear_292_69)" stroke-width="3"/>
<path opacity="0.333333" d="M581.446 41.8142L988.33 150.838C996.071 152.913 1001.6 159.736 1002.02 167.74L1024.06 588.399C1024.48 596.402 1019.7 603.766 1012.22 606.638L618.959 757.596C611.477 760.468 602.996 758.195 597.952 751.967L332.859 424.605C327.816 418.376 327.356 409.608 331.721 402.887L561.143 49.608C565.508 42.8863 573.705 39.7398 581.446 41.8142Z" stroke="url(#paint32_linear_292_69)" stroke-width="3"/>
<path opacity="0.343434" d="M583.672 38.3067L987.752 154.175C995.456 156.384 1000.86 163.302 1001.14 171.312L1015.81 591.42C1016.09 599.43 1011.18 606.709 1003.65 609.45L608.637 753.223C601.106 755.964 592.666 753.544 587.732 747.228L328.93 415.977C323.996 409.661 323.689 400.887 328.171 394.242L563.235 45.7449C567.717 39.1005 575.968 36.0975 583.672 38.3067Z" stroke="url(#paint33_linear_292_69)" stroke-width="3"/>
<path opacity="0.353535" d="M585.906 34.9185L987.067 157.566C994.732 159.909 1000.02 166.921 1000.16 174.935L1007.48 594.362C1007.62 602.375 1002.58 609.567 995.002 612.177L598.366 748.75C590.788 751.359 582.391 748.792 577.568 742.391L325.112 407.371C320.289 400.97 320.135 392.191 324.733 385.626L565.343 41.9989C569.94 35.4337 578.241 32.5752 585.906 34.9185Z" stroke="url(#paint34_linear_292_69)" stroke-width="3"/>
<path opacity="0.363636" d="M588.149 31.6444L986.279 161.005C993.901 163.481 999.062 170.584 999.062 178.599L999.062 597.217C999.062 605.232 993.901 612.335 986.279 614.812L588.149 744.172C580.527 746.649 572.176 743.936 567.466 737.452L321.408 398.782C316.697 392.298 316.697 383.518 321.408 377.034L567.466 38.3649C572.176 31.8809 580.527 29.1677 588.149 31.6444Z" stroke="url(#paint35_linear_292_69)" stroke-width="3"/>
<path opacity="0.373737" d="M590.4 28.4891L985.386 164.494C992.964 167.103 998 174.295 997.861 182.309L990.57 599.991C990.43 608.004 985.146 615.016 977.482 617.36L577.989 739.497C570.325 741.84 562.023 738.981 557.426 732.416L317.817 390.219C313.22 383.654 313.373 374.875 318.197 368.474L569.602 34.8477C574.426 28.4468 582.822 25.8798 590.4 28.4891Z" stroke="url(#paint36_linear_292_69)" stroke-width="3"/>
<path opacity="0.383838" d="M592.657 25.4495L984.39 168.028C991.921 170.77 996.831 178.049 996.551 186.058L982.003 602.677C981.723 610.687 976.317 617.606 968.613 619.815L567.889 734.721C560.185 736.93 551.934 733.927 547.453 727.283L314.34 381.679C309.858 375.035 310.165 366.26 315.099 359.944L571.752 31.444C576.686 25.1284 585.126 22.7083 592.657 25.4495Z" stroke="url(#paint37_linear_292_69)" stroke-width="3"/>
<path opacity="0.393939" d="M594.916 22.5261L983.286 171.607C990.768 174.48 995.55 181.843 995.13 189.847L973.359 605.277C972.939 613.281 967.414 620.104 959.672 622.178L557.847 729.847C550.105 731.922 541.908 728.775 537.543 722.053L310.973 373.166C306.608 366.445 307.067 357.677 312.111 351.448L573.909 28.1549C578.952 21.9263 587.433 19.6539 594.916 22.5261Z" stroke="url(#paint38_linear_292_69)" stroke-width="3"/>
<path opacity="0.40404" d="M597.177 19.7169L982.077 175.226C989.508 178.229 994.16 185.675 993.601 193.67L964.643 607.786C964.084 615.782 958.441 622.507 950.664 624.446L547.867 724.875C540.091 726.814 531.95 723.525 527.703 716.728L307.719 364.68C303.472 357.883 304.084 349.124 309.236 342.984L576.075 24.9782C581.227 18.8386 589.746 16.7145 597.177 19.7169Z" stroke="url(#paint39_linear_292_69)" stroke-width="3"/>
<path opacity="0.414141" d="M599.435 17.0274L980.759 178.89C988.137 182.021 992.659 189.547 991.96 197.532L955.855 610.21C955.157 618.194 949.397 624.821 941.587 626.624L537.95 719.811C530.14 721.614 522.058 718.183 517.93 711.313L304.573 356.227C300.446 349.357 301.211 340.611 306.469 334.562L578.245 21.9197C583.503 15.8709 592.058 13.8958 599.435 17.0274Z" stroke="url(#paint40_linear_292_69)" stroke-width="3"/>
<path opacity="0.424242" d="M601.691 14.4507L979.335 182.588C986.656 185.848 991.046 193.452 990.209 201.423L946.998 612.541C946.161 620.511 940.286 627.036 932.446 628.703L528.097 714.65C520.258 716.316 512.237 712.745 508.229 705.804L301.538 347.804C297.531 340.863 298.449 332.131 303.812 326.175L580.418 18.9724C585.781 13.0163 594.369 11.1908 601.691 14.4507Z" stroke="url(#paint41_linear_292_69)" stroke-width="3"/>
<path opacity="0.434343" d="M603.942 11.9893L977.803 186.323C985.066 189.711 989.323 197.39 988.346 205.345L938.074 614.78C937.097 622.735 931.109 629.156 923.242 630.685L518.311 709.396C510.444 710.925 502.486 707.214 498.601 700.205L298.612 339.415C294.726 332.406 295.796 323.691 301.262 317.83L582.593 16.1391C588.059 10.2775 596.678 8.60219 603.942 11.9893Z" stroke="url(#paint42_linear_292_69)" stroke-width="3"/>
<path opacity="0.444444" d="M606.184 9.64418L976.161 190.094C983.364 193.607 987.486 201.36 986.371 209.296L929.082 616.927C927.967 624.864 921.867 631.18 913.975 632.572L508.591 704.052C500.698 705.443 492.807 701.594 489.044 694.518L295.792 331.064C292.03 323.987 293.252 315.293 298.819 309.528L584.766 13.4207C590.334 7.65542 598.98 6.13078 606.184 9.64418Z" stroke="url(#paint43_linear_292_69)" stroke-width="3"/>
<path opacity="0.454545" d="M608.417 7.41403L974.411 193.897C981.552 197.536 985.538 205.359 984.284 213.275L920.027 618.982C918.773 626.898 912.565 633.106 904.649 634.36L498.941 698.618C491.025 699.872 483.202 695.885 479.564 688.744L293.081 322.751C289.442 315.61 290.816 306.938 296.483 301.27L586.937 10.8162C592.604 5.14893 601.276 3.77543 608.417 7.41403Z" stroke="url(#paint44_linear_292_69)" stroke-width="3"/>
<path opacity="0.464646" d="M610.639 5.29773L972.552 197.73C979.628 201.493 983.477 209.384 982.086 217.277L910.909 620.942C909.517 628.835 903.201 634.934 895.264 636.049L489.362 693.095C481.425 694.211 473.673 690.089 470.159 682.885L290.475 314.477C286.961 307.273 288.486 298.627 294.251 293.059L589.103 8.32448C594.868 2.75701 603.562 1.53507 610.639 5.29773Z" stroke="url(#paint45_linear_292_69)" stroke-width="3"/>
<path opacity="0.474747" d="M612.847 3.29313L970.583 201.589C977.593 205.475 981.303 213.432 979.774 221.3L901.73 622.804C900.2 630.671 893.779 636.659 885.824 637.636L479.854 687.483C471.899 688.46 464.22 684.203 460.833 676.939L287.974 306.242C284.587 298.979 286.262 290.36 292.124 284.894L591.261 5.94355C597.123 0.477543 605.837 -0.592468 612.847 3.29313Z" stroke="url(#paint46_linear_292_69)" stroke-width="3"/>
<path opacity="0.484848" d="M615.04 1.403L968.505 205.476C975.446 209.484 979.017 217.504 977.351 225.344L892.493 624.571C890.826 632.411 884.301 638.286 876.331 639.124L470.42 681.787C462.449 682.624 454.846 678.234 451.586 670.913L285.578 298.052C282.318 290.731 284.143 282.142 290.099 276.78L593.411 3.67629C599.367 -1.68658 608.099 -2.60434 615.04 1.403Z" stroke="url(#paint47_linear_292_69)" stroke-width="3"/>
<path opacity="0.494949" d="M617.217 -0.373758L966.318 209.388C973.188 213.516 976.619 221.598 974.816 229.407L883.199 626.242C881.397 634.051 874.77 639.812 866.786 640.51L461.062 676.006C453.078 676.705 445.552 672.183 442.42 664.805L283.286 289.908C280.154 282.53 282.129 273.975 288.178 268.717L595.551 1.52172C601.6 -3.73639 610.347 -4.50163 617.217 -0.373758Z" stroke="url(#paint48_linear_292_69)" stroke-width="3"/>
<path opacity="0.50505" d="M619.372 -2.03831L964.019 213.321C970.816 217.569 974.105 225.709 972.166 233.486L873.849 627.815C871.91 635.592 865.184 641.235 857.189 641.794L451.778 670.143C443.783 670.703 436.337 666.05 433.335 658.619L281.094 281.81C278.092 274.379 280.216 265.86 286.355 260.708L597.677 -0.521243C603.816 -5.67298 612.575 -6.28545 619.372 -2.03831Z" stroke="url(#paint49_linear_292_69)" stroke-width="3"/>
<path opacity="0.515152" d="M621.506 -3.59074L961.611 217.276C968.333 221.641 971.479 229.838 969.405 237.579L864.446 629.29C862.372 637.031 855.549 642.557 847.545 642.976L442.572 664.2C434.569 664.619 427.205 659.837 424.333 652.355L279.005 273.762C276.132 266.279 278.405 257.799 284.633 252.755L599.788 -2.45254C606.017 -7.49634 614.785 -7.95585 621.506 -3.59074Z" stroke="url(#paint50_linear_292_69)" stroke-width="3"/>
<path opacity="0.525253" d="M623.617 -5.03413L959.092 221.246C965.737 225.728 968.74 233.979 966.53 241.683L854.992 630.663C852.783 638.367 845.864 643.773 837.855 644.052L433.445 658.175C425.436 658.454 418.157 653.545 415.415 646.013L277.015 265.761C274.274 258.23 276.694 249.79 283.01 244.856L601.883 -4.27514C608.198 -9.20948 616.973 -9.51588 623.617 -5.03413Z" stroke="url(#paint51_linear_292_69)" stroke-width="3"/>
<path opacity="0.535354" d="M625.702 -6.36561L956.462 225.235C963.027 229.832 965.885 238.134 963.542 245.798L845.487 631.938C843.144 639.602 836.132 644.886 828.119 645.026L424.397 652.073C416.384 652.213 409.191 647.177 406.582 639.599L275.123 257.814C272.514 250.236 275.081 241.84 281.482 237.017L603.957 -5.98605C610.358 -10.8094 619.137 -10.9626 625.702 -6.36561Z" stroke="url(#paint52_linear_292_69)" stroke-width="3"/>
<path opacity="0.545455" d="M627.76 -7.58725L953.721 229.237C960.205 233.948 962.918 242.299 960.442 249.921L835.936 633.112C833.459 640.734 826.356 645.895 818.341 645.895H415.431C407.416 645.895 400.313 640.734 397.836 633.112L273.33 249.921C270.854 242.299 273.567 233.948 280.051 229.237L606.012 -7.58725C612.496 -12.2982 621.276 -12.2982 627.76 -7.58725Z" stroke="url(#paint53_linear_292_69)" stroke-width="3"/>
<path opacity="0.555556" d="M629.789 -8.70203L950.871 233.25C957.271 238.074 959.838 246.47 957.229 254.048L826.339 634.182C823.729 641.76 816.537 646.796 808.524 646.656L406.547 639.64C398.534 639.5 391.522 634.216 389.178 626.551L271.634 242.081C269.291 234.416 272.149 226.115 278.714 221.518L608.044 -9.08159C614.61 -13.6786 623.388 -13.5254 629.789 -8.70203Z" stroke="url(#paint54_linear_292_69)" stroke-width="3"/>
<path opacity="0.565657" d="M631.786 -9.70609L947.909 237.276C954.224 242.21 956.645 250.65 953.903 258.181L816.697 635.153C813.956 642.684 806.677 647.594 798.667 647.314L397.746 633.314C389.737 633.034 382.818 627.629 380.609 619.925L270.033 234.3C267.823 226.596 270.826 218.345 277.471 213.864L610.052 -10.4651C616.696 -14.9468 625.471 -14.6404 631.786 -9.70609Z" stroke="url(#paint55_linear_292_69)" stroke-width="3"/>
<path opacity="0.575758" d="M633.751 -10.6034L944.837 241.309C951.065 246.353 953.338 254.833 950.466 262.316L807.014 636.021C804.141 643.503 796.778 648.285 788.774 647.866L389.031 626.916C381.027 626.497 374.203 620.971 372.129 613.229L268.526 226.577C266.451 218.835 269.598 210.638 276.32 206.273L612.033 -11.7416C618.755 -16.1067 627.523 -15.6472 633.751 -10.6034Z" stroke="url(#paint56_linear_292_69)" stroke-width="3"/>
<path opacity="0.585859" d="M635.681 -11.3949L941.654 245.347C947.794 250.499 949.918 259.018 946.916 266.449L797.29 636.785C794.288 644.216 786.842 648.868 778.847 648.309L380.4 620.447C372.405 619.888 365.679 614.244 363.741 606.468L267.112 218.913C265.173 211.136 268.462 202.995 275.259 198.748L613.986 -12.9119C620.783 -17.1591 629.542 -16.5466 635.681 -11.3949Z" stroke="url(#paint57_linear_292_69)" stroke-width="3"/>
<path opacity="0.59596" d="M637.574 -12.0796L938.362 249.391C944.41 254.649 946.385 263.204 943.254 270.581L787.529 637.446C784.398 644.823 776.872 649.345 768.887 648.647L371.857 613.911C363.873 613.213 357.247 607.452 355.444 599.643L265.79 211.311C263.987 203.502 267.418 195.42 274.288 191.292L615.909 -13.9751C622.779 -18.1029 631.526 -17.3377 637.574 -12.0796Z" stroke="url(#paint58_linear_292_69)" stroke-width="3"/>
<path opacity="0.606061" d="M639.43 -12.6595L934.959 253.437C940.915 258.799 942.741 267.388 939.481 274.709L777.732 638.003C774.472 645.325 766.869 649.715 758.898 648.877L363.402 607.309C355.431 606.471 348.906 600.596 347.24 592.756L264.559 203.772C262.893 195.933 266.464 187.912 273.405 183.904L617.801 -14.9328C624.742 -18.9401 633.474 -18.0223 639.43 -12.6595Z" stroke="url(#paint59_linear_292_69)" stroke-width="3"/>
<path opacity="0.616162" d="M641.244 -13.1364L931.446 257.482C937.308 262.948 938.983 271.566 935.596 278.83L767.901 638.454C764.513 645.718 756.834 649.975 748.879 648.998L355.035 600.64C347.08 599.663 340.659 593.675 339.13 585.808L263.416 196.297C261.887 188.429 265.598 180.472 272.608 176.586L619.658 -15.7869C626.668 -19.6725 635.382 -18.6024 641.244 -13.1364Z" stroke="url(#paint60_linear_292_69)" stroke-width="3"/>
<path opacity="0.626263" d="M643.016 -13.5095L927.824 261.526C933.589 267.093 935.114 275.74 931.6 282.944L758.037 638.802C754.523 646.006 746.771 650.128 738.834 649.012L346.758 593.91C338.822 592.794 332.506 586.695 331.114 578.802L262.362 188.888C260.97 180.995 264.819 173.104 271.896 169.341L621.48 -16.5362C628.557 -20.2989 637.251 -19.0769 643.016 -13.5095Z" stroke="url(#paint61_linear_292_69)" stroke-width="3"/>
<path opacity="0.636364" d="M644.743 -13.7794L924.09 265.568C929.757 271.235 931.131 279.907 927.492 287.048L748.14 639.046C744.502 646.187 736.679 650.173 728.763 648.919L338.57 587.119C330.654 585.865 324.446 579.656 323.192 571.74L261.392 181.548C260.138 173.632 264.124 165.809 271.265 162.17L623.263 -17.1815C630.404 -20.8201 639.076 -19.4466 644.743 -13.7794Z" stroke="url(#paint62_linear_292_69)" stroke-width="3"/>
<path opacity="0.646465" d="M646.427 -13.95L920.25 269.602C925.817 275.367 927.039 284.062 923.276 291.138L738.219 639.182C734.456 646.258 726.564 650.107 718.671 648.715L330.476 580.266C322.584 578.874 316.484 572.559 315.369 564.622L260.509 174.275C259.394 166.338 263.516 158.586 270.719 155.072L625.009 -17.7265C632.213 -21.2399 640.859 -19.7153 646.427 -13.95Z" stroke="url(#paint63_linear_292_69)" stroke-width="3"/>
<path opacity="0.656566" d="M648.062 -14.0213L916.299 273.628C921.765 279.49 922.835 288.204 918.95 295.214L728.269 639.212C724.383 646.221 716.426 649.932 708.559 648.403L322.474 573.355C314.606 571.826 308.618 565.405 307.642 557.45L259.709 167.071C258.732 159.116 262.989 151.437 270.253 148.049L626.714 -18.171C633.977 -21.5582 642.596 -19.8829 648.062 -14.0213Z" stroke="url(#paint64_linear_292_69)" stroke-width="3"/>
<path opacity="0.666667" d="M649.65 -13.992L912.242 277.646C917.605 283.602 918.523 292.334 914.515 299.275L718.296 639.137C714.289 646.078 706.268 649.649 698.428 647.983L314.566 566.39C306.726 564.724 300.851 558.199 300.014 550.228L258.993 159.94C258.155 151.969 262.545 144.365 269.867 141.105L628.377 -18.5137C635.699 -21.7736 644.287 -19.9481 649.65 -13.992Z" stroke="url(#paint65_linear_292_69)" stroke-width="3"/>
<path opacity="0.676768" d="M651.185 -13.866L908.075 281.652C913.333 287.701 914.098 296.448 909.97 303.318L708.299 638.955C704.171 645.825 696.089 649.255 688.28 647.452L306.75 559.369C298.941 557.566 293.181 550.94 292.482 542.956L258.355 152.88C257.657 144.896 262.179 137.37 269.556 134.239L629.994 -18.7582C637.372 -21.8898 645.927 -19.9147 651.185 -13.866Z" stroke="url(#paint66_linear_292_69)" stroke-width="3"/>
<path opacity="0.686869" d="M652.668 -13.6429L903.801 285.645C908.952 291.785 909.565 300.543 905.318 307.34L698.282 638.667C694.035 645.464 685.894 648.753 678.117 646.814L299.03 552.296C291.253 550.358 285.61 543.632 285.05 535.636L257.797 145.895C257.238 137.9 261.891 130.454 269.322 127.452L631.566 -18.9042C638.997 -21.9066 647.516 -19.7825 652.668 -13.6429Z" stroke="url(#paint67_linear_292_69)" stroke-width="3"/>
<path opacity="0.69697" d="M654.099 -13.3236L899.421 289.624C904.465 295.852 904.924 304.62 900.559 311.342L688.248 638.273C683.883 644.994 675.686 648.141 667.944 646.066L291.407 545.174C283.665 543.099 278.14 536.276 277.72 528.272L257.319 138.986C256.899 130.982 261.681 123.619 269.164 120.747L633.092 -18.9524C640.575 -21.8247 649.055 -19.5522 654.099 -13.3236Z" stroke="url(#paint68_linear_292_69)" stroke-width="3"/>
<path opacity="0.707071" d="M655.472 -12.9108L894.932 293.584C899.866 299.9 900.173 308.674 895.691 315.319L678.194 637.771C673.712 644.415 665.462 647.418 657.758 645.209L283.877 538.001C276.173 535.792 270.767 528.873 270.488 520.863L256.914 132.152C256.634 124.143 261.544 116.864 269.075 114.122L634.566 -18.9054C642.098 -21.6466 650.537 -19.2265 655.472 -12.9108Z" stroke="url(#paint69_linear_292_69)" stroke-width="3"/>
<path opacity="0.717172" d="M656.789 -12.4042L890.338 297.526C895.162 303.927 895.315 312.706 890.718 319.271L668.127 637.163C663.53 643.729 655.229 646.587 647.564 644.244L276.446 530.782C268.782 528.438 263.498 521.426 263.358 513.413L256.585 125.397C256.445 117.384 261.481 110.191 269.059 107.582L635.991 -18.7627C643.569 -21.3721 651.966 -18.805 656.789 -12.4042Z" stroke="url(#paint70_linear_292_69)" stroke-width="3"/>
<path opacity="0.727273" d="M658.047 -11.8054L885.639 301.448C890.35 307.932 890.35 316.712 885.639 323.196L658.047 636.449C653.336 642.933 644.986 645.646 637.363 643.17L269.112 523.517C261.49 521.041 256.329 513.938 256.329 505.923L256.329 118.721C256.329 110.706 261.49 103.603 269.112 101.126L637.363 -18.5259C644.986 -21.0026 653.336 -18.2894 658.047 -11.8054Z" stroke="url(#paint71_linear_292_69)" stroke-width="3"/>
<path opacity="0.737374" d="M659.246 -11.1171L880.835 305.346C885.432 311.911 885.279 320.689 880.456 327.09L647.957 635.627C643.133 642.028 634.737 644.595 627.159 641.985L261.877 516.209C254.299 513.599 249.263 506.407 249.403 498.394L256.145 112.123C256.285 104.11 261.569 97.0975 269.234 94.7542L638.682 -18.1976C646.347 -20.5409 654.649 -17.6824 659.246 -11.1171Z" stroke="url(#paint72_linear_292_69)" stroke-width="3"/>
<path opacity="0.747475" d="M660.381 -10.3379L875.926 309.22C880.407 315.865 880.101 324.64 875.167 330.955L637.856 634.699C632.921 641.015 624.481 643.435 616.95 640.694L254.739 508.86C247.208 506.119 242.298 498.84 242.578 490.83L256.03 105.608C256.31 97.598 261.715 90.6793 269.419 88.4701L639.944 -17.7762C647.649 -19.9853 655.899 -16.9824 660.381 -10.3379Z" stroke="url(#paint73_linear_292_69)" stroke-width="3"/>
<path opacity="0.757576" d="M661.455 -9.47238L870.915 313.067C875.28 319.789 874.82 328.557 869.776 334.785L627.75 633.663C622.706 639.892 614.225 642.164 606.743 639.292L247.703 501.47C240.22 498.597 235.438 491.234 235.858 483.23L255.985 99.173C256.405 91.1693 261.93 84.3459 269.672 82.2715L641.152 -17.2662C648.893 -19.3405 657.09 -16.1941 661.455 -9.47238Z" stroke="url(#paint74_linear_292_69)" stroke-width="3"/>
<path opacity="0.767677" d="M662.464 -8.5181L865.8 316.888C870.047 323.685 869.435 332.443 864.283 338.583L617.638 632.523C612.486 638.663 603.967 640.787 596.536 637.784L240.765 494.043C233.334 491.041 228.681 483.595 229.24 475.6L256.006 92.8232C256.565 84.828 262.209 78.1021 269.986 76.1632L642.299 -16.6651C650.076 -18.604 658.217 -15.3149 662.464 -8.5181Z" stroke="url(#paint75_linear_292_69)" stroke-width="3"/>
<path opacity="0.777778" d="M663.407 -7.47862L860.583 320.678C864.711 327.548 863.946 336.295 858.688 342.344L607.523 631.276C602.265 637.325 593.71 639.3 586.332 636.168L233.927 486.581C226.55 483.449 222.028 475.923 222.726 467.939L256.093 86.5572C256.791 78.573 262.551 71.9466 270.361 70.1437L643.387 -15.9763C651.197 -17.7792 659.279 -14.3485 663.407 -7.47862Z" stroke="url(#paint76_linear_292_69)" stroke-width="3"/>
<path opacity="0.787879" d="M664.281 -6.35539L855.264 324.437C859.271 331.378 858.354 340.11 852.991 346.066L597.405 629.922C592.043 635.878 583.454 637.704 576.133 634.444L227.189 479.084C219.867 475.824 215.477 468.221 216.315 460.25L256.241 80.3761C257.079 72.4053 262.954 65.8805 270.794 64.2141L644.413 -15.2011C652.253 -16.8675 660.274 -13.2963 664.281 -6.35539Z" stroke="url(#paint77_linear_292_69)" stroke-width="3"/>
<path opacity="0.79798" d="M665.086 -5.14989L849.844 328.162C853.729 335.172 852.659 343.886 847.193 349.748L587.288 628.462C581.822 634.324 573.204 635.999 565.94 632.612L220.552 471.555C213.288 468.168 209.031 460.488 210.008 452.534L256.452 74.2806C257.428 66.3256 263.416 59.9043 271.284 58.3751L645.376 -14.341C653.243 -15.8703 661.201 -12.1597 665.086 -5.14989Z" stroke="url(#paint78_linear_292_69)" stroke-width="3"/>
<path opacity="0.808081" d="M665.823 -3.86259L844.326 331.852C848.088 338.929 846.866 347.624 841.299 353.389L577.175 626.897C571.608 632.662 562.961 634.187 555.758 630.673L214.017 463.996C206.814 460.482 202.692 452.73 203.807 444.793L256.724 68.2726C257.839 60.3359 263.938 54.0201 271.831 52.6284L646.276 -13.3963C654.169 -14.788 662.06 -10.9391 665.823 -3.86259Z" stroke="url(#paint79_linear_292_69)" stroke-width="3"/>
<path opacity="0.818182" d="M666.487 -2.49586L838.708 335.506C842.346 342.647 840.973 351.319 835.306 356.986L567.066 625.226C561.399 630.893 552.727 632.267 545.586 628.628L207.584 456.408C200.443 452.769 196.457 444.946 197.711 437.03L257.054 62.3521C258.308 54.436 264.516 48.2276 272.432 46.9739L647.11 -12.3693C655.026 -13.623 662.849 -9.637 666.487 -2.49586Z" stroke="url(#paint80_linear_292_69)" stroke-width="3"/>
<path opacity="0.828283" d="M667.079 -1.05012L832.991 339.121C836.505 346.325 834.98 354.972 829.215 360.539L556.962 623.45C551.197 629.018 542.503 630.24 535.426 626.477L201.252 448.794C194.175 445.031 190.326 437.139 191.718 429.247L257.44 56.5209C258.832 48.6279 265.147 42.5288 273.084 41.4134L647.876 -11.2602C655.813 -12.3756 663.565 -8.25367 667.079 -1.05012Z" stroke="url(#paint81_linear_292_69)" stroke-width="3"/>
<path opacity="0.838384" d="M667.598 0.472294L827.18 342.697C830.567 349.961 828.892 358.579 823.03 364.045L546.869 621.57C541.007 627.036 532.293 628.106 525.283 624.22L195.024 441.155C188.014 437.269 184.304 429.312 185.833 421.444L257.883 50.779C259.412 42.9115 265.834 36.9236 273.789 35.9468L648.577 -10.0714C656.532 -11.0481 664.211 -6.79147 667.598 0.472294Z" stroke="url(#paint82_linear_292_69)" stroke-width="3"/>
<path opacity="0.848485" d="M668.04 2.07009L821.27 346.23C824.53 353.552 822.705 362.14 816.749 367.503L536.784 619.585C530.828 624.948 522.096 625.865 515.155 621.858L188.897 433.493C181.956 429.486 178.385 421.465 180.051 413.625L258.378 45.1274C260.044 37.2878 266.569 31.4129 274.54 30.5751L649.206 -8.80393C657.177 -9.6417 664.781 -5.25169 668.04 2.07009Z" stroke="url(#paint83_linear_292_69)" stroke-width="3"/>
<path opacity="0.858586" d="M668.408 3.74098L815.267 349.72C818.399 357.097 816.424 365.652 810.375 370.91L526.712 617.495C520.663 622.753 511.916 623.518 505.047 619.39L182.874 425.81C176.004 421.682 172.573 413.6 174.376 405.79L258.926 39.5661C260.728 31.7568 267.355 25.9966 275.339 25.298L649.766 -7.46009C657.75 -8.15862 665.276 -3.63657 668.408 3.74098Z" stroke="url(#paint84_linear_292_69)" stroke-width="3"/>
<path opacity="0.868687" d="M668.697 5.48372L809.169 353.164C812.171 360.595 810.047 369.114 803.907 374.266L516.652 615.301C510.513 620.453 501.754 621.065 494.957 616.818L176.952 418.107C170.155 413.859 166.866 405.719 168.805 397.942L259.522 34.096C261.461 26.3194 268.187 20.6757 276.182 20.1166L650.253 -6.041C658.249 -6.60008 665.694 -1.94737 668.697 5.48372Z" stroke="url(#paint85_linear_292_69)" stroke-width="3"/>
<path opacity="0.878788" d="M668.906 7.3L802.976 356.564C805.848 364.046 803.576 372.527 797.347 377.571L506.608 613.007C500.379 618.051 491.611 618.511 484.889 614.145L171.133 410.389C164.411 406.024 161.264 397.827 163.339 390.086L260.166 28.7212C262.24 20.9796 269.064 15.4541 277.067 15.0347L650.667 -4.54484C658.671 -4.9643 666.034 -0.182352 668.906 7.3Z" stroke="url(#paint86_linear_292_69)" stroke-width="3"/>
<path opacity="0.888889" d="M669.036 9.1818L796.692 359.912C799.433 367.444 797.013 375.883 790.697 380.818L496.581 610.607C490.265 615.541 481.49 615.848 474.846 611.366L165.416 402.653C158.772 398.171 155.769 389.921 157.978 382.217L260.857 23.4358C263.066 15.7316 269.984 10.326 277.994 10.0463L651.006 -2.97956C659.016 -3.25927 666.295 1.65046 669.036 9.1818Z" stroke="url(#paint87_linear_292_69)" stroke-width="3"/>
<path opacity="0.89899" d="M669.085 11.1338L790.315 363.214C792.925 370.792 790.358 379.188 783.957 384.011L486.572 608.107C480.171 612.931 471.392 613.084 464.827 608.487L159.802 394.906C153.236 390.309 150.378 382.007 152.721 374.343L261.591 18.2466C263.934 10.5821 270.946 5.2982 278.96 5.15832L651.27 -1.34038C659.283 -1.48026 666.475 3.55576 669.085 11.1338Z" stroke="url(#paint88_linear_292_69)" stroke-width="3"/>
<path opacity="0.909091" d="M669.053 13.1519L783.851 366.464C786.327 374.086 783.614 382.437 777.13 387.148L476.585 605.506C470.101 610.217 461.321 610.217 454.837 605.506L154.292 387.148C147.808 382.437 145.095 374.086 147.571 366.464L262.369 13.152C264.846 5.52955 271.949 0.368765 279.964 0.368758L651.458 0.368751C659.473 0.368764 666.576 5.52953 669.053 13.1519Z" stroke="url(#paint89_linear_292_69)" stroke-width="3"/>
<path opacity="0.919192" d="M668.937 15.2322L777.297 369.659C779.64 377.324 776.781 385.625 770.216 390.222L466.621 602.802C460.056 607.399 451.277 607.246 444.876 602.423L148.885 379.377C142.484 374.554 139.917 366.157 142.526 358.579L263.189 8.14984C265.798 0.571816 272.99 -4.4642 281.004 -4.32433L651.569 2.14391C659.582 2.28378 666.594 7.56774 668.937 15.2322Z" stroke="url(#paint90_linear_292_69)" stroke-width="3"/>
<path opacity="0.929293" d="M668.738 17.3774L770.654 372.803C772.863 380.507 769.86 388.757 763.216 393.239L456.68 600C450.036 604.482 441.261 604.175 434.945 599.241L143.579 371.601C137.264 366.667 134.844 358.227 137.585 350.696L264.046 3.24528C266.788 -4.28606 274.067 -9.19579 282.076 -8.91609L651.6 3.98796C659.61 4.26767 666.528 9.67319 668.738 17.3774Z" stroke="url(#paint91_linear_292_69)" stroke-width="3"/>
<path opacity="0.939394" d="M668.454 19.5836L763.926 375.891C766 383.632 762.854 391.829 756.132 396.194L446.767 597.099C440.045 601.464 431.277 601.004 425.048 595.96L138.378 363.819C132.149 358.775 129.877 350.294 132.749 342.812L264.942 -1.56348C267.815 -9.04584 275.178 -13.8278 283.182 -13.4083L651.552 5.89714C659.556 6.31661 666.38 11.8421 668.454 19.5836Z" stroke="url(#paint92_linear_292_69)" stroke-width="3"/>
<path opacity="0.949495" d="M668.083 21.8498L757.111 378.922C759.05 386.699 755.761 394.839 748.964 399.086L436.88 594.099C430.083 598.346 421.324 597.733 415.185 592.582L133.278 356.033C127.138 350.882 125.014 342.362 128.016 334.931L265.873 -6.27545C268.875 -13.7065 276.321 -18.3592 284.316 -17.8002L651.423 7.87046C659.418 8.42953 666.144 14.0732 668.083 21.8498Z" stroke="url(#paint93_linear_292_69)" stroke-width="3"/>
<path opacity="0.959596" d="M667.627 24.1712L750.214 381.892C752.017 389.702 748.586 397.784 741.716 401.912L427.024 590.998C420.154 595.126 411.407 594.361 405.358 589.103L128.281 348.243C122.232 342.985 120.257 334.43 123.389 327.052L266.838 -10.8933C269.97 -18.2709 277.496 -22.7929 285.48 -22.0944L651.214 9.90317C659.198 10.6017 665.824 16.3619 667.627 24.1712Z" stroke="url(#paint94_linear_292_69)" stroke-width="3"/>
<path opacity="0.969697" d="M667.083 26.5516L743.232 384.806C744.899 392.646 741.328 400.667 734.387 404.674L417.198 587.803C410.257 591.81 401.525 590.893 395.569 585.53L123.386 340.455C117.43 335.092 115.604 326.504 118.864 319.182L267.835 -15.4111C271.095 -22.7329 278.699 -27.1229 286.669 -26.2851L650.921 11.9993C658.892 12.837 665.417 18.712 667.083 26.5516Z" stroke="url(#paint95_linear_292_69)" stroke-width="3"/>
<path opacity="0.979798" d="M666.452 28.9833L736.171 387.656C737.7 395.523 733.99 403.48 726.98 407.366L407.406 584.508C400.397 588.394 391.682 587.324 385.821 581.858L118.594 332.666C112.733 327.2 111.058 318.581 114.445 311.317L268.863 -19.8345C272.251 -27.0982 279.93 -31.3549 287.885 -30.3781L650.547 14.1512C658.502 15.1279 664.923 21.1159 666.452 28.9833Z" stroke="url(#paint96_linear_292_69)" stroke-width="3"/>
<path opacity="0.989899" d="M665.731 31.4694L729.027 390.444C730.419 398.337 726.57 406.229 719.494 409.991L397.648 581.12C390.572 584.883 381.877 583.661 376.112 578.093L113.903 324.881C108.138 319.314 106.613 310.667 110.127 303.464L269.919 -24.1583C273.432 -31.3619 281.184 -35.4839 289.121 -34.3684L650.086 16.3619C658.023 17.4774 664.339 23.5765 665.731 31.4694Z" stroke="url(#paint97_linear_292_69)" stroke-width="3"/>
<path d="M664.919 34.0071L721.805 393.17C723.059 401.086 719.073 408.909 711.932 412.548L387.926 577.637C380.785 581.276 372.113 579.902 366.446 574.235L109.313 317.102C103.646 311.435 102.272 302.763 105.911 295.622L271 -28.3836C274.639 -35.5247 282.462 -39.5107 290.378 -38.257L649.541 18.6289C657.457 19.8827 663.665 26.0911 664.919 34.0071Z" stroke="url(#paint98_linear_292_69)" stroke-width="3"/>
</g>
<g opacity="0.2">
<g filter="url(#filter0_f_292_69)">
<path d="M90.2681 170.523L-14.7915 46.3653C-19.9549 40.2722 -30.3367 43.054 -31.7617 50.9124L-78.4037 309.283C-80.3127 319.728 -77.4556 330.391 -70.58 338.482L98.9985 538.916C104.162 545.009 114.544 542.228 115.969 534.369L144.874 374.315L69.5686 285.335L90.2681 170.523Z" fill="url(#paint99_linear_292_69)"/>
<path d="M247.573 276.84C232.362 258.806 208.087 250.464 184.22 254.83C182.27 255.139 180.247 255.574 178.35 256.082L161.979 260.469C163.314 265.451 163.551 270.728 162.583 275.901L144.847 374.218L249.906 498.376C255.07 504.469 265.451 501.687 266.877 493.829L295.782 333.775L294.836 332.64L247.573 276.84Z" fill="url(#paint100_linear_292_69)"/>
<path d="M417.813 453.385L464.355 195.041C466.264 184.596 463.407 173.933 456.531 165.842L273.761 -50.2833L241.204 130.082L240.541 133.997L241.204 130.082L305.723 206.358C312.598 214.449 315.455 225.112 313.546 235.557L295.81 333.873L294.863 332.738L295.81 333.873L400.869 458.032C406.006 464.025 416.388 461.243 417.813 453.385Z" fill="url(#paint101_linear_292_69)"/>
<path d="M162.586 275.901C163.554 270.728 163.317 265.451 161.981 260.469L69.5436 285.237L144.849 374.218L160.843 285.767L162.586 275.901Z" fill="#0688AC"/>
<path d="M161.98 260.467C160.645 255.484 158.212 250.796 154.787 246.8L152.922 244.63L90.2684 170.524L69.5422 285.236L161.98 260.467Z" fill="#032CAB"/>
<path d="M161.979 260.469L178.35 256.082C181.644 255.199 184.785 254.144 187.846 252.79C208.681 243.896 223.843 225.414 227.82 203.521L240.413 133.925L241.076 130.01L213.214 97.1016L122.825 -9.83946L90.2674 170.525L154.786 246.802C158.211 250.797 160.644 255.486 161.979 260.469Z" fill="#003EBB"/>
<path d="M241.204 130.083L273.762 -50.2822L122.827 -9.8393L213.342 97.1747L241.204 130.083Z" fill="#0950DC"/>
<path d="M187.847 252.789C184.786 254.143 181.646 255.198 178.351 256.081C180.348 255.546 182.271 255.137 184.221 254.828C208.014 250.589 232.363 258.804 247.573 276.838L294.737 332.665L295.683 333.8L313.42 235.483C315.329 225.039 312.471 214.376 305.596 206.285L241.077 130.008L240.414 133.924L227.894 203.393C223.944 225.386 208.655 243.795 187.847 252.789Z" fill="#0858D6"/>
</g>
<g filter="url(#filter1_f_292_69)">
<path d="M-34.8059 35.1775C-45.2721 22.7685 -61.976 17.0286 -78.3984 20.0325C-79.7402 20.2451 -81.1324 20.5446 -82.4375 20.8943L-93.7025 23.9128C-92.7838 27.3413 -92.6207 30.9724 -93.2867 34.5316L-105.491 102.183L-33.2 187.616C-29.6471 191.809 -22.5035 189.894 -21.5229 184.487L-1.63327 74.3544L-2.28427 73.5734L-34.8059 35.1775Z" fill="url(#paint102_linear_292_69)"/>
<path d="M82.3352 156.659L114.361 -21.107C115.674 -28.2939 113.708 -35.6311 108.977 -41.1984L-16.7864 -189.914L-39.189 -65.8052L-39.6449 -63.1107L-39.189 -65.8052L5.2063 -13.3196C9.93737 -7.75225 11.9034 -0.415115 10.5898 6.77186L-1.61485 74.4234L-2.26585 73.6424L-1.61485 74.4234L70.6764 159.856C74.2109 163.98 81.3546 162.066 82.3352 156.659Z" fill="url(#paint103_linear_292_69)"/>
<path d="M-75.9038 18.6301C-78.01 19.5619 -80.1713 20.2881 -82.438 20.8954C-81.0642 20.5273 -79.7408 20.2462 -78.3989 20.0336C-62.0269 17.1167 -45.2727 22.7696 -34.8065 35.1786L-2.35351 73.5929L-1.70253 74.3739L10.5021 6.72242C11.8157 -0.464552 9.84969 -7.80169 5.11861 -13.369L-39.2766 -65.8546L-39.7326 -63.1601L-48.3478 -15.3585C-51.066 -0.225237 -61.5862 12.4419 -75.9038 18.6301Z" fill="#0858D6"/>
</g>
</g>
<g opacity="0.5">
<g filter="url(#filter2_f_292_69)">
<path d="M1073.22 383.822L1006.26 304.683C1002.96 300.799 996.347 302.572 995.438 307.581L965.709 472.268C964.492 478.926 966.313 485.722 970.695 490.879L1078.79 618.637C1082.08 622.521 1088.69 620.748 1089.6 615.739L1108.03 513.72L1060.03 457.003L1073.22 383.822Z" fill="url(#paint104_linear_292_69)"/>
<path d="M1173.49 451.587C1163.79 440.093 1148.32 434.775 1133.11 437.558C1131.86 437.755 1130.57 438.033 1129.36 438.356L1118.93 441.153C1119.78 444.329 1119.93 447.692 1119.31 450.989L1108.01 513.657L1174.97 592.796C1178.27 596.679 1184.88 594.906 1185.79 589.897L1204.22 487.878L1203.61 487.155L1173.49 451.587Z" fill="url(#paint105_linear_292_69)"/>
<path d="M1282 564.119L1311.67 399.449C1312.88 392.791 1311.06 385.995 1306.68 380.838L1190.18 243.078L1169.43 358.044L1169.01 360.54L1169.43 358.044L1210.55 406.663C1214.93 411.82 1216.76 418.616 1215.54 425.274L1204.23 487.941L1203.63 487.218L1204.23 487.941L1271.2 567.081C1274.47 570.901 1281.09 569.128 1282 564.119Z" fill="url(#paint106_linear_292_69)"/>
<path d="M1119.32 450.99C1119.93 447.693 1119.78 444.329 1118.93 441.153L1060.01 456.941L1108.01 513.657L1118.2 457.279L1119.32 450.99Z" fill="#0688AC"/>
<path d="M1118.93 441.152C1118.08 437.976 1116.53 434.987 1114.34 432.44L1113.16 431.057L1073.22 383.821L1060.01 456.939L1118.93 441.152Z" fill="#032CAB"/>
<path d="M1118.93 441.153L1129.36 438.357C1131.46 437.794 1133.47 437.122 1135.42 436.259C1148.7 430.59 1158.36 418.809 1160.9 404.855L1168.92 360.494L1169.35 357.998L1151.59 337.022L1093.97 268.858L1073.22 383.823L1114.34 432.442C1116.53 434.989 1118.08 437.977 1118.93 441.153Z" fill="#003EBB"/>
<path d="M1169.43 358.044L1190.18 243.079L1093.97 268.858L1151.67 337.069L1169.43 358.044Z" fill="#0950DC"/>
<path d="M1135.42 436.258C1133.47 437.121 1131.46 437.794 1129.36 438.356C1130.64 438.015 1131.86 437.755 1133.11 437.558C1148.27 434.856 1163.79 440.092 1173.49 451.587L1203.55 487.171L1204.15 487.895L1215.46 425.227C1216.67 418.57 1214.85 411.773 1210.47 406.616L1169.35 357.997L1168.92 360.493L1160.94 404.773C1158.43 418.792 1148.68 430.525 1135.42 436.258Z" fill="#0858D6"/>
</g>
<g filter="url(#filter3_f_292_69)">
<path d="M924.503 250.924L878.424 196.468C876.159 193.796 871.606 195.016 870.981 198.463L850.524 311.783C849.687 316.364 850.94 321.041 853.955 324.589L928.332 412.499C930.597 415.172 935.15 413.952 935.775 410.505L948.453 340.306L915.424 301.28L924.503 250.924Z" fill="url(#paint107_linear_292_69)"/>
<path d="M993.498 297.552C986.826 289.643 976.179 285.984 965.712 287.899C964.856 288.034 963.969 288.225 963.137 288.448L955.957 290.372C956.542 292.557 956.646 294.872 956.222 297.141L948.442 340.262L994.521 394.717C996.786 397.39 1001.34 396.17 1001.96 392.723L1014.64 322.524L1014.23 322.026L993.498 297.552Z" fill="url(#paint108_linear_292_69)"/>
<path d="M1068.16 374.985L1088.58 261.676C1089.41 257.095 1088.16 252.418 1085.15 248.87L1004.98 154.078L990.704 233.185L990.413 234.903L990.704 233.185L1019 266.64C1022.02 270.188 1023.27 274.865 1022.43 279.446L1014.65 322.568L1014.24 322.07L1014.65 322.568L1060.73 377.023C1062.99 379.652 1067.54 378.432 1068.16 374.985Z" fill="url(#paint109_linear_292_69)"/>
<path d="M956.22 297.142C956.645 294.873 956.541 292.558 955.955 290.373L915.412 301.236L948.441 340.263L955.456 301.469L956.22 297.142Z" fill="#0688AC"/>
<path d="M955.956 290.373C955.371 288.188 954.304 286.132 952.802 284.379L951.984 283.427L924.504 250.925L915.414 301.237L955.956 290.373Z" fill="#032CAB"/>
<path d="M955.958 290.373L963.138 288.449C964.583 288.062 965.961 287.599 967.303 287.006C976.441 283.105 983.091 274.999 984.835 265.396L990.359 234.872L990.649 233.155L978.429 218.721L938.785 171.817L924.505 250.925L952.803 284.379C954.305 286.132 955.372 288.188 955.958 290.373Z" fill="#003EBB"/>
<path d="M990.704 233.186L1004.98 154.079L938.784 171.817L978.484 218.753L990.704 233.186Z" fill="#0950DC"/>
<path d="M967.301 287.005C965.959 287.599 964.581 288.062 963.136 288.449C964.012 288.214 964.855 288.035 965.711 287.9C976.146 286.04 986.826 289.644 993.497 297.553L1014.18 322.039L1014.6 322.536L1022.38 279.415C1023.21 274.834 1021.96 270.157 1018.95 266.609L990.648 233.154L990.357 234.872L984.865 265.341C983.133 274.987 976.427 283.061 967.301 287.005Z" fill="#0858D6"/>
</g>
</g>
<defs>
<filter id="filter0_f_292_69" x="-303.906" y="-275.205" width="993.762" height="1042.36" filterUnits="userSpaceOnUse" color-interpolation-filters="sRGB">
<feFlood flood-opacity="0" result="BackgroundImageFix"/>
<feBlend mode="normal" in="SourceGraphic" in2="BackgroundImageFix" result="shape"/>
<feGaussianBlur stdDeviation="112.461" result="effect1_foregroundBlur_292_69"/>
</filter>
<filter id="filter1_f_292_69" x="-646.431" y="-576.834" width="1148.11" height="1181.55" filterUnits="userSpaceOnUse" color-interpolation-filters="sRGB">
<feFlood flood-opacity="0" result="BackgroundImageFix"/>
<feBlend mode="normal" in="SourceGraphic" in2="BackgroundImageFix" result="shape"/>
<feGaussianBlur stdDeviation="193.46" result="effect1_foregroundBlur_292_69"/>
</filter>
<filter id="filter2_f_292_69" x="740.417" y="18.1559" width="796.54" height="827.514" filterUnits="userSpaceOnUse" color-interpolation-filters="sRGB">
<feFlood flood-opacity="0" result="BackgroundImageFix"/>
<feBlend mode="normal" in="SourceGraphic" in2="BackgroundImageFix" result="shape"/>
<feGaussianBlur stdDeviation="112.461" result="effect1_foregroundBlur_292_69"/>
</filter>
<filter id="filter3_f_292_69" x="463.349" y="-232.843" width="1012.4" height="1033.72" filterUnits="userSpaceOnUse" color-interpolation-filters="sRGB">
<feFlood flood-opacity="0" result="BackgroundImageFix"/>
<feBlend mode="normal" in="SourceGraphic" in2="BackgroundImageFix" result="shape"/>
<feGaussianBlur stdDeviation="193.46" result="effect1_foregroundBlur_292_69"/>
</filter>
<linearGradient id="paint0_linear_292_69" x1="697.272" y1="651.471" x2="988.483" y2="265.021" gradientUnits="userSpaceOnUse">
<stop stop-color="#4D69D3"/>
<stop offset="1" stop-color="#00F0FF" stop-opacity="0.42"/>
</linearGradient>
<linearGradient id="paint1_linear_292_69" x1="690.044" y1="646.518" x2="987.411" y2="265.906" gradientUnits="userSpaceOnUse">
<stop stop-color="#4D69D3"/>
<stop offset="1" stop-color="#00F0FF" stop-opacity="0.42"/>
</linearGradient>
<linearGradient id="paint2_linear_292_69" x1="682.87" y1="641.517" x2="986.278" y2="266.838" gradientUnits="userSpaceOnUse">
<stop stop-color="#4D69D3"/>
<stop offset="1" stop-color="#00F0FF" stop-opacity="0.42"/>
</linearGradient>
<linearGradient id="paint3_linear_292_69" x1="675.753" y1="636.472" x2="985.087" y2="267.822" gradientUnits="userSpaceOnUse">
<stop stop-color="#4D69D3"/>
<stop offset="1" stop-color="#00F0FF" stop-opacity="0.42"/>
</linearGradient>
<linearGradient id="paint4_linear_292_69" x1="668.695" y1="631.382" x2="983.836" y2="268.853" gradientUnits="userSpaceOnUse">
<stop stop-color="#4D69D3"/>
<stop offset="1" stop-color="#00F0FF" stop-opacity="0.42"/>
</linearGradient>
<linearGradient id="paint5_linear_292_69" x1="661.695" y1="626.242" x2="982.524" y2="269.925" gradientUnits="userSpaceOnUse">
<stop stop-color="#4D69D3"/>
<stop offset="1" stop-color="#00F0FF" stop-opacity="0.42"/>
</linearGradient>
<linearGradient id="paint6_linear_292_69" x1="654.753" y1="621.064" x2="981.15" y2="271.046" gradientUnits="userSpaceOnUse">
<stop stop-color="#4D69D3"/>
<stop offset="1" stop-color="#00F0FF" stop-opacity="0.42"/>
</linearGradient>
<linearGradient id="paint7_linear_292_69" x1="647.87" y1="615.84" x2="979.713" y2="272.207" gradientUnits="userSpaceOnUse">
<stop stop-color="#4D69D3"/>
<stop offset="1" stop-color="#00F0FF" stop-opacity="0.42"/>
</linearGradient>
<linearGradient id="paint8_linear_292_69" x1="641.05" y1="610.578" x2="978.215" y2="273.413" gradientUnits="userSpaceOnUse">
<stop stop-color="#4D69D3"/>
<stop offset="1" stop-color="#00F0FF" stop-opacity="0.42"/>
</linearGradient>
<linearGradient id="paint9_linear_292_69" x1="634.29" y1="605.275" x2="976.653" y2="274.659" gradientUnits="userSpaceOnUse">
<stop stop-color="#4D69D3"/>
<stop offset="1" stop-color="#00F0FF" stop-opacity="0.42"/>
</linearGradient>
<linearGradient id="paint10_linear_292_69" x1="627.589" y1="599.932" x2="975.024" y2="275.943" gradientUnits="userSpaceOnUse">
<stop stop-color="#4D69D3"/>
<stop offset="1" stop-color="#00F0FF" stop-opacity="0.42"/>
</linearGradient>
<linearGradient id="paint11_linear_292_69" x1="620.954" y1="594.553" x2="973.334" y2="277.268" gradientUnits="userSpaceOnUse">
<stop stop-color="#4D69D3"/>
<stop offset="1" stop-color="#00F0FF" stop-opacity="0.42"/>
</linearGradient>
<linearGradient id="paint12_linear_292_69" x1="614.379" y1="589.137" x2="971.577" y2="278.63" gradientUnits="userSpaceOnUse">
<stop stop-color="#4D69D3"/>
<stop offset="1" stop-color="#00F0FF" stop-opacity="0.42"/>
</linearGradient>
<linearGradient id="paint13_linear_292_69" x1="607.867" y1="583.685" x2="969.753" y2="280.027" gradientUnits="userSpaceOnUse">
<stop stop-color="#4D69D3"/>
<stop offset="1" stop-color="#00F0FF" stop-opacity="0.42"/>
</linearGradient>
<linearGradient id="paint14_linear_292_69" x1="601.422" y1="578.201" x2="967.866" y2="281.461" gradientUnits="userSpaceOnUse">
<stop stop-color="#4D69D3"/>
<stop offset="1" stop-color="#00F0FF" stop-opacity="0.42"/>
</linearGradient>
<linearGradient id="paint15_linear_292_69" x1="595.037" y1="572.682" x2="965.909" y2="282.926" gradientUnits="userSpaceOnUse">
<stop stop-color="#4D69D3"/>
<stop offset="1" stop-color="#00F0FF" stop-opacity="0.42"/>
</linearGradient>
<linearGradient id="paint16_linear_292_69" x1="588.719" y1="567.133" x2="963.886" y2="284.425" gradientUnits="userSpaceOnUse">
<stop stop-color="#4D69D3"/>
<stop offset="1" stop-color="#00F0FF" stop-opacity="0.42"/>
</linearGradient>
<linearGradient id="paint17_linear_292_69" x1="582.466" y1="561.555" x2="961.794" y2="285.956" gradientUnits="userSpaceOnUse">
<stop stop-color="#4D69D3"/>
<stop offset="1" stop-color="#00F0FF" stop-opacity="0.42"/>
</linearGradient>
<linearGradient id="paint18_linear_292_69" x1="576.277" y1="555.944" x2="959.634" y2="287.514" gradientUnits="userSpaceOnUse">
<stop stop-color="#4D69D3"/>
<stop offset="1" stop-color="#00F0FF" stop-opacity="0.42"/>
</linearGradient>
<linearGradient id="paint19_linear_292_69" x1="570.156" y1="550.307" x2="957.408" y2="289.102" gradientUnits="userSpaceOnUse">
<stop stop-color="#4D69D3"/>
<stop offset="1" stop-color="#00F0FF" stop-opacity="0.42"/>
</linearGradient>
<linearGradient id="paint20_linear_292_69" x1="564.099" y1="544.644" x2="955.11" y2="290.718" gradientUnits="userSpaceOnUse">
<stop stop-color="#4D69D3"/>
<stop offset="1" stop-color="#00F0FF" stop-opacity="0.42"/>
</linearGradient>
<linearGradient id="paint21_linear_292_69" x1="558.11" y1="538.954" x2="952.744" y2="292.359" gradientUnits="userSpaceOnUse">
<stop stop-color="#4D69D3"/>
<stop offset="1" stop-color="#00F0FF" stop-opacity="0.42"/>
</linearGradient>
<linearGradient id="paint22_linear_292_69" x1="552.187" y1="533.241" x2="950.308" y2="294.026" gradientUnits="userSpaceOnUse">
<stop stop-color="#4D69D3"/>
<stop offset="1" stop-color="#00F0FF" stop-opacity="0.42"/>
</linearGradient>
<linearGradient id="paint23_linear_292_69" x1="546.332" y1="527.504" x2="947.802" y2="295.715" gradientUnits="userSpaceOnUse">
<stop stop-color="#4D69D3"/>
<stop offset="1" stop-color="#00F0FF" stop-opacity="0.42"/>
</linearGradient>
<linearGradient id="paint24_linear_292_69" x1="540.545" y1="521.747" x2="945.227" y2="297.428" gradientUnits="userSpaceOnUse">
<stop stop-color="#4D69D3"/>
<stop offset="1" stop-color="#00F0FF" stop-opacity="0.42"/>
</linearGradient>
<linearGradient id="paint25_linear_292_69" x1="534.824" y1="515.967" x2="942.58" y2="299.159" gradientUnits="userSpaceOnUse">
<stop stop-color="#4D69D3"/>
<stop offset="1" stop-color="#00F0FF" stop-opacity="0.42"/>
</linearGradient>
<linearGradient id="paint26_linear_292_69" x1="529.172" y1="510.169" x2="939.863" y2="300.912" gradientUnits="userSpaceOnUse">
<stop stop-color="#4D69D3"/>
<stop offset="1" stop-color="#00F0FF" stop-opacity="0.42"/>
</linearGradient>
<linearGradient id="paint27_linear_292_69" x1="523.588" y1="504.353" x2="937.075" y2="302.682" gradientUnits="userSpaceOnUse">
<stop stop-color="#4D69D3"/>
<stop offset="1" stop-color="#00F0FF" stop-opacity="0.42"/>
</linearGradient>
<linearGradient id="paint28_linear_292_69" x1="518.072" y1="498.521" x2="934.215" y2="304.47" gradientUnits="userSpaceOnUse">
<stop stop-color="#4D69D3"/>
<stop offset="1" stop-color="#00F0FF" stop-opacity="0.42"/>
</linearGradient>
<linearGradient id="paint29_linear_292_69" x1="512.626" y1="492.67" x2="931.286" y2="306.271" gradientUnits="userSpaceOnUse">
<stop stop-color="#4D69D3"/>
<stop offset="1" stop-color="#00F0FF" stop-opacity="0.42"/>
</linearGradient>
<linearGradient id="paint30_linear_292_69" x1="507.246" y1="486.809" x2="928.283" y2="308.09" gradientUnits="userSpaceOnUse">
<stop stop-color="#4D69D3"/>
<stop offset="1" stop-color="#00F0FF" stop-opacity="0.42"/>
</linearGradient>
<linearGradient id="paint31_linear_292_69" x1="501.937" y1="480.932" x2="925.21" y2="309.919" gradientUnits="userSpaceOnUse">
<stop stop-color="#4D69D3"/>
<stop offset="1" stop-color="#00F0FF" stop-opacity="0.42"/>
</linearGradient>
<linearGradient id="paint32_linear_292_69" x1="496.696" y1="475.046" x2="922.065" y2="311.762" gradientUnits="userSpaceOnUse">
<stop stop-color="#4D69D3"/>
<stop offset="1" stop-color="#00F0FF" stop-opacity="0.42"/>
</linearGradient>
<linearGradient id="paint33_linear_292_69" x1="491.526" y1="469.146" x2="918.85" y2="313.613" gradientUnits="userSpaceOnUse">
<stop stop-color="#4D69D3"/>
<stop offset="1" stop-color="#00F0FF" stop-opacity="0.42"/>
</linearGradient>
<linearGradient id="paint34_linear_292_69" x1="486.422" y1="463.24" x2="915.56" y2="315.476" gradientUnits="userSpaceOnUse">
<stop stop-color="#4D69D3"/>
<stop offset="1" stop-color="#00F0FF" stop-opacity="0.42"/>
</linearGradient>
<linearGradient id="paint35_linear_292_69" x1="481.388" y1="457.323" x2="912.199" y2="317.344" gradientUnits="userSpaceOnUse">
<stop stop-color="#4D69D3"/>
<stop offset="1" stop-color="#00F0FF" stop-opacity="0.42"/>
</linearGradient>
<linearGradient id="paint36_linear_292_69" x1="476.422" y1="451.402" x2="908.767" y2="319.221" gradientUnits="userSpaceOnUse">
<stop stop-color="#4D69D3"/>
<stop offset="1" stop-color="#00F0FF" stop-opacity="0.42"/>
</linearGradient>
<linearGradient id="paint37_linear_292_69" x1="471.528" y1="445.474" x2="905.264" y2="321.102" gradientUnits="userSpaceOnUse">
<stop stop-color="#4D69D3"/>
<stop offset="1" stop-color="#00F0FF" stop-opacity="0.42"/>
</linearGradient>
<linearGradient id="paint38_linear_292_69" x1="466.7" y1="439.542" x2="901.688" y2="322.987" gradientUnits="userSpaceOnUse">
<stop stop-color="#4D69D3"/>
<stop offset="1" stop-color="#00F0FF" stop-opacity="0.42"/>
</linearGradient>
<linearGradient id="paint39_linear_292_69" x1="461.943" y1="433.605" x2="898.042" y2="324.873" gradientUnits="userSpaceOnUse">
<stop stop-color="#4D69D3"/>
<stop offset="1" stop-color="#00F0FF" stop-opacity="0.42"/>
</linearGradient>
<linearGradient id="paint40_linear_292_69" x1="457.253" y1="427.67" x2="894.324" y2="326.764" gradientUnits="userSpaceOnUse">
<stop stop-color="#4D69D3"/>
<stop offset="1" stop-color="#00F0FF" stop-opacity="0.42"/>
</linearGradient>
<linearGradient id="paint41_linear_292_69" x1="452.633" y1="421.732" x2="890.534" y2="328.653" gradientUnits="userSpaceOnUse">
<stop stop-color="#4D69D3"/>
<stop offset="1" stop-color="#00F0FF" stop-opacity="0.42"/>
</linearGradient>
<linearGradient id="paint42_linear_292_69" x1="448.082" y1="415.794" x2="886.674" y2="330.54" gradientUnits="userSpaceOnUse">
<stop stop-color="#4D69D3"/>
<stop offset="1" stop-color="#00F0FF" stop-opacity="0.42"/>
</linearGradient>
<linearGradient id="paint43_linear_292_69" x1="443.597" y1="409.859" x2="882.741" y2="332.427" gradientUnits="userSpaceOnUse">
<stop stop-color="#4D69D3"/>
<stop offset="1" stop-color="#00F0FF" stop-opacity="0.42"/>
</linearGradient>
<linearGradient id="paint44_linear_292_69" x1="439.182" y1="403.928" x2="878.738" y2="334.31" gradientUnits="userSpaceOnUse">
<stop stop-color="#4D69D3"/>
<stop offset="1" stop-color="#00F0FF" stop-opacity="0.42"/>
</linearGradient>
<linearGradient id="paint45_linear_292_69" x1="434.835" y1="398.001" x2="874.665" y2="336.187" gradientUnits="userSpaceOnUse">
<stop stop-color="#4D69D3"/>
<stop offset="1" stop-color="#00F0FF" stop-opacity="0.42"/>
</linearGradient>
<linearGradient id="paint46_linear_292_69" x1="430.556" y1="392.077" x2="870.521" y2="338.057" gradientUnits="userSpaceOnUse">
<stop stop-color="#4D69D3"/>
<stop offset="1" stop-color="#00F0FF" stop-opacity="0.42"/>
</linearGradient>
<linearGradient id="paint47_linear_292_69" x1="426.344" y1="386.162" x2="866.307" y2="339.92" gradientUnits="userSpaceOnUse">
<stop stop-color="#4D69D3"/>
<stop offset="1" stop-color="#00F0FF" stop-opacity="0.42"/>
</linearGradient>
<linearGradient id="paint48_linear_292_69" x1="422.201" y1="380.254" x2="862.024" y2="341.775" gradientUnits="userSpaceOnUse">
<stop stop-color="#4D69D3"/>
<stop offset="1" stop-color="#00F0FF" stop-opacity="0.42"/>
</linearGradient>
<linearGradient id="paint49_linear_292_69" x1="418.123" y1="374.356" x2="857.67" y2="343.62" gradientUnits="userSpaceOnUse">
<stop stop-color="#4D69D3"/>
<stop offset="1" stop-color="#00F0FF" stop-opacity="0.42"/>
</linearGradient>
<linearGradient id="paint50_linear_292_69" x1="414.113" y1="368.468" x2="853.248" y2="345.454" gradientUnits="userSpaceOnUse">
<stop stop-color="#4D69D3"/>
<stop offset="1" stop-color="#00F0FF" stop-opacity="0.42"/>
</linearGradient>
<linearGradient id="paint51_linear_292_69" x1="410.169" y1="362.59" x2="848.756" y2="347.275" gradientUnits="userSpaceOnUse">
<stop stop-color="#4D69D3"/>
<stop offset="1" stop-color="#00F0FF" stop-opacity="0.42"/>
</linearGradient>
<linearGradient id="paint52_linear_292_69" x1="406.291" y1="356.726" x2="844.195" y2="349.083" gradientUnits="userSpaceOnUse">
<stop stop-color="#4D69D3"/>
<stop offset="1" stop-color="#00F0FF" stop-opacity="0.42"/>
</linearGradient>
<linearGradient id="paint53_linear_292_69" x1="402.478" y1="350.876" x2="839.567" y2="350.876" gradientUnits="userSpaceOnUse">
<stop stop-color="#4D69D3"/>
<stop offset="1" stop-color="#00F0FF" stop-opacity="0.42"/>
</linearGradient>
<linearGradient id="paint54_linear_292_69" x1="398.732" y1="345.039" x2="834.87" y2="352.652" gradientUnits="userSpaceOnUse">
<stop stop-color="#4D69D3"/>
<stop offset="1" stop-color="#00F0FF" stop-opacity="0.42"/>
</linearGradient>
<linearGradient id="paint55_linear_292_69" x1="395.05" y1="339.22" x2="830.106" y2="354.413" gradientUnits="userSpaceOnUse">
<stop stop-color="#4D69D3"/>
<stop offset="1" stop-color="#00F0FF" stop-opacity="0.42"/>
</linearGradient>
<linearGradient id="paint56_linear_292_69" x1="391.432" y1="333.418" x2="825.276" y2="356.155" gradientUnits="userSpaceOnUse">
<stop stop-color="#4D69D3"/>
<stop offset="1" stop-color="#00F0FF" stop-opacity="0.42"/>
</linearGradient>
<linearGradient id="paint57_linear_292_69" x1="387.879" y1="327.633" x2="820.379" y2="357.877" gradientUnits="userSpaceOnUse">
<stop stop-color="#4D69D3"/>
<stop offset="1" stop-color="#00F0FF" stop-opacity="0.42"/>
</linearGradient>
<linearGradient id="paint58_linear_292_69" x1="384.39" y1="321.869" x2="815.416" y2="359.579" gradientUnits="userSpaceOnUse">
<stop stop-color="#4D69D3"/>
<stop offset="1" stop-color="#00F0FF" stop-opacity="0.42"/>
</linearGradient>
<linearGradient id="paint59_linear_292_69" x1="380.964" y1="316.125" x2="810.388" y2="361.259" gradientUnits="userSpaceOnUse">
<stop stop-color="#4D69D3"/>
<stop offset="1" stop-color="#00F0FF" stop-opacity="0.42"/>
</linearGradient>
<linearGradient id="paint60_linear_292_69" x1="377.6" y1="310.401" x2="805.295" y2="362.916" gradientUnits="userSpaceOnUse">
<stop stop-color="#4D69D3"/>
<stop offset="1" stop-color="#00F0FF" stop-opacity="0.42"/>
</linearGradient>
<linearGradient id="paint61_linear_292_69" x1="374.298" y1="304.702" x2="800.138" y2="364.549" gradientUnits="userSpaceOnUse">
<stop stop-color="#4D69D3"/>
<stop offset="1" stop-color="#00F0FF" stop-opacity="0.42"/>
</linearGradient>
<linearGradient id="paint62_linear_292_69" x1="371.057" y1="299.026" x2="794.914" y2="366.159" gradientUnits="userSpaceOnUse">
<stop stop-color="#4D69D3"/>
<stop offset="1" stop-color="#00F0FF" stop-opacity="0.42"/>
</linearGradient>
<linearGradient id="paint63_linear_292_69" x1="367.879" y1="293.374" x2="789.63" y2="367.741" gradientUnits="userSpaceOnUse">
<stop stop-color="#4D69D3"/>
<stop offset="1" stop-color="#00F0FF" stop-opacity="0.42"/>
</linearGradient>
<linearGradient id="paint64_linear_292_69" x1="364.76" y1="287.747" x2="784.283" y2="369.294" gradientUnits="userSpaceOnUse">
<stop stop-color="#4D69D3"/>
<stop offset="1" stop-color="#00F0FF" stop-opacity="0.42"/>
</linearGradient>
<linearGradient id="paint65_linear_292_69" x1="361.702" y1="282.149" x2="778.874" y2="370.821" gradientUnits="userSpaceOnUse">
<stop stop-color="#4D69D3"/>
<stop offset="1" stop-color="#00F0FF" stop-opacity="0.42"/>
</linearGradient>
<linearGradient id="paint66_linear_292_69" x1="358.702" y1="276.577" x2="773.403" y2="372.318" gradientUnits="userSpaceOnUse">
<stop stop-color="#4D69D3"/>
<stop offset="1" stop-color="#00F0FF" stop-opacity="0.42"/>
</linearGradient>
<linearGradient id="paint67_linear_292_69" x1="355.761" y1="271.034" x2="767.871" y2="373.785" gradientUnits="userSpaceOnUse">
<stop stop-color="#4D69D3"/>
<stop offset="1" stop-color="#00F0FF" stop-opacity="0.42"/>
</linearGradient>
<linearGradient id="paint68_linear_292_69" x1="352.88" y1="265.522" x2="762.281" y2="375.221" gradientUnits="userSpaceOnUse">
<stop stop-color="#4D69D3"/>
<stop offset="1" stop-color="#00F0FF" stop-opacity="0.42"/>
</linearGradient>
<linearGradient id="paint69_linear_292_69" x1="350.054" y1="260.04" x2="756.629" y2="376.623" gradientUnits="userSpaceOnUse">
<stop stop-color="#4D69D3"/>
<stop offset="1" stop-color="#00F0FF" stop-opacity="0.42"/>
</linearGradient>
<linearGradient id="paint70_linear_292_69" x1="347.286" y1="254.59" x2="750.92" y2="377.993" gradientUnits="userSpaceOnUse">
<stop stop-color="#4D69D3"/>
<stop offset="1" stop-color="#00F0FF" stop-opacity="0.42"/>
</linearGradient>
<linearGradient id="paint71_linear_292_69" x1="344.573" y1="249.173" x2="745.152" y2="379.329" gradientUnits="userSpaceOnUse">
<stop stop-color="#4D69D3"/>
<stop offset="1" stop-color="#00F0FF" stop-opacity="0.42"/>
</linearGradient>
<linearGradient id="paint72_linear_292_69" x1="341.916" y1="243.788" x2="739.328" y2="380.628" gradientUnits="userSpaceOnUse">
<stop stop-color="#4D69D3"/>
<stop offset="1" stop-color="#00F0FF" stop-opacity="0.42"/>
</linearGradient>
<linearGradient id="paint73_linear_292_69" x1="339.313" y1="238.439" x2="733.446" y2="381.892" gradientUnits="userSpaceOnUse">
<stop stop-color="#4D69D3"/>
<stop offset="1" stop-color="#00F0FF" stop-opacity="0.42"/>
</linearGradient>
<linearGradient id="paint74_linear_292_69" x1="336.765" y1="233.124" x2="727.51" y2="383.117" gradientUnits="userSpaceOnUse">
<stop stop-color="#4D69D3"/>
<stop offset="1" stop-color="#00F0FF" stop-opacity="0.42"/>
</linearGradient>
<linearGradient id="paint75_linear_292_69" x1="334.27" y1="227.848" x2="721.519" y2="384.307" gradientUnits="userSpaceOnUse">
<stop stop-color="#4D69D3"/>
<stop offset="1" stop-color="#00F0FF" stop-opacity="0.42"/>
</linearGradient>
<linearGradient id="paint76_linear_292_69" x1="331.826" y1="222.608" x2="715.473" y2="385.456" gradientUnits="userSpaceOnUse">
<stop stop-color="#4D69D3"/>
<stop offset="1" stop-color="#00F0FF" stop-opacity="0.42"/>
</linearGradient>
<linearGradient id="paint77_linear_292_69" x1="329.434" y1="217.406" x2="709.374" y2="386.566" gradientUnits="userSpaceOnUse">
<stop stop-color="#4D69D3"/>
<stop offset="1" stop-color="#00F0FF" stop-opacity="0.42"/>
</linearGradient>
<linearGradient id="paint78_linear_292_69" x1="327.092" y1="212.242" x2="703.221" y2="387.634" gradientUnits="userSpaceOnUse">
<stop stop-color="#4D69D3"/>
<stop offset="1" stop-color="#00F0FF" stop-opacity="0.42"/>
</linearGradient>
<linearGradient id="paint79_linear_292_69" x1="324.801" y1="207.119" x2="697.019" y2="388.661" gradientUnits="userSpaceOnUse">
<stop stop-color="#4D69D3"/>
<stop offset="1" stop-color="#00F0FF" stop-opacity="0.42"/>
</linearGradient>
<linearGradient id="paint80_linear_292_69" x1="322.559" y1="202.036" x2="690.765" y2="389.646" gradientUnits="userSpaceOnUse">
<stop stop-color="#4D69D3"/>
<stop offset="1" stop-color="#00F0FF" stop-opacity="0.42"/>
</linearGradient>
<linearGradient id="paint81_linear_292_69" x1="320.365" y1="196.994" x2="684.461" y2="390.588" gradientUnits="userSpaceOnUse">
<stop stop-color="#4D69D3"/>
<stop offset="1" stop-color="#00F0FF" stop-opacity="0.42"/>
</linearGradient>
<linearGradient id="paint82_linear_292_69" x1="318.221" y1="191.995" x2="678.11" y2="391.485" gradientUnits="userSpaceOnUse">
<stop stop-color="#4D69D3"/>
<stop offset="1" stop-color="#00F0FF" stop-opacity="0.42"/>
</linearGradient>
<linearGradient id="paint83_linear_292_69" x1="316.121" y1="187.039" x2="671.709" y2="392.338" gradientUnits="userSpaceOnUse">
<stop stop-color="#4D69D3"/>
<stop offset="1" stop-color="#00F0FF" stop-opacity="0.42"/>
</linearGradient>
<linearGradient id="paint84_linear_292_69" x1="314.068" y1="182.125" x2="665.262" y2="393.144" gradientUnits="userSpaceOnUse">
<stop stop-color="#4D69D3"/>
<stop offset="1" stop-color="#00F0FF" stop-opacity="0.42"/>
</linearGradient>
<linearGradient id="paint85_linear_292_69" x1="312.059" y1="177.255" x2="658.768" y2="393.903" gradientUnits="userSpaceOnUse">
<stop stop-color="#4D69D3"/>
<stop offset="1" stop-color="#00F0FF" stop-opacity="0.42"/>
</linearGradient>
<linearGradient id="paint86_linear_292_69" x1="310.094" y1="172.433" x2="652.228" y2="394.618" gradientUnits="userSpaceOnUse">
<stop stop-color="#4D69D3"/>
<stop offset="1" stop-color="#00F0FF" stop-opacity="0.42"/>
</linearGradient>
<linearGradient id="paint87_linear_292_69" x1="308.171" y1="167.653" x2="645.644" y2="395.281" gradientUnits="userSpaceOnUse">
<stop stop-color="#4D69D3"/>
<stop offset="1" stop-color="#00F0FF" stop-opacity="0.42"/>
</linearGradient>
<linearGradient id="paint88_linear_292_69" x1="306.29" y1="162.922" x2="639.016" y2="395.899" gradientUnits="userSpaceOnUse">
<stop stop-color="#4D69D3"/>
<stop offset="1" stop-color="#00F0FF" stop-opacity="0.42"/>
</linearGradient>
<linearGradient id="paint89_linear_292_69" x1="304.452" y1="158.238" x2="632.347" y2="396.468" gradientUnits="userSpaceOnUse">
<stop stop-color="#4D69D3"/>
<stop offset="1" stop-color="#00F0FF" stop-opacity="0.42"/>
</linearGradient>
<linearGradient id="paint90_linear_292_69" x1="302.654" y1="153.6" x2="625.636" y2="396.984" gradientUnits="userSpaceOnUse">
<stop stop-color="#4D69D3"/>
<stop offset="1" stop-color="#00F0FF" stop-opacity="0.42"/>
</linearGradient>
<linearGradient id="paint91_linear_292_69" x1="300.894" y1="149.012" x2="618.883" y2="397.452" gradientUnits="userSpaceOnUse">
<stop stop-color="#4D69D3"/>
<stop offset="1" stop-color="#00F0FF" stop-opacity="0.42"/>
</linearGradient>
<linearGradient id="paint92_linear_292_69" x1="299.174" y1="144.473" x2="612.093" y2="397.869" gradientUnits="userSpaceOnUse">
<stop stop-color="#4D69D3"/>
<stop offset="1" stop-color="#00F0FF" stop-opacity="0.42"/>
</linearGradient>
<linearGradient id="paint93_linear_292_69" x1="297.49" y1="139.984" x2="605.262" y2="398.235" gradientUnits="userSpaceOnUse">
<stop stop-color="#4D69D3"/>
<stop offset="1" stop-color="#00F0FF" stop-opacity="0.42"/>
</linearGradient>
<linearGradient id="paint94_linear_292_69" x1="295.844" y1="135.542" x2="598.395" y2="398.546" gradientUnits="userSpaceOnUse">
<stop stop-color="#4D69D3"/>
<stop offset="1" stop-color="#00F0FF" stop-opacity="0.42"/>
</linearGradient>
<linearGradient id="paint95_linear_292_69" x1="294.232" y1="131.154" x2="591.491" y2="398.808" gradientUnits="userSpaceOnUse">
<stop stop-color="#4D69D3"/>
<stop offset="1" stop-color="#00F0FF" stop-opacity="0.42"/>
</linearGradient>
<linearGradient id="paint96_linear_292_69" x1="292.657" y1="126.814" x2="584.554" y2="399.013" gradientUnits="userSpaceOnUse">
<stop stop-color="#4D69D3"/>
<stop offset="1" stop-color="#00F0FF" stop-opacity="0.42"/>
</linearGradient>
<linearGradient id="paint97_linear_292_69" x1="291.113" y1="122.528" x2="577.58" y2="399.165" gradientUnits="userSpaceOnUse">
<stop stop-color="#4D69D3"/>
<stop offset="1" stop-color="#00F0FF" stop-opacity="0.42"/>
</linearGradient>
<linearGradient id="paint98_linear_292_69" x1="289.602" y1="118.294" x2="570.572" y2="399.264" gradientUnits="userSpaceOnUse">
<stop stop-color="#4D69D3"/>
<stop offset="1" stop-color="#00F0FF" stop-opacity="0.42"/>
</linearGradient>
<linearGradient id="paint99_linear_292_69" x1="462.326" y1="179.957" x2="7.21534" y2="301.904" gradientUnits="userSpaceOnUse">
<stop offset="0.1192" stop-color="#3866FB"/>
<stop offset="1" stop-color="#31DC7D"/>
</linearGradient>
<linearGradient id="paint100_linear_292_69" x1="502.053" y1="302.855" x2="38.5694" y2="427.045" gradientUnits="userSpaceOnUse">
<stop offset="0.1192" stop-color="#3866FB"/>
<stop offset="1" stop-color="#31DC7D"/>
</linearGradient>
<linearGradient id="paint101_linear_292_69" x1="463.349" y1="172.842" x2="5.62805" y2="295.488" gradientUnits="userSpaceOnUse">
<stop offset="0.1192" stop-color="#3866FB"/>
<stop offset="1" stop-color="#31DC7D"/>
</linearGradient>
<linearGradient id="paint102_linear_292_69" x1="140.301" y1="53.0784" x2="-178.62" y2="138.533" gradientUnits="userSpaceOnUse">
<stop offset="0.1192" stop-color="#3866FB"/>
<stop offset="1" stop-color="#31DC7D"/>
</linearGradient>
<linearGradient id="paint103_linear_292_69" x1="113.668" y1="-36.3818" x2="-201.288" y2="48.0105" gradientUnits="userSpaceOnUse">
<stop offset="0.1192" stop-color="#3866FB"/>
<stop offset="1" stop-color="#31DC7D"/>
</linearGradient>
<linearGradient id="paint104_linear_292_69" x1="1310.37" y1="389.835" x2="1020.28" y2="467.564" gradientUnits="userSpaceOnUse">
<stop offset="0.1192" stop-color="#3866FB"/>
<stop offset="1" stop-color="#31DC7D"/>
</linearGradient>
<linearGradient id="paint105_linear_292_69" x1="1335.69" y1="468.17" x2="1040.27" y2="547.329" gradientUnits="userSpaceOnUse">
<stop offset="0.1192" stop-color="#3866FB"/>
<stop offset="1" stop-color="#31DC7D"/>
</linearGradient>
<linearGradient id="paint106_linear_292_69" x1="1311.02" y1="385.299" x2="1019.27" y2="463.474" gradientUnits="userSpaceOnUse">
<stop offset="0.1192" stop-color="#3866FB"/>
<stop offset="1" stop-color="#31DC7D"/>
</linearGradient>
<linearGradient id="paint107_linear_292_69" x1="1087.69" y1="255.061" x2="888.076" y2="308.546" gradientUnits="userSpaceOnUse">
<stop offset="0.1192" stop-color="#3866FB"/>
<stop offset="1" stop-color="#31DC7D"/>
</linearGradient>
<linearGradient id="paint108_linear_292_69" x1="1105.11" y1="308.962" x2="901.83" y2="363.432" gradientUnits="userSpaceOnUse">
<stop offset="0.1192" stop-color="#3866FB"/>
<stop offset="1" stop-color="#31DC7D"/>
</linearGradient>
<linearGradient id="paint109_linear_292_69" x1="1088.14" y1="251.94" x2="887.381" y2="305.732" gradientUnits="userSpaceOnUse">
<stop offset="0.1192" stop-color="#3866FB"/>
<stop offset="1" stop-color="#31DC7D"/>
</linearGradient>
</defs>
</svg>
