<svg width="34" height="34" viewBox="0 0 34 34" fill="none" xmlns="http://www.w3.org/2000/svg">
<path opacity="0.3" fill-rule="evenodd" clip-rule="evenodd" d="M4.25 4.83331C4.25 3.72874 5.14543 2.83331 6.25 2.83331H27.75C28.8546 2.83331 29.75 3.72874 29.75 4.83331V9.33331C29.75 10.4379 28.8546 11.3333 27.75 11.3333H6.25C5.14543 11.3333 4.25 10.4379 4.25 9.33331V4.83331ZM14.1667 6.66665C14.1667 6.11436 14.6144 5.66665 15.1667 5.66665H23.0833C23.6356 5.66665 24.0833 6.11436 24.0833 6.66665V7.49998C24.0833 8.05227 23.6356 8.49998 23.0833 8.49998H15.1667C14.6144 8.49998 14.1667 8.05226 14.1667 7.49998V6.66665ZM11.3333 7.08331C11.3333 7.86572 10.6991 8.49998 9.91667 8.49998C9.13426 8.49998 8.5 7.86572 8.5 7.08331C8.5 6.30091 9.13426 5.66665 9.91667 5.66665C10.6991 5.66665 11.3333 6.30091 11.3333 7.08331Z" fill="url(#paint0_linear_522_91)"/>
<path fill-rule="evenodd" clip-rule="evenodd" d="M4.25 14.75C4.25 13.6454 5.14543 12.75 6.25 12.75H27.75C28.8546 12.75 29.75 13.6454 29.75 14.75V19.25C29.75 20.3546 28.8546 21.25 27.75 21.25H6.25C5.14543 21.25 4.25 20.3546 4.25 19.25V14.75ZM14.1667 16.5833C14.1667 16.031 14.6144 15.5833 15.1667 15.5833H23.0833C23.6356 15.5833 24.0833 16.031 24.0833 16.5833V17.4167C24.0833 17.969 23.6356 18.4167 23.0833 18.4167H15.1667C14.6144 18.4167 14.1667 17.969 14.1667 17.4167V16.5833ZM11.3333 17C11.3333 17.7824 10.6991 18.4167 9.91667 18.4167C9.13426 18.4167 8.5 17.7824 8.5 17C8.5 16.2176 9.13426 15.5833 9.91667 15.5833C10.6991 15.5833 11.3333 16.2176 11.3333 17Z" fill="url(#paint1_linear_522_91)"/>
<path fill-rule="evenodd" clip-rule="evenodd" d="M4.25 24.6667C4.25 23.5621 5.14543 22.6667 6.25 22.6667H27.75C28.8546 22.6667 29.75 23.5621 29.75 24.6667V29.1667C29.75 30.2713 28.8546 31.1667 27.75 31.1667H6.25C5.14543 31.1667 4.25 30.2713 4.25 29.1667V24.6667ZM14.1667 26.5C14.1667 25.9477 14.6144 25.5 15.1667 25.5H23.0833C23.6356 25.5 24.0833 25.9477 24.0833 26.5V27.3334C24.0833 27.8856 23.6356 28.3334 23.0833 28.3334H15.1667C14.6144 28.3334 14.1667 27.8856 14.1667 27.3334V26.5ZM11.3333 26.9167C11.3333 27.6991 10.6991 28.3334 9.91667 28.3334C9.13426 28.3334 8.5 27.6991 8.5 26.9167C8.5 26.1343 9.13426 25.5 9.91667 25.5C10.6991 25.5 11.3333 26.1343 11.3333 26.9167Z" fill="url(#paint2_linear_522_91)"/>
<defs>
<linearGradient id="paint0_linear_522_91" x1="17" y1="2.83331" x2="31.9433" y2="12.6301" gradientUnits="userSpaceOnUse">
<stop stop-color="#4D69D3"/>
<stop offset="1" stop-color="#55BDD5"/>
</linearGradient>
<linearGradient id="paint1_linear_522_91" x1="17" y1="12.75" x2="31.9433" y2="22.5468" gradientUnits="userSpaceOnUse">
<stop stop-color="#4D69D3"/>
<stop offset="1" stop-color="#55BDD5"/>
</linearGradient>
<linearGradient id="paint2_linear_522_91" x1="17" y1="22.6667" x2="31.9433" y2="32.4635" gradientUnits="userSpaceOnUse">
<stop stop-color="#4D69D3"/>
<stop offset="1" stop-color="#55BDD5"/>
</linearGradient>
</defs>
</svg>
