<svg width="35" height="35" viewBox="0 0 35 35" fill="none" xmlns="http://www.w3.org/2000/svg">
<path opacity="0.3" fill-rule="evenodd" clip-rule="evenodd" d="M20.2842 2.91663H8.54183C5.86332 2.91663 5.8335 3.10056 5.8335 5.71177V29.2882C5.8335 31.8994 5.86332 32.0833 8.54183 32.0833H26.4585C29.137 32.0833 29.1668 31.8994 29.1668 29.2882V10.6611C29.1668 10.2198 28.9725 9.80085 28.6355 9.51585L21.2529 3.27137C20.9821 3.04231 20.6389 2.91663 20.2842 2.91663ZM14.8812 22.5494C15.1608 22.829 15.5101 22.9687 15.8595 22.9687C16.2089 22.9687 16.5583 22.829 16.8378 22.5494L22.4281 16.9592C22.9871 16.4001 22.9871 15.5616 22.4281 15.0026C21.8691 14.4435 21.0305 14.4435 20.4715 15.0026L15.8595 19.6145L14.0427 17.7977C13.5535 17.2387 12.6451 17.2387 12.0861 17.7977C11.5271 18.3567 11.5271 19.1953 12.0861 19.7543L14.8812 22.5494Z" fill="url(#paint0_linear_531_621)"/>
<path fill-rule="evenodd" clip-rule="evenodd" d="M15.8592 22.9688C15.5098 22.9688 15.1604 22.829 14.8809 22.5495L12.0858 19.7544C11.5267 19.1954 11.5267 18.3568 12.0858 17.7978C12.6448 17.2388 13.5532 17.2388 14.0424 17.7978L15.8592 19.6146L20.4712 15.0026C21.0302 14.4436 21.8688 14.4436 22.4278 15.0026C22.9868 15.5617 22.9868 16.4002 22.4278 16.9592L16.8375 22.5495C16.558 22.829 16.2086 22.9688 15.8592 22.9688Z" fill="url(#paint1_linear_531_621)"/>
<defs>
<linearGradient id="paint0_linear_531_621" x1="17.5002" y1="2.91663" x2="36.471" y2="6.23323" gradientUnits="userSpaceOnUse">
<stop stop-color="#4D69D3"/>
<stop offset="1" stop-color="#55BDD5"/>
</linearGradient>
<linearGradient id="paint1_linear_531_621" x1="17.2568" y1="14.5834" x2="25.8917" y2="17.0994" gradientUnits="userSpaceOnUse">
<stop stop-color="#4D69D3"/>
<stop offset="1" stop-color="#55BDD5"/>
</linearGradient>
</defs>
</svg>
