<svg width="44" height="40" viewBox="0 0 44 40" fill="none" xmlns="http://www.w3.org/2000/svg">
<path fill-rule="evenodd" clip-rule="evenodd" d="M15.36 21.7999L19.0334 25.4733C20.0479 26.4878 21.5978 26.7393 22.8811 26.0977L23.2974 25.8896C24.5807 25.2479 26.1306 25.4994 27.1451 26.514L31.6998 31.0686C32.0252 31.3941 32.0252 31.9217 31.6998 32.2471C31.6364 32.3105 31.5633 32.3632 31.4832 32.4032L27.8033 34.2432C24.9881 35.6508 21.588 35.099 19.3624 32.8734L9.36441 22.8754C6.94184 20.4528 6.09593 16.8695 7.17933 13.6193L8.52071 9.59512C8.66625 9.1585 9.13818 8.92253 9.5748 9.06807C9.69753 9.10899 9.80905 9.17791 9.90053 9.26939L14.3193 13.6882C15.3339 14.7027 15.5854 16.2526 14.9437 17.5359L14.7356 17.9522C14.0939 19.2355 14.3455 20.7854 15.36 21.7999Z" fill="url(#paint0_linear_524_367)"/>
<path opacity="0.3" fill-rule="evenodd" clip-rule="evenodd" d="M40.021 2.29167C41.6779 2.29167 43.021 3.63482 43.021 5.29167L43.021 13.875C43.021 15.5319 41.6778 16.875 40.021 16.875L24.7616 16.875L21.6076 20.029C20.9776 20.659 19.9005 20.2128 19.9005 19.3219L19.9005 13.2292L19.9307 13.2411L19.9307 5.29167C19.9307 3.63482 21.2739 2.29167 22.9307 2.29167L40.021 2.29167Z" fill="url(#paint1_linear_524_367)"/>
<path opacity="0.3" d="M25.434 12.5L24.084 8.312H25.008L25.632 10.322L25.962 11.636H25.98L26.298 10.322L26.922 8.312H27.816L26.454 12.5H25.434ZM29.8568 12.572C29.5808 12.572 29.3288 12.526 29.1008 12.434C28.8728 12.342 28.6788 12.206 28.5188 12.026C28.3588 11.842 28.2348 11.616 28.1468 11.348C28.0588 11.076 28.0148 10.762 28.0148 10.406C28.0148 10.05 28.0588 9.738 28.1468 9.47C28.2348 9.198 28.3588 8.972 28.5188 8.792C28.6788 8.608 28.8728 8.47 29.1008 8.378C29.3288 8.286 29.5808 8.24 29.8568 8.24C30.1328 8.24 30.3848 8.286 30.6128 8.378C30.8408 8.47 31.0348 8.608 31.1948 8.792C31.3548 8.972 31.4788 9.198 31.5668 9.47C31.6548 9.738 31.6988 10.05 31.6988 10.406C31.6988 10.762 31.6548 11.076 31.5668 11.348C31.4788 11.616 31.3548 11.842 31.1948 12.026C31.0348 12.206 30.8408 12.342 30.6128 12.434C30.3848 12.526 30.1328 12.572 29.8568 12.572ZM29.8568 11.762C30.1328 11.762 30.3468 11.672 30.4988 11.492C30.6548 11.312 30.7328 11.054 30.7328 10.718V10.094C30.7328 9.758 30.6548 9.5 30.4988 9.32C30.3468 9.14 30.1328 9.05 29.8568 9.05C29.5808 9.05 29.3648 9.14 29.2088 9.32C29.0568 9.5 28.9808 9.758 28.9808 10.094V10.718C28.9808 11.054 29.0568 11.312 29.2088 11.492C29.3648 11.672 29.5808 11.762 29.8568 11.762ZM32.298 12.5V11.774H32.838V9.038H32.298V8.312H34.29V9.038H33.75V11.774H34.29V12.5H32.298ZM35.0499 12.5V8.312H37.0299C37.2259 8.312 37.4019 8.346 37.5579 8.414C37.7139 8.478 37.8459 8.568 37.9539 8.684C38.0659 8.8 38.1519 8.942 38.2119 9.11C38.2719 9.274 38.3019 9.454 38.3019 9.65C38.3019 9.85 38.2719 10.032 38.2119 10.196C38.1519 10.36 38.0659 10.5 37.9539 10.616C37.8459 10.732 37.7139 10.824 37.5579 10.892C37.4019 10.956 37.2259 10.988 37.0299 10.988H35.9619V12.5H35.0499ZM35.9619 10.196H36.9219C37.0579 10.196 37.1639 10.162 37.2399 10.094C37.3199 10.022 37.3599 9.918 37.3599 9.782V9.518C37.3599 9.382 37.3199 9.28 37.2399 9.212C37.1639 9.14 37.0579 9.104 36.9219 9.104H35.9619V10.196Z" fill="url(#paint2_linear_524_367)"/>
<defs>
<linearGradient id="paint0_linear_524_367" x1="31.9438" y1="22.0202" x2="27.2777" y2="42.7467" gradientUnits="userSpaceOnUse">
<stop stop-color="#4D69D3"/>
<stop offset="1" stop-color="#55BDD5"/>
</linearGradient>
<linearGradient id="paint1_linear_524_367" x1="31.4607" y1="2.29167" x2="13.4986" y2="7.32463" gradientUnits="userSpaceOnUse">
<stop stop-color="#4D69D3"/>
<stop offset="1" stop-color="#55BDD5"/>
</linearGradient>
<linearGradient id="paint2_linear_524_367" x1="31.5" y1="6.5" x2="42.2615" y2="10.9095" gradientUnits="userSpaceOnUse">
<stop stop-color="#4D69D3"/>
<stop offset="1" stop-color="#55BDD5"/>
</linearGradient>
</defs>
</svg>
