<svg width="36" height="36" viewBox="0 0 36 36" fill="none" xmlns="http://www.w3.org/2000/svg">
<path fill-rule="evenodd" clip-rule="evenodd" d="M13.5 7C13.5 6.44772 13.9477 6 14.5 6H32C32.5523 6 33 6.44772 33 7V11C33 11.5523 32.5523 12 32 12H14.5C13.9477 12 13.5 11.5523 13.5 11V7ZM13.5 16C13.5 15.4477 13.9477 15 14.5 15H32C32.5523 15 33 15.4477 33 16V20C33 20.5523 32.5523 21 32 21H14.5C13.9477 21 13.5 20.5523 13.5 20V16ZM14.5 24C13.9477 24 13.5 24.4477 13.5 25V29C13.5 29.5523 13.9477 30 14.5 30H32C32.5523 30 33 29.5523 33 29V25C33 24.4477 32.5523 24 32 24H14.5Z" fill="url(#paint0_linear_168_4143)"/>
<rect opacity="0.3" x="3" y="6" width="7.5" height="24" rx="1" fill="url(#paint1_linear_168_4143)"/>
<defs>
<linearGradient id="paint0_linear_168_4143" x1="23.25" y1="6" x2="23.25" y2="30" gradientUnits="userSpaceOnUse">
<stop stop-color="#55BDD5"/>
<stop offset="1" stop-color="#4D69D3"/>
</linearGradient>
<linearGradient id="paint1_linear_168_4143" x1="6.75" y1="6" x2="6.75" y2="30" gradientUnits="userSpaceOnUse">
<stop stop-color="#55BDD5"/>
<stop offset="1" stop-color="#4D69D3"/>
</linearGradient>
</defs>
</svg>
