<svg width="95" height="105" viewBox="0 0 95 105" fill="none" xmlns="http://www.w3.org/2000/svg">
<g opacity="0.2">
<path opacity="0.01" d="M36.2228 52.3514C36.4704 38.169 38.0104 25.3679 40.2929 16.14C41.4351 11.522 42.7567 7.82634 44.1791 5.30405C44.8905 4.04259 45.6142 3.09811 46.3334 2.47744C47.0495 1.85941 47.7348 1.58349 48.3898 1.59492C49.0449 1.60636 49.7201 1.90603 50.4142 2.54867C51.1113 3.19406 51.8016 4.16322 52.4685 5.44874C53.8021 8.01914 54.9939 11.7587 55.9742 16.4137C57.9332 25.7156 59.0256 38.5627 58.7781 52.7451C58.5305 66.9274 56.9904 79.7286 54.708 88.9565C53.5658 93.5744 52.2442 97.2701 50.8217 99.7924C50.1103 101.054 49.3866 101.998 48.6675 102.619C47.9514 103.237 47.2661 103.513 46.611 103.502C45.956 103.49 45.2808 103.19 44.5867 102.548C43.8896 101.902 43.1993 100.933 42.5324 99.6477C41.1988 97.0773 40.007 93.3377 39.0266 88.6827C37.0676 79.3808 35.9752 66.5337 36.2228 52.3514Z" stroke="url(#paint0_linear_168_4092)"/>
<path opacity="0.0204082" d="M36.4674 50.2025C39.3699 36.5471 43.282 24.4736 47.2523 15.9947C49.2393 11.7515 51.2289 8.4343 53.0973 6.27008C54.0316 5.1878 54.9184 4.41404 55.7402 3.95203C56.5583 3.49209 57.2839 3.3555 57.9273 3.49226C58.5707 3.62902 59.1779 4.0489 59.7382 4.80183C60.3011 5.55815 60.7965 6.62573 61.2099 7.99446C62.0364 10.7315 62.5048 14.5712 62.5941 19.2557C62.7725 28.6164 61.4357 41.2373 58.5331 54.8927C55.6306 68.5481 51.7185 80.6216 47.7481 89.1005C45.7612 93.3436 43.7715 96.6608 41.9032 98.8251C40.9689 99.9073 40.0821 100.681 39.2603 101.143C38.4422 101.603 37.7166 101.74 37.0732 101.603C36.4298 101.466 35.8226 101.046 35.2623 100.293C34.6994 99.537 34.204 98.4694 33.7906 97.1007C32.9641 94.3637 32.4957 90.5239 32.4064 85.8395C32.228 76.4787 33.5648 63.8579 36.4674 50.2025Z" stroke="url(#paint1_linear_168_4092)"/>
<path opacity="0.0408163" d="M37.1171 48.1418C42.4843 35.4973 48.5488 24.5791 54.0063 17.1489C56.7374 13.4305 59.2998 10.6088 61.5299 8.87864C63.798 7.11901 65.5579 6.61161 66.779 7.12995C68.0001 7.64829 68.8577 9.26672 69.1675 12.1206C69.472 14.9267 69.2223 18.7301 68.4447 23.2777C66.8909 32.3648 63.2497 44.3117 57.8825 56.9561C52.5153 69.6006 46.4507 80.5188 40.9933 87.949C38.2622 91.6674 35.6998 94.4891 33.4697 96.2193C31.2016 97.9789 29.4417 98.4863 28.2206 97.9679C26.9994 97.4496 26.1419 95.8312 25.8321 92.9773C25.5275 90.1712 25.7773 86.3678 26.5549 81.8202C28.1087 72.7331 31.7499 60.7862 37.1171 48.1418Z" stroke="url(#paint2_linear_168_4092)"/>
<path opacity="0.0612245" d="M38.1492 46.2414C45.7052 35.0392 53.628 25.647 60.3202 19.5166C63.6693 16.4486 66.6893 14.217 69.1849 12.978C71.7209 11.7189 73.5356 11.5701 74.6387 12.3142C75.7419 13.0583 76.2838 14.7966 76.0664 17.6196C75.8524 20.3976 74.9146 24.0336 73.3247 28.2882C70.1476 36.7896 64.4072 47.6539 56.8512 58.8561C49.2953 70.0583 41.3725 79.4504 34.6802 85.5809C31.3311 88.6488 28.3111 90.8804 25.8156 92.1194C23.2795 93.3786 21.4649 93.5273 20.3617 92.7832C19.2586 92.0391 18.7167 90.3009 18.9341 87.4778C19.1481 84.6999 20.0858 81.0638 21.6758 76.8093C24.8529 68.3078 30.5932 57.4436 38.1492 46.2414Z" stroke="url(#paint3_linear_168_4092)"/>
<path opacity="0.0816327" d="M39.5244 44.5727C48.9206 35.1765 58.3462 27.6122 65.9808 22.9752C69.8016 20.6546 73.1494 19.0823 75.8057 18.3709C78.503 17.6486 80.3006 17.8602 81.2445 18.804C82.1883 19.7479 82.4 21.5455 81.6776 24.2428C80.9662 26.8991 79.3939 30.2469 77.0733 34.0677C72.4363 41.7023 64.872 51.1279 55.4758 60.5241C46.0796 69.9203 36.654 77.4846 29.0194 82.1216C25.1986 84.4422 21.8508 86.0145 19.1945 86.7259C16.4972 87.4483 14.6996 87.2366 13.7557 86.2928C12.8119 85.3489 12.6002 83.5513 13.3226 80.854C14.034 78.1977 15.6063 74.8499 17.9269 71.0292C22.5639 63.3945 30.1282 53.9689 39.5244 44.5727Z" stroke="url(#paint4_linear_168_4092)"/>
<path opacity="0.102041" d="M41.1923 43.1977C52.0229 35.8924 62.5502 30.3791 70.807 27.3661C74.9392 25.8582 78.4757 24.9866 81.1842 24.8176C83.9324 24.6462 85.6426 25.2059 86.3913 26.3159C87.1401 27.426 87.0184 29.2213 85.8299 31.7052C84.6586 34.1531 82.5257 37.1056 79.5797 40.372C73.693 46.8989 64.6375 54.5944 53.8069 61.8997C42.9763 69.2051 32.449 74.7184 24.1921 77.7314C20.06 79.2393 16.5235 80.1108 13.815 80.2798C11.0667 80.4513 9.35659 79.8916 8.60786 78.7815C7.85913 77.6715 7.98081 75.8762 9.16932 73.3923C10.3406 70.9443 12.4735 67.9918 15.4195 64.7254C21.3062 58.1985 30.3617 50.503 41.1923 43.1977Z" stroke="url(#paint5_linear_168_4092)"/>
<path opacity="0.122449" d="M43.0928 42.1656C54.912 37.1486 66.1108 33.8246 74.6551 32.4996C78.9312 31.8365 82.5138 31.6787 85.1664 32.0451C87.8558 32.4165 89.4123 33.2983 89.9371 34.5347C90.462 35.7711 90.0151 37.5034 88.414 39.696C86.8349 41.8586 84.2327 44.3261 80.7853 46.9414C73.8968 52.1673 63.7264 57.914 51.9072 62.931C40.088 67.9479 28.8891 71.2719 20.3448 72.5969C16.0687 73.26 12.4861 73.4178 9.83353 73.0515C7.14407 72.6801 5.58759 71.7982 5.06277 70.5618C4.53795 69.3254 4.9848 67.5931 6.58589 65.4005C8.16504 63.2379 10.7672 60.7704 14.2146 58.1551C21.1031 52.9293 31.2736 47.1825 43.0928 42.1656Z" stroke="url(#paint6_linear_168_4092)"/>
<path opacity="0.142857" d="M45.1546 41.5162C57.4947 38.8933 68.9233 37.8093 77.4193 38.1692C81.6711 38.3493 85.1594 38.8901 87.6528 39.7636C90.1788 40.6485 91.5221 41.8143 91.8022 43.1323C92.0824 44.4503 91.3294 46.0617 89.3817 47.8976C87.4592 49.7097 84.4924 51.6225 80.6814 53.5164C73.0664 57.3008 62.1849 60.959 49.8448 63.582C37.5048 66.2049 26.0762 67.2889 17.5802 66.929C13.3284 66.7489 9.84009 66.2081 7.3467 65.3346C4.82067 64.4497 3.47739 63.2839 3.19723 61.9659C2.91708 60.6479 3.67006 59.0365 5.61777 57.2006C7.5403 55.3885 10.5071 53.4757 14.3181 51.5818C21.9331 47.7974 32.8146 44.1392 45.1546 41.5162Z" stroke="url(#paint7_linear_168_4092)"/>
<path opacity="0.163265" d="M47.3036 41.2716C59.6933 41.0553 70.9156 42.1754 79.0394 44.1519C83.1051 45.1411 86.3663 46.3381 88.6059 47.6711C90.873 49.0206 91.9525 50.4213 91.9761 51.7729C91.9997 53.1245 90.9697 54.562 88.7511 55.9897C86.5594 57.4002 83.3419 58.7102 79.3133 59.8407C71.2633 62.0995 60.087 63.6106 47.6973 63.8268C35.3076 64.0431 24.0854 62.923 15.9615 60.9465C11.8958 59.9573 8.63463 58.7603 6.39505 57.4273C4.12793 56.0778 3.04841 54.6771 3.02481 53.3255C3.00122 51.9739 4.03121 50.5364 6.24985 49.1087C8.44154 47.6982 11.659 46.3882 15.6876 45.2577C23.7376 42.9989 34.9139 41.4878 47.3036 41.2716Z" stroke="url(#paint8_linear_168_4092)"/>
<path opacity="0.183673" d="M49.4587 41.4406C61.4412 43.5534 72.0435 46.7589 79.4959 50.2231C83.2255 51.9569 86.1396 53.7433 88.0432 55.4711C89.9686 57.2189 90.7447 58.7967 90.5092 60.1323C90.2737 61.4679 89.0048 62.6851 86.5977 63.6689C84.218 64.6415 80.8686 65.3235 76.771 65.677C68.5831 66.3835 57.524 65.7694 45.5415 63.6566C33.559 61.5438 22.9567 58.3383 15.5043 54.8741C11.7746 53.1403 8.86057 51.3539 6.95702 49.6261C5.03158 47.8783 4.25549 46.3005 4.49099 44.9649C4.72649 43.6293 5.99542 42.4121 8.4025 41.4283C10.7822 40.4557 14.1315 39.7737 18.2292 39.4202C26.4171 38.7137 37.4762 39.3278 49.4587 41.4406Z" stroke="url(#paint9_linear_168_4092)"/>
<path opacity="0.204082" d="M51.542 42.019C62.6919 46.299 72.298 51.3956 78.8151 56.165C82.0766 58.5518 84.5406 60.8395 86.0413 62.8832C87.558 64.9488 88.0033 66.6396 87.5157 67.9098C87.0281 69.1801 85.5658 70.1386 83.0565 70.6587C80.5738 71.1734 77.2119 71.2247 73.191 70.8161C65.1566 69.9996 54.6076 67.3594 43.4577 63.0794C32.3078 58.7993 22.7017 53.7027 16.1847 48.9334C12.9231 46.5466 10.4591 44.2588 8.95845 42.2152C7.44172 40.1496 6.99642 38.4588 7.48403 37.1886C7.97165 35.9183 9.4339 34.9598 11.9432 34.4396C14.4259 33.925 17.7878 33.8737 21.8087 34.2823C29.8431 35.0987 40.3922 37.739 51.542 42.019Z" stroke="url(#paint10_linear_168_4092)"/>
<path opacity="0.22449" d="M53.4771 42.984C63.4152 49.194 71.7001 55.9221 77.0626 61.7688C79.7464 64.6948 81.6781 67.3785 82.7268 69.6483C83.7858 71.9406 83.8863 73.6764 83.1628 74.8341C82.4394 75.9918 80.8353 76.6624 78.3108 76.7154C75.811 76.7679 72.552 76.2081 68.7456 75.0787C61.1399 72.8218 51.4609 68.3249 41.5228 62.1148C31.5846 55.9048 23.2998 49.1767 17.9373 43.3301C15.2535 40.404 13.3217 37.7203 12.2731 35.4505C11.2141 33.1582 11.1136 31.4225 11.837 30.2648C12.5605 29.107 14.1645 28.4364 16.6891 28.3834C19.1889 28.3309 22.4479 28.8907 26.2542 30.0202C33.86 32.277 43.5389 36.7739 53.4771 42.984Z" stroke="url(#paint11_linear_168_4092)"/>
<path opacity="0.244898" d="M55.1934 44.3004C63.6 52.1397 70.3003 60.1862 74.3412 66.8478C76.3636 70.1816 77.7044 73.1434 78.2712 75.5428C78.8431 77.9641 78.5984 79.6756 77.6642 80.6774C76.7301 81.6791 75.0398 82.0426 72.5845 81.641C70.1514 81.243 67.1033 80.112 63.6365 78.3272C56.7093 74.7607 48.215 68.6381 39.8084 60.7988C31.4018 52.9596 24.7016 44.913 20.6607 38.2515C18.6383 34.9177 17.2975 31.9559 16.7307 29.5565C16.1588 27.1352 16.4035 25.4237 17.3377 24.4219C18.2718 23.4202 19.9621 23.0567 22.4174 23.4583C24.8504 23.8563 27.8986 24.9873 31.3654 26.7721C38.2925 30.3386 46.7868 36.4612 55.1934 44.3004Z" stroke="url(#paint12_linear_168_4092)"/>
<path opacity="0.265306" d="M56.625 45.9196C63.2495 55.0374 68.1719 64.0499 70.7813 71.2405C72.0872 74.839 72.8036 77.9536 72.8787 80.3831C72.9544 82.8329 72.3777 84.4528 71.2659 85.2606C70.154 86.0684 68.4352 86.1162 66.1288 85.2872C63.8414 84.465 61.1006 82.8213 58.0817 80.4673C52.0495 75.7635 44.9991 68.2971 38.3746 59.1792C31.7501 50.0614 26.8278 41.0488 24.2183 33.8583C22.9124 30.2597 22.1961 27.1452 22.121 24.7157C22.0453 22.2659 22.6219 20.646 23.7337 19.8382C24.8456 19.0304 26.5644 18.9826 28.8709 19.8116C31.1583 20.6337 33.899 22.2775 36.9179 24.6315C42.9502 29.3353 50.0005 36.8017 56.625 45.9196Z" stroke="url(#paint13_linear_168_4092)"/>
<path opacity="0.285714" d="M57.7224 47.7813C62.3906 57.7923 65.417 67.3941 66.5447 74.8165C67.109 78.5311 67.1932 81.6707 66.7869 84.0321C66.3774 86.4114 65.4952 87.8764 64.2454 88.4591C62.9956 89.0419 61.3063 88.7761 59.2204 87.5604C57.1503 86.3538 54.7993 84.2712 52.3165 81.4512C47.3555 75.8163 41.9454 67.326 37.2772 57.315C32.609 47.304 29.5826 37.7022 28.4549 30.2798C27.8906 26.5652 27.8064 23.4256 28.2128 21.0641C28.6222 18.6849 29.5044 17.2199 30.7542 16.6371C32.004 16.0543 33.6933 16.3202 35.7792 17.5359C37.8493 18.7425 40.2003 20.825 42.6831 23.6451C47.6441 29.28 53.0542 37.7702 57.7224 47.7813Z" stroke="url(#paint14_linear_168_4092)"/>
<path opacity="0.306122" d="M58.4451 49.8203C61.0631 60.3204 62.1527 70.1259 61.8084 77.4838C61.6361 81.1661 61.1058 84.2059 60.2473 86.4062C59.383 88.6215 58.2333 89.875 56.8907 90.2097C55.5481 90.5445 53.9445 89.9775 52.1413 88.4273C50.3504 86.8875 48.4551 84.4525 46.5742 81.2821C42.8158 74.9471 39.1745 65.7779 36.5565 55.2778C33.9385 44.7777 32.8489 34.9722 33.1933 27.6143C33.3656 23.932 33.8959 20.8922 34.7544 18.6919C35.6186 16.4766 36.7684 15.2231 38.111 14.8884C39.4536 14.5536 41.0572 15.1207 42.8603 16.6709C44.6513 18.2106 46.5466 20.6456 48.4275 23.816C52.1859 30.151 55.8272 39.3202 58.4451 49.8203Z" stroke="url(#paint15_linear_168_4092)"/>
<path opacity="0.326531" d="M58.7639 51.9586C59.3185 62.5412 58.5067 72.1712 56.7577 79.1809C55.8824 82.6888 54.7793 85.5119 53.5157 87.4668C52.2444 89.4336 50.8755 90.4279 49.489 90.5006C48.1024 90.5732 46.6371 89.7274 45.1673 87.9043C43.7062 86.0922 42.3141 83.3999 41.0769 80.0027C38.6047 73.2142 36.7907 63.7218 36.2361 53.1392C35.6815 42.5566 36.4933 32.9265 38.2424 25.9169C39.1177 22.4089 40.2208 19.5859 41.4844 17.6309C42.7557 15.6642 44.1245 14.6699 45.5111 14.5972C46.8976 14.5245 48.3629 15.3703 49.8328 17.1934C51.2938 19.0055 52.686 21.6978 53.9231 25.0951C56.3953 31.8835 58.2093 41.3759 58.7639 51.9586Z" stroke="url(#paint16_linear_168_4092)"/>
<path opacity="0.346939" d="M58.6694 54.1193C57.2258 64.391 54.6199 73.4877 51.5867 79.8888C50.0688 83.0922 48.4563 85.5938 46.8496 87.2312C45.2344 88.8772 43.7031 89.5754 42.3234 89.3815C40.9437 89.1875 39.6641 88.0943 38.5652 86.0669C37.4721 84.0501 36.6116 81.2009 36.0355 77.7033C34.8842 70.7141 34.8866 61.2515 36.3302 50.9797C37.7738 40.7079 40.3797 31.6112 43.4129 25.2101C44.9308 22.0068 46.5433 19.5051 48.15 17.8678C49.7651 16.2218 51.2965 15.5236 52.6762 15.7175C54.0559 15.9114 55.3355 17.0047 56.4344 19.0321C57.5275 21.0489 58.388 23.898 58.9641 27.3957C60.1154 34.3849 60.113 43.8475 58.6694 54.1193Z" stroke="url(#paint17_linear_168_4092)"/>
<path opacity="0.367347" d="M58.1652 56.2207C54.8613 65.816 50.634 74.056 46.4839 79.6214C44.4071 82.4065 42.367 84.4982 40.4918 85.7604C38.6081 87.0284 36.9768 87.4055 35.6549 86.9503C34.3329 86.4951 33.2797 85.1936 32.5759 83.0347C31.8754 80.8857 31.5555 77.9814 31.6337 74.508C31.7898 67.5674 33.5316 58.4716 36.8356 48.8763C40.1395 39.2809 44.3668 31.041 48.5169 25.4755C50.5937 22.6904 52.6338 20.5987 54.509 19.3365C56.3927 18.0685 58.024 17.6914 59.3459 18.1466C60.6679 18.6018 61.7211 19.9033 62.4249 22.0622C63.1254 24.2112 63.4453 27.1156 63.3671 30.5889C63.211 37.5295 61.4692 46.6253 58.1652 56.2207Z" stroke="url(#paint18_linear_168_4092)"/>
<path opacity="0.387755" d="M57.2682 58.1886C52.3064 66.7827 46.6864 73.8885 41.6252 78.4324C39.0924 80.7062 36.7212 82.3189 34.6611 83.1651C32.5931 84.0146 30.9279 84.0586 29.7129 83.3571C28.4978 82.6556 27.7034 81.1915 27.4051 78.9758C27.1079 76.7686 27.3189 73.9088 28.0217 70.5784C29.4262 63.9233 32.77 55.5034 37.7318 46.9092C42.6937 38.315 48.3136 31.2093 53.3749 26.6654C55.9076 24.3916 58.2789 22.7789 60.3389 21.9327C62.407 21.0832 64.0721 21.0391 65.2872 21.7407C66.5022 22.4422 67.2966 23.9063 67.595 26.122C67.8921 28.3291 67.6812 31.189 66.9783 34.5194C65.5739 41.1745 62.2301 49.5944 57.2682 58.1886Z" stroke="url(#paint19_linear_168_4092)"/>
<path opacity="0.408163" d="M56.0122 59.9483C49.649 67.2684 42.9102 73.0177 37.1724 76.4015C34.3012 78.0947 31.7055 79.1807 29.5496 79.5881C27.3868 79.9968 25.7546 79.7092 24.692 78.7855C23.6294 77.8618 23.1174 76.2855 23.2212 74.0868C23.3245 71.8952 24.0387 69.1737 25.3159 66.0948C27.8682 59.9419 32.6237 52.4685 38.9869 45.1485C45.3501 37.8285 52.0889 32.0791 57.8267 28.6954C60.6979 27.0021 63.2936 25.9161 65.4495 25.5087C67.6123 25.1 69.2445 25.3876 70.3071 26.3114C71.3697 27.2351 71.8817 28.8114 71.7779 31.01C71.6746 33.2016 70.9604 35.9231 69.6832 39.0021C67.1309 45.1549 62.3754 52.6283 56.0122 59.9483Z" stroke="url(#paint20_linear_168_4092)"/>
<path opacity="0.428571" d="M54.4442 61.4361C46.9782 67.2692 39.4268 71.5019 33.2657 73.6384C30.1828 74.7075 27.4751 75.2422 25.3141 75.2064C23.1475 75.1705 21.6132 74.5658 20.7433 73.4524C19.8734 72.339 19.6579 70.704 20.1472 68.5931C20.6353 66.4876 21.8091 63.9897 23.5923 61.257C27.1558 55.7958 33.0896 49.4927 40.5557 43.6596C48.0217 37.8265 55.5731 33.5938 61.7341 31.4573C64.8171 30.3882 67.5247 29.8535 69.6858 29.8893C71.8523 29.9252 73.3866 30.5299 74.2565 31.6433C75.1264 32.7567 75.342 34.3917 74.8527 36.5026C74.3646 38.6081 73.1908 41.106 71.4076 43.8388C67.844 49.2999 61.9102 55.603 54.4442 61.4361Z" stroke="url(#paint21_linear_168_4092)"/>
<path opacity="0.44898" d="M52.6206 62.5987C44.3789 66.798 36.3403 69.4198 30.0168 70.2753C26.8526 70.7033 24.1463 70.6852 22.0687 70.2202C19.9872 69.7543 18.6114 68.8596 17.9677 67.5961C17.3239 66.3327 17.4087 64.6938 18.2553 62.7359C19.1003 60.7818 20.6763 58.5816 22.8825 56.2734C27.2914 51.6604 34.1375 46.6981 42.3792 42.4987C50.6208 38.2994 58.6595 35.6776 64.983 34.8221C68.1471 34.3941 70.8535 34.4122 72.931 34.8772C75.0126 35.3431 76.3883 36.2378 77.0321 37.5013C77.6759 38.7647 77.591 40.4037 76.7444 42.3615C75.8995 44.3156 74.3234 46.5158 72.1173 48.824C67.7083 53.437 60.8623 58.3993 52.6206 62.5987Z" stroke="url(#paint22_linear_168_4092)"/>
<path opacity="0.469388" d="M50.6093 63.3913C41.9338 65.879 33.7385 66.8628 27.5103 66.4562C24.3939 66.2528 21.7983 65.7029 19.8872 64.8399C17.9737 63.9758 16.8101 62.8295 16.4179 61.4616C16.0256 60.0937 16.4049 58.505 17.5698 56.7581C18.7331 55.0136 20.643 53.1718 23.178 51.3478C28.2444 47.7026 35.7157 44.1941 44.3912 41.7065C53.0667 39.2188 61.262 38.2349 67.4902 38.6415C70.6066 38.845 73.2022 39.3948 75.1133 40.2578C77.0268 41.122 78.1904 42.2682 78.5826 43.6362C78.9749 45.0041 78.5956 46.5927 77.4307 48.3396C76.2674 50.0842 74.3575 51.926 71.8225 53.7499C66.7561 57.3952 59.2848 60.9036 50.6093 63.3913Z" stroke="url(#paint23_linear_168_4092)"/>
<path opacity="0.489796" d="M48.4834 63.7856C39.7165 64.5526 31.6872 63.9372 25.7983 62.3378C22.8518 61.5376 20.4683 60.4983 18.7978 59.2841C17.126 58.069 16.2196 56.7195 16.0952 55.2967C15.9707 53.874 16.6289 52.3876 18.0643 50.9006C19.4986 49.4148 21.6655 47.9774 24.4282 46.6777C29.9499 44.08 37.7504 42.0797 46.5173 41.3127C55.2841 40.5457 63.3135 41.1611 69.2024 42.7604C72.1488 43.5607 74.5324 44.6 76.2029 45.8142C77.8747 47.0293 78.781 48.3788 78.9055 49.8015C79.03 51.2243 78.3718 52.7107 76.9364 54.1977C75.5021 55.6835 73.3352 57.1209 70.5724 58.4206C65.0508 61.0183 57.2502 63.0186 48.4834 63.7856Z" stroke="url(#paint24_linear_168_4092)"/>
<path opacity="0.510204" d="M46.3218 63.7657C37.7933 62.8693 30.2316 60.7548 24.903 58.0778C22.2369 56.7384 20.1546 55.2705 18.7869 53.7653C17.4188 52.2598 16.8039 50.763 16.9538 49.3375C17.1036 47.9121 18.0162 46.5758 19.6674 45.3876C21.3182 44.1997 23.6602 43.1968 26.5465 42.441C32.3152 40.9303 40.1513 40.4342 48.6798 41.3306C57.2083 42.2269 64.77 44.3415 70.0986 47.0185C72.7646 48.3579 74.847 49.8258 76.2147 51.3309C77.5828 52.8365 78.1976 54.3333 78.0478 55.7588C77.898 57.1842 76.9854 58.5205 75.3342 59.7087C73.6834 60.8966 71.3414 61.8995 68.4551 62.6553C62.6864 64.1659 54.8503 64.6621 46.3218 63.7657Z" stroke="url(#paint25_linear_168_4092)"/>
<path opacity="0.530612" d="M44.2029 63.3348C36.2172 60.8933 29.3928 57.4348 24.814 53.8346C22.5232 52.0334 20.8158 50.2135 19.799 48.488C18.7823 46.763 18.4813 45.1804 18.9019 43.8048C19.3225 42.4292 20.457 41.2855 22.2645 40.4238C24.0723 39.562 26.5055 39.0079 29.4118 38.7957C35.2211 38.3714 42.8127 39.3203 50.7984 41.7618C58.7841 44.2033 65.6084 47.6618 70.1873 51.262C72.4781 53.0632 74.1854 54.8831 75.2023 56.6085C76.2189 58.3336 76.5199 59.9162 76.0994 61.2918C75.6788 62.6674 74.5443 63.8111 72.7368 64.6728C70.9289 65.5346 68.4958 66.0887 65.5895 66.3009C59.7802 66.7251 52.1885 65.7763 44.2029 63.3348Z" stroke="url(#paint26_linear_168_4092)"/>
<path opacity="0.55102" d="M42.2043 62.5073C35.0299 58.6926 29.1708 54.0916 25.493 49.7544C23.6531 47.5846 22.3764 45.5012 21.7427 43.6335C21.1095 41.7671 21.132 40.1633 21.8097 38.8887C22.4875 37.614 23.8045 36.6985 25.706 36.1798C27.6087 35.6608 30.0498 35.5541 32.8775 35.8662C38.5298 36.4899 45.6206 38.7744 52.795 42.5892C59.9694 46.4039 65.8285 51.0049 69.5064 55.3421C71.3462 57.5118 72.6229 59.5953 73.2566 61.4629C73.8898 63.3294 73.8673 64.9331 73.1896 66.2078C72.5118 67.4825 71.1948 68.3979 69.2934 68.9167C67.3907 69.4357 64.9495 69.5423 62.1218 69.2303C56.4695 68.6066 49.3788 66.322 42.2043 62.5073Z" stroke="url(#paint27_linear_168_4092)"/>
<path opacity="0.571429" d="M40.4021 61.3138C34.2623 56.3419 29.5471 50.8362 26.8785 45.9711C25.5436 43.5374 24.7334 41.2868 24.4985 39.359C24.2639 37.4331 24.6064 35.8732 25.5182 34.7472C26.43 33.6212 27.8846 32.9618 29.8172 32.791C31.7517 32.6199 34.1215 32.9445 36.7796 33.7442C42.0932 35.343 48.4589 38.8104 54.5987 43.7824C60.7386 48.7543 65.4538 54.2599 68.1223 59.1251C69.4573 61.5588 70.2674 63.8093 70.5023 65.7372C70.737 67.663 70.3944 69.2229 69.4826 70.3489C68.5708 71.4749 67.1162 72.1343 65.1837 72.3052C63.2491 72.4762 60.8793 72.1517 58.2212 71.3519C52.9076 69.7532 46.5419 66.2857 40.4021 61.3138Z" stroke="url(#paint28_linear_168_4092)"/>
<path opacity="0.591837" d="M38.8593 59.7992C33.9257 53.9196 30.4785 47.7721 28.8813 42.6015C28.0823 40.0151 27.7538 37.6975 27.9161 35.792C28.0783 33.8891 28.7246 32.4359 29.8385 31.5012C30.9525 30.5665 32.4959 30.1823 34.398 30.3531C36.3027 30.5241 38.5281 31.2501 40.9364 32.486C45.7511 34.9569 51.2067 39.4192 56.1402 45.2988C61.0738 51.1783 64.521 57.3259 66.1182 62.4965C66.9172 65.0829 67.2457 67.4005 67.0833 69.306C66.9212 71.2089 66.2749 72.6621 65.161 73.5968C64.047 74.5315 62.5036 74.9157 60.6015 74.7449C58.6968 74.5739 56.4714 73.8479 54.0631 72.612C49.2483 70.1411 43.7928 65.6788 38.8593 59.7992Z" stroke="url(#paint29_linear_168_4092)"/>
<path opacity="0.612245" d="M37.6356 58.0167C34.0238 51.5008 31.9115 44.9874 31.4006 39.7371C31.1451 37.1112 31.2925 34.8259 31.8341 33.0222C32.3747 31.2215 33.2964 29.9332 34.5728 29.2256C35.8492 28.5181 37.4302 28.4192 39.2437 28.9149C41.0603 29.4115 43.0765 30.4975 45.168 32.1057C49.3497 35.3212 53.7541 40.5641 57.3659 47.08C60.9777 53.5959 63.09 60.1093 63.6009 65.3596C63.8565 67.9856 63.709 70.2709 63.1675 72.0746C62.6269 73.8752 61.7052 75.1636 60.4288 75.8711C59.1524 76.5786 57.5713 76.6775 55.7578 76.1818C53.9412 75.6852 51.925 74.5993 49.8335 72.991C45.6518 69.7755 41.2474 64.5326 37.6356 58.0167Z" stroke="url(#paint30_linear_168_4092)"/>
<path opacity="0.632653" d="M36.773 56.0343C34.5405 49.1633 33.7724 42.561 34.3168 37.4511C34.5891 34.8954 35.1871 32.7369 36.0742 31.1083C36.9596 29.4829 38.1173 28.4106 39.5102 27.958C40.9032 27.5054 42.4701 27.6924 44.1418 28.487C45.8168 29.2831 47.5693 30.6779 49.2917 32.5854C52.7357 36.3995 55.9951 42.1923 58.2276 49.0633C60.4601 55.9342 61.2282 62.5365 60.6838 67.6465C60.4115 70.2021 59.8135 72.3606 58.9263 73.9892C58.0409 75.6147 56.8833 76.687 55.4903 77.1396C54.0973 77.5922 52.5305 77.4051 50.8588 76.6106C49.1838 75.8144 47.4313 74.4197 45.7088 72.5121C42.2648 68.6981 39.0055 62.9052 36.773 56.0343Z" stroke="url(#paint31_linear_168_4092)"/>
<path opacity="0.653061" d="M36.3055 53.9238C35.4525 46.977 35.9826 40.5524 37.5083 35.7873C39.0483 30.9775 41.5304 28.0477 44.4484 27.6894C47.3664 27.3311 50.4835 29.5735 53.1413 33.8678C55.7745 38.1223 57.8431 44.2278 58.6961 51.1746C59.549 58.1214 59.0189 64.546 57.4932 69.3111C55.9532 74.1209 53.4712 77.0507 50.5532 77.409C47.6351 77.7673 44.5181 75.525 41.8602 71.2306C39.2271 66.9762 37.1585 60.8707 36.3055 53.9238Z" stroke="url(#paint32_linear_168_4092)"/>
<path opacity="0.673469" d="M36.2474 51.762C36.7199 45.0052 38.4511 39.0037 40.8458 34.7649C43.2608 30.49 46.2487 28.1655 49.19 28.3712C52.1313 28.5769 54.7666 31.2946 56.5631 35.8639C58.3445 40.3948 59.2237 46.5788 58.7512 53.3356C58.2787 60.0924 56.5474 66.0939 54.1528 70.3327C51.7378 74.6075 48.7499 76.9321 45.8086 76.7264C42.8673 76.5207 40.232 73.803 38.4355 69.2337C36.6541 64.7028 35.7749 58.5188 36.2474 51.762Z" stroke="url(#paint33_linear_168_4092)"/>
<path opacity="0.693878" d="M36.6053 49.6294C38.2999 43.305 41.0907 37.9416 44.2099 34.3801C47.3527 30.7915 50.7071 29.1548 53.5636 29.9202C56.4201 30.6856 58.5067 33.7802 59.4342 38.4594C60.3547 43.1034 60.0899 49.1437 58.3953 55.468C56.7007 61.7924 53.9099 67.1558 50.7907 70.7174C47.6479 74.306 44.2935 75.9427 41.437 75.1773C38.5805 74.4119 36.4938 71.3172 35.5664 66.6381C34.6459 61.9941 34.9106 55.9538 36.6053 49.6294Z" stroke="url(#paint34_linear_168_4092)"/>
<path opacity="0.714286" d="M37.3629 47.6045C40.134 41.9229 43.8064 37.3741 47.481 34.6053C51.18 31.818 54.7492 30.9207 57.4153 32.2211C60.0815 33.5214 61.5718 36.8864 61.6528 41.5173C61.7332 46.1176 60.4097 51.8119 57.6385 57.4936C54.8674 63.1753 51.195 67.7241 47.5204 70.4929C43.8214 73.2802 40.2522 74.1775 37.5861 72.8771C34.9199 71.5768 33.4296 68.2118 33.3486 63.5809C33.2682 58.9806 34.5917 53.2862 37.3629 47.6045Z" stroke="url(#paint35_linear_168_4092)"/>
<path opacity="0.734694" d="M38.4917 45.7603C42.1599 40.8924 46.5087 37.2909 50.5531 35.3909C54.6208 33.48 58.2472 33.3416 60.6237 35.1324C63.0001 36.9232 63.8667 40.4473 63.151 44.8841C62.4393 49.2956 60.1761 54.4686 56.5079 59.3364C52.8397 64.2043 48.4909 67.8058 44.4465 69.7058C40.3788 71.6167 36.7524 71.7551 34.3759 69.9643C31.9995 68.1735 31.1329 64.6494 31.8486 60.2126C32.5602 55.8011 34.8235 50.6281 38.4917 45.7603Z" stroke="url(#paint36_linear_168_4092)"/>
<path opacity="0.755102" d="M39.9526 44.1656C44.3139 40.2386 49.1169 37.6694 53.3379 36.6731C57.5793 35.6721 61.1065 36.2794 63.104 38.4978C65.1015 40.7162 65.3367 44.2876 63.8978 48.4011C62.4659 52.4948 59.4087 57.003 55.0473 60.9299C50.6859 64.8569 45.883 67.4261 41.662 68.4224C37.4206 69.4234 33.8934 68.8161 31.8959 66.5977C29.8984 64.3793 29.6632 60.8079 31.1021 56.6944C32.534 52.6007 35.5912 48.0925 39.9526 44.1656Z" stroke="url(#paint37_linear_168_4092)"/>
<path opacity="0.77551" d="M41.6905 42.8793C46.5267 39.9734 51.5552 38.4724 55.7605 38.3738C59.9825 38.2748 63.2613 39.583 64.8039 42.1503C66.3464 44.7175 65.9622 48.2267 63.8927 51.908C61.8314 55.5748 58.1453 59.31 53.3091 62.2159C48.4729 65.1218 43.4444 66.6228 39.2391 66.7214C35.0172 66.8204 31.7383 65.5121 30.1958 62.9449C28.6532 60.3777 29.0374 56.8684 31.1069 53.1872C33.1682 49.5204 36.8543 45.7852 41.6905 42.8793Z" stroke="url(#paint38_linear_168_4092)"/>
<path opacity="0.795918" d="M43.642 41.9498C48.7305 40.0978 53.7597 39.6526 57.7665 40.4061C61.7859 41.162 64.681 43.0976 65.7088 45.9214C66.7366 48.7452 65.763 52.089 63.1698 55.2516C60.5848 58.4044 56.446 61.296 51.3575 63.1481C46.269 65.0002 41.2398 65.4454 37.2329 64.6918C33.2136 63.936 30.3185 62.0004 29.2907 59.1765C28.2629 56.3527 29.2365 53.009 31.8296 49.8464C34.4147 46.6936 38.5534 43.8019 43.642 41.9498Z" stroke="url(#paint39_linear_168_4092)"/>
<path opacity="0.816327" d="M45.7366 41.4078C50.8606 40.5963 55.6792 41.1493 59.3221 42.6737C62.9736 44.2015 65.3687 46.6655 65.8404 49.6437C66.3121 52.6219 64.7956 55.7053 61.795 58.2868C58.8014 60.8623 54.3895 62.8773 49.2656 63.6888C44.1417 64.5004 39.3231 63.9473 35.6801 62.423C32.0287 60.8951 29.6336 58.4312 29.1619 55.453C28.6902 52.4748 30.2067 49.3913 33.2072 46.8099C36.2008 44.2344 40.6127 42.2194 45.7366 41.4078Z" stroke="url(#paint40_linear_168_4092)"/>
<path opacity="0.836735" d="M47.8934 41.2761C52.8505 41.4492 57.2697 42.9024 60.4074 45.0854C63.5501 47.272 65.3526 50.1444 65.247 53.1684C65.1414 56.1923 63.1429 58.932 59.8553 60.894C56.5731 62.8529 52.0632 63.9942 47.1061 63.8211C42.1491 63.648 37.7298 62.1948 34.5922 60.0118C31.4495 57.8253 29.647 54.9528 29.7526 51.9289C29.8582 48.9049 31.8567 46.1652 35.1442 44.2032C38.4265 42.2444 42.9363 41.103 47.8934 41.2761Z" stroke="url(#paint41_linear_168_4092)"/>
<path opacity="0.857143" d="M50.0377 41.5574C54.6483 42.6218 58.5093 44.843 61.0297 47.5481C63.5526 50.2557 64.6972 53.4014 64.0142 56.3601C63.3311 59.3188 60.9233 61.6444 57.4688 62.9721C54.0176 64.2985 49.5737 64.6024 44.9631 63.5379C40.3524 62.4734 36.4914 60.2522 33.971 57.5472C31.4481 54.8395 30.3035 51.6938 30.9866 48.7351C31.6696 45.7764 34.0774 43.4509 37.5319 42.1232C40.9831 40.7968 45.427 40.4929 50.0377 41.5574Z" stroke="url(#paint42_linear_168_4092)"/>
<path opacity="0.877551" d="M52.0885 42.2452C56.2025 44.0769 59.3817 46.9078 61.2066 49.9808C63.0322 53.0552 63.4833 56.3295 62.2438 59.1135C61.0044 61.8974 58.2691 63.7531 54.7629 64.4536C51.2582 65.1537 47.027 64.6853 42.913 62.8536C38.799 61.022 35.6197 58.191 33.7949 55.118C31.9693 52.0437 31.5181 48.7693 32.7576 45.9854C33.9971 43.2014 36.7323 41.3457 40.2386 40.6453C43.7433 39.9451 47.9745 40.4135 52.0885 42.2452Z" stroke="url(#paint43_linear_168_4092)"/>
<path opacity="0.897959" d="M53.9702 43.3099C57.4714 45.7614 59.8852 49.0263 60.9718 52.3036C62.0585 55.5808 61.8113 58.8362 60.057 61.3415C58.3028 63.8468 55.3283 65.1925 51.877 65.2923C48.4257 65.3921 44.5322 64.2404 41.0311 61.7889C37.5299 59.3374 35.1161 56.0725 34.0294 52.7953C32.9428 49.518 33.19 46.2627 34.9443 43.7573C36.6985 41.252 39.673 39.9063 43.1242 39.8065C46.5755 39.7068 50.4691 40.8584 53.9702 43.3099Z" stroke="url(#paint44_linear_168_4092)"/>
<path opacity="0.918367" d="M55.6137 44.7129C61.2671 50.5671 61.9901 58.7386 57.5855 62.992C53.1809 67.2455 45.0397 66.2377 39.3863 60.3835C33.7329 54.5292 33.0099 46.3577 37.4144 42.1043C41.819 37.8508 49.9602 38.8586 55.6137 44.7129Z" stroke="url(#paint45_linear_168_4092)"/>
<path opacity="0.938776" d="M56.9592 46.4052C61.1328 52.832 60.1202 60.6984 54.9659 64.0456C49.8116 67.3928 42.2135 65.1183 38.0399 58.6916C33.8663 52.2648 34.8789 44.3984 40.0332 41.0512C45.1874 37.704 52.7856 39.9785 56.9592 46.4052Z" stroke="url(#paint46_linear_168_4092)"/>
<path opacity="0.959184" d="M57.9576 48.3235C60.6497 54.9866 58.0531 62.1969 52.3316 64.5086C46.6101 66.8202 39.7336 63.4372 37.0415 56.7741C34.3495 50.111 36.946 42.9007 42.6675 40.5891C48.389 38.2774 55.2655 41.6604 57.9576 48.3235Z" stroke="url(#paint47_linear_168_4092)"/>
<path opacity="0.979592" d="M58.5723 50.3966C59.8524 56.9818 55.8917 63.2331 49.8069 64.4158C43.7222 65.5986 37.7081 61.2862 36.4281 54.701C35.1481 48.1157 39.1088 41.8644 45.1935 40.6817C51.2782 39.4989 57.2923 43.8113 58.5723 50.3966Z" stroke="url(#paint48_linear_168_4092)"/>
<circle cx="47.5001" cy="52.5479" r="11.2794" stroke="url(#paint49_linear_168_4092)"/>
</g>
<defs>
<linearGradient id="paint0_linear_168_4092" x1="46.6023" y1="104.001" x2="48.4659" y2="-2.76399" gradientUnits="userSpaceOnUse">
<stop stop-color="#55BDD5"/>
<stop offset="1" stop-color="#4D69D3"/>
</linearGradient>
<linearGradient id="paint1_linear_168_4092" x1="36.9693" y1="102.092" x2="58.821" y2="-0.712639" gradientUnits="userSpaceOnUse">
<stop stop-color="#55BDD5"/>
<stop offset="1" stop-color="#4D69D3"/>
</linearGradient>
<linearGradient id="paint2_linear_168_4092" x1="28.0252" y1="98.4282" x2="68.435" y2="3.22875" gradientUnits="userSpaceOnUse">
<stop stop-color="#55BDD5"/>
<stop offset="1" stop-color="#4D69D3"/>
</linearGradient>
<linearGradient id="paint3_linear_168_4092" x1="20.0821" y1="93.1977" x2="76.9747" y2="8.85102" gradientUnits="userSpaceOnUse">
<stop stop-color="#55BDD5"/>
<stop offset="1" stop-color="#4D69D3"/>
</linearGradient>
<linearGradient id="paint4_linear_168_4092" x1="13.4022" y1="86.6463" x2="84.1554" y2="15.8931" gradientUnits="userSpaceOnUse">
<stop stop-color="#55BDD5"/>
<stop offset="1" stop-color="#4D69D3"/>
</linearGradient>
<linearGradient id="paint5_linear_168_4092" x1="8.19334" y1="79.0611" x2="89.7538" y2="24.0479" gradientUnits="userSpaceOnUse">
<stop stop-color="#55BDD5"/>
<stop offset="1" stop-color="#4D69D3"/>
</linearGradient>
<linearGradient id="paint6_linear_168_4092" x1="4.60252" y1="70.7571" x2="93.6147" y2="32.9737" gradientUnits="userSpaceOnUse">
<stop stop-color="#55BDD5"/>
<stop offset="1" stop-color="#4D69D3"/>
</linearGradient>
<linearGradient id="paint7_linear_168_4092" x1="2.70816" y1="62.0698" x2="95.6507" y2="42.3143" gradientUnits="userSpaceOnUse">
<stop stop-color="#55BDD5"/>
<stop offset="1" stop-color="#4D69D3"/>
</linearGradient>
<linearGradient id="paint8_linear_168_4092" x1="2.52489" y1="53.3343" x2="95.8492" y2="51.7053" gradientUnits="userSpaceOnUse">
<stop stop-color="#55BDD5"/>
<stop offset="1" stop-color="#4D69D3"/>
</linearGradient>
<linearGradient id="paint9_linear_168_4092" x1="3.99859" y1="44.8781" x2="94.2642" y2="60.7944" gradientUnits="userSpaceOnUse">
<stop stop-color="#55BDD5"/>
<stop offset="1" stop-color="#4D69D3"/>
</linearGradient>
<linearGradient id="paint10_linear_168_4092" x1="7.01724" y1="37.0094" x2="91.0187" y2="69.2545" gradientUnits="userSpaceOnUse">
<stop stop-color="#55BDD5"/>
<stop offset="1" stop-color="#4D69D3"/>
</linearGradient>
<linearGradient id="paint11_linear_168_4092" x1="11.413" y1="29.9998" x2="86.2934" y2="76.7902" gradientUnits="userSpaceOnUse">
<stop stop-color="#55BDD5"/>
<stop offset="1" stop-color="#4D69D3"/>
</linearGradient>
<linearGradient id="paint12_linear_168_4092" x1="16.972" y1="24.0809" x2="80.3196" y2="83.1535" gradientUnits="userSpaceOnUse">
<stop stop-color="#55BDD5"/>
<stop offset="1" stop-color="#4D69D3"/>
</linearGradient>
<linearGradient id="paint13_linear_168_4092" x1="23.4399" y1="19.4337" x2="73.3643" y2="88.1488" gradientUnits="userSpaceOnUse">
<stop stop-color="#55BDD5"/>
<stop offset="1" stop-color="#4D69D3"/>
</linearGradient>
<linearGradient id="paint14_linear_168_4092" x1="30.5429" y1="16.1839" x2="65.7285" y2="91.6396" gradientUnits="userSpaceOnUse">
<stop stop-color="#55BDD5"/>
<stop offset="1" stop-color="#4D69D3"/>
</linearGradient>
<linearGradient id="paint15_linear_168_4092" x1="37.99" y1="14.4032" x2="57.725" y2="93.5558" gradientUnits="userSpaceOnUse">
<stop stop-color="#55BDD5"/>
<stop offset="1" stop-color="#4D69D3"/>
</linearGradient>
<linearGradient id="paint16_linear_168_4092" x1="45.4849" y1="14.0979" x2="49.6663" y2="93.8837" gradientUnits="userSpaceOnUse">
<stop stop-color="#55BDD5"/>
<stop offset="1" stop-color="#4D69D3"/>
</linearGradient>
<linearGradient id="paint17_linear_168_4092" x1="52.7458" y1="15.2224" x2="41.8604" y2="92.6761" gradientUnits="userSpaceOnUse">
<stop stop-color="#55BDD5"/>
<stop offset="1" stop-color="#4D69D3"/>
</linearGradient>
<linearGradient id="paint18_linear_168_4092" x1="59.5087" y1="17.6739" x2="34.5915" y2="90.0387" gradientUnits="userSpaceOnUse">
<stop stop-color="#55BDD5"/>
<stop offset="1" stop-color="#4D69D3"/>
</linearGradient>
<linearGradient id="paint19_linear_168_4092" x1="65.5372" y1="21.3076" x2="28.1101" y2="86.1332" gradientUnits="userSpaceOnUse">
<stop stop-color="#55BDD5"/>
<stop offset="1" stop-color="#4D69D3"/>
</linearGradient>
<linearGradient id="paint20_linear_168_4092" x1="70.6351" y1="25.934" x2="22.6288" y2="81.1589" gradientUnits="userSpaceOnUse">
<stop stop-color="#55BDD5"/>
<stop offset="1" stop-color="#4D69D3"/>
</linearGradient>
<linearGradient id="paint21_linear_168_4092" x1="74.6505" y1="31.3355" x2="18.313" y2="75.3512" gradientUnits="userSpaceOnUse">
<stop stop-color="#55BDD5"/>
<stop offset="1" stop-color="#4D69D3"/>
</linearGradient>
<linearGradient id="paint22_linear_168_4092" x1="77.4776" y1="37.2743" x2="15.2738" y2="68.9687" gradientUnits="userSpaceOnUse">
<stop stop-color="#55BDD5"/>
<stop offset="1" stop-color="#4D69D3"/>
</linearGradient>
<linearGradient id="paint23_linear_168_4092" x1="79.0632" y1="43.4983" x2="13.57" y2="62.2782" gradientUnits="userSpaceOnUse">
<stop stop-color="#55BDD5"/>
<stop offset="1" stop-color="#4D69D3"/>
</linearGradient>
<linearGradient id="paint24_linear_168_4092" x1="79.4036" y1="49.758" x2="13.2043" y2="55.5497" gradientUnits="userSpaceOnUse">
<stop stop-color="#55BDD5"/>
<stop offset="1" stop-color="#4D69D3"/>
</linearGradient>
<linearGradient id="paint25_linear_168_4092" x1="78.5451" y1="55.811" x2="14.1282" y2="49.0405" gradientUnits="userSpaceOnUse">
<stop stop-color="#55BDD5"/>
<stop offset="1" stop-color="#4D69D3"/>
</linearGradient>
<linearGradient id="paint26_linear_168_4092" x1="76.5775" y1="61.438" x2="16.243" y2="42.9919" gradientUnits="userSpaceOnUse">
<stop stop-color="#55BDD5"/>
<stop offset="1" stop-color="#4D69D3"/>
</linearGradient>
<linearGradient id="paint27_linear_168_4092" x1="73.6311" y1="66.4425" x2="19.4084" y2="37.6119" gradientUnits="userSpaceOnUse">
<stop stop-color="#55BDD5"/>
<stop offset="1" stop-color="#4D69D3"/>
</linearGradient>
<linearGradient id="paint28_linear_168_4092" x1="69.8712" y1="70.6636" x2="23.4518" y2="33.0739" gradientUnits="userSpaceOnUse">
<stop stop-color="#55BDD5"/>
<stop offset="1" stop-color="#4D69D3"/>
</linearGradient>
<linearGradient id="paint29_linear_168_4092" x1="65.4823" y1="73.9798" x2="28.1684" y2="29.5108" gradientUnits="userSpaceOnUse">
<stop stop-color="#55BDD5"/>
<stop offset="1" stop-color="#4D69D3"/>
</linearGradient>
<linearGradient id="paint30_linear_168_4092" x1="60.6712" y1="76.3084" x2="33.3426" y2="27.0063" gradientUnits="userSpaceOnUse">
<stop stop-color="#55BDD5"/>
<stop offset="1" stop-color="#4D69D3"/>
</linearGradient>
<linearGradient id="paint31_linear_168_4092" x1="55.6448" y1="77.6151" x2="38.7449" y2="25.6025" gradientUnits="userSpaceOnUse">
<stop stop-color="#55BDD5"/>
<stop offset="1" stop-color="#4D69D3"/>
</linearGradient>
<linearGradient id="paint32_linear_168_4092" x1="50.6141" y1="77.9053" x2="44.1539" y2="25.2914" gradientUnits="userSpaceOnUse">
<stop stop-color="#55BDD5"/>
<stop offset="1" stop-color="#4D69D3"/>
</linearGradient>
<linearGradient id="paint33_linear_168_4092" x1="45.7738" y1="77.2252" x2="49.3542" y2="26.0217" gradientUnits="userSpaceOnUse">
<stop stop-color="#55BDD5"/>
<stop offset="1" stop-color="#4D69D3"/>
</linearGradient>
<linearGradient id="paint34_linear_168_4092" x1="41.3076" y1="75.6603" x2="54.1574" y2="27.7038" gradientUnits="userSpaceOnUse">
<stop stop-color="#55BDD5"/>
<stop offset="1" stop-color="#4D69D3"/>
</linearGradient>
<linearGradient id="paint35_linear_168_4092" x1="37.3669" y1="73.3265" x2="58.3946" y2="30.2134" gradientUnits="userSpaceOnUse">
<stop stop-color="#55BDD5"/>
<stop offset="1" stop-color="#4D69D3"/>
</linearGradient>
<linearGradient id="paint36_linear_168_4092" x1="34.075" y1="70.3636" x2="61.9314" y2="33.3969" gradientUnits="userSpaceOnUse">
<stop stop-color="#55BDD5"/>
<stop offset="1" stop-color="#4D69D3"/>
</linearGradient>
<linearGradient id="paint37_linear_168_4092" x1="31.5243" y1="66.9323" x2="64.6737" y2="37.0844" gradientUnits="userSpaceOnUse">
<stop stop-color="#55BDD5"/>
<stop offset="1" stop-color="#4D69D3"/>
</linearGradient>
<linearGradient id="paint38_linear_168_4092" x1="29.7672" y1="63.2024" x2="66.5624" y2="41.0936" gradientUnits="userSpaceOnUse">
<stop stop-color="#55BDD5"/>
<stop offset="1" stop-color="#4D69D3"/>
</linearGradient>
<linearGradient id="paint39_linear_168_4092" x1="28.8208" y1="59.3475" x2="67.5795" y2="45.2405" gradientUnits="userSpaceOnUse">
<stop stop-color="#55BDD5"/>
<stop offset="1" stop-color="#4D69D3"/>
</linearGradient>
<linearGradient id="paint40_linear_168_4092" x1="28.668" y1="55.5312" x2="67.7467" y2="49.3417" gradientUnits="userSpaceOnUse">
<stop stop-color="#55BDD5"/>
<stop offset="1" stop-color="#4D69D3"/>
</linearGradient>
<linearGradient id="paint41_linear_168_4092" x1="29.2529" y1="51.9114" x2="67.1152" y2="53.2336" gradientUnits="userSpaceOnUse">
<stop stop-color="#55BDD5"/>
<stop offset="1" stop-color="#4D69D3"/>
</linearGradient>
<linearGradient id="paint42_linear_168_4092" x1="30.4994" y1="48.6226" x2="65.7764" y2="56.767" gradientUnits="userSpaceOnUse">
<stop stop-color="#55BDD5"/>
<stop offset="1" stop-color="#4D69D3"/>
</linearGradient>
<linearGradient id="paint43_linear_168_4092" x1="32.3009" y1="45.782" x2="63.8406" y2="59.8244" gradientUnits="userSpaceOnUse">
<stop stop-color="#55BDD5"/>
<stop offset="1" stop-color="#4D69D3"/>
</linearGradient>
<linearGradient id="paint44_linear_168_4092" x1="34.5347" y1="43.4705" x2="61.439" y2="62.3092" gradientUnits="userSpaceOnUse">
<stop stop-color="#55BDD5"/>
<stop offset="1" stop-color="#4D69D3"/>
</linearGradient>
<linearGradient id="paint45_linear_168_4092" x1="37.0671" y1="41.7446" x2="58.7153" y2="64.162" gradientUnits="userSpaceOnUse">
<stop stop-color="#55BDD5"/>
<stop offset="1" stop-color="#4D69D3"/>
</linearGradient>
<linearGradient id="paint46_linear_168_4092" x1="39.7608" y1="40.6319" x2="55.8186" y2="65.3587" gradientUnits="userSpaceOnUse">
<stop stop-color="#55BDD5"/>
<stop offset="1" stop-color="#4D69D3"/>
</linearGradient>
<linearGradient id="paint47_linear_168_4092" x1="42.4802" y1="40.1255" x2="52.8954" y2="65.9039" gradientUnits="userSpaceOnUse">
<stop stop-color="#55BDD5"/>
<stop offset="1" stop-color="#4D69D3"/>
</linearGradient>
<linearGradient id="paint48_linear_168_4092" x1="45.0981" y1="40.1909" x2="50.0825" y2="65.8335" gradientUnits="userSpaceOnUse">
<stop stop-color="#55BDD5"/>
<stop offset="1" stop-color="#4D69D3"/>
</linearGradient>
<linearGradient id="paint49_linear_168_4092" x1="47.5001" y1="40.7686" x2="47.5001" y2="65.2107" gradientUnits="userSpaceOnUse">
<stop stop-color="#55BDD5"/>
<stop offset="1" stop-color="#4D69D3"/>
</linearGradient>
</defs>
</svg>
